<?xml version="1.0" encoding="UTF-8" standalone="no"?>
<!DOCTYPE svg PUBLIC "-//W3C//DTD SVG 1.1//EN"
 "http://www.w3.org/Graphics/SVG/1.1/DTD/svg11.dtd">
<!-- Generated by graphviz version 2.40.1 (20161225.0304)
 -->
<!-- Title: g Pages: 1 -->
<svg width="417pt" height="1576pt"
 viewBox="0.00 0.00 417.00 1576.00" xmlns="http://www.w3.org/2000/svg" xmlns:xlink="http://www.w3.org/1999/xlink">
<g id="graph0" class="graph" transform="scale(1 1) rotate(0) translate(4 1572)">
<title>g</title>
<polygon fill="#ffffff" stroke="transparent" points="-4,4 -4,-1572 413,-1572 413,4 -4,4"/>
<!-- aecxcore -->
<g id="node1" class="node">
<title>aecxcore</title>
<polygon fill="none" stroke="#000000" points="0,-1140 0,-1278 122,-1278 122,-1140 0,-1140"/>
<text text-anchor="middle" x="61" y="-1262.8" font-family="Times,serif" font-size="14.00" fill="#000000">arbitration</text>
<polyline fill="none" stroke="#000000" points="0,-1255 122,-1255 "/>
<text text-anchor="start" x="8" y="-1239.8" font-family="Times,serif" font-size="14.00" fill="#000000">base</text>
<polyline fill="none" stroke="#000000" points="0,-1232 122,-1232 "/>
<text text-anchor="start" x="8" y="-1216.8" font-family="Times,serif" font-size="14.00" fill="#000000">convergence</text>
<polyline fill="none" stroke="#000000" points="0,-1209 122,-1209 "/>
<text text-anchor="start" x="8" y="-1193.8" font-family="Times,serif" font-size="14.00" fill="#000000">extension</text>
<polyline fill="none" stroke="#000000" points="0,-1186 122,-1186 "/>
<text text-anchor="start" x="8" y="-1170.8" font-family="Times,serif" font-size="14.00" fill="#000000">metering</text>
<polyline fill="none" stroke="#000000" points="0,-1163 122,-1163 "/>
<text text-anchor="start" x="8" y="-1147.8" font-family="Times,serif" font-size="14.00" fill="#000000">statsprocessor</text>
</g>
<!-- node0 -->
<g id="node2" class="node">
<title>node0</title>
<polygon fill="none" stroke="#000000" points="185,-1498.5 185,-1567.5 382,-1567.5 382,-1498.5 185,-1498.5"/>
<text text-anchor="middle" x="283.5" y="-1552.3" font-family="Times,serif" font-size="14.00" fill="#000000">*arbitration* </text>
<polyline fill="none" stroke="#000000" points="185,-1544.5 382,-1544.5 "/>
<text text-anchor="start" x="193" y="-1529.3" font-family="Times,serif" font-size="14.00" fill="#000000">caecxmodarbitration.cpp</text>
<polyline fill="none" stroke="#000000" points="185,-1521.5 382,-1521.5 "/>
<text text-anchor="start" x="193" y="-1506.3" font-family="Times,serif" font-size="14.00" fill="#000000">caecxmodarbitration.h</text>
</g>
<!-- aecxcore&#45;&gt;node0 -->
<g id="1" class="edge">
<title>aecxcore:f0&#45;&gt;node0:f0</title>
<path fill="none" stroke="#000000" d="M122,-1267C183.9852,-1267 126.1679,-1524.1889 174.5817,-1553.3236"/>
<polygon fill="#000000" stroke="#000000" points="173.9335,-1556.7738 184.5,-1556 175.7572,-1550.0155 173.9335,-1556.7738"/>
</g>
<!-- node1 -->
<g id="node3" class="node">
<title>node1</title>
<polygon fill="none" stroke="#000000" points="191,-1318.5 191,-1479.5 376,-1479.5 376,-1318.5 191,-1318.5"/>
<text text-anchor="middle" x="283.5" y="-1464.3" font-family="Times,serif" font-size="14.00" fill="#000000">*base* </text>
<polyline fill="none" stroke="#000000" points="191,-1456.5 376,-1456.5 "/>
<text text-anchor="start" x="199" y="-1441.3" font-family="Times,serif" font-size="14.00" fill="#000000">caecxbankmanager.cpp</text>
<polyline fill="none" stroke="#000000" points="191,-1433.5 376,-1433.5 "/>
<text text-anchor="start" x="199" y="-1418.3" font-family="Times,serif" font-size="14.00" fill="#000000">caecxbankmanager.h</text>
<polyline fill="none" stroke="#000000" points="191,-1410.5 376,-1410.5 "/>
<text text-anchor="start" x="199" y="-1395.3" font-family="Times,serif" font-size="14.00" fill="#000000">caeccommon.h</text>
<polyline fill="none" stroke="#000000" points="191,-1387.5 376,-1387.5 "/>
<text text-anchor="start" x="199" y="-1372.3" font-family="Times,serif" font-size="14.00" fill="#000000">caecxhistory.cpp</text>
<polyline fill="none" stroke="#000000" points="191,-1364.5 376,-1364.5 "/>
<text text-anchor="start" x="199" y="-1349.3" font-family="Times,serif" font-size="14.00" fill="#000000">caecxhistory.h</text>
<polyline fill="none" stroke="#000000" points="191,-1341.5 376,-1341.5 "/>
<text text-anchor="start" x="199" y="-1326.3" font-family="Times,serif" font-size="14.00" fill="#000000">caecxtrigger.cpp</text>
</g>
<!-- aecxcore&#45;&gt;node1 -->
<g id="1" class="edge">
<title>aecxcore:f1&#45;&gt;node1:f0</title>
<path fill="none" stroke="#000000" d="M122,-1244C170.3933,-1244 143.0205,-1437.6074 180.7592,-1464.8335"/>
<polygon fill="#000000" stroke="#000000" points="179.9078,-1468.2369 190.5,-1468 182.0719,-1461.5798 179.9078,-1468.2369"/>
</g>
<!-- node2 -->
<g id="node4" class="node">
<title>node2</title>
<polygon fill="none" stroke="#000000" points="171.5,-1161 171.5,-1299 395.5,-1299 395.5,-1161 171.5,-1161"/>
<text text-anchor="middle" x="283.5" y="-1283.8" font-family="Times,serif" font-size="14.00" fill="#000000">*convergence* </text>
<polyline fill="none" stroke="#000000" points="171.5,-1276 395.5,-1276 "/>
<text text-anchor="start" x="179.5" y="-1260.8" font-family="Times,serif" font-size="14.00" fill="#000000">caecxconveventmanager.cpp</text>
<polyline fill="none" stroke="#000000" points="171.5,-1253 395.5,-1253 "/>
<text text-anchor="start" x="179.5" y="-1237.8" font-family="Times,serif" font-size="14.00" fill="#000000">caecxconveventmanager.h</text>
<polyline fill="none" stroke="#000000" points="171.5,-1230 395.5,-1230 "/>
<text text-anchor="start" x="179.5" y="-1214.8" font-family="Times,serif" font-size="14.00" fill="#000000">caecxmodconvergence.cpp</text>
<polyline fill="none" stroke="#000000" points="171.5,-1207 395.5,-1207 "/>
<text text-anchor="start" x="179.5" y="-1191.8" font-family="Times,serif" font-size="14.00" fill="#000000">caecxmodconvergence.h</text>
<polyline fill="none" stroke="#000000" points="171.5,-1184 395.5,-1184 "/>
<text text-anchor="middle" x="283.5" y="-1168.8" font-family="Times,serif" font-size="14.00" fill="#000000"> </text>
</g>
<!-- aecxcore&#45;&gt;node2 -->
<g id="1" class="edge">
<title>aecxcore:f2&#45;&gt;node2:f0</title>
<path fill="none" stroke="#000000" d="M122,-1221C155.1184,-1221 138.9697,-1274.6125 161.6958,-1285.9214"/>
<polygon fill="#000000" stroke="#000000" points="160.9915,-1289.3498 171.5,-1288 162.4434,-1282.502 160.9915,-1289.3498"/>
</g>
<!-- node3 -->
<g id="node5" class="node">
<title>node3</title>
<polygon fill="none" stroke="#000000" points="161,-958 161,-1142 406,-1142 406,-958 161,-958"/>
<text text-anchor="middle" x="283.5" y="-1126.8" font-family="Times,serif" font-size="14.00" fill="#000000">extension </text>
<polyline fill="none" stroke="#000000" points="161,-1119 406,-1119 "/>
<text text-anchor="start" x="169" y="-1103.8" font-family="Times,serif" font-size="14.00" fill="#000000">caecxcamsync.cpp</text>
<polyline fill="none" stroke="#000000" points="161,-1096 406,-1096 "/>
<text text-anchor="start" x="169" y="-1080.8" font-family="Times,serif" font-size="14.00" fill="#000000">caecxcamsync.h</text>
<polyline fill="none" stroke="#000000" points="161,-1073 406,-1073 "/>
<text text-anchor="start" x="169" y="-1057.8" font-family="Times,serif" font-size="14.00" fill="#000000">caecxextensionmonitor.cpp</text>
<polyline fill="none" stroke="#000000" points="161,-1050 406,-1050 "/>
<text text-anchor="start" x="169" y="-1034.8" font-family="Times,serif" font-size="14.00" fill="#000000">caecxextensionmonitor.h</text>
<polyline fill="none" stroke="#000000" points="161,-1027 406,-1027 "/>
<text text-anchor="start" x="169" y="-1011.8" font-family="Times,serif" font-size="14.00" fill="#000000">caecxflashcurrentestimator.cpp</text>
<polyline fill="none" stroke="#000000" points="161,-1004 406,-1004 "/>
<text text-anchor="start" x="169" y="-988.8" font-family="Times,serif" font-size="14.00" fill="#000000">caecxmodextension.cpp</text>
<polyline fill="none" stroke="#000000" points="161,-981 406,-981 "/>
<text text-anchor="start" x="169" y="-965.8" font-family="Times,serif" font-size="14.00" fill="#000000">caecxmodextension.h</text>
</g>
<!-- aecxcore&#45;&gt;node3 -->
<g id="1" class="edge">
<title>aecxcore:f3&#45;&gt;node3:f0</title>
<path fill="none" stroke="#000000" d="M122,-1197C151.7144,-1197 132.9051,-1146.4688 150.4885,-1133.8359"/>
<polygon fill="#000000" stroke="#000000" points="151.8325,-1137.093 160.5,-1131 149.9246,-1130.358 151.8325,-1137.093"/>
</g>
<!-- node4 -->
<g id="node6" class="node">
<title>node4</title>
<polygon fill="none" stroke="#000000" points="158,-272.5 158,-939.5 409,-939.5 409,-272.5 158,-272.5"/>
<text text-anchor="middle" x="283.5" y="-924.3" font-family="Times,serif" font-size="14.00" fill="#000000">metering </text>
<polyline fill="none" stroke="#000000" points="158,-916.5 409,-916.5 "/>
<text text-anchor="start" x="166" y="-901.3" font-family="Times,serif" font-size="14.00" fill="#000000">caecx1dvectormanager.cpp </text>
<polyline fill="none" stroke="#000000" points="158,-893.5 409,-893.5 "/>
<text text-anchor="start" x="166" y="-878.3" font-family="Times,serif" font-size="14.00" fill="#000000">caecx1dvectormanager.h</text>
<polyline fill="none" stroke="#000000" points="158,-870.5 409,-870.5 "/>
<text text-anchor="start" x="166" y="-855.3" font-family="Times,serif" font-size="14.00" fill="#000000">caecx1dvectorprocessor.cpp</text>
<polyline fill="none" stroke="#000000" points="158,-847.5 409,-847.5 "/>
<text text-anchor="start" x="166" y="-832.3" font-family="Times,serif" font-size="14.00" fill="#000000">caecx1dvectorprocessor.h</text>
<polyline fill="none" stroke="#000000" points="158,-824.5 409,-824.5 "/>
<text text-anchor="start" x="166" y="-809.3" font-family="Times,serif" font-size="14.00" fill="#000000">caecxanalyzer.cpp</text>
<polyline fill="none" stroke="#000000" points="158,-801.5 409,-801.5 "/>
<text text-anchor="start" x="166" y="-786.3" font-family="Times,serif" font-size="14.00" fill="#000000">caecxanalyzer.h</text>
<polyline fill="none" stroke="#000000" points="158,-778.5 409,-778.5 "/>
<text text-anchor="start" x="166" y="-763.3" font-family="Times,serif" font-size="14.00" fill="#000000">caecxanalyzeralgorithm001.cpp</text>
<polyline fill="none" stroke="#000000" points="158,-755.5 409,-755.5 "/>
<text text-anchor="start" x="166" y="-740.3" font-family="Times,serif" font-size="14.00" fill="#000000">caecxanalyzeralgorithm001.h</text>
<polyline fill="none" stroke="#000000" points="158,-732.5 409,-732.5 "/>
<text text-anchor="start" x="166" y="-717.3" font-family="Times,serif" font-size="14.00" fill="#000000">caecxanalyzeralgorithm002.cpp</text>
<polyline fill="none" stroke="#000000" points="158,-709.5 409,-709.5 "/>
<text text-anchor="start" x="166" y="-694.3" font-family="Times,serif" font-size="14.00" fill="#000000">caecxanalyzeralgorithm002.h</text>
<polyline fill="none" stroke="#000000" points="158,-686.5 409,-686.5 "/>
<text text-anchor="start" x="166" y="-671.3" font-family="Times,serif" font-size="14.00" fill="#000000">caecxanalyzeralgorithm003.cpp</text>
<polyline fill="none" stroke="#000000" points="158,-663.5 409,-663.5 "/>
<text text-anchor="start" x="166" y="-648.3" font-family="Times,serif" font-size="14.00" fill="#000000">caecxanalyzeralgorithm003.h</text>
<polyline fill="none" stroke="#000000" points="158,-640.5 409,-640.5 "/>
<text text-anchor="start" x="166" y="-625.3" font-family="Times,serif" font-size="14.00" fill="#000000">caecxanalyzeralgorithm004.cpp</text>
<polyline fill="none" stroke="#000000" points="158,-617.5 409,-617.5 "/>
<text text-anchor="start" x="166" y="-602.3" font-family="Times,serif" font-size="14.00" fill="#000000">caecxanalyzeralgorithm004.h</text>
<polyline fill="none" stroke="#000000" points="158,-594.5 409,-594.5 "/>
<text text-anchor="start" x="166" y="-579.3" font-family="Times,serif" font-size="14.00" fill="#000000">caecxanalyzeralgorithm101.cpp</text>
<polyline fill="none" stroke="#000000" points="158,-571.5 409,-571.5 "/>
<text text-anchor="start" x="166" y="-556.3" font-family="Times,serif" font-size="14.00" fill="#000000">caecxanalyzeralgorithm101.h</text>
<polyline fill="none" stroke="#000000" points="158,-548.5 409,-548.5 "/>
<text text-anchor="start" x="166" y="-533.3" font-family="Times,serif" font-size="14.00" fill="#000000">caecxanalyzeralgorithmfactory.h</text>
<polyline fill="none" stroke="#000000" points="158,-525.5 409,-525.5 "/>
<text text-anchor="start" x="166" y="-510.3" font-family="Times,serif" font-size="14.00" fill="#000000">caecxanalyzermanager.cpp</text>
<polyline fill="none" stroke="#000000" points="158,-502.5 409,-502.5 "/>
<text text-anchor="start" x="166" y="-487.3" font-family="Times,serif" font-size="14.00" fill="#000000">caecxanalyzermanager.h</text>
<polyline fill="none" stroke="#000000" points="158,-479.5 409,-479.5 "/>
<text text-anchor="start" x="166" y="-464.3" font-family="Times,serif" font-size="14.00" fill="#000000">caecxcalculatormanager.cpp</text>
<polyline fill="none" stroke="#000000" points="158,-456.5 409,-456.5 "/>
<text text-anchor="start" x="166" y="-441.3" font-family="Times,serif" font-size="14.00" fill="#000000">caecxcalculatormanager.h</text>
<polyline fill="none" stroke="#000000" points="158,-433.5 409,-433.5 "/>
<text text-anchor="start" x="166" y="-418.3" font-family="Times,serif" font-size="14.00" fill="#000000">caecxexternalmapprocessor.cpp</text>
<polyline fill="none" stroke="#000000" points="158,-410.5 409,-410.5 "/>
<text text-anchor="start" x="166" y="-395.3" font-family="Times,serif" font-size="14.00" fill="#000000">caecxexternalmapprocessor.h</text>
<polyline fill="none" stroke="#000000" points="158,-387.5 409,-387.5 "/>
<text text-anchor="start" x="166" y="-372.3" font-family="Times,serif" font-size="14.00" fill="#000000">caecxextmapmanager.cpp</text>
<polyline fill="none" stroke="#000000" points="158,-364.5 409,-364.5 "/>
<text text-anchor="start" x="166" y="-349.3" font-family="Times,serif" font-size="14.00" fill="#000000">caecxextmapmanager.h</text>
<polyline fill="none" stroke="#000000" points="158,-341.5 409,-341.5 "/>
<text text-anchor="start" x="166" y="-326.3" font-family="Times,serif" font-size="14.00" fill="#000000">caecxmodmetering.cpp</text>
<polyline fill="none" stroke="#000000" points="158,-318.5 409,-318.5 "/>
<text text-anchor="start" x="166" y="-303.3" font-family="Times,serif" font-size="14.00" fill="#000000">caecxmodmetering.h</text>
<polyline fill="none" stroke="#000000" points="158,-295.5 409,-295.5 "/>
<text text-anchor="start" x="166" y="-280.3" font-family="Times,serif" font-size="14.00" fill="#000000">iaecxanalyzeralgorithm.h</text>
</g>
<!-- aecxcore&#45;&gt;node4 -->
<g id="1" class="edge">
<title>aecxcore:f4&#45;&gt;node4:f0</title>
<path fill="none" stroke="#000000" d="M122,-1174C173.3642,-1174 112.5859,-961.3776 148.1801,-931.4775"/>
<polygon fill="#000000" stroke="#000000" points="149.742,-934.6375 158,-928 147.4052,-928.039 149.742,-934.6375"/>
</g>
<!-- node5 -->
<g id="node7" class="node">
<title>node5</title>
<polygon fill="none" stroke="#000000" points="163,-.5 163,-253.5 404,-253.5 404,-.5 163,-.5"/>
<text text-anchor="middle" x="283.5" y="-238.3" font-family="Times,serif" font-size="14.00" fill="#000000">statsprocessor</text>
<polyline fill="none" stroke="#000000" points="163,-230.5 404,-230.5 "/>
<text text-anchor="start" x="171" y="-215.3" font-family="Times,serif" font-size="14.00" fill="#000000">caecxcontextmanager.cpp</text>
<polyline fill="none" stroke="#000000" points="163,-207.5 404,-207.5 "/>
<text text-anchor="start" x="171" y="-192.3" font-family="Times,serif" font-size="14.00" fill="#000000">caecxcontextmanager.h</text>
<polyline fill="none" stroke="#000000" points="163,-184.5 404,-184.5 "/>
<text text-anchor="start" x="171" y="-169.3" font-family="Times,serif" font-size="14.00" fill="#000000">caecxcore.cpp</text>
<polyline fill="none" stroke="#000000" points="163,-161.5 404,-161.5 "/>
<text text-anchor="start" x="171" y="-146.3" font-family="Times,serif" font-size="14.00" fill="#000000">caecxcore.h</text>
<polyline fill="none" stroke="#000000" points="163,-138.5 404,-138.5 "/>
<text text-anchor="start" x="171" y="-123.3" font-family="Times,serif" font-size="14.00" fill="#000000">caecxcorefactory.cpp</text>
<polyline fill="none" stroke="#000000" points="163,-115.5 404,-115.5 "/>
<text text-anchor="start" x="171" y="-100.3" font-family="Times,serif" font-size="14.00" fill="#000000">caecxmtrtablegen.cpp</text>
<polyline fill="none" stroke="#000000" points="163,-92.5 404,-92.5 "/>
<text text-anchor="start" x="171" y="-77.3" font-family="Times,serif" font-size="14.00" fill="#000000">caecxmtrtablegen.h</text>
<polyline fill="none" stroke="#000000" points="163,-69.5 404,-69.5 "/>
<text text-anchor="start" x="171" y="-54.3" font-family="Times,serif" font-size="14.00" fill="#000000">caecxscenechangedetector.cpp</text>
<polyline fill="none" stroke="#000000" points="163,-46.5 404,-46.5 "/>
<text text-anchor="start" x="171" y="-31.3" font-family="Times,serif" font-size="14.00" fill="#000000">caecxscenechangedetector.h</text>
<polyline fill="none" stroke="#000000" points="163,-23.5 404,-23.5 "/>
<text text-anchor="start" x="171" y="-8.3" font-family="Times,serif" font-size="14.00" fill="#000000">iaecxcontextmanager.h</text>
</g>
<!-- aecxcore&#45;&gt;node5 -->
<g id="1" class="edge">
<title>aecxcore:f5&#45;&gt;node5:f0</title>
<path fill="none" stroke="#000000" d="M61,-1140C61,-1042.9209 62.0159,-294.1962 152.8228,-244.5832"/>
<polygon fill="#000000" stroke="#000000" points="153.741,-247.9607 162.5,-242 151.9356,-241.1975 153.741,-247.9607"/>
</g>
</g>
</svg>
