<?xml version="1.0" encoding="UTF-8" standalone="no"?><svg xmlns="http://www.w3.org/2000/svg" xmlns:xlink="http://www.w3.org/1999/xlink" contentScriptType="application/ecmascript" contentStyleType="text/css" height="832px" preserveAspectRatio="none" style="width:1848px;height:832px;" version="1.1" viewBox="0 0 1848 832" width="1848px" zoomAndPan="magnify"><defs><filter height="300%" id="f16" width="300%" x="-1" y="-1"><feGaussianBlur result="blurOut" stdDeviation="2.0"/><feColorMatrix in="blurOut" result="blurOut2" type="matrix" values="0 0 0 0 0 0 0 0 0 0 0 0 0 0 0 0 0 0 .4 0"/><feOffset dx="4.0" dy="4.0" in="blurOut2" result="blurOut3"/><feBlend in="SourceGraphic" in2="blurOut3" mode="normal"/></filter></defs><g><!--MD5=[ba6d692aa1b544a47d206bb972bf9980]
class IAECXCore--><rect fill="#FEFECE" filter="url(#f16)" height="48" id="IAECXCore" style="stroke: #A80036; stroke-width: 1.5;" width="95" x="658.5" y="328"/><ellipse cx="673.5" cy="344" fill="#ADD1B2" rx="11" ry="11" style="stroke: #A80036; stroke-width: 1.0;"/><path d="M676.4688,349.6406 Q675.8906,349.9375 675.25,350.0781 Q674.6094,350.2344 673.9063,350.2344 Q671.4063,350.2344 670.0781,348.5938 Q668.7656,346.9375 668.7656,343.8125 Q668.7656,340.6875 670.0781,339.0313 Q671.4063,337.375 673.9063,337.375 Q674.6094,337.375 675.25,337.5313 Q675.9063,337.6875 676.4688,337.9844 L676.4688,340.7031 Q675.8438,340.125 675.25,339.8594 Q674.6563,339.5781 674.0313,339.5781 Q672.6875,339.5781 672,340.6563 Q671.3125,341.7188 671.3125,343.8125 Q671.3125,345.9063 672,346.9844 Q672.6875,348.0469 674.0313,348.0469 Q674.6563,348.0469 675.25,347.7813 Q675.8438,347.5 676.4688,346.9219 L676.4688,349.6406 Z "/><text fill="#000000" font-family="sans-serif" font-size="12" lengthAdjust="spacingAndGlyphs" textLength="63" x="687.5" y="348.1543">IAECXCore</text><line style="stroke: #A80036; stroke-width: 1.5;" x1="659.5" x2="752.5" y1="360" y2="360"/><line style="stroke: #A80036; stroke-width: 1.5;" x1="659.5" x2="752.5" y1="368" y2="368"/><!--MD5=[ecdc42377962e3e1a3d35dc91127c590]
class CAECXCore--><rect fill="#FEFECE" filter="url(#f16)" height="688.2344" id="CAECXCore" style="stroke: #A80036; stroke-width: 1.5;" width="213" x="788.5" y="8"/><ellipse cx="856.75" cy="24" fill="#ADD1B2" rx="11" ry="11" style="stroke: #A80036; stroke-width: 1.0;"/><path d="M859.7188,29.6406 Q859.1406,29.9375 858.5,30.0781 Q857.8594,30.2344 857.1563,30.2344 Q854.6563,30.2344 853.3281,28.5938 Q852.0156,26.9375 852.0156,23.8125 Q852.0156,20.6875 853.3281,19.0313 Q854.6563,17.375 857.1563,17.375 Q857.8594,17.375 858.5,17.5313 Q859.1563,17.6875 859.7188,17.9844 L859.7188,20.7031 Q859.0938,20.125 858.5,19.8594 Q857.9063,19.5781 857.2813,19.5781 Q855.9375,19.5781 855.25,20.6563 Q854.5625,21.7188 854.5625,23.8125 Q854.5625,25.9063 855.25,26.9844 Q855.9375,28.0469 857.2813,28.0469 Q857.9063,28.0469 858.5,27.7813 Q859.0938,27.5 859.7188,26.9219 L859.7188,29.6406 Z "/><text fill="#000000" font-family="sans-serif" font-size="12" lengthAdjust="spacingAndGlyphs" textLength="68" x="877.25" y="28.1543">CAECXCore</text><line style="stroke: #A80036; stroke-width: 1.5;" x1="789.5" x2="1000.5" y1="40" y2="40"/><ellipse cx="799.5" cy="51" fill="none" rx="3" ry="3" style="stroke: #038048; stroke-width: 1.0;"/><text fill="#000000" font-family="sans-serif" font-size="11" lengthAdjust="spacingAndGlyphs" textLength="46" x="808.5" y="54.2104">setInput</text><ellipse cx="799.5" cy="63.8047" fill="none" rx="3" ry="3" style="stroke: #038048; stroke-width: 1.0;"/><text fill="#000000" font-family="sans-serif" font-size="11" lengthAdjust="spacingAndGlyphs" textLength="72" x="808.5" y="67.0151">setBankData</text><ellipse cx="799.5" cy="76.6094" fill="none" rx="3" ry="3" style="stroke: #038048; stroke-width: 1.0;"/><text fill="#000000" font-family="sans-serif" font-size="11" lengthAdjust="spacingAndGlyphs" textLength="120" x="808.5" y="79.8198">setDynamicBankData</text><ellipse cx="799.5" cy="89.4141" fill="none" rx="3" ry="3" style="stroke: #038048; stroke-width: 1.0;"/><text fill="#000000" font-family="sans-serif" font-size="11" lengthAdjust="spacingAndGlyphs" textLength="72" x="808.5" y="92.6245">getBankData</text><ellipse cx="799.5" cy="102.2188" fill="none" rx="3" ry="3" style="stroke: #038048; stroke-width: 1.0;"/><text fill="#000000" font-family="sans-serif" font-size="11" lengthAdjust="spacingAndGlyphs" textLength="93" x="808.5" y="105.4292">SetContextEvent</text><ellipse cx="799.5" cy="115.0234" fill="none" rx="3" ry="3" style="stroke: #038048; stroke-width: 1.0;"/><text fill="#000000" font-family="sans-serif" font-size="11" lengthAdjust="spacingAndGlyphs" textLength="94" x="808.5" y="118.2339">GetContextEvent</text><ellipse cx="799.5" cy="127.8281" fill="none" rx="3" ry="3" style="stroke: #038048; stroke-width: 1.0;"/><text fill="#000000" font-family="sans-serif" font-size="11" lengthAdjust="spacingAndGlyphs" textLength="100" x="808.5" y="131.0386">GetContextStatus</text><ellipse cx="799.5" cy="140.6328" fill="none" rx="3" ry="3" style="stroke: #038048; stroke-width: 1.0;"/><text fill="#000000" font-family="sans-serif" font-size="11" lengthAdjust="spacingAndGlyphs" textLength="48" x="808.5" y="143.8433">setStats</text><ellipse cx="799.5" cy="153.4375" fill="none" rx="3" ry="3" style="stroke: #038048; stroke-width: 1.0;"/><text fill="#000000" font-family="sans-serif" font-size="11" lengthAdjust="spacingAndGlyphs" textLength="96" x="808.5" y="156.6479">runStartOfFrame</text><ellipse cx="799.5" cy="166.2422" fill="none" rx="3" ry="3" style="stroke: #038048; stroke-width: 1.0;"/><text fill="#000000" font-family="sans-serif" font-size="11" lengthAdjust="spacingAndGlyphs" textLength="133" x="808.5" y="169.4526">runMeteringPreprocess</text><ellipse cx="799.5" cy="179.0469" fill="none" rx="3" ry="3" style="stroke: #038048; stroke-width: 1.0;"/><text fill="#000000" font-family="sans-serif" font-size="11" lengthAdjust="spacingAndGlyphs" textLength="139" x="808.5" y="182.2573">runMeteringPostprocess</text><ellipse cx="799.5" cy="191.8516" fill="none" rx="3" ry="3" style="stroke: #038048; stroke-width: 1.0;"/><text fill="#000000" font-family="sans-serif" font-size="11" lengthAdjust="spacingAndGlyphs" textLength="66" x="808.5" y="195.062">runAnalyzer</text><ellipse cx="799.5" cy="204.6563" fill="none" rx="3" ry="3" style="stroke: #038048; stroke-width: 1.0;"/><text fill="#000000" font-family="sans-serif" font-size="11" lengthAdjust="spacingAndGlyphs" textLength="127" x="808.5" y="207.8667">updateAnalyzerMgrOut</text><ellipse cx="799.5" cy="217.4609" fill="none" rx="3" ry="3" style="stroke: #038048; stroke-width: 1.0;"/><text fill="#000000" font-family="sans-serif" font-size="11" lengthAdjust="spacingAndGlyphs" textLength="95" x="808.5" y="220.6714">RunConvProcess</text><ellipse cx="799.5" cy="230.2656" fill="none" rx="3" ry="3" style="stroke: #038048; stroke-width: 1.0;"/><text fill="#000000" font-family="sans-serif" font-size="11" lengthAdjust="spacingAndGlyphs" textLength="158" x="808.5" y="233.4761">HandleExposureConstraints</text><ellipse cx="799.5" cy="243.0703" fill="none" rx="3" ry="3" style="stroke: #038048; stroke-width: 1.0;"/><text fill="#000000" font-family="sans-serif" font-size="11" lengthAdjust="spacingAndGlyphs" textLength="82" x="808.5" y="246.2808">RunConvSettle</text><ellipse cx="799.5" cy="255.875" fill="none" rx="3" ry="3" style="stroke: #038048; stroke-width: 1.0;"/><text fill="#000000" font-family="sans-serif" font-size="11" lengthAdjust="spacingAndGlyphs" textLength="120" x="808.5" y="259.0854">RunConvPostProcess</text><ellipse cx="799.5" cy="268.6797" fill="none" rx="3" ry="3" style="stroke: #038048; stroke-width: 1.0;"/><text fill="#000000" font-family="sans-serif" font-size="11" lengthAdjust="spacingAndGlyphs" textLength="78" x="808.5" y="271.8901">runArbitration</text><ellipse cx="799.5" cy="281.4844" fill="none" rx="3" ry="3" style="stroke: #038048; stroke-width: 1.0;"/><text fill="#000000" font-family="sans-serif" font-size="11" lengthAdjust="spacingAndGlyphs" textLength="74" x="808.5" y="284.6948">runExtension</text><ellipse cx="799.5" cy="294.2891" fill="none" rx="3" ry="3" style="stroke: #038048; stroke-width: 1.0;"/><text fill="#000000" font-family="sans-serif" font-size="11" lengthAdjust="spacingAndGlyphs" textLength="91" x="808.5" y="297.4995">getFlashCurrent</text><ellipse cx="799.5" cy="307.0938" fill="none" rx="3" ry="3" style="stroke: #038048; stroke-width: 1.0;"/><text fill="#000000" font-family="sans-serif" font-size="11" lengthAdjust="spacingAndGlyphs" textLength="149" x="808.5" y="310.3042">isPreflashMeteringNeeded</text><ellipse cx="799.5" cy="319.8984" fill="none" rx="3" ry="3" style="stroke: #038048; stroke-width: 1.0;"/><text fill="#000000" font-family="sans-serif" font-size="11" lengthAdjust="spacingAndGlyphs" textLength="89" x="808.5" y="323.1089">runEndOfFrame</text><ellipse cx="799.5" cy="332.7031" fill="none" rx="3" ry="3" style="stroke: #038048; stroke-width: 1.0;"/><text fill="#000000" font-family="sans-serif" font-size="11" lengthAdjust="spacingAndGlyphs" textLength="85" x="808.5" y="335.9136">queryMetaData</text><ellipse cx="799.5" cy="345.5078" fill="none" rx="3" ry="3" style="stroke: #038048; stroke-width: 1.0;"/><text fill="#000000" font-family="sans-serif" font-size="11" lengthAdjust="spacingAndGlyphs" textLength="69" x="808.5" y="348.7183">mixMetering</text><ellipse cx="799.5" cy="358.3125" fill="none" rx="3" ry="3" style="stroke: #038048; stroke-width: 1.0;"/><text fill="#000000" font-family="sans-serif" font-size="11" lengthAdjust="spacingAndGlyphs" textLength="153" x="808.5" y="361.5229">followMasterConvExposure</text><ellipse cx="799.5" cy="371.1172" fill="none" rx="3" ry="3" style="stroke: #038048; stroke-width: 1.0;"/><text fill="#000000" font-family="sans-serif" font-size="11" lengthAdjust="spacingAndGlyphs" textLength="116" x="808.5" y="374.3276">GetStartUpExposure</text><ellipse cx="799.5" cy="383.9219" fill="none" rx="3" ry="3" style="stroke: #038048; stroke-width: 1.0;"/><text fill="#000000" font-family="sans-serif" font-size="11" lengthAdjust="spacingAndGlyphs" textLength="115" x="808.5" y="387.1323">GetFlashMaxCurrent</text><ellipse cx="799.5" cy="396.7266" fill="none" rx="3" ry="3" style="stroke: #038048; stroke-width: 1.0;"/><text fill="#000000" font-family="sans-serif" font-size="11" lengthAdjust="spacingAndGlyphs" textLength="99" x="808.5" y="399.937">GetFlashCalibInfo</text><ellipse cx="799.5" cy="409.5313" fill="none" rx="3" ry="3" style="stroke: #038048; stroke-width: 1.0;"/><text fill="#000000" font-family="sans-serif" font-size="11" lengthAdjust="spacingAndGlyphs" textLength="66" x="808.5" y="412.7417">RebaseSCD</text><ellipse cx="799.5" cy="422.3359" fill="none" rx="3" ry="3" style="stroke: #038048; stroke-width: 1.0;"/><text fill="#000000" font-family="sans-serif" font-size="11" lengthAdjust="spacingAndGlyphs" textLength="82" x="808.5" y="425.5464">GetSCDOutput</text><ellipse cx="799.5" cy="435.1406" fill="none" rx="3" ry="3" style="stroke: #038048; stroke-width: 1.0;"/><text fill="#000000" font-family="sans-serif" font-size="11" lengthAdjust="spacingAndGlyphs" textLength="116" x="808.5" y="438.3511">run1DVectorProcess</text><ellipse cx="799.5" cy="447.9453" fill="none" rx="3" ry="3" style="stroke: #038048; stroke-width: 1.0;"/><text fill="#000000" font-family="sans-serif" font-size="11" lengthAdjust="spacingAndGlyphs" textLength="93" x="808.5" y="451.1558">SetMeteringLock</text><rect fill="none" height="6" style="stroke: #C82930; stroke-width: 1.0;" width="6" x="796.5" y="457.75"/><text fill="#000000" font-family="sans-serif" font-size="11" lengthAdjust="spacingAndGlyphs" textLength="141" x="808.5" y="463.9604">QuerySnapshotExposure</text><rect fill="none" height="6" style="stroke: #C82930; stroke-width: 1.0;" width="6" x="796.5" y="470.5547"/><text fill="#000000" font-family="sans-serif" font-size="11" lengthAdjust="spacingAndGlyphs" textLength="116" x="808.5" y="476.7651">UpdateConvTriggers</text><rect fill="none" height="6" style="stroke: #C82930; stroke-width: 1.0;" width="6" x="796.5" y="483.3594"/><text fill="#000000" font-family="sans-serif" font-size="11" lengthAdjust="spacingAndGlyphs" textLength="107" x="808.5" y="489.5698">UpdateArbTriggers</text><rect fill="none" height="6" style="stroke: #C82930; stroke-width: 1.0;" width="6" x="796.5" y="496.1641"/><text fill="#000000" font-family="sans-serif" font-size="11" lengthAdjust="spacingAndGlyphs" textLength="107" x="808.5" y="502.3745">SetDefaultTriggers</text><rect fill="none" height="6" style="stroke: #C82930; stroke-width: 1.0;" width="6" x="796.5" y="508.9688"/><text fill="#000000" font-family="sans-serif" font-size="11" lengthAdjust="spacingAndGlyphs" textLength="187" x="808.5" y="515.1792">PopulateFrameHistoryDebugData</text><rect fill="none" height="6" style="stroke: #C82930; stroke-width: 1.0;" width="6" x="796.5" y="521.7734"/><text fill="#000000" font-family="sans-serif" font-size="11" lengthAdjust="spacingAndGlyphs" textLength="141" x="808.5" y="527.9839">PopulateStatsDebugData</text><rect fill="none" height="6" style="stroke: #C82930; stroke-width: 1.0;" width="6" x="796.5" y="534.5781"/><text fill="#000000" font-family="sans-serif" font-size="11" lengthAdjust="spacingAndGlyphs" textLength="187" x="808.5" y="540.7886">PopulateStatsChannelDebugData</text><rect fill="none" height="6" style="stroke: #C82930; stroke-width: 1.0;" width="6" x="796.5" y="547.3828"/><text fill="#000000" font-family="sans-serif" font-size="11" lengthAdjust="spacingAndGlyphs" textLength="129" x="808.5" y="553.5933">CAECXContextManager</text><rect fill="none" height="6" style="stroke: #C82930; stroke-width: 1.0;" width="6" x="796.5" y="560.1875"/><text fill="#000000" font-family="sans-serif" font-size="11" lengthAdjust="spacingAndGlyphs" textLength="92" x="808.5" y="566.3979">CAECXMetering*</text><rect fill="none" height="6" style="stroke: #C82930; stroke-width: 1.0;" width="6" x="796.5" y="572.9922"/><text fill="#000000" font-family="sans-serif" font-size="11" lengthAdjust="spacingAndGlyphs" textLength="117" x="808.5" y="579.2026">CAECXConvergence*</text><rect fill="none" height="6" style="stroke: #C82930; stroke-width: 1.0;" width="6" x="796.5" y="585.7969"/><text fill="#000000" font-family="sans-serif" font-size="11" lengthAdjust="spacingAndGlyphs" textLength="102" x="808.5" y="592.0073">CAECXArbitration*</text><rect fill="none" height="6" style="stroke: #C82930; stroke-width: 1.0;" width="6" x="796.5" y="598.6016"/><text fill="#000000" font-family="sans-serif" font-size="11" lengthAdjust="spacingAndGlyphs" textLength="98" x="808.5" y="604.812">CAECXExtension*</text><rect fill="none" height="6" style="stroke: #C82930; stroke-width: 1.0;" width="6" x="796.5" y="611.4063"/><text fill="#000000" font-family="sans-serif" font-size="11" lengthAdjust="spacingAndGlyphs" textLength="131" x="808.5" y="617.6167">CAECXStatsProcessor*</text><rect fill="none" height="6" style="stroke: #C82930; stroke-width: 1.0;" width="6" x="796.5" y="624.2109"/><text fill="#000000" font-family="sans-serif" font-size="11" lengthAdjust="spacingAndGlyphs" textLength="115" x="808.5" y="630.4214">CAECXMtrTableGen*</text><rect fill="none" height="6" style="stroke: #C82930; stroke-width: 1.0;" width="6" x="796.5" y="637.0156"/><text fill="#000000" font-family="sans-serif" font-size="11" lengthAdjust="spacingAndGlyphs" textLength="87" x="808.5" y="643.2261">CSCDManager*</text><rect fill="none" height="6" style="stroke: #C82930; stroke-width: 1.0;" width="6" x="796.5" y="649.8203"/><text fill="#000000" font-family="sans-serif" font-size="11" lengthAdjust="spacingAndGlyphs" textLength="132" x="808.5" y="656.0308">CAECXExtMapManager*</text><rect fill="none" height="6" style="stroke: #C82930; stroke-width: 1.0;" width="6" x="796.5" y="662.625"/><text fill="#000000" font-family="sans-serif" font-size="11" lengthAdjust="spacingAndGlyphs" textLength="143" x="808.5" y="668.8354">CAECX1DVectorManager*</text><rect fill="none" height="6" style="stroke: #C82930; stroke-width: 1.0;" width="6" x="796.5" y="675.4297"/><text fill="#000000" font-family="sans-serif" font-size="11" lengthAdjust="spacingAndGlyphs" textLength="98" x="808.5" y="681.6401">AECFrameHistory</text><line style="stroke: #A80036; stroke-width: 1.5;" x1="789.5" x2="1000.5" y1="688.2344" y2="688.2344"/><!--MD5=[55df4556c0fd31448b5de91c6526a112]
class CAECXContextManager--><rect fill="#FEFECE" filter="url(#f16)" height="48" id="CAECXContextManager" style="stroke: #A80036; stroke-width: 1.5;" width="174" x="6" y="773"/><ellipse cx="21" cy="789" fill="#ADD1B2" rx="11" ry="11" style="stroke: #A80036; stroke-width: 1.0;"/><path d="M23.9688,794.6406 Q23.3906,794.9375 22.75,795.0781 Q22.1094,795.2344 21.4063,795.2344 Q18.9063,795.2344 17.5781,793.5938 Q16.2656,791.9375 16.2656,788.8125 Q16.2656,785.6875 17.5781,784.0313 Q18.9063,782.375 21.4063,782.375 Q22.1094,782.375 22.75,782.5313 Q23.4063,782.6875 23.9688,782.9844 L23.9688,785.7031 Q23.3438,785.125 22.75,784.8594 Q22.1563,784.5781 21.5313,784.5781 Q20.1875,784.5781 19.5,785.6563 Q18.8125,786.7188 18.8125,788.8125 Q18.8125,790.9063 19.5,791.9844 Q20.1875,793.0469 21.5313,793.0469 Q22.1563,793.0469 22.75,792.7813 Q23.3438,792.5 23.9688,791.9219 L23.9688,794.6406 Z "/><text fill="#000000" font-family="sans-serif" font-size="12" lengthAdjust="spacingAndGlyphs" textLength="142" x="35" y="793.1543">CAECXContextManager</text><line style="stroke: #A80036; stroke-width: 1.5;" x1="7" x2="179" y1="805" y2="805"/><line style="stroke: #A80036; stroke-width: 1.5;" x1="7" x2="179" y1="813" y2="813"/><!--MD5=[b34822e27c4eef96ebd9578378360063]
class CAECXMetering--><rect fill="#FEFECE" filter="url(#f16)" height="48" id="CAECXMetering" style="stroke: #A80036; stroke-width: 1.5;" width="126" x="215" y="773"/><ellipse cx="230" cy="789" fill="#ADD1B2" rx="11" ry="11" style="stroke: #A80036; stroke-width: 1.0;"/><path d="M232.9688,794.6406 Q232.3906,794.9375 231.75,795.0781 Q231.1094,795.2344 230.4063,795.2344 Q227.9063,795.2344 226.5781,793.5938 Q225.2656,791.9375 225.2656,788.8125 Q225.2656,785.6875 226.5781,784.0313 Q227.9063,782.375 230.4063,782.375 Q231.1094,782.375 231.75,782.5313 Q232.4063,782.6875 232.9688,782.9844 L232.9688,785.7031 Q232.3438,785.125 231.75,784.8594 Q231.1563,784.5781 230.5313,784.5781 Q229.1875,784.5781 228.5,785.6563 Q227.8125,786.7188 227.8125,788.8125 Q227.8125,790.9063 228.5,791.9844 Q229.1875,793.0469 230.5313,793.0469 Q231.1563,793.0469 231.75,792.7813 Q232.3438,792.5 232.9688,791.9219 L232.9688,794.6406 Z "/><text fill="#000000" font-family="sans-serif" font-size="12" lengthAdjust="spacingAndGlyphs" textLength="94" x="244" y="793.1543">CAECXMetering</text><line style="stroke: #A80036; stroke-width: 1.5;" x1="216" x2="340" y1="805" y2="805"/><line style="stroke: #A80036; stroke-width: 1.5;" x1="216" x2="340" y1="813" y2="813"/><!--MD5=[808df81bb6019c9d9f7f0971ae3b02ec]
class CAECXConvergence--><rect fill="#FEFECE" filter="url(#f16)" height="48" id="CAECXConvergence" style="stroke: #A80036; stroke-width: 1.5;" width="153" x="376.5" y="773"/><ellipse cx="391.5" cy="789" fill="#ADD1B2" rx="11" ry="11" style="stroke: #A80036; stroke-width: 1.0;"/><path d="M394.4688,794.6406 Q393.8906,794.9375 393.25,795.0781 Q392.6094,795.2344 391.9063,795.2344 Q389.4063,795.2344 388.0781,793.5938 Q386.7656,791.9375 386.7656,788.8125 Q386.7656,785.6875 388.0781,784.0313 Q389.4063,782.375 391.9063,782.375 Q392.6094,782.375 393.25,782.5313 Q393.9063,782.6875 394.4688,782.9844 L394.4688,785.7031 Q393.8438,785.125 393.25,784.8594 Q392.6563,784.5781 392.0313,784.5781 Q390.6875,784.5781 390,785.6563 Q389.3125,786.7188 389.3125,788.8125 Q389.3125,790.9063 390,791.9844 Q390.6875,793.0469 392.0313,793.0469 Q392.6563,793.0469 393.25,792.7813 Q393.8438,792.5 394.4688,791.9219 L394.4688,794.6406 Z "/><text fill="#000000" font-family="sans-serif" font-size="12" lengthAdjust="spacingAndGlyphs" textLength="121" x="405.5" y="793.1543">CAECXConvergence</text><line style="stroke: #A80036; stroke-width: 1.5;" x1="377.5" x2="528.5" y1="805" y2="805"/><line style="stroke: #A80036; stroke-width: 1.5;" x1="377.5" x2="528.5" y1="813" y2="813"/><!--MD5=[c4f0de176ed8280e149c1db14a3b5d87]
class CAECXArbitration--><rect fill="#FEFECE" filter="url(#f16)" height="48" id="CAECXArbitration" style="stroke: #A80036; stroke-width: 1.5;" width="137" x="564.5" y="773"/><ellipse cx="579.5" cy="789" fill="#ADD1B2" rx="11" ry="11" style="stroke: #A80036; stroke-width: 1.0;"/><path d="M582.4688,794.6406 Q581.8906,794.9375 581.25,795.0781 Q580.6094,795.2344 579.9063,795.2344 Q577.4063,795.2344 576.0781,793.5938 Q574.7656,791.9375 574.7656,788.8125 Q574.7656,785.6875 576.0781,784.0313 Q577.4063,782.375 579.9063,782.375 Q580.6094,782.375 581.25,782.5313 Q581.9063,782.6875 582.4688,782.9844 L582.4688,785.7031 Q581.8438,785.125 581.25,784.8594 Q580.6563,784.5781 580.0313,784.5781 Q578.6875,784.5781 578,785.6563 Q577.3125,786.7188 577.3125,788.8125 Q577.3125,790.9063 578,791.9844 Q578.6875,793.0469 580.0313,793.0469 Q580.6563,793.0469 581.25,792.7813 Q581.8438,792.5 582.4688,791.9219 L582.4688,794.6406 Z "/><text fill="#000000" font-family="sans-serif" font-size="12" lengthAdjust="spacingAndGlyphs" textLength="105" x="593.5" y="793.1543">CAECXArbitration</text><line style="stroke: #A80036; stroke-width: 1.5;" x1="565.5" x2="700.5" y1="805" y2="805"/><line style="stroke: #A80036; stroke-width: 1.5;" x1="565.5" x2="700.5" y1="813" y2="813"/><!--MD5=[43be199f10187fb46bafca72683b6ace]
class CAECXExtension--><rect fill="#FEFECE" filter="url(#f16)" height="48" id="CAECXExtension" style="stroke: #A80036; stroke-width: 1.5;" width="132" x="737" y="773"/><ellipse cx="752" cy="789" fill="#ADD1B2" rx="11" ry="11" style="stroke: #A80036; stroke-width: 1.0;"/><path d="M754.9688,794.6406 Q754.3906,794.9375 753.75,795.0781 Q753.1094,795.2344 752.4063,795.2344 Q749.9063,795.2344 748.5781,793.5938 Q747.2656,791.9375 747.2656,788.8125 Q747.2656,785.6875 748.5781,784.0313 Q749.9063,782.375 752.4063,782.375 Q753.1094,782.375 753.75,782.5313 Q754.4063,782.6875 754.9688,782.9844 L754.9688,785.7031 Q754.3438,785.125 753.75,784.8594 Q753.1563,784.5781 752.5313,784.5781 Q751.1875,784.5781 750.5,785.6563 Q749.8125,786.7188 749.8125,788.8125 Q749.8125,790.9063 750.5,791.9844 Q751.1875,793.0469 752.5313,793.0469 Q753.1563,793.0469 753.75,792.7813 Q754.3438,792.5 754.9688,791.9219 L754.9688,794.6406 Z "/><text fill="#000000" font-family="sans-serif" font-size="12" lengthAdjust="spacingAndGlyphs" textLength="100" x="766" y="793.1543">CAECXExtension</text><line style="stroke: #A80036; stroke-width: 1.5;" x1="738" x2="868" y1="805" y2="805"/><line style="stroke: #A80036; stroke-width: 1.5;" x1="738" x2="868" y1="813" y2="813"/><!--MD5=[4fa01f5c9e61e823a9800d03e051e6ee]
class CAECXStatsProcessor--><rect fill="#FEFECE" filter="url(#f16)" height="48" id="CAECXStatsProcessor" style="stroke: #A80036; stroke-width: 1.5;" width="167" x="904.5" y="773"/><ellipse cx="919.5" cy="789" fill="#ADD1B2" rx="11" ry="11" style="stroke: #A80036; stroke-width: 1.0;"/><path d="M922.4688,794.6406 Q921.8906,794.9375 921.25,795.0781 Q920.6094,795.2344 919.9063,795.2344 Q917.4063,795.2344 916.0781,793.5938 Q914.7656,791.9375 914.7656,788.8125 Q914.7656,785.6875 916.0781,784.0313 Q917.4063,782.375 919.9063,782.375 Q920.6094,782.375 921.25,782.5313 Q921.9063,782.6875 922.4688,782.9844 L922.4688,785.7031 Q921.8438,785.125 921.25,784.8594 Q920.6563,784.5781 920.0313,784.5781 Q918.6875,784.5781 918,785.6563 Q917.3125,786.7188 917.3125,788.8125 Q917.3125,790.9063 918,791.9844 Q918.6875,793.0469 920.0313,793.0469 Q920.6563,793.0469 921.25,792.7813 Q921.8438,792.5 922.4688,791.9219 L922.4688,794.6406 Z "/><text fill="#000000" font-family="sans-serif" font-size="12" lengthAdjust="spacingAndGlyphs" textLength="135" x="933.5" y="793.1543">CAECXStatsProcessor</text><line style="stroke: #A80036; stroke-width: 1.5;" x1="905.5" x2="1070.5" y1="805" y2="805"/><line style="stroke: #A80036; stroke-width: 1.5;" x1="905.5" x2="1070.5" y1="813" y2="813"/><!--MD5=[f1e8e83e353824c2aa55b2e7e4b44c7f]
class CAECXMtrTableGen--><rect fill="#FEFECE" filter="url(#f16)" height="48" id="CAECXMtrTableGen" style="stroke: #A80036; stroke-width: 1.5;" width="150" x="1106" y="773"/><ellipse cx="1121" cy="789" fill="#ADD1B2" rx="11" ry="11" style="stroke: #A80036; stroke-width: 1.0;"/><path d="M1123.9688,794.6406 Q1123.3906,794.9375 1122.75,795.0781 Q1122.1094,795.2344 1121.4063,795.2344 Q1118.9063,795.2344 1117.5781,793.5938 Q1116.2656,791.9375 1116.2656,788.8125 Q1116.2656,785.6875 1117.5781,784.0313 Q1118.9063,782.375 1121.4063,782.375 Q1122.1094,782.375 1122.75,782.5313 Q1123.4063,782.6875 1123.9688,782.9844 L1123.9688,785.7031 Q1123.3438,785.125 1122.75,784.8594 Q1122.1563,784.5781 1121.5313,784.5781 Q1120.1875,784.5781 1119.5,785.6563 Q1118.8125,786.7188 1118.8125,788.8125 Q1118.8125,790.9063 1119.5,791.9844 Q1120.1875,793.0469 1121.5313,793.0469 Q1122.1563,793.0469 1122.75,792.7813 Q1123.3438,792.5 1123.9688,791.9219 L1123.9688,794.6406 Z "/><text fill="#000000" font-family="sans-serif" font-size="12" lengthAdjust="spacingAndGlyphs" textLength="118" x="1135" y="793.1543">CAECXMtrTableGen</text><line style="stroke: #A80036; stroke-width: 1.5;" x1="1107" x2="1255" y1="805" y2="805"/><line style="stroke: #A80036; stroke-width: 1.5;" x1="1107" x2="1255" y1="813" y2="813"/><!--MD5=[93643fbaf1c1fd283865c19b44860a76]
class CSCDManager--><rect fill="#FEFECE" filter="url(#f16)" height="48" id="CSCDManager" style="stroke: #A80036; stroke-width: 1.5;" width="120" x="1291" y="773"/><ellipse cx="1306" cy="789" fill="#ADD1B2" rx="11" ry="11" style="stroke: #A80036; stroke-width: 1.0;"/><path d="M1308.9688,794.6406 Q1308.3906,794.9375 1307.75,795.0781 Q1307.1094,795.2344 1306.4063,795.2344 Q1303.9063,795.2344 1302.5781,793.5938 Q1301.2656,791.9375 1301.2656,788.8125 Q1301.2656,785.6875 1302.5781,784.0313 Q1303.9063,782.375 1306.4063,782.375 Q1307.1094,782.375 1307.75,782.5313 Q1308.4063,782.6875 1308.9688,782.9844 L1308.9688,785.7031 Q1308.3438,785.125 1307.75,784.8594 Q1307.1563,784.5781 1306.5313,784.5781 Q1305.1875,784.5781 1304.5,785.6563 Q1303.8125,786.7188 1303.8125,788.8125 Q1303.8125,790.9063 1304.5,791.9844 Q1305.1875,793.0469 1306.5313,793.0469 Q1307.1563,793.0469 1307.75,792.7813 Q1308.3438,792.5 1308.9688,791.9219 L1308.9688,794.6406 Z "/><text fill="#000000" font-family="sans-serif" font-size="12" lengthAdjust="spacingAndGlyphs" textLength="88" x="1320" y="793.1543">CSCDManager</text><line style="stroke: #A80036; stroke-width: 1.5;" x1="1292" x2="1410" y1="805" y2="805"/><line style="stroke: #A80036; stroke-width: 1.5;" x1="1292" x2="1410" y1="813" y2="813"/><!--MD5=[271fc3d344d552b455f70657bfc6e355]
class CAECXExtMapManager--><rect fill="#FEFECE" filter="url(#f16)" height="48" id="CAECXExtMapManager" style="stroke: #A80036; stroke-width: 1.5;" width="171" x="1446.5" y="773"/><ellipse cx="1461.5" cy="789" fill="#ADD1B2" rx="11" ry="11" style="stroke: #A80036; stroke-width: 1.0;"/><path d="M1464.4688,794.6406 Q1463.8906,794.9375 1463.25,795.0781 Q1462.6094,795.2344 1461.9063,795.2344 Q1459.4063,795.2344 1458.0781,793.5938 Q1456.7656,791.9375 1456.7656,788.8125 Q1456.7656,785.6875 1458.0781,784.0313 Q1459.4063,782.375 1461.9063,782.375 Q1462.6094,782.375 1463.25,782.5313 Q1463.9063,782.6875 1464.4688,782.9844 L1464.4688,785.7031 Q1463.8438,785.125 1463.25,784.8594 Q1462.6563,784.5781 1462.0313,784.5781 Q1460.6875,784.5781 1460,785.6563 Q1459.3125,786.7188 1459.3125,788.8125 Q1459.3125,790.9063 1460,791.9844 Q1460.6875,793.0469 1462.0313,793.0469 Q1462.6563,793.0469 1463.25,792.7813 Q1463.8438,792.5 1464.4688,791.9219 L1464.4688,794.6406 Z "/><text fill="#000000" font-family="sans-serif" font-size="12" lengthAdjust="spacingAndGlyphs" textLength="139" x="1475.5" y="793.1543">CAECXExtMapManager</text><line style="stroke: #A80036; stroke-width: 1.5;" x1="1447.5" x2="1616.5" y1="805" y2="805"/><line style="stroke: #A80036; stroke-width: 1.5;" x1="1447.5" x2="1616.5" y1="813" y2="813"/><!--MD5=[61c527021ef1a51309c3a7e83a5f58e0]
class CAECX1DVectorManager--><rect fill="#FEFECE" filter="url(#f16)" height="48" id="CAECX1DVectorManager" style="stroke: #A80036; stroke-width: 1.5;" width="184" x="1653" y="773"/><ellipse cx="1668" cy="789" fill="#ADD1B2" rx="11" ry="11" style="stroke: #A80036; stroke-width: 1.0;"/><path d="M1670.9688,794.6406 Q1670.3906,794.9375 1669.75,795.0781 Q1669.1094,795.2344 1668.4063,795.2344 Q1665.9063,795.2344 1664.5781,793.5938 Q1663.2656,791.9375 1663.2656,788.8125 Q1663.2656,785.6875 1664.5781,784.0313 Q1665.9063,782.375 1668.4063,782.375 Q1669.1094,782.375 1669.75,782.5313 Q1670.4063,782.6875 1670.9688,782.9844 L1670.9688,785.7031 Q1670.3438,785.125 1669.75,784.8594 Q1669.1563,784.5781 1668.5313,784.5781 Q1667.1875,784.5781 1666.5,785.6563 Q1665.8125,786.7188 1665.8125,788.8125 Q1665.8125,790.9063 1666.5,791.9844 Q1667.1875,793.0469 1668.5313,793.0469 Q1669.1563,793.0469 1669.75,792.7813 Q1670.3438,792.5 1670.9688,791.9219 L1670.9688,794.6406 Z "/><text fill="#000000" font-family="sans-serif" font-size="12" lengthAdjust="spacingAndGlyphs" textLength="152" x="1682" y="793.1543">CAECX1DVectorManager</text><line style="stroke: #A80036; stroke-width: 1.5;" x1="1654" x2="1836" y1="805" y2="805"/><line style="stroke: #A80036; stroke-width: 1.5;" x1="1654" x2="1836" y1="813" y2="813"/><!--MD5=[2cb5a9bd217909614e207fe40767d5e2]
reverse link CAECXCore to CAECXContextManager--><path d="M778.4888,689.9563 C776.0441,692.0259 773.5482,694.0415 771,696 C709.2816,743.4357 499.0152,714.6879 422,726 C320.926,740.8459 296.7766,751.0687 197,773 C191.4801,774.2133 185.7993,775.4782 180.0742,776.7651 " fill="none" id="CAECXCore&lt;-CAECXContextManager" style="stroke: #A80036; stroke-width: 1.0;"/><polygon fill="#A80036" points="788.2533,681.1513,781.1187,682.1988,779.3415,689.1875,786.4761,688.14,788.2533,681.1513" style="stroke: #A80036; stroke-width: 1.0;"/><text fill="#000000" font-family="sans-serif" font-size="13" lengthAdjust="spacingAndGlyphs" textLength="47" x="423" y="739.0669">contain</text><!--MD5=[f5be93b29f772cedee74d83f69799df1]
reverse link CAECXCore to CAECXMetering--><path d="M778.754,689.3838 C776.2247,691.6478 773.6405,693.8544 771,696 C733.9032,726.1449 604.9767,717.1637 558,726 C468.6885,742.7995 446.8235,749.6377 359,773 C353.1887,774.5459 347.1612,776.2122 341.1358,777.9207 " fill="none" id="CAECXCore&lt;-CAECXMetering" style="stroke: #A80036; stroke-width: 1.0;"/><polygon fill="#A80036" points="788.2393,680.3737,781.1342,681.6057,779.5388,688.6381,786.6439,687.4061,788.2393,680.3737" style="stroke: #A80036; stroke-width: 1.0;"/><text fill="#000000" font-family="sans-serif" font-size="13" lengthAdjust="spacingAndGlyphs" textLength="47" x="559" y="739.0669">contain</text><!--MD5=[266b2f85ab6a8b7d3bd641b5d7df1856]
reverse link CAECXCore to CAECXConvergence--><path d="M779.2685,687.8525 C776.5754,690.634 773.8197,693.3514 771,696 C736.2474,728.6442 713.5337,711.8554 668,726 C619.7617,740.9847 565.7794,758.8151 523.9735,772.8589 " fill="none" id="CAECXCore&lt;-CAECXConvergence" style="stroke: #A80036; stroke-width: 1.0;"/><polygon fill="#A80036" points="788.1864,678.1557,781.1806,679.8643,780.0633,686.9883,787.069,685.2797,788.1864,678.1557" style="stroke: #A80036; stroke-width: 1.0;"/><text fill="#000000" font-family="sans-serif" font-size="13" lengthAdjust="spacingAndGlyphs" textLength="47" x="669" y="739.0669">contain</text><!--MD5=[0259e358dd181249407b20ec0170fa11]
reverse link CAECXCore to CAECXArbitration--><path d="M781.2806,681.5817 C777.9447,686.4878 774.5185,691.2986 771,696 C746.6285,728.5647 708.82,755.2006 678.9361,772.9271 " fill="none" id="CAECXCore&lt;-CAECXArbitration" style="stroke: #A80036; stroke-width: 1.0;"/><polygon fill="#A80036" points="788.44,670.6945,781.8012,673.51,781.8468,680.7209,788.4855,677.9055,788.44,670.6945" style="stroke: #A80036; stroke-width: 1.0;"/><text fill="#000000" font-family="sans-serif" font-size="13" lengthAdjust="spacingAndGlyphs" textLength="47" x="744" y="739.0669">contain</text><!--MD5=[61c571318b947ff9ae298685d08be068]
reverse link CAECXCore to CAECXExtension--><path d="M821.2358,708.7941 C815.8045,735.0654 811.1982,757.3458 807.9738,772.9418 " fill="none" id="CAECXCore&lt;-CAECXExtension" style="stroke: #A80036; stroke-width: 1.0;"/><polygon fill="#A80036" points="823.8762,696.0226,818.7443,701.0885,821.4467,707.7741,826.5786,702.7082,823.8762,696.0226" style="stroke: #A80036; stroke-width: 1.0;"/><text fill="#000000" font-family="sans-serif" font-size="13" lengthAdjust="spacingAndGlyphs" textLength="47" x="818" y="739.0669">contain</text><!--MD5=[4fefd5165e3719a34958e3cdae10e17c]
reverse link CAECXCore to CAECXStatsProcessor--><path d="M969.5659,708.7941 C975.0564,735.0654 979.7127,757.3458 982.9721,772.9418 " fill="none" id="CAECXCore&lt;-CAECXStatsProcessor" style="stroke: #A80036; stroke-width: 1.0;"/><polygon fill="#A80036" points="966.8969,696.0226,964.2089,702.714,969.3518,707.7688,972.0397,701.0774,966.8969,696.0226" style="stroke: #A80036; stroke-width: 1.0;"/><text fill="#000000" font-family="sans-serif" font-size="13" lengthAdjust="spacingAndGlyphs" textLength="47" x="978" y="739.0669">contain</text><!--MD5=[b28bb1342d74855626a7267fc5c3407c]
reverse link CAECXCore to CAECXMtrTableGen--><path d="M1008.7755,529.0283 C1068.6555,622.1982 1135.677,726.48 1165.3813,772.6982 " fill="none" id="CAECXCore&lt;-CAECXMtrTableGen" style="stroke: #A80036; stroke-width: 1.0;"/><polygon fill="#A80036" points="1001.6992,518.0179,1001.5783,525.228,1008.1872,528.1127,1008.3081,520.9027,1001.6992,518.0179" style="stroke: #A80036; stroke-width: 1.0;"/><text fill="#000000" font-family="sans-serif" font-size="13" lengthAdjust="spacingAndGlyphs" textLength="47" x="1147" y="739.0669">contain</text><!--MD5=[952535c4f3b8857432aa43ac42dad666]
reverse link CAECXCore to CSCDManager--><path d="M1011.1417,465.34 C1117.6068,569.2369 1267.3303,715.3486 1326.0167,772.6194 " fill="none" id="CAECXCore&lt;-CSCDManager" style="stroke: #A80036; stroke-width: 1.0;"/><polygon fill="#A80036" points="1001.6239,456.0518,1003.1244,463.1051,1010.2122,464.4328,1008.7117,457.3795,1001.6239,456.0518" style="stroke: #A80036; stroke-width: 1.0;"/><text fill="#000000" font-family="sans-serif" font-size="13" lengthAdjust="spacingAndGlyphs" textLength="47" x="1296" y="739.0669">contain</text><!--MD5=[6ba289871070eecc4e86716ff4d018b4]
reverse link CAECXCore to CAECXExtMapManager--><path d="M1012.5644,434.129 C1160.8628,537.7284 1407.4026,709.9579 1497.596,772.9658 " fill="none" id="CAECXCore&lt;-CAECXExtMapManager" style="stroke: #A80036; stroke-width: 1.0;"/><polygon fill="#A80036" points="1001.6195,426.483,1004.2473,433.1982,1011.4567,433.3553,1008.8289,426.6401,1001.6195,426.483" style="stroke: #A80036; stroke-width: 1.0;"/><text fill="#000000" font-family="sans-serif" font-size="13" lengthAdjust="spacingAndGlyphs" textLength="47" x="1455" y="739.0669">contain</text><!--MD5=[a48a820149a47d34d5f345e7db943161]
reverse link CAECXCore to CAECX1DVectorManager--><path d="M1013.525,414.0513 C1204.0496,513.7965 1570.0932,705.4311 1698.8373,772.8325 " fill="none" id="CAECXCore&lt;-CAECX1DVectorManager" style="stroke: #A80036; stroke-width: 1.0;"/><polygon fill="#A80036" points="1001.7924,407.909,1005.2527,414.2356,1012.4236,413.4748,1008.9633,407.1481,1001.7924,407.909" style="stroke: #A80036; stroke-width: 1.0;"/><text fill="#000000" font-family="sans-serif" font-size="13" lengthAdjust="spacingAndGlyphs" textLength="47" x="1641" y="739.0669">contain</text><!--MD5=[ee28b8c80398e410c6264d242c93782c]
PlantUML version 1.2020.00(Sat Jan 11 12:30:53 GMT 2020)
(GPL source distribution)
Java Runtime: OpenJDK Runtime Environment
JVM: OpenJDK 64-Bit Server VM
Java Version: 11.0.6+10-post-Ubuntu-1ubuntu118.04.1
Operating System: Linux
Default Encoding: ANSI_X3.4-1968
Language: en
Country: US
--></g></svg>