<?xml version="1.0" encoding="UTF-8" standalone="no"?><svg xmlns="http://www.w3.org/2000/svg" xmlns:xlink="http://www.w3.org/1999/xlink" contentScriptType="application/ecmascript" contentStyleType="text/css" height="540px" preserveAspectRatio="none" style="width:665px;height:540px;" version="1.1" viewBox="0 0 665 540" width="665px" zoomAndPan="magnify"><defs><filter height="300%" id="f70k26n6uzyyi" width="300%" x="-1" y="-1"><feGaussianBlur result="blurOut" stdDeviation="2.0"/><feColorMatrix in="blurOut" result="blurOut2" type="matrix" values="0 0 0 0 0 0 0 0 0 0 0 0 0 0 0 0 0 0 .4 0"/><feOffset dx="4.0" dy="4.0" in="blurOut2" result="blurOut3"/><feBlend in="SourceGraphic" in2="blurOut3" mode="normal"/></filter></defs><g><rect fill="#FFFFFF" filter="url(#f70k26n6uzyyi)" height="369.4922" style="stroke: #A80036; stroke-width: 1.0;" width="10" x="199" y="112.5625"/><rect fill="#FFFFFF" filter="url(#f70k26n6uzyyi)" height="311.2266" style="stroke: #A80036; stroke-width: 1.0;" width="10" x="373" y="141.6953"/><rect fill="#FFFFFF" filter="url(#f70k26n6uzyyi)" height="79.2656" style="stroke: #A80036; stroke-width: 1.0;" width="10" x="378" y="178.8281"/><rect fill="#FFFFFF" filter="url(#f70k26n6uzyyi)" height="114.5625" style="stroke: #A80036; stroke-width: 1.0;" width="10" x="378" y="302.2266"/><rect fill="#FFFFFF" filter="url(#f70k26n6uzyyi)" height="35.2969" style="stroke: #A80036; stroke-width: 1.0;" width="10" x="599" y="346.3594"/><line style="stroke: #A80036; stroke-width: 1.0; stroke-dasharray: 5.0,5.0;" x1="204" x2="204" y1="38.2969" y2="500.0547"/><line style="stroke: #A80036; stroke-width: 1.0; stroke-dasharray: 5.0,5.0;" x1="377.5" x2="377.5" y1="38.2969" y2="500.0547"/><line style="stroke: #A80036; stroke-width: 1.0; stroke-dasharray: 5.0,5.0;" x1="603.5" x2="603.5" y1="347.875" y2="500.0547"/><rect fill="#FEFECE" filter="url(#f70k26n6uzyyi)" height="30.2969" style="stroke: #A80036; stroke-width: 1.5;" width="184" x="110" y="3"/><text fill="#000000" font-family="sans-serif" font-size="14" lengthAdjust="spacingAndGlyphs" textLength="170" x="117" y="22.9951">qcaecalgorighminterface</text><rect fill="#FEFECE" filter="url(#f70k26n6uzyyi)" height="30.2969" style="stroke: #A80036; stroke-width: 1.5;" width="184" x="110" y="499.0547"/><text fill="#000000" font-family="sans-serif" font-size="14" lengthAdjust="spacingAndGlyphs" textLength="170" x="117" y="519.0498">qcaecalgorighminterface</text><rect fill="#FEFECE" filter="url(#f70k26n6uzyyi)" height="30.2969" style="stroke: #A80036; stroke-width: 1.5;" width="131" x="310.5" y="3"/><text fill="#000000" font-family="sans-serif" font-size="14" lengthAdjust="spacingAndGlyphs" textLength="117" x="317.5" y="22.9951">caecxcorefactory</text><rect fill="#FEFECE" filter="url(#f70k26n6uzyyi)" height="30.2969" style="stroke: #A80036; stroke-width: 1.5;" width="131" x="310.5" y="499.0547"/><text fill="#000000" font-family="sans-serif" font-size="14" lengthAdjust="spacingAndGlyphs" textLength="117" x="317.5" y="519.0498">caecxcorefactory</text><rect fill="#FEFECE" filter="url(#f70k26n6uzyyi)" height="30.2969" style="stroke: #A80036; stroke-width: 1.5;" width="85" x="559.5" y="499.0547"/><text fill="#000000" font-family="sans-serif" font-size="14" lengthAdjust="spacingAndGlyphs" textLength="71" x="566.5" y="519.0498">caecxcore</text><rect fill="#FFFFFF" filter="url(#f70k26n6uzyyi)" height="369.4922" style="stroke: #A80036; stroke-width: 1.0;" width="10" x="199" y="112.5625"/><rect fill="#FFFFFF" filter="url(#f70k26n6uzyyi)" height="311.2266" style="stroke: #A80036; stroke-width: 1.0;" width="10" x="373" y="141.6953"/><rect fill="#FFFFFF" filter="url(#f70k26n6uzyyi)" height="79.2656" style="stroke: #A80036; stroke-width: 1.0;" width="10" x="378" y="178.8281"/><rect fill="#FFFFFF" filter="url(#f70k26n6uzyyi)" height="114.5625" style="stroke: #A80036; stroke-width: 1.0;" width="10" x="378" y="302.2266"/><rect fill="#FFFFFF" filter="url(#f70k26n6uzyyi)" height="35.2969" style="stroke: #A80036; stroke-width: 1.0;" width="10" x="599" y="346.3594"/><rect fill="#EEEEEE" filter="url(#f70k26n6uzyyi)" height="3" style="stroke: #EEEEEE; stroke-width: 1.0;" width="650.5" x="3" y="68.8633"/><line style="stroke: #000000; stroke-width: 1.0;" x1="3" x2="653.5" y1="68.8633" y2="68.8633"/><line style="stroke: #000000; stroke-width: 1.0;" x1="3" x2="653.5" y1="71.8633" y2="71.8633"/><rect fill="#EEEEEE" filter="url(#f70k26n6uzyyi)" height="23.1328" style="stroke: #000000; stroke-width: 2.0;" width="196" x="230.25" y="58.2969"/><text fill="#0000FF" font-family="sans-serif" font-size="13" font-weight="bold" lengthAdjust="spacingAndGlyphs" textLength="177" x="241.25" y="74.3638">Begin Create AECX algo</text><ellipse cx="10.5" cy="111.8125" fill="none" rx="4" ry="4" style="stroke: #A80036; stroke-width: 1.5;"/><polygon fill="#A80036" points="187,108.5625,197,112.5625,187,116.5625,191,112.5625" style="stroke: #A80036; stroke-width: 1.0;"/><line style="stroke: #A80036; stroke-width: 1.0;" x1="15" x2="193" y1="112.5625" y2="112.5625"/><text fill="#FF0000" font-family="sans-serif" font-size="13" font-weight="bold" lengthAdjust="spacingAndGlyphs" textLength="169" x="18" y="107.4966">CreateAECAlgoHandler</text><polygon fill="#A80036" points="361,137.6953,371,141.6953,361,145.6953,365,141.6953" style="stroke: #A80036; stroke-width: 1.0;"/><line style="stroke: #A80036; stroke-width: 1.0;" x1="209" x2="367" y1="141.6953" y2="141.6953"/><text fill="#000000" font-family="sans-serif" font-size="13" lengthAdjust="spacingAndGlyphs" textLength="145" x="216" y="136.6294">*CreateAecXcoreAlgo*</text><line style="stroke: #A80036; stroke-width: 1.0;" x1="383" x2="430" y1="165.8281" y2="165.8281"/><line style="stroke: #A80036; stroke-width: 1.0;" x1="430" x2="430" y1="165.8281" y2="178.8281"/><line style="stroke: #A80036; stroke-width: 1.0;" x1="389" x2="430" y1="178.8281" y2="178.8281"/><polygon fill="#A80036" points="399,174.8281,389,178.8281,399,182.8281,395,178.8281" style="stroke: #A80036; stroke-width: 1.0;"/><text fill="#000000" font-family="sans-serif" font-size="13" lengthAdjust="spacingAndGlyphs" textLength="202" x="395" y="160.7622">*AECXUpdateCreateParamList*</text><path d="M263,196.8281 L263,221.8281 L489,221.8281 L489,206.8281 L479,196.8281 L263,196.8281 " fill="#FBFB77" filter="url(#f70k26n6uzyyi)" style="stroke: #A80036; stroke-width: 1.0;"/><path d="M479,196.8281 L479,206.8281 L489,206.8281 L479,196.8281 " fill="#FBFB77" style="stroke: #A80036; stroke-width: 1.0;"/><text fill="#000000" font-family="sans-serif" font-size="13" lengthAdjust="spacingAndGlyphs" textLength="205" x="269" y="213.895">Not sure what does these mean</text><line style="stroke: #A80036; stroke-width: 1.0;" x1="388" x2="430" y1="257.0938" y2="257.0938"/><line style="stroke: #A80036; stroke-width: 1.0;" x1="430" x2="430" y1="257.0938" y2="270.0938"/><line style="stroke: #A80036; stroke-width: 1.0;" x1="383" x2="430" y1="270.0938" y2="270.0938"/><polygon fill="#A80036" points="393,266.0938,383,270.0938,393,274.0938,389,270.0938" style="stroke: #A80036; stroke-width: 1.0;"/><text fill="#000000" font-family="sans-serif" font-size="13" lengthAdjust="spacingAndGlyphs" textLength="39" x="395" y="252.0278">return</text><line style="stroke: #A80036; stroke-width: 1.0;" x1="383" x2="430" y1="289.2266" y2="289.2266"/><line style="stroke: #A80036; stroke-width: 1.0;" x1="430" x2="430" y1="289.2266" y2="302.2266"/><line style="stroke: #A80036; stroke-width: 1.0;" x1="389" x2="430" y1="302.2266" y2="302.2266"/><polygon fill="#A80036" points="399,298.2266,389,302.2266,399,306.2266,395,302.2266" style="stroke: #A80036; stroke-width: 1.0;"/><text fill="#000000" font-family="sans-serif" font-size="13" lengthAdjust="spacingAndGlyphs" textLength="173" x="395" y="284.1606">*CreateAecXCoreInstance*</text><polygon fill="#A80036" points="547.5,332.3594,557.5,336.3594,547.5,340.3594,551.5,336.3594" style="stroke: #A80036; stroke-width: 1.0;"/><line style="stroke: #A80036; stroke-width: 1.0;" x1="388" x2="553.5" y1="336.3594" y2="336.3594"/><text fill="#000000" font-family="sans-serif" font-size="13" lengthAdjust="spacingAndGlyphs" textLength="116" x="395" y="331.2935">*new CAECXCore*</text><rect fill="#FEFECE" filter="url(#f70k26n6uzyyi)" height="30.2969" style="stroke: #A80036; stroke-width: 1.5;" width="85" x="559.5" y="315.2266"/><text fill="#000000" font-family="sans-serif" font-size="14" lengthAdjust="spacingAndGlyphs" textLength="71" x="566.5" y="335.2217">caecxcore</text><polygon fill="#A80036" points="592,377.6563,602,381.6563,592,385.6563,596,381.6563" style="stroke: #A80036; stroke-width: 1.0;"/><line style="stroke: #A80036; stroke-width: 1.0;" x1="388" x2="598" y1="381.6563" y2="381.6563"/><text fill="#000000" font-family="sans-serif" font-size="13" lengthAdjust="spacingAndGlyphs" textLength="39" x="395" y="376.5903">return</text><line style="stroke: #A80036; stroke-width: 1.0;" x1="388" x2="430" y1="415.7891" y2="415.7891"/><line style="stroke: #A80036; stroke-width: 1.0;" x1="430" x2="430" y1="415.7891" y2="428.7891"/><line style="stroke: #A80036; stroke-width: 1.0;" x1="383" x2="430" y1="428.7891" y2="428.7891"/><polygon fill="#A80036" points="393,424.7891,383,428.7891,393,432.7891,389,428.7891" style="stroke: #A80036; stroke-width: 1.0;"/><text fill="#000000" font-family="sans-serif" font-size="13" lengthAdjust="spacingAndGlyphs" textLength="39" x="395" y="410.7231">return</text><polygon fill="#A80036" points="220,448.9219,210,452.9219,220,456.9219,216,452.9219" style="stroke: #A80036; stroke-width: 1.0;"/><line style="stroke: #A80036; stroke-width: 1.0;" x1="214" x2="377" y1="452.9219" y2="452.9219"/><text fill="#000000" font-family="sans-serif" font-size="13" lengthAdjust="spacingAndGlyphs" textLength="39" x="226" y="447.856">return</text><polygon fill="#A80036" points="22,478.0547,12,482.0547,22,486.0547,18,482.0547" style="stroke: #A80036; stroke-width: 1.0;"/><ellipse cx="203.5" cy="481.3047" fill="none" rx="4" ry="4" style="stroke: #A80036; stroke-width: 1.5;"/><line style="stroke: #A80036; stroke-width: 1.0;" x1="16" x2="199" y1="482.0547" y2="482.0547"/><text fill="#000000" font-family="sans-serif" font-size="13" lengthAdjust="spacingAndGlyphs" textLength="39" x="28" y="476.9888">return</text><!--MD5=[cc16ccb3960ff184af5e26144ea83c1f]
@startuml
participant qcaecalgorighminterface
participant caecxcorefactory

== <color:blue> Begin Create AECX algo</color>==
[o->qcaecalgorighminterface: <color:red>**CreateAECAlgoHandler**</color>
activate qcaecalgorighminterface
    qcaecalgorighminterface->caecxcorefactory: *CreateAecXcoreAlgo*
    activate caecxcorefactory

        caecxcorefactory->caecxcorefactory: *AECXUpdateCreateParamList*
        activate caecxcorefactory
            note over caecxcorefactory
                Not sure what does these mean
            end note
        caecxcorefactory<-caecxcorefactory: return
        deactivate caecxcorefactory

        caecxcorefactory->caecxcorefactory: *CreateAecXCoreInstance*
        activate caecxcorefactory
            create caecxcore
            caecxcorefactory->caecxcore: *new CAECXCore*
            activate caecxcore
            caecxcore<-caecxcorefactory: return
            deactivate caecxcore
        caecxcorefactory<-caecxcorefactory: return
        deactivate caecxcorefactory

    qcaecalgorighminterface<-caecxcorefactory: return
    deactivate caecxcorefactory
[o<-qcaecalgorighminterface: return
deactivate qcaecalgorighminterface

@enduml

PlantUML version 1.2020.00(Sat Jan 11 12:30:53 GMT 2020)
(GPL source distribution)
Java Runtime: OpenJDK Runtime Environment
JVM: OpenJDK 64-Bit Server VM
Java Version: 11.0.6+10-post-Ubuntu-1ubuntu118.04.1
Operating System: Linux
Default Encoding: ANSI_X3.4-1968
Language: en
Country: US
--></g></svg>