<?xml version="1.0" encoding="UTF-8" standalone="no"?><svg xmlns="http://www.w3.org/2000/svg" xmlns:xlink="http://www.w3.org/1999/xlink" contentScriptType="application/ecmascript" contentStyleType="text/css" height="1382px" preserveAspectRatio="none" style="width:870px;height:1382px;" version="1.1" viewBox="0 0 870 1382" width="870px" zoomAndPan="magnify"><defs><filter height="300%" id="f3v9dwimn40wu" width="300%" x="-1" y="-1"><feGaussianBlur result="blurOut" stdDeviation="2.0"/><feColorMatrix in="blurOut" result="blurOut2" type="matrix" values="0 0 0 0 0 0 0 0 0 0 0 0 0 0 0 0 0 0 .4 0"/><feOffset dx="4.0" dy="4.0" in="blurOut2" result="blurOut3"/><feBlend in="SourceGraphic" in2="blurOut3" mode="normal"/></filter></defs><g><text fill="#888888" font-family="sans-serif" font-size="10" lengthAdjust="spacingAndGlyphs" textLength="82" x="727" y="19.2822">My super header</text><rect fill="none" height="26.2969" style="stroke: none; stroke-width: 1.0;" width="253" x="282.5" y="26.6406"/><text fill="#000000" font-family="sans-serif" font-size="14" font-weight="bold" lengthAdjust="spacingAndGlyphs" textLength="243" x="287.5" y="44.6357">What should a AF Expert Know</text><rect fill="#FEFECE" filter="url(#f3v9dwimn40wu)" height="36.2969" rx="12.5" ry="12.5" style="stroke: #A80036; stroke-width: 1.5;" width="90" x="10" y="660.0547"/><text fill="#000000" font-family="sans-serif" font-size="14" lengthAdjust="spacingAndGlyphs" textLength="70" x="20" y="683.0498">Autofocus</text><rect fill="#FEFECE" filter="url(#f3v9dwimn40wu)" height="36.2969" rx="12.5" ry="12.5" style="stroke: #A80036; stroke-width: 1.5;" width="106" x="150" y="322.2734"/><text fill="#000000" font-family="sans-serif" font-size="14" lengthAdjust="spacingAndGlyphs" textLength="86" x="160" y="345.2686">AF Algorithm</text><rect fill="#FEFECE" filter="url(#f3v9dwimn40wu)" height="36.2969" rx="12.5" ry="12.5" style="stroke: #A80036; stroke-width: 1.5;" width="53" x="306" y="125.2344"/><text fill="#000000" font-family="sans-serif" font-size="14" lengthAdjust="spacingAndGlyphs" textLength="33" x="316" y="148.2295">pdlib</text><rect fill="#FEFECE" filter="url(#f3v9dwimn40wu)" height="36.2969" rx="12.5" ry="12.5" style="stroke: #A80036; stroke-width: 1.5;" width="216" x="409" y="68.9375"/><text fill="#000000" font-family="sans-serif" font-size="14" lengthAdjust="spacingAndGlyphs" textLength="196" x="419" y="91.9326">the input and output of pdlib</text><path d="M359,143.3828 L369,143.3828 C384,143.3828 384,87.0859 399,87.0859 L409,87.0859 " fill="none" style="stroke: #A80036; stroke-width: 1.0;"/><rect fill="#FEFECE" filter="url(#f3v9dwimn40wu)" height="36.2969" rx="12.5" ry="12.5" style="stroke: #A80036; stroke-width: 1.5;" width="108" x="409" y="125.2344"/><text fill="#000000" font-family="sans-serif" font-size="14" lengthAdjust="spacingAndGlyphs" textLength="88" x="419" y="148.2295">performance</text><path d="M359,143.3828 L369,143.3828 C384,143.3828 384,143.3828 399,143.3828 L409,143.3828 " fill="none" style="stroke: #A80036; stroke-width: 1.0;"/><rect fill="#FEFECE" filter="url(#f3v9dwimn40wu)" height="36.2969" rx="12.5" ry="12.5" style="stroke: #A80036; stroke-width: 1.5;" width="243" x="409" y="181.5313"/><text fill="#000000" font-family="sans-serif" font-size="14" lengthAdjust="spacingAndGlyphs" textLength="223" x="419" y="204.5264">hw process and sw process gap</text><path d="M359,143.3828 L369,143.3828 C384,143.3828 384,199.6797 399,199.6797 L409,199.6797 " fill="none" style="stroke: #A80036; stroke-width: 1.0;"/><path d="M256,340.4219 L266,340.4219 C281,340.4219 281,143.3828 296,143.3828 L306,143.3828 " fill="none" style="stroke: #A80036; stroke-width: 1.0;"/><rect fill="#FEFECE" filter="url(#f3v9dwimn40wu)" height="36.2969" rx="12.5" ry="12.5" style="stroke: #A80036; stroke-width: 1.5;" width="47" x="306" y="181.5313"/><text fill="#000000" font-family="sans-serif" font-size="14" lengthAdjust="spacingAndGlyphs" textLength="27" x="316" y="204.5264">LCR</text><path d="M256,340.4219 L266,340.4219 C281,340.4219 281,199.6797 296,199.6797 L306,199.6797 " fill="none" style="stroke: #A80036; stroke-width: 1.0;"/><rect fill="#FEFECE" filter="url(#f3v9dwimn40wu)" height="36.2969" rx="12.5" ry="12.5" style="stroke: #A80036; stroke-width: 1.5;" width="168" x="306" y="237.8281"/><text fill="#000000" font-family="sans-serif" font-size="14" lengthAdjust="spacingAndGlyphs" textLength="148" x="316" y="260.8232">low light performance</text><path d="M256,340.4219 L266,340.4219 C281,340.4219 281,255.9766 296,255.9766 L306,255.9766 " fill="none" style="stroke: #A80036; stroke-width: 1.0;"/><rect fill="#FEFECE" filter="url(#f3v9dwimn40wu)" height="36.2969" rx="12.5" ry="12.5" style="stroke: #A80036; stroke-width: 1.5;" width="48" x="306" y="322.2734"/><text fill="#000000" font-family="sans-serif" font-size="14" lengthAdjust="spacingAndGlyphs" textLength="28" x="316" y="345.2686">TOF</text><rect fill="#FEFECE" filter="url(#f3v9dwimn40wu)" height="36.2969" rx="12.5" ry="12.5" style="stroke: #A80036; stroke-width: 1.5;" width="66" x="404" y="294.125"/><text fill="#000000" font-family="sans-serif" font-size="14" lengthAdjust="spacingAndGlyphs" textLength="46" x="414" y="317.1201">FixFOV</text><path d="M354,340.4219 L364,340.4219 C379,340.4219 379,312.2734 394,312.2734 L404,312.2734 " fill="none" style="stroke: #A80036; stroke-width: 1.0;"/><rect fill="#FEFECE" filter="url(#f3v9dwimn40wu)" height="36.2969" rx="12.5" ry="12.5" style="stroke: #A80036; stroke-width: 1.5;" width="166" x="404" y="350.4219"/><text fill="#000000" font-family="sans-serif" font-size="14" lengthAdjust="spacingAndGlyphs" textLength="146" x="414" y="373.417">floatFOV multiwindow</text><path d="M354,340.4219 L364,340.4219 C379,340.4219 379,368.5703 394,368.5703 L404,368.5703 " fill="none" style="stroke: #A80036; stroke-width: 1.0;"/><path d="M256,340.4219 L266,340.4219 C281,340.4219 281,340.4219 296,340.4219 L306,340.4219 " fill="none" style="stroke: #A80036; stroke-width: 1.0;"/><rect fill="#FEFECE" filter="url(#f3v9dwimn40wu)" height="36.2969" rx="12.5" ry="12.5" style="stroke: #A80036; stroke-width: 1.5;" width="61" x="306" y="406.7188"/><text fill="#000000" font-family="sans-serif" font-size="14" lengthAdjust="spacingAndGlyphs" textLength="41" x="316" y="429.7139">DCIAF</text><path d="M256,340.4219 L266,340.4219 C281,340.4219 281,424.8672 296,424.8672 L306,424.8672 " fill="none" style="stroke: #A80036; stroke-width: 1.0;"/><rect fill="#FEFECE" filter="url(#f3v9dwimn40wu)" height="36.2969" rx="12.5" ry="12.5" style="stroke: #A80036; stroke-width: 1.5;" width="81" x="306" y="463.0156"/><text fill="#000000" font-family="sans-serif" font-size="14" lengthAdjust="spacingAndGlyphs" textLength="61" x="316" y="486.0107">TouchAF</text><path d="M256,340.4219 L266,340.4219 C281,340.4219 281,481.1641 296,481.1641 L306,481.1641 " fill="none" style="stroke: #A80036; stroke-width: 1.0;"/><rect fill="#FEFECE" filter="url(#f3v9dwimn40wu)" height="36.2969" rx="12.5" ry="12.5" style="stroke: #A80036; stroke-width: 1.5;" width="75" x="306" y="519.3125"/><text fill="#000000" font-family="sans-serif" font-size="14" lengthAdjust="spacingAndGlyphs" textLength="55" x="316" y="542.3076">TrackAF</text><path d="M256,340.4219 L266,340.4219 C281,340.4219 281,537.4609 296,537.4609 L306,537.4609 " fill="none" style="stroke: #A80036; stroke-width: 1.0;"/><rect fill="#FEFECE" filter="url(#f3v9dwimn40wu)" height="36.2969" rx="12.5" ry="12.5" style="stroke: #A80036; stroke-width: 1.5;" width="70" x="306" y="575.6094"/><text fill="#000000" font-family="sans-serif" font-size="14" lengthAdjust="spacingAndGlyphs" textLength="50" x="316" y="598.6045">FaceAF</text><path d="M256,340.4219 L266,340.4219 C281,340.4219 281,593.7578 296,593.7578 L306,593.7578 " fill="none" style="stroke: #A80036; stroke-width: 1.0;"/><path d="M100,678.2031 L110,678.2031 C125,678.2031 125,340.4219 140,340.4219 L150,340.4219 " fill="none" style="stroke: #A80036; stroke-width: 1.0;"/><rect fill="#FEFECE" filter="url(#f3v9dwimn40wu)" height="36.2969" rx="12.5" ry="12.5" style="stroke: #A80036; stroke-width: 1.5;" width="120" x="150" y="660.0547"/><text fill="#000000" font-family="sans-serif" font-size="14" lengthAdjust="spacingAndGlyphs" textLength="100" x="160" y="683.0498">AutoExplosure</text><rect fill="#FEFECE" filter="url(#f3v9dwimn40wu)" height="36.2969" rx="12.5" ry="12.5" style="stroke: #A80036; stroke-width: 1.5;" width="135" x="320" y="660.0547"/><text fill="#000000" font-family="sans-serif" font-size="14" lengthAdjust="spacingAndGlyphs" textLength="115" x="330" y="683.0498">How AE affect AF</text><rect fill="#FEFECE" filter="url(#f3v9dwimn40wu)" height="36.2969" rx="12.5" ry="12.5" style="stroke: #A80036; stroke-width: 1.5;" width="215" x="505" y="631.9063"/><text fill="#000000" font-family="sans-serif" font-size="14" lengthAdjust="spacingAndGlyphs" textLength="195" x="515" y="654.9014">why AF should wait AE settle</text><path d="M455,678.2031 L465,678.2031 C480,678.2031 480,650.0547 495,650.0547 L505,650.0547 " fill="none" style="stroke: #A80036; stroke-width: 1.0;"/><rect fill="#FEFECE" filter="url(#f3v9dwimn40wu)" height="36.2969" rx="12.5" ry="12.5" style="stroke: #A80036; stroke-width: 1.5;" width="354" x="505" y="688.2031"/><text fill="#000000" font-family="sans-serif" font-size="14" lengthAdjust="spacingAndGlyphs" textLength="334" x="515" y="711.1982">would scene light/ sensor gain affect AF process</text><path d="M455,678.2031 L465,678.2031 C480,678.2031 480,706.3516 495,706.3516 L505,706.3516 " fill="none" style="stroke: #A80036; stroke-width: 1.0;"/><path d="M270,678.2031 L280,678.2031 C295,678.2031 295,678.2031 310,678.2031 L320,678.2031 " fill="none" style="stroke: #A80036; stroke-width: 1.0;"/><path d="M100,678.2031 L110,678.2031 C125,678.2031 125,678.2031 140,678.2031 L150,678.2031 " fill="none" style="stroke: #A80036; stroke-width: 1.0;"/><rect fill="#FEFECE" filter="url(#f3v9dwimn40wu)" height="36.2969" rx="12.5" ry="12.5" style="stroke: #A80036; stroke-width: 1.5;" width="146" x="150" y="744.5"/><text fill="#000000" font-family="sans-serif" font-size="14" lengthAdjust="spacingAndGlyphs" textLength="126" x="160" y="767.4951">AutoWhiteBalance</text><path d="M100,678.2031 L110,678.2031 C125,678.2031 125,762.6484 140,762.6484 L150,762.6484 " fill="none" style="stroke: #A80036; stroke-width: 1.0;"/><rect fill="#FEFECE" filter="url(#f3v9dwimn40wu)" height="36.2969" rx="12.5" ry="12.5" style="stroke: #A80036; stroke-width: 1.5;" width="41" x="150" y="828.9453"/><text fill="#000000" font-family="sans-serif" font-size="14" lengthAdjust="spacingAndGlyphs" textLength="21" x="160" y="851.9404">ISP</text><rect fill="#FEFECE" filter="url(#f3v9dwimn40wu)" height="36.2969" rx="12.5" ry="12.5" style="stroke: #A80036; stroke-width: 1.5;" width="313" x="241" y="800.7969"/><text fill="#000000" font-family="sans-serif" font-size="14" lengthAdjust="spacingAndGlyphs" textLength="293" x="251" y="823.792">how ISP process pixel and output Bayer AF</text><path d="M191,847.0938 L201,847.0938 C216,847.0938 216,818.9453 231,818.9453 L241,818.9453 " fill="none" style="stroke: #A80036; stroke-width: 1.0;"/><rect fill="#FEFECE" filter="url(#f3v9dwimn40wu)" height="36.2969" rx="12.5" ry="12.5" style="stroke: #A80036; stroke-width: 1.5;" width="479" x="241" y="857.0938"/><text fill="#000000" font-family="sans-serif" font-size="14" lengthAdjust="spacingAndGlyphs" textLength="459" x="251" y="880.0889">how PD stats from sensor output, like HBI or VBI, has any different?</text><path d="M191,847.0938 L201,847.0938 C216,847.0938 216,875.2422 231,875.2422 L241,875.2422 " fill="none" style="stroke: #A80036; stroke-width: 1.0;"/><path d="M100,678.2031 L110,678.2031 C125,678.2031 125,847.0938 140,847.0938 L150,847.0938 " fill="none" style="stroke: #A80036; stroke-width: 1.0;"/><rect fill="#FEFECE" filter="url(#f3v9dwimn40wu)" height="36.2969" rx="12.5" ry="12.5" style="stroke: #A80036; stroke-width: 1.5;" width="69" x="150" y="941.5391"/><text fill="#000000" font-family="sans-serif" font-size="14" lengthAdjust="spacingAndGlyphs" textLength="49" x="160" y="964.5342">Sensor</text><rect fill="#FEFECE" filter="url(#f3v9dwimn40wu)" height="36.2969" rx="12.5" ry="12.5" style="stroke: #A80036; stroke-width: 1.5;" width="200" x="269" y="913.3906"/><text fill="#000000" font-family="sans-serif" font-size="14" lengthAdjust="spacingAndGlyphs" textLength="180" x="279" y="936.3857">how many PD type sensor</text><path d="M219,959.6875 L229,959.6875 C244,959.6875 244,931.5391 259,931.5391 L269,931.5391 " fill="none" style="stroke: #A80036; stroke-width: 1.0;"/><rect fill="#FEFECE" filter="url(#f3v9dwimn40wu)" height="36.2969" rx="12.5" ry="12.5" style="stroke: #A80036; stroke-width: 1.5;" width="467" x="269" y="969.6875"/><text fill="#000000" font-family="sans-serif" font-size="14" lengthAdjust="spacingAndGlyphs" textLength="447" x="279" y="992.6826">how many frame when change sensor register, we can get effect</text><path d="M219,959.6875 L229,959.6875 C244,959.6875 244,987.8359 259,987.8359 L269,987.8359 " fill="none" style="stroke: #A80036; stroke-width: 1.0;"/><path d="M100,678.2031 L110,678.2031 C125,678.2031 125,959.6875 140,959.6875 L150,959.6875 " fill="none" style="stroke: #A80036; stroke-width: 1.0;"/><rect fill="#FEFECE" filter="url(#f3v9dwimn40wu)" height="36.2969" rx="12.5" ry="12.5" style="stroke: #A80036; stroke-width: 1.5;" width="52" x="150" y="1025.9844"/><text fill="#000000" font-family="sans-serif" font-size="14" lengthAdjust="spacingAndGlyphs" textLength="32" x="160" y="1048.9795">flash</text><rect fill="#FEFECE" filter="url(#f3v9dwimn40wu)" height="36.2969" rx="12.5" ry="12.5" style="stroke: #A80036; stroke-width: 1.5;" width="119" x="252" y="1025.9844"/><text fill="#000000" font-family="sans-serif" font-size="14" lengthAdjust="spacingAndGlyphs" textLength="99" x="262" y="1048.9795">when flash fire</text><path d="M202,1044.1328 L212,1044.1328 C227,1044.1328 227,1044.1328 242,1044.1328 L252,1044.1328 " fill="none" style="stroke: #A80036; stroke-width: 1.0;"/><path d="M100,678.2031 L110,678.2031 C125,678.2031 125,1044.1328 140,1044.1328 L150,1044.1328 " fill="none" style="stroke: #A80036; stroke-width: 1.0;"/><rect fill="#FEFECE" filter="url(#f3v9dwimn40wu)" height="36.2969" rx="12.5" ry="12.5" style="stroke: #A80036; stroke-width: 1.5;" width="63" x="150" y="1082.2813"/><text fill="#000000" font-family="sans-serif" font-size="14" lengthAdjust="spacingAndGlyphs" textLength="43" x="160" y="1105.2764">kernel</text><rect fill="#FEFECE" filter="url(#f3v9dwimn40wu)" height="36.2969" rx="12.5" ry="12.5" style="stroke: #A80036; stroke-width: 1.5;" width="156" x="263" y="1082.2813"/><text fill="#000000" font-family="sans-serif" font-size="14" lengthAdjust="spacingAndGlyphs" textLength="136" x="273" y="1105.2764">all peripheral device</text><path d="M213,1100.4297 L223,1100.4297 C238,1100.4297 238,1100.4297 253,1100.4297 L263,1100.4297 " fill="none" style="stroke: #A80036; stroke-width: 1.0;"/><path d="M100,678.2031 L110,678.2031 C125,678.2031 125,1100.4297 140,1100.4297 L150,1100.4297 " fill="none" style="stroke: #A80036; stroke-width: 1.0;"/><rect fill="#FEFECE" filter="url(#f3v9dwimn40wu)" height="36.2969" rx="12.5" ry="12.5" style="stroke: #A80036; stroke-width: 1.5;" width="77" x="150" y="1166.7266"/><text fill="#000000" font-family="sans-serif" font-size="14" lengthAdjust="spacingAndGlyphs" textLength="57" x="160" y="1189.7217">actuator</text><rect fill="#FEFECE" filter="url(#f3v9dwimn40wu)" height="36.2969" rx="12.5" ry="12.5" style="stroke: #A80036; stroke-width: 1.5;" width="331" x="277" y="1138.5781"/><text fill="#000000" font-family="sans-serif" font-size="14" lengthAdjust="spacingAndGlyphs" textLength="311" x="287" y="1161.5732">how long did actuator take from start to finish</text><path d="M227,1184.875 L237,1184.875 C252,1184.875 252,1156.7266 267,1156.7266 L277,1156.7266 " fill="none" style="stroke: #A80036; stroke-width: 1.0;"/><rect fill="#FEFECE" filter="url(#f3v9dwimn40wu)" height="36.2969" rx="12.5" ry="12.5" style="stroke: #A80036; stroke-width: 1.5;" width="261" x="277" y="1194.875"/><text fill="#000000" font-family="sans-serif" font-size="14" lengthAdjust="spacingAndGlyphs" textLength="241" x="287" y="1217.8701">the start and park place of actuator</text><path d="M227,1184.875 L237,1184.875 C252,1184.875 252,1213.0234 267,1213.0234 L277,1213.0234 " fill="none" style="stroke: #A80036; stroke-width: 1.0;"/><path d="M100,678.2031 L110,678.2031 C125,678.2031 125,1184.875 140,1184.875 L150,1184.875 " fill="none" style="stroke: #A80036; stroke-width: 1.0;"/><rect fill="#FEFECE" filter="url(#f3v9dwimn40wu)" height="36.2969" rx="12.5" ry="12.5" style="stroke: #A80036; stroke-width: 1.5;" width="228" x="150" y="1251.1719"/><text fill="#000000" font-family="sans-serif" font-size="14" lengthAdjust="spacingAndGlyphs" textLength="208" x="160" y="1274.167">cowork with the whole system</text><path d="M100,678.2031 L110,678.2031 C125,678.2031 125,1269.3203 140,1269.3203 L150,1269.3203 " fill="none" style="stroke: #A80036; stroke-width: 1.0;"/><rect fill="#DDDDDD" height="26.2969" rx="5" ry="5" style="stroke: #000000; stroke-width: 1.0;" width="100" x="700" y="1305.4688"/><text fill="#000000" font-family="sans-serif" font-size="14" lengthAdjust="spacingAndGlyphs" textLength="88" x="706" y="1323.4639">short legend</text><rect fill="none" height="16.2969" style="stroke: none; stroke-width: 1.0;" width="29" x="394.5" y="1341.7656"/><text fill="#000000" font-family="sans-serif" font-size="14" lengthAdjust="spacingAndGlyphs" textLength="29" x="394.5" y="1354.7607">fig 1</text><text fill="#888888" font-family="sans-serif" font-size="10" lengthAdjust="spacingAndGlyphs" textLength="78" x="370.5" y="1369.3447">My super footer</text><!--MD5=[9a9eab4cdfa544dd3f1088ff0b0deb69]
@startmindmap
caption fig 1
title What should a AF Expert Know

* Autofocus
** AF Algorithm
*** pdlib
**** the input and output of pdlib
**** performance
**** hw process and sw process gap
*** LCR
*** low light performance
*** TOF
**** FixFOV
**** floatFOV multiwindow
*** DCIAF
*** TouchAF
*** TrackAF
*** FaceAF
** AutoExplosure
*** How AE affect AF
**** why AF should wait AE settle
**** would scene light/ sensor gain affect AF process
** AutoWhiteBalance
** ISP
*** how ISP process pixel and output Bayer AF
*** how PD stats from sensor output, like HBI or VBI, has any different?
** Sensor
*** how many PD type sensor
*** how many frame when change sensor register, we can get effect
** flash
*** when flash fire
** kernel
*** all peripheral device
** actuator
*** how long did actuator take from start to finish
*** the start and park place of actuator
** cowork with the whole system


header 
My super header
endheader

center footer My super footer
legend right
    short legend
endlegend
@endmindmap

PlantUML version 1.2020.00(Sat Jan 11 12:30:53 GMT 2020)
(GPL source distribution)
Java Runtime: OpenJDK Runtime Environment
JVM: OpenJDK 64-Bit Server VM
Java Version: 11.0.6+10-post-Ubuntu-1ubuntu118.04.1
Operating System: Linux
Default Encoding: ANSI_X3.4-1968
Language: en
Country: US
--></g></svg>