<?xml version="1.0" encoding="UTF-8" standalone="no"?><svg xmlns="http://www.w3.org/2000/svg" xmlns:xlink="http://www.w3.org/1999/xlink" contentScriptType="application/ecmascript" contentStyleType="text/css" height="452px" preserveAspectRatio="none" style="width:866px;height:452px;" version="1.1" viewBox="0 0 866 452" width="866px" zoomAndPan="magnify"><defs><filter height="300%" id="f1vthdoifezq3n" width="300%" x="-1" y="-1"><feGaussianBlur result="blurOut" stdDeviation="2.0"/><feColorMatrix in="blurOut" result="blurOut2" type="matrix" values="0 0 0 0 0 0 0 0 0 0 0 0 0 0 0 0 0 0 .4 0"/><feOffset dx="4.0" dy="4.0" in="blurOut2" result="blurOut3"/><feBlend in="SourceGraphic" in2="blurOut3" mode="normal"/></filter></defs><g><rect fill="#FFFFFF" filter="url(#f1vthdoifezq3n)" height="336.8672" style="stroke: #000000; stroke-width: 2.0;" width="849.5" x="6" y="56.6094"/><rect fill="#FFFFFF" filter="url(#f1vthdoifezq3n)" height="109.4063" style="stroke: #000000; stroke-width: 2.0;" width="721" x="124.5" y="216.3672"/><line style="stroke: #A80036; stroke-width: 1.0; stroke-dasharray: 5.0,5.0;" x1="187.5" x2="187.5" y1="39.6094" y2="410.4766"/><line style="stroke: #A80036; stroke-width: 1.0; stroke-dasharray: 5.0,5.0;" x1="359.5" x2="359.5" y1="39.6094" y2="410.4766"/><line style="stroke: #A80036; stroke-width: 1.0; stroke-dasharray: 5.0,5.0;" x1="469.5" x2="469.5" y1="39.6094" y2="410.4766"/><line style="stroke: #A80036; stroke-width: 1.0; stroke-dasharray: 5.0,5.0;" x1="581.5" x2="581.5" y1="39.6094" y2="410.4766"/><line style="stroke: #A80036; stroke-width: 1.0; stroke-dasharray: 5.0,5.0;" x1="698.5" x2="698.5" y1="39.6094" y2="410.4766"/><line style="stroke: #A80036; stroke-width: 1.0; stroke-dasharray: 5.0,5.0;" x1="798.5" x2="798.5" y1="39.6094" y2="410.4766"/><rect fill="#FEFECE" filter="url(#f1vthdoifezq3n)" height="31.6094" style="stroke: #A80036; stroke-width: 1.5;" width="103" x="134.5" y="3"/><text fill="#000000" font-family="sans-serif" font-size="14" lengthAdjust="spacingAndGlyphs" textLength="89" x="141.5" y="24.5332">q3a_module.c</text><rect fill="#FEFECE" filter="url(#f1vthdoifezq3n)" height="31.6094" style="stroke: #A80036; stroke-width: 1.5;" width="103" x="134.5" y="409.4766"/><text fill="#000000" font-family="sans-serif" font-size="14" lengthAdjust="spacingAndGlyphs" textLength="89" x="141.5" y="431.0098">q3a_module.c</text><rect fill="#FEFECE" filter="url(#f1vthdoifezq3n)" height="31.6094" style="stroke: #A80036; stroke-width: 1.5;" width="101" x="307.5" y="3"/><text fill="#000000" font-family="sans-serif" font-size="14" lengthAdjust="spacingAndGlyphs" textLength="87" x="314.5" y="24.5332">mct_module.c</text><rect fill="#FEFECE" filter="url(#f1vthdoifezq3n)" height="31.6094" style="stroke: #A80036; stroke-width: 1.5;" width="101" x="307.5" y="409.4766"/><text fill="#000000" font-family="sans-serif" font-size="14" lengthAdjust="spacingAndGlyphs" textLength="87" x="314.5" y="431.0098">mct_module.c</text><rect fill="#FEFECE" filter="url(#f1vthdoifezq3n)" height="31.6094" style="stroke: #A80036; stroke-width: 1.5;" width="91" x="422.5" y="3"/><text fill="#000000" font-family="sans-serif" font-size="14" lengthAdjust="spacingAndGlyphs" textLength="77" x="429.5" y="24.5332">af_module.c</text><rect fill="#FEFECE" filter="url(#f1vthdoifezq3n)" height="31.6094" style="stroke: #A80036; stroke-width: 1.5;" width="91" x="422.5" y="409.4766"/><text fill="#000000" font-family="sans-serif" font-size="14" lengthAdjust="spacingAndGlyphs" textLength="77" x="429.5" y="431.0098">af_module.c</text><rect fill="#FEFECE" filter="url(#f1vthdoifezq3n)" height="31.6094" style="stroke: #A80036; stroke-width: 1.5;" width="104" x="527.5" y="3"/><text fill="#000000" font-family="sans-serif" font-size="14" lengthAdjust="spacingAndGlyphs" textLength="90" x="534.5" y="24.5332">awb_module.c</text><rect fill="#FEFECE" filter="url(#f1vthdoifezq3n)" height="31.6094" style="stroke: #A80036; stroke-width: 1.5;" width="104" x="527.5" y="409.4766"/><text fill="#000000" font-family="sans-serif" font-size="14" lengthAdjust="spacingAndGlyphs" textLength="90" x="534.5" y="431.0098">awb_module.c</text><rect fill="#FEFECE" filter="url(#f1vthdoifezq3n)" height="31.6094" style="stroke: #A80036; stroke-width: 1.5;" width="102" x="645.5" y="3"/><text fill="#000000" font-family="sans-serif" font-size="14" lengthAdjust="spacingAndGlyphs" textLength="88" x="652.5" y="24.5332">aec_module.c</text><rect fill="#FEFECE" filter="url(#f1vthdoifezq3n)" height="31.6094" style="stroke: #A80036; stroke-width: 1.5;" width="102" x="645.5" y="409.4766"/><text fill="#000000" font-family="sans-serif" font-size="14" lengthAdjust="spacingAndGlyphs" textLength="88" x="652.5" y="431.0098">aec_module.c</text><rect fill="#FEFECE" filter="url(#f1vthdoifezq3n)" height="31.6094" style="stroke: #A80036; stroke-width: 1.5;" width="70" x="761.5" y="3"/><text fill="#000000" font-family="sans-serif" font-size="14" lengthAdjust="spacingAndGlyphs" textLength="56" x="768.5" y="24.5332">af_port.c</text><rect fill="#FEFECE" filter="url(#f1vthdoifezq3n)" height="31.6094" style="stroke: #A80036; stroke-width: 1.5;" width="70" x="761.5" y="409.4766"/><text fill="#000000" font-family="sans-serif" font-size="14" lengthAdjust="spacingAndGlyphs" textLength="56" x="768.5" y="431.0098">af_port.c</text><rect fill="none" height="336.8672" style="stroke: #000000; stroke-width: 2.0;" width="849.5" x="6" y="56.6094"/><polygon fill="#EEEEEE" points="6,56.6094,255,56.6094,255,64.6094,245,74.6094,6,74.6094,6,56.6094" style="stroke: #000000; stroke-width: 2.0;"/><text fill="#000000" font-family="sans-serif" font-size="13" font-weight="bold" lengthAdjust="spacingAndGlyphs" textLength="204" x="21" y="71.1045">q3a_module_stop_session detail</text><polygon fill="#A80036" points="176,92.9609,186,96.9609,176,100.9609,180,96.9609" style="stroke: #A80036; stroke-width: 1.0;"/><line style="stroke: #A80036; stroke-width: 1.0;" x1="3" x2="182" y1="96.9609" y2="96.9609"/><text fill="#000000" font-family="sans-serif" font-size="13" lengthAdjust="spacingAndGlyphs" textLength="154" x="10" y="92.4561">q3a_module_stop_session</text><polygon fill="#A80036" points="348,123.3125,358,127.3125,348,131.3125,352,127.3125" style="stroke: #A80036; stroke-width: 1.0;"/><line style="stroke: #A80036; stroke-width: 1.0;" x1="188" x2="354" y1="127.3125" y2="127.3125"/><text fill="#000000" font-family="sans-serif" font-size="13" lengthAdjust="spacingAndGlyphs" textLength="148" x="195" y="122.8076">mct_module_remove_port</text><line style="stroke: #A80036; stroke-width: 1.0;" x1="188" x2="230" y1="158.0156" y2="158.0156"/><line style="stroke: #A80036; stroke-width: 1.0;" x1="230" x2="230" y1="158.0156" y2="171.0156"/><line style="stroke: #A80036; stroke-width: 1.0;" x1="189" x2="230" y1="171.0156" y2="171.0156"/><polygon fill="#A80036" points="199,167.0156,189,171.0156,199,175.0156,195,171.0156" style="stroke: #A80036; stroke-width: 1.0;"/><text fill="#000000" font-family="sans-serif" font-size="13" lengthAdjust="spacingAndGlyphs" textLength="88" x="195" y="153.1592">q3a_port_deinit</text><polygon fill="#A80036" points="458,197.0156,468,201.0156,458,205.0156,462,201.0156" style="stroke: #A80036; stroke-width: 1.0;"/><line style="stroke: #A80036; stroke-width: 1.0;" x1="188" x2="464" y1="201.0156" y2="201.0156"/><text fill="#000000" font-family="sans-serif" font-size="13" lengthAdjust="spacingAndGlyphs" textLength="143" x="195" y="196.5107">af_module_stop_session</text><rect fill="none" height="109.4063" style="stroke: #000000; stroke-width: 2.0;" width="721" x="124.5" y="216.3672"/><polygon fill="#EEEEEE" points="124.5,216.3672,362.5,216.3672,362.5,224.3672,352.5,234.3672,124.5,234.3672,124.5,216.3672" style="stroke: #000000; stroke-width: 2.0;"/><text fill="#000000" font-family="sans-serif" font-size="13" font-weight="bold" lengthAdjust="spacingAndGlyphs" textLength="193" x="139.5" y="230.8623">af_module_stop_session detail</text><polygon fill="#A80036" points="348,252.7188,358,256.7188,348,260.7188,352,256.7188" style="stroke: #A80036; stroke-width: 1.0;"/><line style="stroke: #A80036; stroke-width: 1.0;" x1="188" x2="354" y1="256.7188" y2="256.7188"/><text fill="#000000" font-family="sans-serif" font-size="13" lengthAdjust="spacingAndGlyphs" textLength="148" x="195" y="252.2139">mct_module_remove_port</text><polygon fill="#A80036" points="786.5,283.0703,796.5,287.0703,786.5,291.0703,790.5,287.0703" style="stroke: #A80036; stroke-width: 1.0;"/><line style="stroke: #A80036; stroke-width: 1.0;" x1="188" x2="792.5" y1="287.0703" y2="287.0703"/><text fill="#000000" font-family="sans-serif" font-size="13" lengthAdjust="spacingAndGlyphs" textLength="77" x="195" y="282.5654">af_port_deinit</text><polygon fill="#A80036" points="348,313.4219,358,317.4219,348,321.4219,352,317.4219" style="stroke: #A80036; stroke-width: 1.0;"/><line style="stroke: #A80036; stroke-width: 1.0;" x1="188" x2="354" y1="317.4219" y2="317.4219"/><text fill="#000000" font-family="sans-serif" font-size="13" lengthAdjust="spacingAndGlyphs" textLength="101" x="195" y="312.917">mct_port_destory</text><polygon fill="#A80036" points="569.5,350.7734,579.5,354.7734,569.5,358.7734,573.5,354.7734" style="stroke: #A80036; stroke-width: 1.0;"/><line style="stroke: #A80036; stroke-width: 1.0;" x1="188" x2="575.5" y1="354.7734" y2="354.7734"/><text fill="#000000" font-family="sans-serif" font-size="13" font-weight="bold" lengthAdjust="spacingAndGlyphs" textLength="41" x="195" y="350.2686">TODO:</text><polygon fill="#A80036" points="686.5,381.125,696.5,385.125,686.5,389.125,690.5,385.125" style="stroke: #A80036; stroke-width: 1.0;"/><line style="stroke: #A80036; stroke-width: 1.0;" x1="188" x2="692.5" y1="385.125" y2="385.125"/><text fill="#000000" font-family="sans-serif" font-size="13" font-weight="bold" lengthAdjust="spacingAndGlyphs" textLength="41" x="195" y="380.6201">TODO:</text><!--
@startuml
participant q3a_module.c as q3a_module
participant mct_module.c as mct_module
participant af_module.c as af_module
participant awb_module.c as awb_module
participant aec_module.c as aec_module
participant af_port.c as af_port

group q3a_module_stop_session detail

  [->q3a_module: q3a_module_stop_session
  q3a_module->mct_module: mct_module_remove_port
  q3a_module->q3a_module: q3a_port_deinit
  q3a_module->af_module: af_module_stop_session

  group **af_module_stop_session detail**
    q3a_module->mct_module: mct_module_remove_port
    q3a_module->af_port: af_port_deinit
    q3a_module->mct_module: mct_port_destory
  end

  q3a_module->awb_module: **TODO: **
  q3a_module->aec_module: **TODO: **

end

@enduml

PlantUML version 1.2017.20(Tue Dec 12 00:57:05 CST 2017)
(GPL source distribution)
Java Runtime: Java(TM) SE Runtime Environment
JVM: Java HotSpot(TM) Client VM
Java Version: 1.8.0_151-b12
Operating System: Windows 10
OS Version: 10.0
Default Encoding: Cp1252
Language: en
Country: US
--></g></svg>