<?xml version="1.0" encoding="UTF-8" standalone="no"?><svg xmlns="http://www.w3.org/2000/svg" xmlns:xlink="http://www.w3.org/1999/xlink" contentScriptType="application/ecmascript" contentStyleType="text/css" height="1816px" preserveAspectRatio="none" style="width:315px;height:1816px;" version="1.1" viewBox="0 0 315 1816" width="315px" zoomAndPan="magnify"><defs><filter height="300%" id="fujjyovr110n9" width="300%" x="-1" y="-1"><feGaussianBlur result="blurOut" stdDeviation="2.0"/><feColorMatrix in="blurOut" result="blurOut2" type="matrix" values="0 0 0 0 0 0 0 0 0 0 0 0 0 0 0 0 0 0 .4 0"/><feOffset dx="4.0" dy="4.0" in="blurOut2" result="blurOut3"/><feBlend in="SourceGraphic" in2="blurOut3" mode="normal"/></filter></defs><g><text fill="#000000" font-family="sans-serif" font-size="14" font-weight="bold" lengthAdjust="spacingAndGlyphs" textLength="131" x="31" y="24.5332">3A sync of SDM660</text><a target="_top" xlink:actuate="onRequest" xlink:href="https://confluence.qualcomm.com/confluence/display/3AWIDETELE/3A+Sync+Design" xlink:show="new" xlink:title="https://confluence.qualcomm.com/confluence/display/3AWIDETELE/3A+Sync+Design" xlink:type="simple"><text fill="#0000FF" font-family="sans-serif" font-size="14" font-weight="bold" lengthAdjust="spacingAndGlyphs" text-decoration="underline" textLength="109" x="166" y="24.5332">ReferencePage</text><line style="stroke: #0000FF; stroke-width: 1.0;" x1="166" x2="275" y1="26.5332" y2="26.5332"/></a><line style="stroke: #A80036; stroke-width: 1.0;" x1="30" x2="30" y1="71.2188" y2="288.0313"/><line style="stroke: #A80036; stroke-width: 1.0; stroke-dasharray: 1.0,4.0;" x1="30" x2="30" y1="288.0313" y2="329.8672"/><line style="stroke: #A80036; stroke-width: 1.0;" x1="30" x2="30" y1="329.8672" y2="520.3281"/><line style="stroke: #A80036; stroke-width: 1.0; stroke-dasharray: 1.0,4.0;" x1="30" x2="30" y1="520.3281" y2="562.1641"/><line style="stroke: #A80036; stroke-width: 1.0;" x1="30" x2="30" y1="562.1641" y2="703.5703"/><line style="stroke: #A80036; stroke-width: 1.0; stroke-dasharray: 1.0,4.0;" x1="30" x2="30" y1="703.5703" y2="745.4063"/><line style="stroke: #A80036; stroke-width: 1.0;" x1="30" x2="30" y1="745.4063" y2="1267.7344"/><line style="stroke: #A80036; stroke-width: 1.0; stroke-dasharray: 1.0,4.0;" x1="30" x2="30" y1="1267.7344" y2="1309.5703"/><line style="stroke: #A80036; stroke-width: 1.0;" x1="30" x2="30" y1="1309.5703" y2="1450.9766"/><line style="stroke: #A80036; stroke-width: 1.0; stroke-dasharray: 1.0,4.0;" x1="30" x2="30" y1="1450.9766" y2="1492.8125"/><line style="stroke: #A80036; stroke-width: 1.0;" x1="30" x2="30" y1="1492.8125" y2="1775.0313"/><line style="stroke: #A80036; stroke-width: 1.0;" x1="132.5" x2="132.5" y1="71.2188" y2="288.0313"/><line style="stroke: #A80036; stroke-width: 1.0; stroke-dasharray: 1.0,4.0;" x1="132.5" x2="132.5" y1="288.0313" y2="329.8672"/><line style="stroke: #A80036; stroke-width: 1.0;" x1="132.5" x2="132.5" y1="329.8672" y2="520.3281"/><line style="stroke: #A80036; stroke-width: 1.0; stroke-dasharray: 1.0,4.0;" x1="132.5" x2="132.5" y1="520.3281" y2="562.1641"/><line style="stroke: #A80036; stroke-width: 1.0;" x1="132.5" x2="132.5" y1="562.1641" y2="703.5703"/><line style="stroke: #A80036; stroke-width: 1.0; stroke-dasharray: 1.0,4.0;" x1="132.5" x2="132.5" y1="703.5703" y2="745.4063"/><line style="stroke: #A80036; stroke-width: 1.0;" x1="132.5" x2="132.5" y1="745.4063" y2="1267.7344"/><line style="stroke: #A80036; stroke-width: 1.0; stroke-dasharray: 1.0,4.0;" x1="132.5" x2="132.5" y1="1267.7344" y2="1309.5703"/><line style="stroke: #A80036; stroke-width: 1.0;" x1="132.5" x2="132.5" y1="1309.5703" y2="1450.9766"/><line style="stroke: #A80036; stroke-width: 1.0; stroke-dasharray: 1.0,4.0;" x1="132.5" x2="132.5" y1="1450.9766" y2="1492.8125"/><line style="stroke: #A80036; stroke-width: 1.0;" x1="132.5" x2="132.5" y1="1492.8125" y2="1775.0313"/><line style="stroke: #A80036; stroke-width: 1.0;" x1="215.5" x2="215.5" y1="71.2188" y2="288.0313"/><line style="stroke: #A80036; stroke-width: 1.0; stroke-dasharray: 1.0,4.0;" x1="215.5" x2="215.5" y1="288.0313" y2="329.8672"/><line style="stroke: #A80036; stroke-width: 1.0;" x1="215.5" x2="215.5" y1="329.8672" y2="520.3281"/><line style="stroke: #A80036; stroke-width: 1.0; stroke-dasharray: 1.0,4.0;" x1="215.5" x2="215.5" y1="520.3281" y2="562.1641"/><line style="stroke: #A80036; stroke-width: 1.0;" x1="215.5" x2="215.5" y1="562.1641" y2="703.5703"/><line style="stroke: #A80036; stroke-width: 1.0; stroke-dasharray: 1.0,4.0;" x1="215.5" x2="215.5" y1="703.5703" y2="745.4063"/><line style="stroke: #A80036; stroke-width: 1.0;" x1="215.5" x2="215.5" y1="745.4063" y2="1267.7344"/><line style="stroke: #A80036; stroke-width: 1.0; stroke-dasharray: 1.0,4.0;" x1="215.5" x2="215.5" y1="1267.7344" y2="1309.5703"/><line style="stroke: #A80036; stroke-width: 1.0;" x1="215.5" x2="215.5" y1="1309.5703" y2="1450.9766"/><line style="stroke: #A80036; stroke-width: 1.0; stroke-dasharray: 1.0,4.0;" x1="215.5" x2="215.5" y1="1450.9766" y2="1492.8125"/><line style="stroke: #A80036; stroke-width: 1.0;" x1="215.5" x2="215.5" y1="1492.8125" y2="1775.0313"/><rect fill="#FF0000" filter="url(#fujjyovr110n9)" height="31.6094" style="stroke: #A80036; stroke-width: 1.5;" width="40" x="8" y="34.6094"/><text fill="#000000" font-family="sans-serif" font-size="14" lengthAdjust="spacingAndGlyphs" textLength="26" x="15" y="56.1426">HAL</text><rect fill="#FF0000" filter="url(#fujjyovr110n9)" height="31.6094" style="stroke: #A80036; stroke-width: 1.5;" width="40" x="8" y="1774.0313"/><text fill="#000000" font-family="sans-serif" font-size="14" lengthAdjust="spacingAndGlyphs" textLength="26" x="15" y="1795.5645">HAL</text><rect fill="#00FF00" filter="url(#fujjyovr110n9)" height="31.6094" style="stroke: #A80036; stroke-width: 1.5;" width="71" x="95.5" y="34.6094"/><text fill="#000000" font-family="sans-serif" font-size="14" lengthAdjust="spacingAndGlyphs" textLength="57" x="102.5" y="56.1426">3A_Wide</text><rect fill="#00FF00" filter="url(#fujjyovr110n9)" height="31.6094" style="stroke: #A80036; stroke-width: 1.5;" width="71" x="95.5" y="1774.0313"/><text fill="#000000" font-family="sans-serif" font-size="14" lengthAdjust="spacingAndGlyphs" textLength="57" x="102.5" y="1795.5645">3A_Wide</text><rect fill="#0000FF" filter="url(#fujjyovr110n9)" height="31.6094" style="stroke: #A80036; stroke-width: 1.5;" width="67" x="180.5" y="34.6094"/><text fill="#000000" font-family="sans-serif" font-size="14" lengthAdjust="spacingAndGlyphs" textLength="53" x="187.5" y="56.1426">3A_Tele</text><rect fill="#0000FF" filter="url(#fujjyovr110n9)" height="31.6094" style="stroke: #A80036; stroke-width: 1.5;" width="67" x="180.5" y="1774.0313"/><text fill="#000000" font-family="sans-serif" font-size="14" lengthAdjust="spacingAndGlyphs" textLength="53" x="187.5" y="1795.5645">3A_Tele</text><polygon fill="#A80036" points="121,99.2188,131,103.2188,121,107.2188,125,103.2188" style="stroke: #A80036; stroke-width: 1.0;"/><line style="stroke: #A80036; stroke-width: 1.0;" x1="30" x2="127" y1="103.2188" y2="103.2188"/><text fill="#000000" font-family="sans-serif" font-size="13" lengthAdjust="spacingAndGlyphs" textLength="32" x="37" y="98.7139">Link()</text><polygon fill="#FBFB77" filter="url(#fujjyovr110n9)" points="50,116.5703,50,175.5703,211,175.5703,211,126.5703,201,116.5703,50,116.5703" style="stroke: #A80036; stroke-width: 1.0;"/><line style="stroke: #A80036; stroke-width: 1.0;" x1="201" x2="201" y1="116.5703" y2="126.5703"/><line style="stroke: #A80036; stroke-width: 1.0;" x1="211" x2="201" y1="126.5703" y2="126.5703"/><text fill="#000000" font-family="sans-serif" font-size="13" lengthAdjust="spacingAndGlyphs" textLength="130" x="56" y="135.0654">Store Wide Camera ID</text><text fill="#000000" font-family="sans-serif" font-size="13" lengthAdjust="spacingAndGlyphs" textLength="139" x="56" y="151.417">Store 3A Mode (Master)</text><text fill="#000000" font-family="sans-serif" font-size="13" lengthAdjust="spacingAndGlyphs" textLength="140" x="56" y="167.7686">Store Dual Camera Role</text><polygon fill="#A80036" points="204,202.625,214,206.625,204,210.625,208,206.625" style="stroke: #A80036; stroke-width: 1.0;"/><line style="stroke: #A80036; stroke-width: 1.0;" x1="30" x2="210" y1="206.625" y2="206.625"/><text fill="#000000" font-family="sans-serif" font-size="13" lengthAdjust="spacingAndGlyphs" textLength="32" x="37" y="202.1201">Link()</text><polygon fill="#FBFB77" filter="url(#fujjyovr110n9)" points="133,219.9766,133,278.9766,294,278.9766,294,229.9766,284,219.9766,133,219.9766" style="stroke: #A80036; stroke-width: 1.0;"/><line style="stroke: #A80036; stroke-width: 1.0;" x1="284" x2="284" y1="219.9766" y2="229.9766"/><line style="stroke: #A80036; stroke-width: 1.0;" x1="294" x2="284" y1="229.9766" y2="229.9766"/><text fill="#000000" font-family="sans-serif" font-size="13" lengthAdjust="spacingAndGlyphs" textLength="124" x="139" y="238.4717">Store Tele Camera ID</text><text fill="#000000" font-family="sans-serif" font-size="13" lengthAdjust="spacingAndGlyphs" textLength="130" x="139" y="254.8232">Store 3A Mode (Slave)</text><text fill="#000000" font-family="sans-serif" font-size="13" lengthAdjust="spacingAndGlyphs" textLength="140" x="139" y="271.1748">Store Dual Camera Role</text><text fill="#000000" font-family="sans-serif" font-size="11" lengthAdjust="spacingAndGlyphs" textLength="0" x="124.5" y="313.4502"/><polygon fill="#A80036" points="121,347.8672,131,351.8672,121,355.8672,125,351.8672" style="stroke: #A80036; stroke-width: 1.0;"/><line style="stroke: #A80036; stroke-width: 1.0;" x1="30" x2="127" y1="351.8672" y2="351.8672"/><text fill="#000000" font-family="sans-serif" font-size="13" lengthAdjust="spacingAndGlyphs" textLength="67" x="37" y="347.3623">StreamOn()</text><polygon fill="#FBFB77" filter="url(#fujjyovr110n9)" points="73,365.2188,73,407.2188,188,407.2188,188,375.2188,178,365.2188,73,365.2188" style="stroke: #A80036; stroke-width: 1.0;"/><line style="stroke: #A80036; stroke-width: 1.0;" x1="178" x2="178" y1="365.2188" y2="375.2188"/><line style="stroke: #A80036; stroke-width: 1.0;" x1="188" x2="178" y1="375.2188" y2="375.2188"/><text fill="#000000" font-family="sans-serif" font-size="13" lengthAdjust="spacingAndGlyphs" textLength="94" x="79" y="383.7139">3A Convergence</text><text fill="#000000" font-family="sans-serif" font-size="13" lengthAdjust="spacingAndGlyphs" textLength="92" x="79" y="400.0654">Starts and ends</text><polygon fill="#A80036" points="204,434.9219,214,438.9219,204,442.9219,208,438.9219" style="stroke: #A80036; stroke-width: 1.0;"/><line style="stroke: #A80036; stroke-width: 1.0;" x1="30" x2="210" y1="438.9219" y2="438.9219"/><text fill="#000000" font-family="sans-serif" font-size="13" lengthAdjust="spacingAndGlyphs" textLength="67" x="37" y="434.417">StreamOn()</text><polygon fill="#FBFB77" filter="url(#fujjyovr110n9)" points="146,452.2734,146,511.2734,282,511.2734,282,462.2734,272,452.2734,146,452.2734" style="stroke: #A80036; stroke-width: 1.0;"/><line style="stroke: #A80036; stroke-width: 1.0;" x1="272" x2="272" y1="452.2734" y2="462.2734"/><line style="stroke: #A80036; stroke-width: 1.0;" x1="282" x2="272" y1="462.2734" y2="462.2734"/><text fill="#000000" font-family="sans-serif" font-size="13" lengthAdjust="spacingAndGlyphs" textLength="94" x="152" y="470.7686">3A Convergence</text><text fill="#000000" font-family="sans-serif" font-size="13" lengthAdjust="spacingAndGlyphs" textLength="79" x="152" y="487.1201">Decision from</text><text fill="#000000" font-family="sans-serif" font-size="13" lengthAdjust="spacingAndGlyphs" textLength="115" x="152" y="503.4717">Wide is interpolated</text><text fill="#000000" font-family="sans-serif" font-size="11" lengthAdjust="spacingAndGlyphs" textLength="0" x="124.5" y="545.7471"/><polygon fill="#A80036" points="121,580.1641,131,584.1641,121,588.1641,125,584.1641" style="stroke: #A80036; stroke-width: 1.0;"/><line style="stroke: #A80036; stroke-width: 1.0;" x1="30" x2="127" y1="584.1641" y2="584.1641"/><text fill="#000000" font-family="sans-serif" font-size="13" lengthAdjust="spacingAndGlyphs" textLength="79" x="37" y="579.6592">LPM Enable()</text><polygon fill="#FBFB77" filter="url(#fujjyovr110n9)" points="68,597.5156,68,623.5156,193,623.5156,193,607.5156,183,597.5156,68,597.5156" style="stroke: #A80036; stroke-width: 1.0;"/><line style="stroke: #A80036; stroke-width: 1.0;" x1="183" x2="183" y1="597.5156" y2="607.5156"/><line style="stroke: #A80036; stroke-width: 1.0;" x1="193" x2="183" y1="607.5156" y2="607.5156"/><text fill="#000000" font-family="sans-serif" font-size="13" lengthAdjust="spacingAndGlyphs" textLength="104" x="74" y="616.0107">Disable Aux Sync</text><polygon fill="#A80036" points="204,650.8672,214,654.8672,204,658.8672,208,654.8672" style="stroke: #A80036; stroke-width: 1.0;"/><line style="stroke: #A80036; stroke-width: 1.0;" x1="30" x2="210" y1="654.8672" y2="654.8672"/><text fill="#000000" font-family="sans-serif" font-size="13" lengthAdjust="spacingAndGlyphs" textLength="79" x="37" y="650.3623">LPM Enable()</text><polygon fill="#FBFB77" filter="url(#fujjyovr110n9)" points="139,668.2188,139,694.2188,289,694.2188,289,678.2188,279,668.2188,139,668.2188" style="stroke: #A80036; stroke-width: 1.0;"/><line style="stroke: #A80036; stroke-width: 1.0;" x1="279" x2="279" y1="668.2188" y2="678.2188"/><line style="stroke: #A80036; stroke-width: 1.0;" x1="289" x2="279" y1="678.2188" y2="678.2188"/><text fill="#000000" font-family="sans-serif" font-size="13" lengthAdjust="spacingAndGlyphs" textLength="129" x="145" y="686.7139">Disable Output update</text><text fill="#000000" font-family="sans-serif" font-size="11" lengthAdjust="spacingAndGlyphs" textLength="0" x="124.5" y="728.9893"/><rect fill="#EEEEEE" filter="url(#fujjyovr110n9)" height="3" style="stroke: #EEEEEE; stroke-width: 1.0;" width="300" x="3" y="766.582"/><line style="stroke: #000000; stroke-width: 1.0;" x1="3" x2="303" y1="766.582" y2="766.582"/><line style="stroke: #000000; stroke-width: 1.0;" x1="3" x2="303" y1="769.582" y2="769.582"/><rect fill="#EEEEEE" filter="url(#fujjyovr110n9)" height="24.3516" style="stroke: #000000; stroke-width: 2.0;" width="124" x="91" y="755.4063"/><text fill="#000000" font-family="sans-serif" font-size="13" font-weight="bold" lengthAdjust="spacingAndGlyphs" textLength="110" x="97" y="772.9014">Role Switch Start</text><polygon fill="#A80036" points="121,807.7578,131,811.7578,121,815.7578,125,811.7578" style="stroke: #A80036; stroke-width: 1.0;"/><line style="stroke: #A80036; stroke-width: 1.0;" x1="30" x2="127" y1="811.7578" y2="811.7578"/><text fill="#000000" font-family="sans-serif" font-size="13" lengthAdjust="spacingAndGlyphs" textLength="74" x="37" y="807.2529">LPM Disable</text><polygon fill="#FBFB77" filter="url(#fujjyovr110n9)" points="70,825.1094,70,851.1094,192,851.1094,192,835.1094,182,825.1094,70,825.1094" style="stroke: #A80036; stroke-width: 1.0;"/><line style="stroke: #A80036; stroke-width: 1.0;" x1="182" x2="182" y1="825.1094" y2="835.1094"/><line style="stroke: #A80036; stroke-width: 1.0;" x1="192" x2="182" y1="835.1094" y2="835.1094"/><text fill="#000000" font-family="sans-serif" font-size="13" lengthAdjust="spacingAndGlyphs" textLength="101" x="76" y="843.6045">Enable Aux Sync</text><polygon fill="#A80036" points="204,878.4609,214,882.4609,204,886.4609,208,882.4609" style="stroke: #A80036; stroke-width: 1.0;"/><line style="stroke: #A80036; stroke-width: 1.0;" x1="30" x2="210" y1="882.4609" y2="882.4609"/><text fill="#000000" font-family="sans-serif" font-size="13" lengthAdjust="spacingAndGlyphs" textLength="74" x="37" y="877.9561">LPM Disable</text><polygon fill="#FBFB77" filter="url(#fujjyovr110n9)" points="140,895.8125,140,921.8125,287,921.8125,287,905.8125,277,895.8125,140,895.8125" style="stroke: #A80036; stroke-width: 1.0;"/><line style="stroke: #A80036; stroke-width: 1.0;" x1="277" x2="277" y1="895.8125" y2="905.8125"/><line style="stroke: #A80036; stroke-width: 1.0;" x1="287" x2="277" y1="905.8125" y2="905.8125"/><text fill="#000000" font-family="sans-serif" font-size="13" lengthAdjust="spacingAndGlyphs" textLength="126" x="146" y="914.3076">Enable Output update</text><polygon fill="#FBFB77" filter="url(#fujjyovr110n9)" points="71,936.1641,71,995.1641,190,995.1641,190,946.1641,180,936.1641,71,936.1641" style="stroke: #A80036; stroke-width: 1.0;"/><line style="stroke: #A80036; stroke-width: 1.0;" x1="180" x2="180" y1="936.1641" y2="946.1641"/><line style="stroke: #A80036; stroke-width: 1.0;" x1="190" x2="180" y1="946.1641" y2="946.1641"/><text fill="#000000" font-family="sans-serif" font-size="13" lengthAdjust="spacingAndGlyphs" textLength="94" x="77" y="954.6592">3A Convergence</text><text fill="#000000" font-family="sans-serif" font-size="13" lengthAdjust="spacingAndGlyphs" textLength="92" x="77" y="971.0107">Starts and ends</text><text fill="#000000" font-family="sans-serif" font-size="13" lengthAdjust="spacingAndGlyphs" textLength="98" x="77" y="987.3623">(if not converged)</text><polygon fill="#FBFB77" filter="url(#fujjyovr110n9)" points="156,1009.2188,156,1084.2188,271,1084.2188,271,1019.2188,261,1009.2188,156,1009.2188" style="stroke: #A80036; stroke-width: 1.0;"/><line style="stroke: #A80036; stroke-width: 1.0;" x1="261" x2="261" y1="1009.2188" y2="1019.2188"/><line style="stroke: #A80036; stroke-width: 1.0;" x1="271" x2="261" y1="1019.2188" y2="1019.2188"/><text fill="#000000" font-family="sans-serif" font-size="13" lengthAdjust="spacingAndGlyphs" textLength="94" x="162" y="1027.7139">3A Convergence</text><text fill="#000000" font-family="sans-serif" font-size="13" lengthAdjust="spacingAndGlyphs" textLength="79" x="162" y="1044.0654">Decision from</text><text fill="#000000" font-family="sans-serif" font-size="13" lengthAdjust="spacingAndGlyphs" textLength="44" x="162" y="1060.417">Wide is</text><text fill="#000000" font-family="sans-serif" font-size="13" lengthAdjust="spacingAndGlyphs" textLength="67" x="162" y="1076.7686">interpolated</text><polygon fill="#A80036" points="121,1111.625,131,1115.625,121,1119.625,125,1115.625" style="stroke: #A80036; stroke-width: 1.0;"/><line style="stroke: #A80036; stroke-width: 1.0;" x1="30" x2="127" y1="1115.625" y2="1115.625"/><text fill="#000000" font-family="sans-serif" font-size="13" lengthAdjust="spacingAndGlyphs" textLength="69" x="37" y="1111.1201">Role Switch</text><polygon fill="#FBFB77" filter="url(#fujjyovr110n9)" points="69,1128.9766,69,1170.9766,193,1170.9766,193,1138.9766,183,1128.9766,69,1128.9766" style="stroke: #A80036; stroke-width: 1.0;"/><line style="stroke: #A80036; stroke-width: 1.0;" x1="183" x2="183" y1="1128.9766" y2="1138.9766"/><line style="stroke: #A80036; stroke-width: 1.0;" x1="193" x2="183" y1="1138.9766" y2="1138.9766"/><text fill="#000000" font-family="sans-serif" font-size="13" lengthAdjust="spacingAndGlyphs" textLength="103" x="75" y="1147.4717">Update Roles and</text><text fill="#000000" font-family="sans-serif" font-size="13" lengthAdjust="spacingAndGlyphs" textLength="100" x="75" y="1163.8232">Update Algorithm</text><polygon fill="#A80036" points="121,1198.6797,131,1202.6797,121,1206.6797,125,1202.6797" style="stroke: #A80036; stroke-width: 1.0;"/><line style="stroke: #A80036; stroke-width: 1.0;" x1="30" x2="127" y1="1202.6797" y2="1202.6797"/><text fill="#000000" font-family="sans-serif" font-size="13" lengthAdjust="spacingAndGlyphs" textLength="69" x="37" y="1198.1748">Role Switch</text><polygon fill="#FBFB77" filter="url(#fujjyovr110n9)" points="152,1216.0313,152,1258.0313,276,1258.0313,276,1226.0313,266,1216.0313,152,1216.0313" style="stroke: #A80036; stroke-width: 1.0;"/><line style="stroke: #A80036; stroke-width: 1.0;" x1="266" x2="266" y1="1216.0313" y2="1226.0313"/><line style="stroke: #A80036; stroke-width: 1.0;" x1="276" x2="266" y1="1226.0313" y2="1226.0313"/><text fill="#000000" font-family="sans-serif" font-size="13" lengthAdjust="spacingAndGlyphs" textLength="103" x="158" y="1234.5264">Update Roles and</text><text fill="#000000" font-family="sans-serif" font-size="13" lengthAdjust="spacingAndGlyphs" textLength="100" x="158" y="1250.8779">Update Algorithm</text><text fill="#000000" font-family="sans-serif" font-size="11" lengthAdjust="spacingAndGlyphs" textLength="0" x="124.5" y="1293.1533"/><polygon fill="#A80036" points="121,1327.5703,131,1331.5703,121,1335.5703,125,1331.5703" style="stroke: #A80036; stroke-width: 1.0;"/><line style="stroke: #A80036; stroke-width: 1.0;" x1="30" x2="127" y1="1331.5703" y2="1331.5703"/><text fill="#000000" font-family="sans-serif" font-size="13" lengthAdjust="spacingAndGlyphs" textLength="71" x="37" y="1327.0654">LPM Enable</text><polygon fill="#FBFB77" filter="url(#fujjyovr110n9)" points="68,1344.9219,68,1370.9219,193,1370.9219,193,1354.9219,183,1344.9219,68,1344.9219" style="stroke: #A80036; stroke-width: 1.0;"/><line style="stroke: #A80036; stroke-width: 1.0;" x1="183" x2="183" y1="1344.9219" y2="1354.9219"/><line style="stroke: #A80036; stroke-width: 1.0;" x1="193" x2="183" y1="1354.9219" y2="1354.9219"/><text fill="#000000" font-family="sans-serif" font-size="13" lengthAdjust="spacingAndGlyphs" textLength="104" x="74" y="1363.417">Disable Aux Sync</text><polygon fill="#A80036" points="204,1398.2734,214,1402.2734,204,1406.2734,208,1402.2734" style="stroke: #A80036; stroke-width: 1.0;"/><line style="stroke: #A80036; stroke-width: 1.0;" x1="30" x2="210" y1="1402.2734" y2="1402.2734"/><text fill="#000000" font-family="sans-serif" font-size="13" lengthAdjust="spacingAndGlyphs" textLength="71" x="37" y="1397.7686">LPM Enable</text><polygon fill="#FBFB77" filter="url(#fujjyovr110n9)" points="139,1415.625,139,1441.625,289,1441.625,289,1425.625,279,1415.625,139,1415.625" style="stroke: #A80036; stroke-width: 1.0;"/><line style="stroke: #A80036; stroke-width: 1.0;" x1="279" x2="279" y1="1415.625" y2="1425.625"/><line style="stroke: #A80036; stroke-width: 1.0;" x1="289" x2="279" y1="1425.625" y2="1425.625"/><text fill="#000000" font-family="sans-serif" font-size="13" lengthAdjust="spacingAndGlyphs" textLength="129" x="145" y="1434.1201">Disable Output update</text><text fill="#000000" font-family="sans-serif" font-size="11" lengthAdjust="spacingAndGlyphs" textLength="0" x="124.5" y="1476.3955"/><polygon fill="#A80036" points="121,1510.8125,131,1514.8125,121,1518.8125,125,1514.8125" style="stroke: #A80036; stroke-width: 1.0;"/><line style="stroke: #A80036; stroke-width: 1.0;" x1="30" x2="127" y1="1514.8125" y2="1514.8125"/><text fill="#000000" font-family="sans-serif" font-size="13" lengthAdjust="spacingAndGlyphs" textLength="62" x="37" y="1510.3076">Stream Off</text><polygon fill="#FBFB77" filter="url(#fujjyovr110n9)" points="73,1528.1641,73,1619.1641,188,1619.1641,188,1538.1641,178,1528.1641,73,1528.1641" style="stroke: #A80036; stroke-width: 1.0;"/><line style="stroke: #A80036; stroke-width: 1.0;" x1="178" x2="178" y1="1528.1641" y2="1538.1641"/><line style="stroke: #A80036; stroke-width: 1.0;" x1="188" x2="178" y1="1538.1641" y2="1538.1641"/><text fill="#000000" font-family="sans-serif" font-size="13" lengthAdjust="spacingAndGlyphs" textLength="94" x="79" y="1546.6592">Local unlink and</text><text fill="#000000" font-family="sans-serif" font-size="13" lengthAdjust="spacingAndGlyphs" textLength="83" x="79" y="1563.0107">Remote unlink</text><text fill="#000000" font-family="sans-serif" font-size="13" lengthAdjust="spacingAndGlyphs" textLength="74" x="79" y="1579.3623">if not already</text><text fill="#000000" font-family="sans-serif" font-size="13" lengthAdjust="spacingAndGlyphs" textLength="28" x="95" y="1595.7139">done</text><text fill="#000000" font-family="sans-serif" font-size="13" lengthAdjust="spacingAndGlyphs" textLength="51" x="79" y="1612.0654">Clean up</text><polygon fill="#A80036" points="204,1646.9219,214,1650.9219,204,1654.9219,208,1650.9219" style="stroke: #A80036; stroke-width: 1.0;"/><line style="stroke: #A80036; stroke-width: 1.0;" x1="30" x2="210" y1="1650.9219" y2="1650.9219"/><text fill="#000000" font-family="sans-serif" font-size="13" lengthAdjust="spacingAndGlyphs" textLength="62" x="37" y="1646.417">Stream Off</text><polygon fill="#FBFB77" filter="url(#fujjyovr110n9)" points="156,1664.2734,156,1755.2734,271,1755.2734,271,1674.2734,261,1664.2734,156,1664.2734" style="stroke: #A80036; stroke-width: 1.0;"/><line style="stroke: #A80036; stroke-width: 1.0;" x1="261" x2="261" y1="1664.2734" y2="1674.2734"/><line style="stroke: #A80036; stroke-width: 1.0;" x1="271" x2="261" y1="1674.2734" y2="1674.2734"/><text fill="#000000" font-family="sans-serif" font-size="13" lengthAdjust="spacingAndGlyphs" textLength="94" x="162" y="1682.7686">Local unlink and</text><text fill="#000000" font-family="sans-serif" font-size="13" lengthAdjust="spacingAndGlyphs" textLength="83" x="162" y="1699.1201">Remote unlink</text><text fill="#000000" font-family="sans-serif" font-size="13" lengthAdjust="spacingAndGlyphs" textLength="74" x="162" y="1715.4717">if not already</text><text fill="#000000" font-family="sans-serif" font-size="13" lengthAdjust="spacingAndGlyphs" textLength="28" x="178" y="1731.8232">done</text><text fill="#000000" font-family="sans-serif" font-size="13" lengthAdjust="spacingAndGlyphs" textLength="51" x="162" y="1748.1748">Clean up</text><!--
@startuml
title 3A sync of SDM660 [[https://confluence.qualcomm.com/confluence/display/3AWIDETELE/3A+Sync+Design ReferencePage]]

participant HAL #ff0000
participant 3A_Wide #00ff00
participant 3A_Tele #0000ff
HAL->3A_Wide: Link()
note over 3A_Wide
  Store Wide Camera ID
  Store 3A Mode (Master)
  Store Dual Camera Role
end note
HAL->3A_Tele: Link()
note over 3A_Tele
  Store Tele Camera ID
  Store 3A Mode (Slave)
  Store Dual Camera Role
end note
... ...

HAL->3A_Wide: StreamOn()
note over 3A_Wide
  3A Convergence
  Starts and ends
end note
HAL->3A_Tele: StreamOn()
note over 3A_Tele
  3A Convergence
  Decision from
  Wide is interpolated
end note
... ...

HAL->3A_Wide: LPM Enable()
note over 3A_Wide: Disable Aux Sync
HAL->3A_Tele: LPM Enable()
note over 3A_Tele: Disable Output update
... ...

== Role Switch Start==
HAL->3A_Wide: LPM Disable
note over 3A_Wide: Enable Aux Sync
HAL->3A_Tele: LPM Disable
note over 3A_Tele: Enable Output update
note over 3A_Wide
  3A Convergence
  Starts and ends
  (if not converged)
end note
note over 3A_Tele
  3A Convergence
  Decision from
  Wide is
  interpolated
end note
HAL->3A_Wide: Role Switch
note over 3A_Wide
  Update Roles and
  Update Algorithm
end note
HAL->3A_Wide: Role Switch
note over 3A_Tele
  Update Roles and
  Update Algorithm
end note
... ...
HAL->3A_Wide: LPM Enable
note over 3A_Wide: Disable Aux Sync
HAL->3A_Tele: LPM Enable
note over 3A_Tele: Disable Output update

... ...
HAL->3A_Wide: Stream Off
note over 3A_Wide
  Local unlink and
  Remote unlink
  if not already
      done
  Clean up
end note
HAL->3A_Tele: Stream Off
note over 3A_Tele
  Local unlink and
  Remote unlink
  if not already
      done
  Clean up
end note


@enduml

PlantUML version 1.2017.20(Tue Dec 12 00:57:05 CST 2017)
(GPL source distribution)
Java Runtime: Java(TM) SE Runtime Environment
JVM: Java HotSpot(TM) Client VM
Java Version: 1.8.0_151-b12
Operating System: Windows 10
OS Version: 10.0
Default Encoding: Cp1252
Language: en
Country: US
--></g></svg>