<?xml version="1.0" encoding="UTF-8" standalone="no"?><svg xmlns="http://www.w3.org/2000/svg" xmlns:xlink="http://www.w3.org/1999/xlink" contentScriptType="application/ecmascript" contentStyleType="text/css" height="372px" preserveAspectRatio="none" style="width:299px;height:372px;" version="1.1" viewBox="0 0 299 372" width="299px" zoomAndPan="magnify"><defs><filter height="300%" id="fawyu58mn3kcn" width="300%" x="-1" y="-1"><feGaussianBlur result="blurOut" stdDeviation="2.0"/><feColorMatrix in="blurOut" result="blurOut2" type="matrix" values="0 0 0 0 0 0 0 0 0 0 0 0 0 0 0 0 0 0 .4 0"/><feOffset dx="4.0" dy="4.0" in="blurOut2" result="blurOut3"/><feBlend in="SourceGraphic" in2="blurOut3" mode="normal"/></filter></defs><g><rect fill="#FFFFFF" filter="url(#fawyu58mn3kcn)" height="29.1328" style="stroke: #A80036; stroke-width: 1.0;" width="10" x="197.5" y="112.5625"/><rect fill="#FFFFFF" filter="url(#fawyu58mn3kcn)" height="29.1328" style="stroke: #A80036; stroke-width: 1.0;" width="10" x="197.5" y="198.8281"/><rect fill="#FFFFFF" filter="url(#fawyu58mn3kcn)" height="29.1328" style="stroke: #A80036; stroke-width: 1.0;" width="10" x="197.5" y="285.0938"/><line style="stroke: #A80036; stroke-width: 1.0;" x1="62" x2="62" y1="38.2969" y2="149.6953"/><line style="stroke: #A80036; stroke-width: 1.0; stroke-dasharray: 1.0,4.0;" x1="62" x2="62" y1="149.6953" y2="177.6953"/><line style="stroke: #A80036; stroke-width: 1.0;" x1="62" x2="62" y1="177.6953" y2="235.9609"/><line style="stroke: #A80036; stroke-width: 1.0; stroke-dasharray: 1.0,4.0;" x1="62" x2="62" y1="235.9609" y2="263.9609"/><line style="stroke: #A80036; stroke-width: 1.0;" x1="62" x2="62" y1="263.9609" y2="332.2266"/><line style="stroke: #A80036; stroke-width: 1.0;" x1="202.5" x2="202.5" y1="38.2969" y2="149.6953"/><line style="stroke: #A80036; stroke-width: 1.0; stroke-dasharray: 1.0,4.0;" x1="202.5" x2="202.5" y1="149.6953" y2="177.6953"/><line style="stroke: #A80036; stroke-width: 1.0;" x1="202.5" x2="202.5" y1="177.6953" y2="235.9609"/><line style="stroke: #A80036; stroke-width: 1.0; stroke-dasharray: 1.0,4.0;" x1="202.5" x2="202.5" y1="235.9609" y2="263.9609"/><line style="stroke: #A80036; stroke-width: 1.0;" x1="202.5" x2="202.5" y1="263.9609" y2="332.2266"/><rect fill="#FEFECE" filter="url(#fawyu58mn3kcn)" height="30.2969" style="stroke: #A80036; stroke-width: 1.5;" width="105" x="8" y="3"/><text fill="#000000" font-family="sans-serif" font-size="14" lengthAdjust="spacingAndGlyphs" textLength="91" x="15" y="22.9951">AF_AWB_AEC</text><rect fill="#FEFECE" filter="url(#fawyu58mn3kcn)" height="30.2969" style="stroke: #A80036; stroke-width: 1.5;" width="105" x="8" y="331.2266"/><text fill="#000000" font-family="sans-serif" font-size="14" lengthAdjust="spacingAndGlyphs" textLength="91" x="15" y="351.2217">AF_AWB_AEC</text><rect fill="#FEFECE" filter="url(#fawyu58mn3kcn)" height="30.2969" style="stroke: #A80036; stroke-width: 1.5;" width="124" x="138.5" y="3"/><text fill="#000000" font-family="sans-serif" font-size="14" lengthAdjust="spacingAndGlyphs" textLength="110" x="145.5" y="22.9951">camxncsservice</text><rect fill="#FEFECE" filter="url(#fawyu58mn3kcn)" height="30.2969" style="stroke: #A80036; stroke-width: 1.5;" width="124" x="138.5" y="331.2266"/><text fill="#000000" font-family="sans-serif" font-size="14" lengthAdjust="spacingAndGlyphs" textLength="110" x="145.5" y="351.2217">camxncsservice</text><rect fill="#FFFFFF" filter="url(#fawyu58mn3kcn)" height="29.1328" style="stroke: #A80036; stroke-width: 1.0;" width="10" x="197.5" y="112.5625"/><rect fill="#FFFFFF" filter="url(#fawyu58mn3kcn)" height="29.1328" style="stroke: #A80036; stroke-width: 1.0;" width="10" x="197.5" y="198.8281"/><rect fill="#FFFFFF" filter="url(#fawyu58mn3kcn)" height="29.1328" style="stroke: #A80036; stroke-width: 1.0;" width="10" x="197.5" y="285.0938"/><rect fill="#EEEEEE" filter="url(#fawyu58mn3kcn)" height="3" style="stroke: #EEEEEE; stroke-width: 1.0;" width="284" x="3" y="68.8633"/><line style="stroke: #000000; stroke-width: 1.0;" x1="3" x2="287" y1="68.8633" y2="68.8633"/><line style="stroke: #000000; stroke-width: 1.0;" x1="3" x2="287" y1="71.8633" y2="71.8633"/><rect fill="#EEEEEE" filter="url(#fawyu58mn3kcn)" height="23.1328" style="stroke: #000000; stroke-width: 2.0;" width="260" x="15" y="58.2969"/><text fill="#0000FF" font-family="sans-serif" font-size="13" font-weight="bold" lengthAdjust="spacingAndGlyphs" textLength="241" x="21" y="74.3638">QueryCapabilites and setup Link</text><polygon fill="#A80036" points="185.5,108.5625,195.5,112.5625,185.5,116.5625,189.5,112.5625" style="stroke: #A80036; stroke-width: 1.0;"/><line style="stroke: #A80036; stroke-width: 1.0;" x1="62.5" x2="191.5" y1="112.5625" y2="112.5625"/><text fill="#000000" font-family="sans-serif" font-size="13" lengthAdjust="spacingAndGlyphs" textLength="108" x="69.5" y="107.4966">QueryCapabilites</text><polygon fill="#A80036" points="73.5,137.6953,63.5,141.6953,73.5,145.6953,69.5,141.6953" style="stroke: #A80036; stroke-width: 1.0;"/><line style="stroke: #A80036; stroke-width: 1.0;" x1="67.5" x2="201.5" y1="141.6953" y2="141.6953"/><text fill="#000000" font-family="sans-serif" font-size="13" lengthAdjust="spacingAndGlyphs" textLength="39" x="79.5" y="136.6294">return</text><polygon fill="#A80036" points="185.5,194.8281,195.5,198.8281,185.5,202.8281,189.5,198.8281" style="stroke: #A80036; stroke-width: 1.0;"/><line style="stroke: #A80036; stroke-width: 1.0;" x1="62.5" x2="191.5" y1="198.8281" y2="198.8281"/><text fill="#000000" font-family="sans-serif" font-size="13" lengthAdjust="spacingAndGlyphs" textLength="99" x="69.5" y="193.7622">RegisterService</text><polygon fill="#A80036" points="73.5,223.9609,63.5,227.9609,73.5,231.9609,69.5,227.9609" style="stroke: #A80036; stroke-width: 1.0;"/><line style="stroke: #A80036; stroke-width: 1.0;" x1="67.5" x2="201.5" y1="227.9609" y2="227.9609"/><text fill="#000000" font-family="sans-serif" font-size="13" lengthAdjust="spacingAndGlyphs" textLength="39" x="79.5" y="222.895">return</text><polygon fill="#A80036" points="185.5,281.0938,195.5,285.0938,185.5,289.0938,189.5,285.0938" style="stroke: #A80036; stroke-width: 1.0;"/><line style="stroke: #A80036; stroke-width: 1.0;" x1="62.5" x2="191.5" y1="285.0938" y2="285.0938"/><text fill="#000000" font-family="sans-serif" font-size="13" lengthAdjust="spacingAndGlyphs" textLength="116" x="69.5" y="280.0278">GetLastNSamples</text><polygon fill="#A80036" points="73.5,310.2266,63.5,314.2266,73.5,318.2266,69.5,314.2266" style="stroke: #A80036; stroke-width: 1.0;"/><line style="stroke: #A80036; stroke-width: 1.0;" x1="67.5" x2="201.5" y1="314.2266" y2="314.2266"/><text fill="#000000" font-family="sans-serif" font-size="13" lengthAdjust="spacingAndGlyphs" textLength="39" x="79.5" y="309.1606">return</text><!--
@startuml
participant AF_AWB_AEC
participant camxncsservice
== <color:blue>QueryCapabilites and setup Link </color>==
AF_AWB_AEC->camxncsservice: QueryCapabilites
activate camxncsservice
camxncsservice->AF_AWB_AEC: return
deactivate camxncsservice
...
AF_AWB_AEC->camxncsservice: RegisterService
activate camxncsservice
camxncsservice->AF_AWB_AEC: return
deactivate camxncsservice
...
AF_AWB_AEC->camxncsservice: GetLastNSamples
activate camxncsservice
camxncsservice->AF_AWB_AEC: return
deactivate camxncsservice

@enduml

PlantUML version 1.2019.04(Fri Mar 29 15:44:36 GMT 2019)
(GPL source distribution)
Java Runtime: OpenJDK Runtime Environment
JVM: OpenJDK 64-Bit Server VM
Java Version: 1.8.0_171-8u171-b11-0ubuntu0.16.04.1-b11
Operating System: Linux
OS Version: 4.4.0-17763-Microsoft
Default Encoding: ANSI_X3.4-1968
Language: en
Country: US
--></g></svg>