<?xml version="1.0" encoding="UTF-8" standalone="no"?><svg xmlns="http://www.w3.org/2000/svg" xmlns:xlink="http://www.w3.org/1999/xlink" contentScriptType="application/ecmascript" contentStyleType="text/css" height="407px" preserveAspectRatio="none" style="width:590px;height:407px;" version="1.1" viewBox="0 0 590 407" width="590px" zoomAndPan="magnify"><defs><filter height="300%" id="fnhjme2kchenn" width="300%" x="-1" y="-1"><feGaussianBlur result="blurOut" stdDeviation="2.0"/><feColorMatrix in="blurOut" result="blurOut2" type="matrix" values="0 0 0 0 0 0 0 0 0 0 0 0 0 0 0 0 0 0 .4 0"/><feOffset dx="4.0" dy="4.0" in="blurOut2" result="blurOut3"/><feBlend in="SourceGraphic" in2="blurOut3" mode="normal"/></filter></defs><g><rect fill="#FFFFFF" filter="url(#fnhjme2kchenn)" height="145.4063" style="stroke: #A80036; stroke-width: 1.0;" width="10" x="207.5" y="157.7969"/><rect fill="#FFFFFF" filter="url(#fnhjme2kchenn)" height="14.3516" style="stroke: #A80036; stroke-width: 1.0;" width="10" x="207.5" y="333.2031"/><rect fill="#FFFFFF" filter="url(#fnhjme2kchenn)" height="57.7031" style="stroke: #A80036; stroke-width: 1.0;" width="10" x="398.5" y="231.5"/><line style="stroke: #A80036; stroke-width: 1.0;" x1="46" x2="46" y1="39.6094" y2="93.9609"/><line style="stroke: #A80036; stroke-width: 1.0; stroke-dasharray: 1.0,4.0;" x1="46" x2="46" y1="93.9609" y2="135.7969"/><line style="stroke: #A80036; stroke-width: 1.0;" x1="46" x2="46" y1="135.7969" y2="365.5547"/><line style="stroke: #A80036; stroke-width: 1.0;" x1="212" x2="212" y1="39.6094" y2="93.9609"/><line style="stroke: #A80036; stroke-width: 1.0; stroke-dasharray: 1.0,4.0;" x1="212" x2="212" y1="93.9609" y2="135.7969"/><line style="stroke: #A80036; stroke-width: 1.0;" x1="212" x2="212" y1="135.7969" y2="365.5547"/><line style="stroke: #A80036; stroke-width: 1.0;" x1="403" x2="403" y1="39.6094" y2="93.9609"/><line style="stroke: #A80036; stroke-width: 1.0; stroke-dasharray: 1.0,4.0;" x1="403" x2="403" y1="93.9609" y2="135.7969"/><line style="stroke: #A80036; stroke-width: 1.0;" x1="403" x2="403" y1="135.7969" y2="365.5547"/><rect fill="#00FF00" filter="url(#fnhjme2kchenn)" height="31.6094" style="stroke: #A80036; stroke-width: 1.5;" width="73" x="8" y="3"/><text fill="#000000" font-family="sans-serif" font-size="14" lengthAdjust="spacingAndGlyphs" textLength="59" x="15" y="24.5332">Topology</text><rect fill="#00FF00" filter="url(#fnhjme2kchenn)" height="31.6094" style="stroke: #A80036; stroke-width: 1.5;" width="73" x="8" y="364.5547"/><text fill="#000000" font-family="sans-serif" font-size="14" lengthAdjust="spacingAndGlyphs" textLength="59" x="15" y="386.0879">Topology</text><rect fill="#FEFECE" filter="url(#fnhjme2kchenn)" height="31.6094" style="stroke: #A80036; stroke-width: 1.5;" width="167" x="127" y="3"/><text fill="#000000" font-family="sans-serif" font-size="14" lengthAdjust="spacingAndGlyphs" textLength="153" x="134" y="24.5332">camxautofocusnode.cpp</text><rect fill="#FEFECE" filter="url(#fnhjme2kchenn)" height="31.6094" style="stroke: #A80036; stroke-width: 1.5;" width="167" x="127" y="364.5547"/><text fill="#000000" font-family="sans-serif" font-size="14" lengthAdjust="spacingAndGlyphs" textLength="153" x="134" y="386.0879">camxautofocusnode.cpp</text><rect fill="#FEFECE" filter="url(#fnhjme2kchenn)" height="31.6094" style="stroke: #A80036; stroke-width: 1.5;" width="185" x="309" y="3"/><text fill="#000000" font-family="sans-serif" font-size="14" lengthAdjust="spacingAndGlyphs" textLength="171" x="316" y="24.5332">camxcafstatsprocessor.cpp</text><rect fill="#FEFECE" filter="url(#fnhjme2kchenn)" height="31.6094" style="stroke: #A80036; stroke-width: 1.5;" width="185" x="309" y="364.5547"/><text fill="#000000" font-family="sans-serif" font-size="14" lengthAdjust="spacingAndGlyphs" textLength="171" x="316" y="386.0879">camxcafstatsprocessor.cpp</text><rect fill="#FFFFFF" filter="url(#fnhjme2kchenn)" height="145.4063" style="stroke: #A80036; stroke-width: 1.0;" width="10" x="207.5" y="157.7969"/><rect fill="#FFFFFF" filter="url(#fnhjme2kchenn)" height="14.3516" style="stroke: #A80036; stroke-width: 1.0;" width="10" x="207.5" y="333.2031"/><rect fill="#FFFFFF" filter="url(#fnhjme2kchenn)" height="57.7031" style="stroke: #A80036; stroke-width: 1.0;" width="10" x="398.5" y="231.5"/><rect fill="#EEEEEE" filter="url(#fnhjme2kchenn)" height="3" style="stroke: #EEEEEE; stroke-width: 1.0;" width="575.5" x="3" y="70.7852"/><line style="stroke: #000000; stroke-width: 1.0;" x1="3" x2="578.5" y1="70.7852" y2="70.7852"/><line style="stroke: #000000; stroke-width: 1.0;" x1="3" x2="578.5" y1="73.7852" y2="73.7852"/><rect fill="#EEEEEE" filter="url(#fnhjme2kchenn)" height="24.3516" style="stroke: #000000; stroke-width: 2.0;" width="143" x="219.25" y="59.6094"/><text fill="#FF0000" font-family="sans-serif" font-size="13" font-weight="bold" lengthAdjust="spacingAndGlyphs" textLength="121" x="229.25" y="77.1045">Create and Destroy</text><text fill="#000000" font-family="sans-serif" font-size="11" lengthAdjust="spacingAndGlyphs" textLength="0" x="226.5" y="119.3799"/><polygon fill="#A80036" points="195.5,153.7969,205.5,157.7969,195.5,161.7969,199.5,157.7969" style="stroke: #A80036; stroke-width: 1.0;"/><line style="stroke: #A80036; stroke-width: 1.0;" x1="46.5" x2="201.5" y1="157.7969" y2="157.7969"/><text fill="#000000" font-family="sans-serif" font-size="13" lengthAdjust="spacingAndGlyphs" textLength="139" x="53.5" y="153.292">AutoFocusNode::Create</text><line style="stroke: #A80036; stroke-width: 1.0;" x1="217.5" x2="259.5" y1="188.5" y2="188.5"/><line style="stroke: #A80036; stroke-width: 1.0;" x1="259.5" x2="259.5" y1="188.5" y2="201.5"/><line style="stroke: #A80036; stroke-width: 1.0;" x1="218.5" x2="259.5" y1="201.5" y2="201.5"/><polygon fill="#A80036" points="228.5,197.5,218.5,201.5,228.5,205.5,224.5,201.5" style="stroke: #A80036; stroke-width: 1.0;"/><text fill="#000000" font-family="sans-serif" font-size="13" lengthAdjust="spacingAndGlyphs" textLength="128" x="224.5" y="183.6436">new AutoFocusNode()</text><polygon fill="#A80036" points="386.5,227.5,396.5,231.5,386.5,235.5,390.5,231.5" style="stroke: #A80036; stroke-width: 1.0;"/><line style="stroke: #A80036; stroke-width: 1.0;" x1="217.5" x2="392.5" y1="231.5" y2="231.5"/><text fill="#000000" font-family="sans-serif" font-size="13" lengthAdjust="spacingAndGlyphs" textLength="162" x="224.5" y="226.9951">CAFStatsProcessor::Create</text><line style="stroke: #A80036; stroke-width: 1.0;" x1="408.5" x2="450.5" y1="262.2031" y2="262.2031"/><line style="stroke: #A80036; stroke-width: 1.0;" x1="450.5" x2="450.5" y1="262.2031" y2="275.2031"/><line style="stroke: #A80036; stroke-width: 1.0;" x1="409.5" x2="450.5" y1="275.2031" y2="275.2031"/><polygon fill="#A80036" points="419.5,271.2031,409.5,275.2031,419.5,279.2031,415.5,275.2031" style="stroke: #A80036; stroke-width: 1.0;"/><text fill="#000000" font-family="sans-serif" font-size="13" lengthAdjust="spacingAndGlyphs" textLength="151" x="415.5" y="257.3467">new CAFStatsProcessor()</text><polygon fill="#A80036" points="228.5,285.2031,218.5,289.2031,228.5,293.2031,224.5,289.2031" style="stroke: #A80036; stroke-width: 1.0;"/><line style="stroke: #A80036; stroke-width: 1.0;" x1="222.5" x2="402.5" y1="289.2031" y2="289.2031"/><polygon fill="#A80036" points="57.5,299.2031,47.5,303.2031,57.5,307.2031,53.5,303.2031" style="stroke: #A80036; stroke-width: 1.0;"/><line style="stroke: #A80036; stroke-width: 1.0;" x1="51.5" x2="211.5" y1="303.2031" y2="303.2031"/><polygon fill="#A80036" points="195.5,329.2031,205.5,333.2031,195.5,337.2031,199.5,333.2031" style="stroke: #A80036; stroke-width: 1.0;"/><line style="stroke: #A80036; stroke-width: 1.0;" x1="46.5" x2="201.5" y1="333.2031" y2="333.2031"/><text fill="#000000" font-family="sans-serif" font-size="13" lengthAdjust="spacingAndGlyphs" textLength="142" x="53.5" y="328.6982">ProcessingNodeInitialize</text><polygon fill="#A80036" points="57.5,343.5547,47.5,347.5547,57.5,351.5547,53.5,347.5547" style="stroke: #A80036; stroke-width: 1.0;"/><line style="stroke: #A80036; stroke-width: 1.0;" x1="51.5" x2="211.5" y1="347.5547" y2="347.5547"/><!--
@startuml
participant Topology as Topology  #00FF00
participant camxautofocusnode.cpp as AutoFocusNode
participant camxcafstatsprocessor.cpp as CAFstatsprocess

== <color #ff0000> Create and Destroy </color>==
... ...
Topology->AutoFocusNode: AutoFocusNode::Create
activate AutoFocusNode

AutoFocusNode->AutoFocusNode: new AutoFocusNode()

AutoFocusNode->CAFstatsprocess: CAFStatsProcessor::Create
activate CAFstatsprocess

CAFstatsprocess->CAFstatsprocess: new CAFStatsProcessor()
CAFstatsprocess->AutoFocusNode: 
deactivate CAFstatsprocess

AutoFocusNode->Topology: 
deactivate AutoFocusNode


Topology->AutoFocusNode: ProcessingNodeInitialize
activate AutoFocusNode
AutoFocusNode->Topology: 
deactivate AutoFocusNode



@enduml

PlantUML version 1.2017.20(Tue Dec 12 00:57:05 CST 2017)
(GPL source distribution)
Java Runtime: Java(TM) SE Runtime Environment
JVM: Java HotSpot(TM) Client VM
Java Version: 1.8.0_151-b12
Operating System: Windows 10
OS Version: 10.0
Default Encoding: Cp1252
Language: en
Country: US
--></g></svg>