<?xml version="1.0" encoding="UTF-8" standalone="no"?><svg xmlns="http://www.w3.org/2000/svg" xmlns:xlink="http://www.w3.org/1999/xlink" contentScriptType="application/ecmascript" contentStyleType="text/css" height="378px" preserveAspectRatio="none" style="width:714px;height:378px;" version="1.1" viewBox="0 0 714 378" width="714px" zoomAndPan="magnify"><defs><filter height="300%" id="f18fhdphi5trpr" width="300%" x="-1" y="-1"><feGaussianBlur result="blurOut" stdDeviation="2.0"/><feColorMatrix in="blurOut" result="blurOut2" type="matrix" values="0 0 0 0 0 0 0 0 0 0 0 0 0 0 0 0 0 0 .4 0"/><feOffset dx="4.0" dy="4.0" in="blurOut2" result="blurOut3"/><feBlend in="SourceGraphic" in2="blurOut3" mode="normal"/></filter></defs><g><text fill="#000000" font-family="sans-serif" font-size="18" lengthAdjust="spacingAndGlyphs" textLength="312" x="204.5" y="16.708">camx multicamcontroller class Arch</text><text fill="#000000" font-family="sans-serif" font-size="18" lengthAdjust="spacingAndGlyphs" textLength="54" x="348.5" y="37.6611">Lin Jin</text><!--class MultiCamController--><rect fill="#FEFECE" filter="url(#f18fhdphi5trpr)" height="210.4609" id="MultiCamController" style="stroke: #A80036; stroke-width: 1.5;" width="271" x="192.5" y="49.9063"/><ellipse cx="265.25" cy="65.9063" fill="#ADD1B2" rx="11" ry="11" style="stroke: #A80036; stroke-width: 1.0;"/><path d="M268.2188,71.5469 Q267.6406,71.8438 267,71.9922 Q266.3594,72.1406 265.6563,72.1406 Q263.1563,72.1406 261.8359,70.4922 Q260.5156,68.8438 260.5156,65.7188 Q260.5156,62.5938 261.8359,60.9375 Q263.1563,59.2813 265.6563,59.2813 Q266.3594,59.2813 267.0078,59.4375 Q267.6563,59.5938 268.2188,59.8906 L268.2188,62.6094 Q267.5938,62.0313 267,61.7578 Q266.4063,61.4844 265.7813,61.4844 Q264.4375,61.4844 263.75,62.5547 Q263.0625,63.625 263.0625,65.7188 Q263.0625,67.8125 263.75,68.8828 Q264.4375,69.9531 265.7813,69.9531 Q266.4063,69.9531 267,69.6797 Q267.5938,69.4063 268.2188,68.8281 L268.2188,71.5469 Z "/><text fill="#000000" font-family="sans-serif" font-size="12" lengthAdjust="spacingAndGlyphs" textLength="117" x="285.75" y="70.0605">MultiCamController</text><line style="stroke: #A80036; stroke-width: 1.5;" x1="193.5" x2="462.5" y1="81.9063" y2="81.9063"/><text fill="#FFA500" font-family="sans-serif" font-size="11" font-weight="bold" lengthAdjust="spacingAndGlyphs" textLength="36" x="198.5" y="112.9214">static</text><text fill="#000000" font-family="sans-serif" font-size="11" lengthAdjust="spacingAndGlyphs" textLength="0" x="238.5" y="112.9214"/><text fill="#000000" font-family="sans-serif" font-size="11" font-weight="bold" lengthAdjust="spacingAndGlyphs" textLength="127" x="238.5" y="112.9214">GetControllerType()</text><text fill="#FFA500" font-family="sans-serif" font-size="11" font-weight="bold" lengthAdjust="spacingAndGlyphs" textLength="36" x="198.5" y="125.7261">static</text><text fill="#000000" font-family="sans-serif" font-size="11" lengthAdjust="spacingAndGlyphs" textLength="0" x="238.5" y="125.7261"/><text fill="#000000" font-family="sans-serif" font-size="11" font-weight="bold" lengthAdjust="spacingAndGlyphs" textLength="161" x="238.5" y="125.7261">ConsolidateCameraInfo()</text><text fill="#000000" font-family="sans-serif" font-size="11" lengthAdjust="spacingAndGlyphs" textLength="35" x="198.5" y="138.5308">virtual</text><text fill="#000000" font-family="sans-serif" font-size="11" font-weight="bold" lengthAdjust="spacingAndGlyphs" textLength="87" x="237.5" y="138.5308">Reconfigure()</text><text fill="#000000" font-family="sans-serif" font-size="11" lengthAdjust="spacingAndGlyphs" textLength="35" x="198.5" y="151.3354">virtual</text><text fill="#000000" font-family="sans-serif" font-size="11" font-weight="bold" lengthAdjust="spacingAndGlyphs" textLength="176" x="237.5" y="151.3354">TranslateRequestSettings()</text><text fill="#000000" font-family="sans-serif" font-size="11" lengthAdjust="spacingAndGlyphs" textLength="35" x="198.5" y="164.1401">virtual</text><text fill="#000000" font-family="sans-serif" font-size="11" font-weight="bold" lengthAdjust="spacingAndGlyphs" textLength="161" x="237.5" y="164.1401">ProcessResultMetadata()</text><text fill="#000000" font-family="sans-serif" font-size="11" lengthAdjust="spacingAndGlyphs" textLength="35" x="198.5" y="176.9448">virtual</text><text fill="#000000" font-family="sans-serif" font-size="11" font-weight="bold" lengthAdjust="spacingAndGlyphs" textLength="59" x="237.5" y="176.9448">Destroy()</text><text fill="#000000" font-family="sans-serif" font-size="11" lengthAdjust="spacingAndGlyphs" textLength="20" x="296.5" y="176.9448">=0;</text><text fill="#000000" font-family="sans-serif" font-size="11" lengthAdjust="spacingAndGlyphs" textLength="35" x="198.5" y="189.7495">virtual</text><text fill="#000000" font-family="sans-serif" font-size="11" font-weight="bold" lengthAdjust="spacingAndGlyphs" textLength="72" x="237.5" y="189.7495">GetResult()</text><text fill="#000000" font-family="sans-serif" font-size="11" lengthAdjust="spacingAndGlyphs" textLength="89" x="198.5" y="202.5542">inline GetType()</text><text fill="#000000" font-family="sans-serif" font-size="11" lengthAdjust="spacingAndGlyphs" textLength="35" x="198.5" y="215.3589">virtual</text><text fill="#000000" font-family="sans-serif" font-size="11" font-weight="bold" lengthAdjust="spacingAndGlyphs" textLength="220" x="237.5" y="215.3589">FillOfflinePipelineInputMetadata()</text><text fill="#000000" font-family="sans-serif" font-size="11" lengthAdjust="spacingAndGlyphs" textLength="144" x="198.5" y="228.1636">ExtractCameraMetadata()</text><text fill="#000000" font-family="sans-serif" font-size="11" lengthAdjust="spacingAndGlyphs" textLength="116" x="198.5" y="240.9683">UpdateVendorTags()</text><text fill="#000000" font-family="sans-serif" font-size="11" lengthAdjust="spacingAndGlyphs" textLength="35" x="198.5" y="253.7729">virtual</text><text fill="#000000" font-family="sans-serif" font-size="11" font-weight="bold" lengthAdjust="spacingAndGlyphs" textLength="197" x="237.5" y="253.7729">UpdateScalerCropForSnapshot</text><line style="stroke: #A80036; stroke-width: 1.5;" x1="193.5" x2="311.5" y1="96.3086" y2="96.3086"/><text fill="#000000" font-family="sans-serif" font-size="11" lengthAdjust="spacingAndGlyphs" textLength="33" x="311.5" y="99.6167">public</text><line style="stroke: #A80036; stroke-width: 1.5;" x1="344.5" x2="462.5" y1="96.3086" y2="96.3086"/><!--class DualFovController--><rect fill="#FEFECE" filter="url(#f18fhdphi5trpr)" height="48" id="DualFovController" style="stroke: #A80036; stroke-width: 1.5;" width="142" x="6" y="319.9063"/><ellipse cx="21" cy="335.9063" fill="#ADD1B2" rx="11" ry="11" style="stroke: #A80036; stroke-width: 1.0;"/><path d="M23.9688,341.5469 Q23.3906,341.8438 22.75,341.9922 Q22.1094,342.1406 21.4063,342.1406 Q18.9063,342.1406 17.5859,340.4922 Q16.2656,338.8438 16.2656,335.7188 Q16.2656,332.5938 17.5859,330.9375 Q18.9063,329.2813 21.4063,329.2813 Q22.1094,329.2813 22.7578,329.4375 Q23.4063,329.5938 23.9688,329.8906 L23.9688,332.6094 Q23.3438,332.0313 22.75,331.7578 Q22.1563,331.4844 21.5313,331.4844 Q20.1875,331.4844 19.5,332.5547 Q18.8125,333.625 18.8125,335.7188 Q18.8125,337.8125 19.5,338.8828 Q20.1875,339.9531 21.5313,339.9531 Q22.1563,339.9531 22.75,339.6797 Q23.3438,339.4063 23.9688,338.8281 L23.9688,341.5469 Z "/><text fill="#000000" font-family="sans-serif" font-size="12" lengthAdjust="spacingAndGlyphs" textLength="110" x="35" y="340.0605">DualFovController</text><line style="stroke: #A80036; stroke-width: 1.5;" x1="7" x2="147" y1="351.9063" y2="351.9063"/><line style="stroke: #A80036; stroke-width: 1.5;" x1="7" x2="147" y1="359.9063" y2="359.9063"/><!--class RTBController--><rect fill="#FEFECE" filter="url(#f18fhdphi5trpr)" height="48" id="RTBController" style="stroke: #A80036; stroke-width: 1.5;" width="116" x="183" y="319.9063"/><ellipse cx="198" cy="335.9063" fill="#ADD1B2" rx="11" ry="11" style="stroke: #A80036; stroke-width: 1.0;"/><path d="M200.9688,341.5469 Q200.3906,341.8438 199.75,341.9922 Q199.1094,342.1406 198.4063,342.1406 Q195.9063,342.1406 194.5859,340.4922 Q193.2656,338.8438 193.2656,335.7188 Q193.2656,332.5938 194.5859,330.9375 Q195.9063,329.2813 198.4063,329.2813 Q199.1094,329.2813 199.7578,329.4375 Q200.4063,329.5938 200.9688,329.8906 L200.9688,332.6094 Q200.3438,332.0313 199.75,331.7578 Q199.1563,331.4844 198.5313,331.4844 Q197.1875,331.4844 196.5,332.5547 Q195.8125,333.625 195.8125,335.7188 Q195.8125,337.8125 196.5,338.8828 Q197.1875,339.9531 198.5313,339.9531 Q199.1563,339.9531 199.75,339.6797 Q200.3438,339.4063 200.9688,338.8281 L200.9688,341.5469 Z "/><text fill="#000000" font-family="sans-serif" font-size="12" lengthAdjust="spacingAndGlyphs" textLength="84" x="212" y="340.0605">RTBController</text><line style="stroke: #A80036; stroke-width: 1.5;" x1="184" x2="298" y1="351.9063" y2="351.9063"/><line style="stroke: #A80036; stroke-width: 1.5;" x1="184" x2="298" y1="359.9063" y2="359.9063"/><!--class BayerMonoController--><rect fill="#FEFECE" filter="url(#f18fhdphi5trpr)" height="48" id="BayerMonoController" style="stroke: #A80036; stroke-width: 1.5;" width="162" x="334" y="319.9063"/><ellipse cx="349" cy="335.9063" fill="#ADD1B2" rx="11" ry="11" style="stroke: #A80036; stroke-width: 1.0;"/><path d="M351.9688,341.5469 Q351.3906,341.8438 350.75,341.9922 Q350.1094,342.1406 349.4063,342.1406 Q346.9063,342.1406 345.5859,340.4922 Q344.2656,338.8438 344.2656,335.7188 Q344.2656,332.5938 345.5859,330.9375 Q346.9063,329.2813 349.4063,329.2813 Q350.1094,329.2813 350.7578,329.4375 Q351.4063,329.5938 351.9688,329.8906 L351.9688,332.6094 Q351.3438,332.0313 350.75,331.7578 Q350.1563,331.4844 349.5313,331.4844 Q348.1875,331.4844 347.5,332.5547 Q346.8125,333.625 346.8125,335.7188 Q346.8125,337.8125 347.5,338.8828 Q348.1875,339.9531 349.5313,339.9531 Q350.1563,339.9531 350.75,339.6797 Q351.3438,339.4063 351.9688,338.8281 L351.9688,341.5469 Z "/><text fill="#000000" font-family="sans-serif" font-size="12" lengthAdjust="spacingAndGlyphs" textLength="130" x="363" y="340.0605">BayerMonoController</text><line style="stroke: #A80036; stroke-width: 1.5;" x1="335" x2="495" y1="351.9063" y2="351.9063"/><line style="stroke: #A80036; stroke-width: 1.5;" x1="335" x2="495" y1="359.9063" y2="359.9063"/><!--class VRController--><rect fill="#FEFECE" filter="url(#f18fhdphi5trpr)" height="48" id="VRController" style="stroke: #A80036; stroke-width: 1.5;" width="109" x="531.5" y="319.9063"/><ellipse cx="546.5" cy="335.9063" fill="#ADD1B2" rx="11" ry="11" style="stroke: #A80036; stroke-width: 1.0;"/><path d="M549.4688,341.5469 Q548.8906,341.8438 548.25,341.9922 Q547.6094,342.1406 546.9063,342.1406 Q544.4063,342.1406 543.0859,340.4922 Q541.7656,338.8438 541.7656,335.7188 Q541.7656,332.5938 543.0859,330.9375 Q544.4063,329.2813 546.9063,329.2813 Q547.6094,329.2813 548.2578,329.4375 Q548.9063,329.5938 549.4688,329.8906 L549.4688,332.6094 Q548.8438,332.0313 548.25,331.7578 Q547.6563,331.4844 547.0313,331.4844 Q545.6875,331.4844 545,332.5547 Q544.3125,333.625 544.3125,335.7188 Q544.3125,337.8125 545,338.8828 Q545.6875,339.9531 547.0313,339.9531 Q547.6563,339.9531 548.25,339.6797 Q548.8438,339.4063 549.4688,338.8281 L549.4688,341.5469 Z "/><text fill="#000000" font-family="sans-serif" font-size="12" lengthAdjust="spacingAndGlyphs" textLength="77" x="560.5" y="340.0605">VRController</text><line style="stroke: #A80036; stroke-width: 1.5;" x1="532.5" x2="639.5" y1="351.9063" y2="351.9063"/><line style="stroke: #A80036; stroke-width: 1.5;" x1="532.5" x2="639.5" y1="359.9063" y2="359.9063"/><!--class MultiCamControllerManager--><rect fill="#FEFECE" filter="url(#f18fhdphi5trpr)" height="108.0234" id="MultiCamControllerManager" style="stroke: #A80036; stroke-width: 1.5;" width="204" x="499" y="100.9063"/><ellipse cx="514" cy="116.9063" fill="#ADD1B2" rx="11" ry="11" style="stroke: #A80036; stroke-width: 1.0;"/><path d="M516.9688,122.5469 Q516.3906,122.8438 515.75,122.9922 Q515.1094,123.1406 514.4063,123.1406 Q511.9063,123.1406 510.5859,121.4922 Q509.2656,119.8438 509.2656,116.7188 Q509.2656,113.5938 510.5859,111.9375 Q511.9063,110.2813 514.4063,110.2813 Q515.1094,110.2813 515.7578,110.4375 Q516.4063,110.5938 516.9688,110.8906 L516.9688,113.6094 Q516.3438,113.0313 515.75,112.7578 Q515.1563,112.4844 514.5313,112.4844 Q513.1875,112.4844 512.5,113.5547 Q511.8125,114.625 511.8125,116.7188 Q511.8125,118.8125 512.5,119.8828 Q513.1875,120.9531 514.5313,120.9531 Q515.1563,120.9531 515.75,120.6797 Q516.3438,120.4063 516.9688,119.8281 L516.9688,122.5469 Z "/><text fill="#000000" font-family="sans-serif" font-size="12" lengthAdjust="spacingAndGlyphs" textLength="172" x="528" y="121.0605">MultiCamControllerManager</text><line style="stroke: #A80036; stroke-width: 1.5;" x1="500" x2="702" y1="132.9063" y2="132.9063"/><text fill="#FFA500" font-family="sans-serif" font-size="11" font-weight="bold" lengthAdjust="spacingAndGlyphs" textLength="36" x="505" y="163.9214">static</text><text fill="#000000" font-family="sans-serif" font-size="11" lengthAdjust="spacingAndGlyphs" textLength="0" x="545" y="163.9214"/><text fill="#000000" font-family="sans-serif" font-size="11" font-weight="bold" lengthAdjust="spacingAndGlyphs" textLength="87" x="545" y="163.9214">GetInstance()</text><text fill="#000000" font-family="sans-serif" font-size="11" font-weight="bold" lengthAdjust="spacingAndGlyphs" textLength="96" x="505" y="176.7261">GetController()</text><text fill="#000000" font-family="sans-serif" font-size="11" font-weight="bold" lengthAdjust="spacingAndGlyphs" textLength="123" x="505" y="189.5308">DestroyController()</text><text fill="#000000" font-family="sans-serif" font-size="11" font-weight="bold" lengthAdjust="spacingAndGlyphs" textLength="59" x="505" y="202.3354">Destroy()</text><line style="stroke: #A80036; stroke-width: 1.5;" x1="500" x2="584.5" y1="147.3086" y2="147.3086"/><text fill="#000000" font-family="sans-serif" font-size="11" lengthAdjust="spacingAndGlyphs" textLength="33" x="584.5" y="150.6167">public</text><line style="stroke: #A80036; stroke-width: 1.5;" x1="617.5" x2="702" y1="147.3086" y2="147.3086"/><!--link MultiCamController to DualFovController--><path d="M176.015,269.1381 C150.254,288.3306 126.053,306.361 108.025,319.7918 " fill="none" id="MultiCamController-DualFovController" style="stroke: #A80036; stroke-width: 1.0;"/><polygon fill="none" points="171.995,263.4043,192.215,257.0683,180.359,274.6308,171.995,263.4043" style="stroke: #A80036; stroke-width: 1.0;"/><!--link MultiCamController to RTBController--><path d="M271.099,278.2109 C263.789,293.9227 257.039,308.432 251.791,319.711 " fill="none" id="MultiCamController-RTBController" style="stroke: #A80036; stroke-width: 1.0;"/><polygon fill="none" points="264.756,275.2495,279.539,260.0683,277.45,281.1551,264.756,275.2495" style="stroke: #A80036; stroke-width: 1.0;"/><!--link MultiCamController to BayerMonoController--><path d="M384.901,278.2109 C392.211,293.9227 398.961,308.432 404.209,319.711 " fill="none" id="MultiCamController-BayerMonoController" style="stroke: #A80036; stroke-width: 1.0;"/><polygon fill="none" points="378.55,281.1551,376.461,260.0683,391.244,275.2495,378.55,281.1551" style="stroke: #A80036; stroke-width: 1.0;"/><!--link MultiCamController to VRController--><path d="M480.378,266.3513 C508.309,286.595 534.726,305.7426 554.155,319.8248 " fill="none" id="MultiCamController-VRController" style="stroke: #A80036; stroke-width: 1.0;"/><polygon fill="none" points="475.886,271.7401,463.8,254.3353,484.102,260.4043,475.886,271.7401" style="stroke: #A80036; stroke-width: 1.0;"/><!--
@startuml
title <size:18>camx multicamcontroller class Arch</size>\n     Lin Jin


class MultiCamController {
__public__
<color:orange>**static**</color> **GetControllerType()**
<color:orange>**static**</color> **ConsolidateCameraInfo()**
virtual **Reconfigure()**
virtual **TranslateRequestSettings()**
virtual **ProcessResultMetadata()**
virtual **Destroy()**=0;
virtual **GetResult()**
inline GetType()
virtual **FillOfflinePipelineInputMetadata()**
ExtractCameraMetadata()
UpdateVendorTags()
virtual **UpdateScalerCropForSnapshot**
}

class DualFovController {
}
class RTBController {
}
class BayerMonoController {
}
class VRController {
}

MultiCamController<|-down-DualFovController
MultiCamController<|-down-RTBController 
MultiCamController<|-down-BayerMonoController 
MultiCamController<|-down-VRController 


class MultiCamControllerManager {
__public__
<color:orange>**static**</color> **GetInstance()**
**GetController()**
**DestroyController()**
**Destroy()**
}




@enduml

PlantUML version 1.2017.20(Mon Dec 11 16:57:05 GMT 2017)
(GPL source distribution)
Java Runtime: OpenJDK Runtime Environment
JVM: OpenJDK 64-Bit Server VM
Java Version: 1.8.0_171-8u171-b11-0ubuntu0.16.04.1-b11
Operating System: Linux
OS Version: 4.4.0-43-Microsoft
Default Encoding: UTF-8
Language: en
Country: US
--></g></svg>