<?xml version="1.0" encoding="UTF-8" standalone="no"?><svg xmlns="http://www.w3.org/2000/svg" xmlns:xlink="http://www.w3.org/1999/xlink" contentScriptType="application/ecmascript" contentStyleType="text/css" height="1363px" preserveAspectRatio="none" style="width:1388px;height:1363px;" version="1.1" viewBox="0 0 1388 1363" width="1388px" zoomAndPan="magnify"><defs><filter height="300%" id="fjv3co3inhoev" width="300%" x="-1" y="-1"><feGaussianBlur result="blurOut" stdDeviation="2.0"/><feColorMatrix in="blurOut" result="blurOut2" type="matrix" values="0 0 0 0 0 0 0 0 0 0 0 0 0 0 0 0 0 0 .4 0"/><feOffset dx="4.0" dy="4.0" in="blurOut2" result="blurOut3"/><feBlend in="SourceGraphic" in2="blurOut3" mode="normal"/></filter></defs><g><text fill="#000000" font-family="sans-serif" font-size="18" font-weight="bold" lengthAdjust="spacingAndGlyphs" textLength="191" x="594" y="26.708">camx ncs overview</text><text fill="#000000" font-family="sans-serif" font-size="14" font-weight="bold" lengthAdjust="spacingAndGlyphs" textLength="46" x="679" y="43.9482">Lin Jin</text><rect fill="#FFFFFF" filter="url(#fjv3co3inhoev)" height="850.8125" style="stroke: #A80036; stroke-width: 1.0;" width="10" x="161" y="163.8125"/><rect fill="#FFFFFF" filter="url(#fjv3co3inhoev)" height="29.1328" style="stroke: #A80036; stroke-width: 1.0;" width="10" x="356" y="192.9453"/><rect fill="#FFFFFF" filter="url(#fjv3co3inhoev)" height="734.2813" style="stroke: #A80036; stroke-width: 1.0;" width="10" x="356" y="251.2109"/><rect fill="#FFFFFF" filter="url(#fjv3co3inhoev)" height="219.125" style="stroke: #A80036; stroke-width: 1.0;" width="10" x="703" y="314.4766"/><rect fill="#FFFFFF" filter="url(#fjv3co3inhoev)" height="139.6953" style="stroke: #A80036; stroke-width: 1.0;" width="10" x="708" y="357.7734"/><rect fill="#FFFFFF" filter="url(#fjv3co3inhoev)" height="328.3594" style="stroke: #A80036; stroke-width: 1.0;" width="10" x="703" y="562.7344"/><rect fill="#FFFFFF" filter="url(#fjv3co3inhoev)" height="223.9609" style="stroke: #A80036; stroke-width: 1.0;" width="10" x="708" y="624"/><rect fill="#FFFFFF" filter="url(#fjv3co3inhoev)" height="139.6953" style="stroke: #A80036; stroke-width: 1.0;" width="10" x="713" y="666.1328"/><rect fill="#FFFFFF" filter="url(#fjv3co3inhoev)" height="29.1328" style="stroke: #A80036; stroke-width: 1.0;" width="10" x="703" y="920.2266"/><rect fill="#FFFFFF" filter="url(#fjv3co3inhoev)" height="218.5547" style="stroke: #A80036; stroke-width: 1.0;" width="10" x="703" y="1086.8906"/><rect fill="#FFFFFF" filter="url(#fjv3co3inhoev)" height="40.1328" style="stroke: #A80036; stroke-width: 1.0;" width="10" x="708" y="1177.7656"/><rect fill="#FFFFFF" filter="url(#fjv3co3inhoev)" height="691.1484" style="stroke: #000000; stroke-width: 2.0;" width="1079" x="287" y="266.2109"/><rect fill="#FEFECE" filter="url(#fjv3co3inhoev)" height="30.2969" style="stroke: #A80036; stroke-width: 1.5;" width="134" x="639" y="283.3438"/><text fill="#000000" font-family="sans-serif" font-size="14" lengthAdjust="spacingAndGlyphs" textLength="120" x="646" y="303.3389">camxncsintfQSEE</text><rect fill="#FEFECE" filter="url(#fjv3co3inhoev)" height="30.2969" style="stroke: #A80036; stroke-width: 1.5;" width="124" x="993" y="370.7734"/><text fill="#000000" font-family="sans-serif" font-size="14" lengthAdjust="spacingAndGlyphs" textLength="110" x="1000" y="390.7686">NCSSensorData</text><rect fill="#FFFFFF" filter="url(#fjv3co3inhoev)" height="285.2266" style="stroke: #000000; stroke-width: 2.0;" width="727" x="629" y="577.7344"/><rect fill="#FEFECE" filter="url(#fjv3co3inhoev)" height="30.2969" style="stroke: #A80036; stroke-width: 1.5;" width="122" x="1131" y="679.1328"/><text fill="#000000" font-family="sans-serif" font-size="14" lengthAdjust="spacingAndGlyphs" textLength="108" x="1138" y="699.1279">SSCConnection</text><rect fill="#FFFFFF" filter="url(#fjv3co3inhoev)" height="175.4219" style="stroke: #000000; stroke-width: 2.0;" width="497" x="629" y="1101.8906"/><rect fill="#FFFFFF" height="14.8047" style="stroke: none; stroke-width: 1.0;" width="497" x="629" y="1119.0234"/><rect fill="#FFFFFF" height="99.0703" style="stroke: none; stroke-width: 1.0;" width="497" x="629" y="1133.8281"/><rect fill="#FFFFFF" height="14.8047" style="stroke: none; stroke-width: 1.0;" width="497" x="629" y="1232.8984"/><rect fill="#FFFFFF" height="14.8047" style="stroke: none; stroke-width: 1.0;" width="497" x="629" y="1247.7031"/><rect fill="#FFFFFF" height="14.8047" style="stroke: none; stroke-width: 1.0;" width="497" x="629" y="1262.5078"/><line style="stroke: #A80036; stroke-width: 1.0; stroke-dasharray: 5.0,5.0;" x1="166" x2="166" y1="89.5469" y2="1323.4453"/><line style="stroke: #A80036; stroke-width: 1.0; stroke-dasharray: 5.0,5.0;" x1="361" x2="361" y1="89.5469" y2="1323.4453"/><line style="stroke: #A80036; stroke-width: 1.0; stroke-dasharray: 5.0,5.0;" x1="708" x2="708" y1="315.9922" y2="1323.4453"/><line style="stroke: #A80036; stroke-width: 1.0; stroke-dasharray: 5.0,5.0;" x1="1057" x2="1057" y1="403.4219" y2="1323.4453"/><line style="stroke: #A80036; stroke-width: 1.0; stroke-dasharray: 5.0,5.0;" x1="1194" x2="1194" y1="711.7813" y2="1323.4453"/><rect fill="#FEFECE" filter="url(#fjv3co3inhoev)" height="30.2969" style="stroke: #A80036; stroke-width: 1.5;" width="34" x="147" y="54.25"/><text fill="#000000" font-family="sans-serif" font-size="14" lengthAdjust="spacingAndGlyphs" textLength="20" x="154" y="74.2451">chi</text><rect fill="#FEFECE" filter="url(#fjv3co3inhoev)" height="30.2969" style="stroke: #A80036; stroke-width: 1.5;" width="34" x="147" y="1322.4453"/><text fill="#000000" font-family="sans-serif" font-size="14" lengthAdjust="spacingAndGlyphs" textLength="20" x="154" y="1342.4404">chi</text><rect fill="#FEFECE" filter="url(#fjv3co3inhoev)" height="30.2969" style="stroke: #A80036; stroke-width: 1.5;" width="124" x="297" y="54.25"/><text fill="#000000" font-family="sans-serif" font-size="14" lengthAdjust="spacingAndGlyphs" textLength="110" x="304" y="74.2451">camxncsservice</text><rect fill="#FEFECE" filter="url(#fjv3co3inhoev)" height="30.2969" style="stroke: #A80036; stroke-width: 1.5;" width="124" x="297" y="1322.4453"/><text fill="#000000" font-family="sans-serif" font-size="14" lengthAdjust="spacingAndGlyphs" textLength="110" x="304" y="1342.4404">camxncsservice</text><rect fill="#FEFECE" filter="url(#fjv3co3inhoev)" height="30.2969" style="stroke: #A80036; stroke-width: 1.5;" width="134" x="639" y="1322.4453"/><text fill="#000000" font-family="sans-serif" font-size="14" lengthAdjust="spacingAndGlyphs" textLength="120" x="646" y="1342.4404">camxncsintfQSEE</text><rect fill="#FEFECE" filter="url(#fjv3co3inhoev)" height="30.2969" style="stroke: #A80036; stroke-width: 1.5;" width="124" x="993" y="1322.4453"/><text fill="#000000" font-family="sans-serif" font-size="14" lengthAdjust="spacingAndGlyphs" textLength="110" x="1000" y="1342.4404">NCSSensorData</text><rect fill="#FEFECE" filter="url(#fjv3co3inhoev)" height="30.2969" style="stroke: #A80036; stroke-width: 1.5;" width="122" x="1131" y="1322.4453"/><text fill="#000000" font-family="sans-serif" font-size="14" lengthAdjust="spacingAndGlyphs" textLength="108" x="1138" y="1342.4404">SSCConnection</text><rect fill="#FFFFFF" filter="url(#fjv3co3inhoev)" height="850.8125" style="stroke: #A80036; stroke-width: 1.0;" width="10" x="161" y="163.8125"/><rect fill="#FFFFFF" filter="url(#fjv3co3inhoev)" height="29.1328" style="stroke: #A80036; stroke-width: 1.0;" width="10" x="356" y="192.9453"/><rect fill="#FFFFFF" filter="url(#fjv3co3inhoev)" height="734.2813" style="stroke: #A80036; stroke-width: 1.0;" width="10" x="356" y="251.2109"/><rect fill="#FFFFFF" filter="url(#fjv3co3inhoev)" height="219.125" style="stroke: #A80036; stroke-width: 1.0;" width="10" x="703" y="314.4766"/><rect fill="#FFFFFF" filter="url(#fjv3co3inhoev)" height="139.6953" style="stroke: #A80036; stroke-width: 1.0;" width="10" x="708" y="357.7734"/><rect fill="#FFFFFF" filter="url(#fjv3co3inhoev)" height="328.3594" style="stroke: #A80036; stroke-width: 1.0;" width="10" x="703" y="562.7344"/><rect fill="#FFFFFF" filter="url(#fjv3co3inhoev)" height="223.9609" style="stroke: #A80036; stroke-width: 1.0;" width="10" x="708" y="624"/><rect fill="#FFFFFF" filter="url(#fjv3co3inhoev)" height="139.6953" style="stroke: #A80036; stroke-width: 1.0;" width="10" x="713" y="666.1328"/><rect fill="#FFFFFF" filter="url(#fjv3co3inhoev)" height="29.1328" style="stroke: #A80036; stroke-width: 1.0;" width="10" x="703" y="920.2266"/><rect fill="#FFFFFF" filter="url(#fjv3co3inhoev)" height="218.5547" style="stroke: #A80036; stroke-width: 1.0;" width="10" x="703" y="1086.8906"/><rect fill="#FFFFFF" filter="url(#fjv3co3inhoev)" height="40.1328" style="stroke: #A80036; stroke-width: 1.0;" width="10" x="708" y="1177.7656"/><rect fill="#EEEEEE" filter="url(#fjv3co3inhoev)" height="3" style="stroke: #EEEEEE; stroke-width: 1.0;" width="1373" x="3" y="120.1133"/><line style="stroke: #000000; stroke-width: 1.0;" x1="3" x2="1376" y1="120.1133" y2="120.1133"/><line style="stroke: #000000; stroke-width: 1.0;" x1="3" x2="1376" y1="123.1133" y2="123.1133"/><rect fill="#EEEEEE" filter="url(#fjv3co3inhoev)" height="23.1328" style="stroke: #000000; stroke-width: 2.0;" width="77" x="651" y="109.5469"/><text fill="#0000FF" font-family="sans-serif" font-size="13" font-weight="bold" lengthAdjust="spacingAndGlyphs" textLength="58" x="657" y="125.6138">NCS Init</text><ellipse cx="10.5" cy="163.0625" fill="none" rx="4" ry="4" style="stroke: #A80036; stroke-width: 1.5;"/><polygon fill="#A80036" points="149,159.8125,159,163.8125,149,167.8125,153,163.8125" style="stroke: #A80036; stroke-width: 1.0;"/><line style="stroke: #A80036; stroke-width: 1.0;" x1="15" x2="155" y1="163.8125" y2="163.8125"/><text fill="#000000" font-family="sans-serif" font-size="13" font-weight="bold" lengthAdjust="spacingAndGlyphs" textLength="131" x="18" y="158.7466">ChiOpenContext()</text><polygon fill="#A80036" points="344,188.9453,354,192.9453,344,196.9453,348,192.9453" style="stroke: #A80036; stroke-width: 1.0;"/><line style="stroke: #A80036; stroke-width: 1.0;" x1="171" x2="350" y1="192.9453" y2="192.9453"/><text fill="#000000" font-family="sans-serif" font-size="13" font-weight="bold" lengthAdjust="spacingAndGlyphs" textLength="130" x="178" y="187.8794">new NCSService()</text><polygon fill="#A80036" points="182,218.0781,172,222.0781,182,226.0781,178,222.0781" style="stroke: #A80036; stroke-width: 1.0;"/><line style="stroke: #A80036; stroke-width: 1.0;" x1="176" x2="360" y1="222.0781" y2="222.0781"/><text fill="#000000" font-family="sans-serif" font-size="13" lengthAdjust="spacingAndGlyphs" textLength="39" x="188" y="217.0122">return</text><polygon fill="#A80036" points="344,247.2109,354,251.2109,344,255.2109,348,251.2109" style="stroke: #A80036; stroke-width: 1.0;"/><line style="stroke: #A80036; stroke-width: 1.0;" x1="171" x2="350" y1="251.2109" y2="251.2109"/><text fill="#000000" font-family="sans-serif" font-size="13" font-weight="bold" lengthAdjust="spacingAndGlyphs" textLength="166" x="178" y="246.145">NCSService::Initialize()</text><path d="M287,266.2109 L364,266.2109 L364,273.2109 L354,283.2109 L287,283.2109 L287,266.2109 " fill="#EEEEEE" style="stroke: #000000; stroke-width: 1.0;"/><rect fill="none" height="691.1484" style="stroke: #000000; stroke-width: 2.0;" width="1079" x="287" y="266.2109"/><text fill="#000000" font-family="sans-serif" font-size="13" font-weight="bold" lengthAdjust="spacingAndGlyphs" textLength="32" x="302" y="279.2778">loop</text><text fill="#000000" font-family="sans-serif" font-size="11" font-weight="bold" lengthAdjust="spacingAndGlyphs" textLength="5" x="379" y="278.4214">[</text><text fill="#000000" font-family="sans-serif" font-size="11" font-weight="bold" lengthAdjust="spacingAndGlyphs" textLength="105" x="384" y="278.4214">MaxNCSIntfType</text><text fill="#000000" font-family="sans-serif" font-size="11" font-weight="bold" lengthAdjust="spacingAndGlyphs" textLength="5" x="489" y="278.4214">]</text><polygon fill="#A80036" points="627,300.4766,637,304.4766,627,308.4766,631,304.4766" style="stroke: #A80036; stroke-width: 1.0;"/><line style="stroke: #A80036; stroke-width: 1.0;" x1="366" x2="633" y1="304.4766" y2="304.4766"/><text fill="#000000" font-family="sans-serif" font-size="13" font-weight="bold" lengthAdjust="spacingAndGlyphs" textLength="249" x="373" y="299.4106">static NCSIntfQSEE::GetInstance()</text><rect fill="#FEFECE" filter="url(#fjv3co3inhoev)" height="30.2969" style="stroke: #A80036; stroke-width: 1.5;" width="134" x="639" y="283.3438"/><text fill="#000000" font-family="sans-serif" font-size="14" lengthAdjust="spacingAndGlyphs" textLength="120" x="646" y="303.3389">camxncsintfQSEE</text><line style="stroke: #A80036; stroke-width: 1.0;" x1="713" x2="760" y1="344.7734" y2="344.7734"/><line style="stroke: #A80036; stroke-width: 1.0;" x1="760" x2="760" y1="344.7734" y2="357.7734"/><line style="stroke: #A80036; stroke-width: 1.0;" x1="719" x2="760" y1="357.7734" y2="357.7734"/><polygon fill="#A80036" points="729,353.7734,719,357.7734,729,361.7734,725,357.7734" style="stroke: #A80036; stroke-width: 1.0;"/><text fill="#000000" font-family="sans-serif" font-size="13" font-weight="bold" lengthAdjust="spacingAndGlyphs" textLength="176" x="725" y="339.7075">NCSIntfQSEE::Initialize()</text><polygon fill="#A80036" points="981,387.9063,991,391.9063,981,395.9063,985,391.9063" style="stroke: #A80036; stroke-width: 1.0;"/><line style="stroke: #A80036; stroke-width: 1.0;" x1="718" x2="987" y1="391.9063" y2="391.9063"/><text fill="#000000" font-family="sans-serif" font-size="13" lengthAdjust="spacingAndGlyphs" textLength="25" x="725" y="386.8403">new</text><rect fill="#FEFECE" filter="url(#fjv3co3inhoev)" height="30.2969" style="stroke: #A80036; stroke-width: 1.5;" width="124" x="993" y="370.7734"/><text fill="#000000" font-family="sans-serif" font-size="14" lengthAdjust="spacingAndGlyphs" textLength="110" x="1000" y="390.7686">NCSSensorData</text><path d="M909,421.0703 L909,461.0703 L1200,461.0703 L1200,431.0703 L1190,421.0703 L909,421.0703 " fill="#FBFB77" filter="url(#fjv3co3inhoev)" style="stroke: #A80036; stroke-width: 1.0;"/><path d="M1190,421.0703 L1190,431.0703 L1200,431.0703 L1190,421.0703 " fill="#FBFB77" style="stroke: #A80036; stroke-width: 1.0;"/><text fill="#000000" font-family="sans-serif" font-size="13" lengthAdjust="spacingAndGlyphs" textLength="270" x="915" y="438.1372">alloc a LDLLNode to keep NCSSensorData</text><text fill="#000000" font-family="sans-serif" font-size="13" lengthAdjust="spacingAndGlyphs" textLength="249" x="915" y="453.27">insert it to m_sensorDataObjectList tail</text><line style="stroke: #A80036; stroke-width: 1.0;" x1="718" x2="760" y1="496.4688" y2="496.4688"/><line style="stroke: #A80036; stroke-width: 1.0;" x1="760" x2="760" y1="496.4688" y2="509.4688"/><line style="stroke: #A80036; stroke-width: 1.0;" x1="713" x2="760" y1="509.4688" y2="509.4688"/><polygon fill="#A80036" points="723,505.4688,713,509.4688,723,513.4688,719,509.4688" style="stroke: #A80036; stroke-width: 1.0;"/><text fill="#000000" font-family="sans-serif" font-size="13" lengthAdjust="spacingAndGlyphs" textLength="39" x="725" y="491.4028">return</text><polygon fill="#A80036" points="377,529.6016,367,533.6016,377,537.6016,373,533.6016" style="stroke: #A80036; stroke-width: 1.0;"/><line style="stroke: #A80036; stroke-width: 1.0;" x1="371" x2="707" y1="533.6016" y2="533.6016"/><text fill="#000000" font-family="sans-serif" font-size="13" lengthAdjust="spacingAndGlyphs" textLength="39" x="383" y="528.5356">return</text><polygon fill="#A80036" points="691,558.7344,701,562.7344,691,566.7344,695,562.7344" style="stroke: #A80036; stroke-width: 1.0;"/><line style="stroke: #A80036; stroke-width: 1.0;" x1="366" x2="697" y1="562.7344" y2="562.7344"/><text fill="#000000" font-family="sans-serif" font-size="13" font-weight="bold" lengthAdjust="spacingAndGlyphs" textLength="242" x="373" y="557.6685">NCSIntfQSEE::GetListOfSensors()</text><path d="M629,577.7344 L706,577.7344 L706,584.7344 L696,594.7344 L629,594.7344 L629,577.7344 " fill="#EEEEEE" style="stroke: #000000; stroke-width: 1.0;"/><rect fill="none" height="285.2266" style="stroke: #000000; stroke-width: 2.0;" width="727" x="629" y="577.7344"/><text fill="#000000" font-family="sans-serif" font-size="13" font-weight="bold" lengthAdjust="spacingAndGlyphs" textLength="32" x="644" y="590.8013">loop</text><text fill="#000000" font-family="sans-serif" font-size="11" font-weight="bold" lengthAdjust="spacingAndGlyphs" textLength="5" x="721" y="589.9448">[</text><text fill="#000000" font-family="sans-serif" font-size="11" font-weight="bold" lengthAdjust="spacingAndGlyphs" textLength="174" x="726" y="589.9448">sensorType &lt; NCSMaxType</text><text fill="#000000" font-family="sans-serif" font-size="11" font-weight="bold" lengthAdjust="spacingAndGlyphs" textLength="5" x="900" y="589.9448">]</text><line style="stroke: #A80036; stroke-width: 1.0;" x1="713" x2="760" y1="611" y2="611"/><line style="stroke: #A80036; stroke-width: 1.0;" x1="760" x2="760" y1="611" y2="624"/><line style="stroke: #A80036; stroke-width: 1.0;" x1="719" x2="760" y1="624" y2="624"/><polygon fill="#A80036" points="729,620,719,624,729,628,725,624" style="stroke: #A80036; stroke-width: 1.0;"/><text fill="#000000" font-family="sans-serif" font-size="13" font-weight="bold" lengthAdjust="spacingAndGlyphs" textLength="190" x="725" y="605.9341">ProbeSensor(sensorType)</text><line style="stroke: #A80036; stroke-width: 1.0;" x1="718" x2="765" y1="653.1328" y2="653.1328"/><line style="stroke: #A80036; stroke-width: 1.0;" x1="765" x2="765" y1="653.1328" y2="666.1328"/><line style="stroke: #A80036; stroke-width: 1.0;" x1="724" x2="765" y1="666.1328" y2="666.1328"/><polygon fill="#A80036" points="734,662.1328,724,666.1328,734,670.1328,730,666.1328" style="stroke: #A80036; stroke-width: 1.0;"/><text fill="#000000" font-family="sans-serif" font-size="13" font-weight="bold" lengthAdjust="spacingAndGlyphs" textLength="320" x="730" y="648.0669">SetupSensorLinkOnly(suids, this, datatype)</text><polygon fill="#A80036" points="1119,696.2656,1129,700.2656,1119,704.2656,1123,700.2656" style="stroke: #A80036; stroke-width: 1.0;"/><line style="stroke: #A80036; stroke-width: 1.0;" x1="723" x2="1125" y1="700.2656" y2="700.2656"/><text fill="#000000" font-family="sans-serif" font-size="13" lengthAdjust="spacingAndGlyphs" textLength="25" x="730" y="695.1997">new</text><rect fill="#FEFECE" filter="url(#fjv3co3inhoev)" height="30.2969" style="stroke: #A80036; stroke-width: 1.5;" width="122" x="1131" y="679.1328"/><text fill="#000000" font-family="sans-serif" font-size="14" lengthAdjust="spacingAndGlyphs" textLength="108" x="1138" y="699.1279">SSCConnection</text><path d="M1041,729.4297 L1041,769.4297 L1342,769.4297 L1342,739.4297 L1332,729.4297 L1041,729.4297 " fill="#FBFB77" filter="url(#fjv3co3inhoev)" style="stroke: #A80036; stroke-width: 1.0;"/><path d="M1332,729.4297 L1332,739.4297 L1342,739.4297 L1332,729.4297 " fill="#FBFB77" style="stroke: #A80036; stroke-width: 1.0;"/><text fill="#000000" font-family="sans-serif" font-size="13" lengthAdjust="spacingAndGlyphs" textLength="188" x="1047" y="746.4966">create Connect, the handle is</text><text fill="#FF0000" font-family="sans-serif" font-size="13" lengthAdjust="spacingAndGlyphs" textLength="88" x="1239" y="746.4966">phSSCHandle</text><text fill="#000000" font-family="sans-serif" font-size="13" lengthAdjust="spacingAndGlyphs" textLength="94" x="1047" y="761.6294">set callback as</text><text fill="#FF0000" font-family="sans-serif" font-size="13" lengthAdjust="spacingAndGlyphs" textLength="98" x="1145" y="761.6294">SensorCallback</text><line style="stroke: #A80036; stroke-width: 1.0;" x1="723" x2="765" y1="804.8281" y2="804.8281"/><line style="stroke: #A80036; stroke-width: 1.0;" x1="765" x2="765" y1="804.8281" y2="817.8281"/><line style="stroke: #A80036; stroke-width: 1.0;" x1="718" x2="765" y1="817.8281" y2="817.8281"/><polygon fill="#A80036" points="728,813.8281,718,817.8281,728,821.8281,724,817.8281" style="stroke: #A80036; stroke-width: 1.0;"/><text fill="#000000" font-family="sans-serif" font-size="13" lengthAdjust="spacingAndGlyphs" textLength="39" x="730" y="799.7622">return</text><line style="stroke: #A80036; stroke-width: 1.0;" x1="718" x2="760" y1="846.9609" y2="846.9609"/><line style="stroke: #A80036; stroke-width: 1.0;" x1="760" x2="760" y1="846.9609" y2="859.9609"/><line style="stroke: #A80036; stroke-width: 1.0;" x1="713" x2="760" y1="859.9609" y2="859.9609"/><polygon fill="#A80036" points="723,855.9609,713,859.9609,723,863.9609,719,859.9609" style="stroke: #A80036; stroke-width: 1.0;"/><text fill="#000000" font-family="sans-serif" font-size="13" lengthAdjust="spacingAndGlyphs" textLength="39" x="725" y="841.895">return</text><polygon fill="#A80036" points="377,887.0938,367,891.0938,377,895.0938,373,891.0938" style="stroke: #A80036; stroke-width: 1.0;"/><line style="stroke: #A80036; stroke-width: 1.0;" x1="371" x2="707" y1="891.0938" y2="891.0938"/><text fill="#000000" font-family="sans-serif" font-size="13" lengthAdjust="spacingAndGlyphs" textLength="39" x="383" y="886.0278">return</text><polygon fill="#A80036" points="691,916.2266,701,920.2266,691,924.2266,695,920.2266" style="stroke: #A80036; stroke-width: 1.0;"/><line style="stroke: #A80036; stroke-width: 1.0;" x1="366" x2="697" y1="920.2266" y2="920.2266"/><text fill="#000000" font-family="sans-serif" font-size="13" font-weight="bold" lengthAdjust="spacingAndGlyphs" textLength="241" x="373" y="915.1606">NCSIntfQSEE::QueryCapabilites()</text><polygon fill="#A80036" points="377,945.3594,367,949.3594,377,953.3594,373,949.3594" style="stroke: #A80036; stroke-width: 1.0;"/><line style="stroke: #A80036; stroke-width: 1.0;" x1="371" x2="707" y1="949.3594" y2="949.3594"/><text fill="#000000" font-family="sans-serif" font-size="13" lengthAdjust="spacingAndGlyphs" textLength="39" x="383" y="944.2935">return</text><polygon fill="#A80036" points="182,981.4922,172,985.4922,182,989.4922,178,985.4922" style="stroke: #A80036; stroke-width: 1.0;"/><line style="stroke: #A80036; stroke-width: 1.0;" x1="176" x2="360" y1="985.4922" y2="985.4922"/><text fill="#000000" font-family="sans-serif" font-size="13" lengthAdjust="spacingAndGlyphs" textLength="39" x="188" y="980.4263">return</text><polygon fill="#A80036" points="22,1010.625,12,1014.625,22,1018.625,18,1014.625" style="stroke: #A80036; stroke-width: 1.0;"/><ellipse cx="165.5" cy="1013.875" fill="none" rx="4" ry="4" style="stroke: #A80036; stroke-width: 1.5;"/><line style="stroke: #A80036; stroke-width: 1.0;" x1="16" x2="161" y1="1014.625" y2="1014.625"/><text fill="#000000" font-family="sans-serif" font-size="13" lengthAdjust="spacingAndGlyphs" textLength="39" x="28" y="1009.5591">return</text><rect fill="#EEEEEE" filter="url(#fjv3co3inhoev)" height="3" style="stroke: #EEEEEE; stroke-width: 1.0;" width="1373" x="3" y="1043.1914"/><line style="stroke: #000000; stroke-width: 1.0;" x1="3" x2="1376" y1="1043.1914" y2="1043.1914"/><line style="stroke: #000000; stroke-width: 1.0;" x1="3" x2="1376" y1="1046.1914" y2="1046.1914"/><rect fill="#EEEEEE" filter="url(#fjv3co3inhoev)" height="23.1328" style="stroke: #000000; stroke-width: 2.0;" width="190" x="594.5" y="1032.625"/><text fill="#0000FF" font-family="sans-serif" font-size="13" font-weight="bold" lengthAdjust="spacingAndGlyphs" textLength="171" x="600.5" y="1048.6919">NCS data callback flow</text><ellipse cx="712.5" cy="1086.1406" fill="none" rx="4" ry="4" style="stroke: #A80036; stroke-width: 1.5;"/><polygon fill="#A80036" points="729.5,1082.8906,719.5,1086.8906,729.5,1090.8906,725.5,1086.8906" style="stroke: #A80036; stroke-width: 1.0;"/><line style="stroke: #A80036; stroke-width: 1.0;" x1="727.5" x2="1367" y1="1086.8906" y2="1086.8906"/><text fill="#000000" font-family="sans-serif" font-size="13" font-weight="bold" lengthAdjust="spacingAndGlyphs" textLength="374" x="730" y="1081.8247">NCSIntfQSEE::SensorCallback(uint8_t* pData, size)</text><path d="M629,1101.8906 L693,1101.8906 L693,1108.8906 L683,1118.8906 L629,1118.8906 L629,1101.8906 " fill="#EEEEEE" style="stroke: #000000; stroke-width: 1.0;"/><rect fill="none" height="175.4219" style="stroke: #000000; stroke-width: 2.0;" width="497" x="629" y="1101.8906"/><text fill="#000000" font-family="sans-serif" font-size="13" font-weight="bold" lengthAdjust="spacingAndGlyphs" textLength="19" x="644" y="1114.9575">alt</text><text fill="#000000" font-family="sans-serif" font-size="11" font-weight="bold" lengthAdjust="spacingAndGlyphs" textLength="5" x="708" y="1114.1011">[</text><text fill="#000000" font-family="sans-serif" font-size="11" font-weight="bold" lengthAdjust="spacingAndGlyphs" textLength="298" x="713" y="1114.1011">case SNS_STD_MSGID_SNS_STD_ERROR_EVENT:</text><text fill="#000000" font-family="sans-serif" font-size="11" font-weight="bold" lengthAdjust="spacingAndGlyphs" textLength="5" x="1011" y="1114.1011">]</text><line style="stroke: #000000; stroke-width: 1.0; stroke-dasharray: 2.0,2.0;" x1="629" x2="1126" y1="1120.0234" y2="1120.0234"/><text fill="#000000" font-family="sans-serif" font-size="11" font-weight="bold" lengthAdjust="spacingAndGlyphs" textLength="5" x="634" y="1130.2339">[</text><text fill="#000000" font-family="sans-serif" font-size="11" font-weight="bold" lengthAdjust="spacingAndGlyphs" textLength="482" x="639" y="1130.2339">case SNS_STD_SENSOR_MSGID_SNS_STD_SENSOR_PHYSICAL_CONFIG_EVENT</text><text fill="#000000" font-family="sans-serif" font-size="11" font-weight="bold" lengthAdjust="spacingAndGlyphs" textLength="5" x="1121" y="1130.2339">]</text><line style="stroke: #000000; stroke-width: 1.0; stroke-dasharray: 2.0,2.0;" x1="629" x2="1126" y1="1134.8281" y2="1134.8281"/><text fill="#000000" font-family="sans-serif" font-size="11" font-weight="bold" lengthAdjust="spacingAndGlyphs" textLength="5" x="634" y="1145.0386">[</text><text fill="#000000" font-family="sans-serif" font-size="11" font-weight="bold" lengthAdjust="spacingAndGlyphs" textLength="360" x="639" y="1145.0386">case SNS_STD_SENSOR_MSGID_SNS_STD_SENSOR_EVENT</text><text fill="#000000" font-family="sans-serif" font-size="11" font-weight="bold" lengthAdjust="spacingAndGlyphs" textLength="5" x="999" y="1145.0386">]</text><line style="stroke: #A80036; stroke-width: 1.0;" x1="713" x2="760" y1="1164.7656" y2="1164.7656"/><line style="stroke: #A80036; stroke-width: 1.0;" x1="760" x2="760" y1="1164.7656" y2="1177.7656"/><line style="stroke: #A80036; stroke-width: 1.0;" x1="719" x2="760" y1="1177.7656" y2="1177.7656"/><polygon fill="#A80036" points="729,1173.7656,719,1177.7656,729,1181.7656,725,1177.7656" style="stroke: #A80036; stroke-width: 1.0;"/><text fill="#FF0000" font-family="sans-serif" font-size="13" font-weight="bold" lengthAdjust="spacingAndGlyphs" textLength="118" x="725" y="1159.6997">FillSensorData()</text><line style="stroke: #A80036; stroke-width: 1.0;" x1="718" x2="760" y1="1216.8984" y2="1216.8984"/><line style="stroke: #A80036; stroke-width: 1.0;" x1="760" x2="760" y1="1216.8984" y2="1229.8984"/><line style="stroke: #A80036; stroke-width: 1.0;" x1="713" x2="760" y1="1229.8984" y2="1229.8984"/><polygon fill="#A80036" points="723,1225.8984,713,1229.8984,723,1233.8984,719,1229.8984" style="stroke: #A80036; stroke-width: 1.0;"/><text fill="#000000" font-family="sans-serif" font-size="13" lengthAdjust="spacingAndGlyphs" textLength="39" x="725" y="1211.8325">return</text><line style="stroke: #000000; stroke-width: 1.0; stroke-dasharray: 2.0,2.0;" x1="629" x2="1126" y1="1233.8984" y2="1233.8984"/><text fill="#000000" font-family="sans-serif" font-size="11" font-weight="bold" lengthAdjust="spacingAndGlyphs" textLength="5" x="634" y="1244.1089">[</text><text fill="#000000" font-family="sans-serif" font-size="11" font-weight="bold" lengthAdjust="spacingAndGlyphs" textLength="284" x="639" y="1244.1089">case SNS_STD_MSGID_SNS_STD_ATTR_EVENT</text><text fill="#000000" font-family="sans-serif" font-size="11" font-weight="bold" lengthAdjust="spacingAndGlyphs" textLength="5" x="923" y="1244.1089">]</text><line style="stroke: #000000; stroke-width: 1.0; stroke-dasharray: 2.0,2.0;" x1="629" x2="1126" y1="1248.7031" y2="1248.7031"/><text fill="#000000" font-family="sans-serif" font-size="11" font-weight="bold" lengthAdjust="spacingAndGlyphs" textLength="5" x="634" y="1258.9136">[</text><text fill="#000000" font-family="sans-serif" font-size="11" font-weight="bold" lengthAdjust="spacingAndGlyphs" textLength="244" x="639" y="1258.9136">case SNS_CAL_MSGID_SNS_CAL_EVENT</text><text fill="#000000" font-family="sans-serif" font-size="11" font-weight="bold" lengthAdjust="spacingAndGlyphs" textLength="5" x="883" y="1258.9136">]</text><line style="stroke: #000000; stroke-width: 1.0; stroke-dasharray: 2.0,2.0;" x1="629" x2="1126" y1="1263.5078" y2="1263.5078"/><text fill="#000000" font-family="sans-serif" font-size="11" font-weight="bold" lengthAdjust="spacingAndGlyphs" textLength="5" x="634" y="1273.7183">[</text><text fill="#000000" font-family="sans-serif" font-size="11" font-weight="bold" lengthAdjust="spacingAndGlyphs" textLength="293" x="639" y="1273.7183">case SNS_STD_MSGID_SNS_STD_FLUSH_EVENT</text><text fill="#000000" font-family="sans-serif" font-size="11" font-weight="bold" lengthAdjust="spacingAndGlyphs" textLength="5" x="932" y="1273.7183">]</text><ellipse cx="1367.5" cy="1304.6953" fill="none" rx="4" ry="4" style="stroke: #A80036; stroke-width: 1.5;"/><polygon fill="#A80036" points="1350.5,1301.4453,1360.5,1305.4453,1350.5,1309.4453,1354.5,1305.4453" style="stroke: #A80036; stroke-width: 1.0;"/><line style="stroke: #A80036; stroke-width: 1.0;" x1="708" x2="1356.5" y1="1305.4453" y2="1305.4453"/><text fill="#000000" font-family="sans-serif" font-size="13" lengthAdjust="spacingAndGlyphs" textLength="39" x="715" y="1300.3794">return</text><!--
@startuml
title <size:18>camx ncs overview</size>\n     Lin Jin

participant chi
participant camxncsservice

== <color:blue>NCS Init </color>==
[o->chi: **ChiOpenContext()**
activate chi
    chi->camxncsservice: **new NCSService()**
    activate camxncsservice
    camxncsservice->chi: return
    deactivate camxncsservice

    chi->camxncsservice: **NCSService::Initialize()**
    activate camxncsservice
        loop **MaxNCSIntfType**
            create camxncsintfQSEE
            camxncsservice->camxncsintfQSEE: **static NCSIntfQSEE::GetInstance()**
            activate camxncsintfQSEE
                camxncsintfQSEE->camxncsintfQSEE: **NCSIntfQSEE::Initialize()**
                activate camxncsintfQSEE
                    create NCSSensorData
                    camxncsintfQSEE->NCSSensorData: new
                    note over NCSSensorData
                        alloc a LDLLNode to keep NCSSensorData
                        insert it to m_sensorDataObjectList tail
                    end note
                camxncsintfQSEE->camxncsintfQSEE: return
                deactivate camxncsintfQSEE

            camxncsintfQSEE->camxncsservice: return
            deactivate camxncsintfQSEE

            camxncsservice->camxncsintfQSEE: **NCSIntfQSEE::GetListOfSensors()**
            activate camxncsintfQSEE
                loop **sensorType < NCSMaxType**
                    camxncsintfQSEE->camxncsintfQSEE: **ProbeSensor(sensorType)**
                    activate camxncsintfQSEE
                        camxncsintfQSEE->camxncsintfQSEE: **SetupSensorLinkOnly(suids, this, datatype)**
                        activate camxncsintfQSEE
                            create SSCConnection
                            camxncsintfQSEE->SSCConnection: new
                            note over SSCConnection
                                create Connect, the handle is <color:red>phSSCHandle</color>
                                set callback as <color:red>SensorCallback</color>
                            end note
                        camxncsintfQSEE->camxncsintfQSEE: return
                        deactivate camxncsintfQSEE
                    camxncsintfQSEE->camxncsintfQSEE: return
                    deactivate camxncsintfQSEE
                end loop
            camxncsintfQSEE->camxncsservice: return
            deactivate camxncsintfQSEE

            camxncsservice->camxncsintfQSEE: **NCSIntfQSEE::QueryCapabilites()**
            activate camxncsintfQSEE
            camxncsintfQSEE->camxncsservice: return
            deactivate camxncsintfQSEE
        end loop

    camxncsservice->chi: return
    deactivate camxncsservice
[o<-chi: return
deactivate chi

== <color:blue>NCS data callback flow </color>==
camxncsintfQSEE<-o]: **NCSIntfQSEE::SensorCallback(uint8_t* pData, size)**
activate camxncsintfQSEE
    alt **case SNS_STD_MSGID_SNS_STD_ERROR_EVENT:**
    else **case SNS_STD_SENSOR_MSGID_SNS_STD_SENSOR_PHYSICAL_CONFIG_EVENT**
    else **case SNS_STD_SENSOR_MSGID_SNS_STD_SENSOR_EVENT**
        camxncsintfQSEE->camxncsintfQSEE: **<color:red>FillSensorData()</color>**
        activate camxncsintfQSEE
        camxncsintfQSEE->camxncsintfQSEE: return
        deactivate camxncsintfQSEE
    else **case SNS_STD_MSGID_SNS_STD_ATTR_EVENT**
    else **case SNS_CAL_MSGID_SNS_CAL_EVENT**
    else **case SNS_STD_MSGID_SNS_STD_FLUSH_EVENT**
    end
camxncsintfQSEE->o]: return
deactivate camxncsintfQSEE
@enduml

PlantUML version 1.2019.04(Fri Mar 29 15:44:36 GMT 2019)
(GPL source distribution)
Java Runtime: OpenJDK Runtime Environment
JVM: OpenJDK 64-Bit Server VM
Java Version: 1.8.0_171-8u171-b11-0ubuntu0.16.04.1-b11
Operating System: Linux
OS Version: 4.4.0-17763-Microsoft
Default Encoding: ANSI_X3.4-1968
Language: en
Country: US
--></g></svg>