<?xml version="1.0" encoding="UTF-8" standalone="no"?><svg xmlns="http://www.w3.org/2000/svg" xmlns:xlink="http://www.w3.org/1999/xlink" contentScriptType="application/ecmascript" contentStyleType="text/css" height="649px" preserveAspectRatio="none" style="width:1079px;height:649px;" version="1.1" viewBox="0 0 1079 649" width="1079px" zoomAndPan="magnify"><defs><filter height="300%" id="f1e5holledinvy" width="300%" x="-1" y="-1"><feGaussianBlur result="blurOut" stdDeviation="2.0"/><feColorMatrix in="blurOut" result="blurOut2" type="matrix" values="0 0 0 0 0 0 0 0 0 0 0 0 0 0 0 0 0 0 .4 0"/><feOffset dx="4.0" dy="4.0" in="blurOut2" result="blurOut3"/><feBlend in="SourceGraphic" in2="blurOut3" mode="normal"/></filter></defs><g><text fill="#000000" font-family="sans-serif" font-size="18" lengthAdjust="spacingAndGlyphs" textLength="186" x="452.5" y="16.708">camx DRQ class Arch</text><text fill="#000000" font-family="sans-serif" font-size="18" lengthAdjust="spacingAndGlyphs" textLength="54" x="533.5" y="37.6611">Lin Jin</text><!--cluster <color:blue><size:15>**DRQ_and_PropertyPoolObserver**</color></size>--><polygon fill="#FFFFFF" filter="url(#f1e5holledinvy)" points="22,65.9063,353,65.9063,360,89.3672,1057,89.3672,1057,637.9063,22,637.9063,22,65.9063" style="stroke: #000000; stroke-width: 1.5;"/><line style="stroke: #000000; stroke-width: 1.5;" x1="22" x2="360" y1="89.3672" y2="89.3672"/><text fill="#0000FF" font-family="sans-serif" font-size="15" font-weight="bold" lengthAdjust="spacingAndGlyphs" textLength="264" x="26" y="81.8296">DRQ_and_PropertyPoolObserver</text><text fill="#000000" font-family="sans-serif" font-size="14" font-weight="bold" lengthAdjust="spacingAndGlyphs" textLength="61" x="290" y="82.0654">&lt;/size&gt;</text><!--class IPropertyPoolObserver--><rect fill="#FEFECE" filter="url(#f1e5holledinvy)" height="133.6328" id="IPropertyPoolObserver" style="stroke: #A80036; stroke-width: 1.5;" width="202" x="810" y="487.9063"/><ellipse cx="838.95" cy="503.9063" fill="#ADD1B2" rx="11" ry="11" style="stroke: #A80036; stroke-width: 1.0;"/><path d="M841.9188,509.5469 Q841.3406,509.8438 840.7,509.9922 Q840.0594,510.1406 839.3563,510.1406 Q836.8563,510.1406 835.5359,508.4922 Q834.2156,506.8438 834.2156,503.7188 Q834.2156,500.5938 835.5359,498.9375 Q836.8563,497.2813 839.3563,497.2813 Q840.0594,497.2813 840.7078,497.4375 Q841.3563,497.5938 841.9188,497.8906 L841.9188,500.6094 Q841.2938,500.0313 840.7,499.7578 Q840.1063,499.4844 839.4813,499.4844 Q838.1375,499.4844 837.45,500.5547 Q836.7625,501.625 836.7625,503.7188 Q836.7625,505.8125 837.45,506.8828 Q838.1375,507.9531 839.4813,507.9531 Q840.1063,507.9531 840.7,507.6797 Q841.2938,507.4063 841.9188,506.8281 L841.9188,509.5469 Z "/><text fill="#000000" font-family="sans-serif" font-size="12" lengthAdjust="spacingAndGlyphs" textLength="139" x="856.05" y="508.0605">IPropertyPoolObserver</text><line style="stroke: #A80036; stroke-width: 1.5;" x1="811" x2="1011" y1="519.9063" y2="519.9063"/><text fill="#0000FF" font-family="sans-serif" font-size="11" font-weight="bold" lengthAdjust="spacingAndGlyphs" textLength="41" x="816" y="550.9214">virtual</text><text fill="#000000" font-family="sans-serif" font-size="11" lengthAdjust="spacingAndGlyphs" textLength="0" x="861" y="550.9214"/><text fill="#008000" font-family="sans-serif" font-size="11" font-weight="bold" lengthAdjust="spacingAndGlyphs" textLength="118" x="861" y="550.9214">OnPropertyUpdate</text><text fill="#000000" font-family="sans-serif" font-size="11" lengthAdjust="spacingAndGlyphs" textLength="20" x="979" y="550.9214">=0;</text><text fill="#0000FF" font-family="sans-serif" font-size="11" font-weight="bold" lengthAdjust="spacingAndGlyphs" textLength="41" x="816" y="563.7261">virtual</text><text fill="#000000" font-family="sans-serif" font-size="11" lengthAdjust="spacingAndGlyphs" textLength="0" x="861" y="563.7261"/><text fill="#008000" font-family="sans-serif" font-size="11" font-weight="bold" lengthAdjust="spacingAndGlyphs" textLength="125" x="861" y="563.7261">OnMetadataUpdate</text><text fill="#000000" font-family="sans-serif" font-size="11" lengthAdjust="spacingAndGlyphs" textLength="20" x="986" y="563.7261">=0;</text><text fill="#0000FF" font-family="sans-serif" font-size="11" font-weight="bold" lengthAdjust="spacingAndGlyphs" textLength="41" x="816" y="576.5308">virtual</text><text fill="#000000" font-family="sans-serif" font-size="11" lengthAdjust="spacingAndGlyphs" textLength="0" x="861" y="576.5308"/><text fill="#008000" font-family="sans-serif" font-size="11" font-weight="bold" lengthAdjust="spacingAndGlyphs" textLength="117" x="861" y="576.5308">OnPropertyFailure</text><text fill="#000000" font-family="sans-serif" font-size="11" lengthAdjust="spacingAndGlyphs" textLength="20" x="978" y="576.5308">=0;</text><text fill="#0000FF" font-family="sans-serif" font-size="11" font-weight="bold" lengthAdjust="spacingAndGlyphs" textLength="41" x="816" y="589.3354">virtual</text><text fill="#000000" font-family="sans-serif" font-size="11" lengthAdjust="spacingAndGlyphs" textLength="0" x="861" y="589.3354"/><text fill="#008000" font-family="sans-serif" font-size="11" font-weight="bold" lengthAdjust="spacingAndGlyphs" textLength="124" x="861" y="589.3354">OnMetadataFailure</text><text fill="#000000" font-family="sans-serif" font-size="11" lengthAdjust="spacingAndGlyphs" textLength="20" x="985" y="589.3354">=0;</text><text fill="#0000FF" font-family="sans-serif" font-size="11" font-weight="bold" lengthAdjust="spacingAndGlyphs" textLength="41" x="816" y="602.1401">virtual</text><text fill="#000000" font-family="sans-serif" font-size="11" lengthAdjust="spacingAndGlyphs" textLength="0" x="861" y="602.1401"/><text fill="#008000" font-family="sans-serif" font-size="11" font-weight="bold" lengthAdjust="spacingAndGlyphs" textLength="97" x="861" y="602.1401">LockForPublish</text><text fill="#000000" font-family="sans-serif" font-size="11" lengthAdjust="spacingAndGlyphs" textLength="20" x="958" y="602.1401">=0;</text><text fill="#0000FF" font-family="sans-serif" font-size="11" font-weight="bold" lengthAdjust="spacingAndGlyphs" textLength="41" x="816" y="614.9448">virtual</text><text fill="#000000" font-family="sans-serif" font-size="11" lengthAdjust="spacingAndGlyphs" textLength="0" x="861" y="614.9448"/><text fill="#008000" font-family="sans-serif" font-size="11" font-weight="bold" lengthAdjust="spacingAndGlyphs" textLength="121" x="861" y="614.9448">UnlockAfterPublish</text><text fill="#000000" font-family="sans-serif" font-size="11" lengthAdjust="spacingAndGlyphs" textLength="20" x="982" y="614.9448">=0;</text><line style="stroke: #A80036; stroke-width: 1.5;" x1="811" x2="894.5" y1="534.3086" y2="534.3086"/><text fill="#000000" font-family="sans-serif" font-size="11" lengthAdjust="spacingAndGlyphs" textLength="33" x="894.5" y="537.6167">public</text><line style="stroke: #A80036; stroke-width: 1.5;" x1="927.5" x2="1011" y1="534.3086" y2="534.3086"/><!--class MetadataSlot--><rect fill="#FEFECE" filter="url(#f1e5holledinvy)" height="159.2422" id="MetadataSlot" style="stroke: #A80036; stroke-width: 1.5;" width="224" x="312" y="185.4063"/><ellipse cx="377.75" cy="201.4063" fill="#ADD1B2" rx="11" ry="11" style="stroke: #A80036; stroke-width: 1.0;"/><path d="M380.7188,207.0469 Q380.1406,207.3438 379.5,207.4922 Q378.8594,207.6406 378.1563,207.6406 Q375.6563,207.6406 374.3359,205.9922 Q373.0156,204.3438 373.0156,201.2188 Q373.0156,198.0938 374.3359,196.4375 Q375.6563,194.7813 378.1563,194.7813 Q378.8594,194.7813 379.5078,194.9375 Q380.1563,195.0938 380.7188,195.3906 L380.7188,198.1094 Q380.0938,197.5313 379.5,197.2578 Q378.9063,196.9844 378.2813,196.9844 Q376.9375,196.9844 376.25,198.0547 Q375.5625,199.125 375.5625,201.2188 Q375.5625,203.3125 376.25,204.3828 Q376.9375,205.4531 378.2813,205.4531 Q378.9063,205.4531 379.5,205.1797 Q380.0938,204.9063 380.7188,204.3281 L380.7188,207.0469 Z "/><text fill="#000000" font-family="sans-serif" font-size="12" lengthAdjust="spacingAndGlyphs" textLength="84" x="398.25" y="205.5605">MetadataSlot</text><line style="stroke: #A80036; stroke-width: 1.5;" x1="313" x2="535" y1="217.4063" y2="217.4063"/><text fill="#FFA500" font-family="sans-serif" font-size="11" font-weight="bold" lengthAdjust="spacingAndGlyphs" textLength="36" x="318" y="248.4214">static</text><text fill="#000000" font-family="sans-serif" font-size="11" lengthAdjust="spacingAndGlyphs" textLength="0" x="358" y="248.4214"/><text fill="#008000" font-family="sans-serif" font-size="11" font-weight="bold" lengthAdjust="spacingAndGlyphs" textLength="53" x="358" y="248.4214">Create()</text><text fill="#008000" font-family="sans-serif" font-size="11" font-weight="bold" lengthAdjust="spacingAndGlyphs" textLength="59" x="318" y="261.2261">Destroy()</text><text fill="#008000" font-family="sans-serif" font-size="11" font-weight="bold" lengthAdjust="spacingAndGlyphs" textLength="134" x="318" y="274.0308">GetMetadataByIndex</text><text fill="#008000" font-family="sans-serif" font-size="11" font-weight="bold" lengthAdjust="spacingAndGlyphs" textLength="123" x="318" y="286.8354">GetMetadataByTag</text><text fill="#008000" font-family="sans-serif" font-size="11" font-weight="bold" lengthAdjust="spacingAndGlyphs" textLength="105" x="318" y="299.6401">GetPropertyBlob</text><text fill="#008000" font-family="sans-serif" font-size="11" font-weight="bold" lengthAdjust="spacingAndGlyphs" textLength="122" x="318" y="312.4448">SetMetadataByTag</text><text fill="#008000" font-family="sans-serif" font-size="11" font-weight="bold" lengthAdjust="spacingAndGlyphs" textLength="161" x="318" y="325.2495">GetMetadataCountByTag</text><text fill="#008000" font-family="sans-serif" font-size="11" font-weight="bold" lengthAdjust="spacingAndGlyphs" textLength="212" x="318" y="338.0542">CopyPublishedMetadataFromTag</text><line style="stroke: #A80036; stroke-width: 1.5;" x1="313" x2="407.5" y1="231.8086" y2="231.8086"/><text fill="#000000" font-family="sans-serif" font-size="11" lengthAdjust="spacingAndGlyphs" textLength="33" x="407.5" y="235.1167">public</text><line style="stroke: #A80036; stroke-width: 1.5;" x1="440.5" x2="535" y1="231.8086" y2="231.8086"/><!--class MetadataPool--><rect fill="#FEFECE" filter="url(#f1e5holledinvy)" height="146.4375" id="MetadataPool" style="stroke: #A80036; stroke-width: 1.5;" width="239" x="37.5" y="191.9063"/><ellipse cx="109.25" cy="207.9063" fill="#ADD1B2" rx="11" ry="11" style="stroke: #A80036; stroke-width: 1.0;"/><path d="M112.2188,213.5469 Q111.6406,213.8438 111,213.9922 Q110.3594,214.1406 109.6563,214.1406 Q107.1563,214.1406 105.8359,212.4922 Q104.5156,210.8438 104.5156,207.7188 Q104.5156,204.5938 105.8359,202.9375 Q107.1563,201.2813 109.6563,201.2813 Q110.3594,201.2813 111.0078,201.4375 Q111.6563,201.5938 112.2188,201.8906 L112.2188,204.6094 Q111.5938,204.0313 111,203.7578 Q110.4063,203.4844 109.7813,203.4844 Q108.4375,203.4844 107.75,204.5547 Q107.0625,205.625 107.0625,207.7188 Q107.0625,209.8125 107.75,210.8828 Q108.4375,211.9531 109.7813,211.9531 Q110.4063,211.9531 111,211.6797 Q111.5938,211.4063 112.2188,210.8281 L112.2188,213.5469 Z "/><text fill="#000000" font-family="sans-serif" font-size="12" lengthAdjust="spacingAndGlyphs" textLength="87" x="129.75" y="212.0605">MetadataPool</text><line style="stroke: #A80036; stroke-width: 1.5;" x1="38.5" x2="275.5" y1="223.9063" y2="223.9063"/><text fill="#FFA500" font-family="sans-serif" font-size="11" font-weight="bold" lengthAdjust="spacingAndGlyphs" textLength="36" x="43.5" y="254.9214">static</text><text fill="#000000" font-family="sans-serif" font-size="11" lengthAdjust="spacingAndGlyphs" textLength="0" x="83.5" y="254.9214"/><text fill="#008000" font-family="sans-serif" font-size="11" font-weight="bold" lengthAdjust="spacingAndGlyphs" textLength="53" x="83.5" y="254.9214">Create()</text><text fill="#008000" font-family="sans-serif" font-size="11" font-weight="bold" lengthAdjust="spacingAndGlyphs" textLength="57" x="43.5" y="267.7261">GetSlot()</text><text fill="#008000" font-family="sans-serif" font-size="11" font-weight="bold" lengthAdjust="spacingAndGlyphs" textLength="227" x="43.5" y="280.5308">GetCurrentEarlyTagsCountForSlot()</text><text fill="#008000" font-family="sans-serif" font-size="11" font-weight="bold" lengthAdjust="spacingAndGlyphs" textLength="73" x="43.5" y="293.3354">Subscribe()</text><text fill="#008000" font-family="sans-serif" font-size="11" font-weight="bold" lengthAdjust="spacingAndGlyphs" textLength="89" x="43.5" y="306.1401">SubscribeAll()</text><text fill="#008000" font-family="sans-serif" font-size="11" font-weight="bold" lengthAdjust="spacingAndGlyphs" textLength="105" x="43.5" y="318.9448">UnsubscribeAll()</text><text fill="#008000" font-family="sans-serif" font-size="11" font-weight="bold" lengthAdjust="spacingAndGlyphs" textLength="155" x="43.5" y="331.7495">FindIndexByPropertyId()</text><line style="stroke: #A80036; stroke-width: 1.5;" x1="38.5" x2="140.5" y1="238.3086" y2="238.3086"/><text fill="#000000" font-family="sans-serif" font-size="11" lengthAdjust="spacingAndGlyphs" textLength="33" x="140.5" y="241.6167">public</text><line style="stroke: #A80036; stroke-width: 1.5;" x1="173.5" x2="275.5" y1="238.3086" y2="238.3086"/><!--class DeferredRequestQueue--><rect fill="#FEFECE" filter="url(#f1e5holledinvy)" height="325.7031" id="DeferredRequestQueue" style="stroke: #A80036; stroke-width: 1.5;" width="262" x="571" y="101.9063"/><ellipse cx="623.75" cy="117.9063" fill="#ADD1B2" rx="11" ry="11" style="stroke: #A80036; stroke-width: 1.0;"/><path d="M626.7188,123.5469 Q626.1406,123.8438 625.5,123.9922 Q624.8594,124.1406 624.1563,124.1406 Q621.6563,124.1406 620.3359,122.4922 Q619.0156,120.8438 619.0156,117.7188 Q619.0156,114.5938 620.3359,112.9375 Q621.6563,111.2813 624.1563,111.2813 Q624.8594,111.2813 625.5078,111.4375 Q626.1563,111.5938 626.7188,111.8906 L626.7188,114.6094 Q626.0938,114.0313 625.5,113.7578 Q624.9063,113.4844 624.2813,113.4844 Q622.9375,113.4844 622.25,114.5547 Q621.5625,115.625 621.5625,117.7188 Q621.5625,119.8125 622.25,120.8828 Q622.9375,121.9531 624.2813,121.9531 Q624.9063,121.9531 625.5,121.6797 Q626.0938,121.4063 626.7188,120.8281 L626.7188,123.5469 Z "/><text fill="#000000" font-family="sans-serif" font-size="12" lengthAdjust="spacingAndGlyphs" textLength="148" x="644.25" y="122.0605">DeferredRequestQueue</text><line style="stroke: #A80036; stroke-width: 1.5;" x1="572" x2="832" y1="133.9063" y2="133.9063"/><text fill="#FFA500" font-family="sans-serif" font-size="11" font-weight="bold" lengthAdjust="spacingAndGlyphs" textLength="36" x="577" y="164.9214">static</text><text fill="#000000" font-family="sans-serif" font-size="11" lengthAdjust="spacingAndGlyphs" textLength="0" x="617" y="164.9214"/><text fill="#008000" font-family="sans-serif" font-size="11" font-weight="bold" lengthAdjust="spacingAndGlyphs" textLength="53" x="617" y="164.9214">Create()</text><text fill="#000000" font-family="sans-serif" font-size="11" lengthAdjust="spacingAndGlyphs" textLength="23" x="577" y="177.7261">void</text><text fill="#008000" font-family="sans-serif" font-size="11" font-weight="bold" lengthAdjust="spacingAndGlyphs" textLength="59" x="604" y="177.7261">Destroy()</text><text fill="#000000" font-family="sans-serif" font-size="11" lengthAdjust="spacingAndGlyphs" textLength="23" x="577" y="190.5308">void</text><text fill="#008000" font-family="sans-serif" font-size="11" font-weight="bold" lengthAdjust="spacingAndGlyphs" textLength="135" x="604" y="190.5308">UpdateDependency()</text><text fill="#000000" font-family="sans-serif" font-size="11" lengthAdjust="spacingAndGlyphs" textLength="67" x="577" y="203.3354">CamxResult</text><text fill="#008000" font-family="sans-serif" font-size="11" font-weight="bold" lengthAdjust="spacingAndGlyphs" textLength="123" x="648" y="203.3354">AddDeferredNode()</text><text fill="#000000" font-family="sans-serif" font-size="11" lengthAdjust="spacingAndGlyphs" textLength="67" x="577" y="216.1401">CamxResult</text><text fill="#008000" font-family="sans-serif" font-size="11" font-weight="bold" lengthAdjust="spacingAndGlyphs" textLength="179" x="648" y="216.1401">WaitForFenceDependency()</text><text fill="#000000" font-family="sans-serif" font-size="11" lengthAdjust="spacingAndGlyphs" textLength="23" x="577" y="228.9448">void</text><text fill="#008000" font-family="sans-serif" font-size="11" font-weight="bold" lengthAdjust="spacingAndGlyphs" textLength="191" x="604" y="228.9448">FenceErrorSignaledCallback()</text><text fill="#000000" font-family="sans-serif" font-size="11" lengthAdjust="spacingAndGlyphs" textLength="23" x="577" y="241.7495">void</text><text fill="#008000" font-family="sans-serif" font-size="11" font-weight="bold" lengthAdjust="spacingAndGlyphs" textLength="160" x="604" y="241.7495">FenceSignaledCallback()</text><text fill="#000000" font-family="sans-serif" font-size="11" lengthAdjust="spacingAndGlyphs" textLength="23" x="577" y="254.5542">void</text><text fill="#008000" font-family="sans-serif" font-size="11" font-weight="bold" lengthAdjust="spacingAndGlyphs" textLength="181" x="604" y="254.5542">ChiFenceSignaledCallback()</text><text fill="#000000" font-family="sans-serif" font-size="11" lengthAdjust="spacingAndGlyphs" textLength="23" x="577" y="267.3589">void</text><text fill="#008000" font-family="sans-serif" font-size="11" font-weight="bold" lengthAdjust="spacingAndGlyphs" textLength="128" x="604" y="267.3589">OnPropertyUpdate()</text><text fill="#000000" font-family="sans-serif" font-size="11" lengthAdjust="spacingAndGlyphs" textLength="23" x="577" y="280.1636">void</text><text fill="#008000" font-family="sans-serif" font-size="11" font-weight="bold" lengthAdjust="spacingAndGlyphs" textLength="135" x="604" y="280.1636">OnMetadataUpdate()</text><text fill="#000000" font-family="sans-serif" font-size="11" lengthAdjust="spacingAndGlyphs" textLength="23" x="577" y="292.9683">void</text><text fill="#008000" font-family="sans-serif" font-size="11" font-weight="bold" lengthAdjust="spacingAndGlyphs" textLength="127" x="604" y="292.9683">OnPropertyFailure()</text><text fill="#000000" font-family="sans-serif" font-size="11" lengthAdjust="spacingAndGlyphs" textLength="23" x="577" y="305.7729">void</text><text fill="#008000" font-family="sans-serif" font-size="11" font-weight="bold" lengthAdjust="spacingAndGlyphs" textLength="134" x="604" y="305.7729">OnMetadataFailure()</text><text fill="#000000" font-family="sans-serif" font-size="11" lengthAdjust="spacingAndGlyphs" textLength="23" x="577" y="318.5776">void</text><text fill="#008000" font-family="sans-serif" font-size="11" font-weight="bold" lengthAdjust="spacingAndGlyphs" textLength="107" x="604" y="318.5776">LockForPublish()</text><text fill="#000000" font-family="sans-serif" font-size="11" lengthAdjust="spacingAndGlyphs" textLength="23" x="577" y="331.3823">void</text><text fill="#008000" font-family="sans-serif" font-size="11" font-weight="bold" lengthAdjust="spacingAndGlyphs" textLength="131" x="604" y="331.3823">UnlockAfterPublish()</text><text fill="#000000" font-family="sans-serif" font-size="11" lengthAdjust="spacingAndGlyphs" textLength="32" x="577" y="344.187">BOOL</text><text fill="#008000" font-family="sans-serif" font-size="11" font-weight="bold" lengthAdjust="spacingAndGlyphs" textLength="139" x="613" y="344.187">RequestInErrorState()</text><text fill="#000000" font-family="sans-serif" font-size="11" lengthAdjust="spacingAndGlyphs" textLength="23" x="577" y="356.9917">void</text><text fill="#008000" font-family="sans-serif" font-size="11" font-weight="bold" lengthAdjust="spacingAndGlyphs" textLength="125" x="604" y="356.9917">HandleFenceError()</text><text fill="#000000" font-family="sans-serif" font-size="11" lengthAdjust="spacingAndGlyphs" textLength="23" x="577" y="369.7964">void</text><text fill="#008000" font-family="sans-serif" font-size="11" font-weight="bold" lengthAdjust="spacingAndGlyphs" textLength="145" x="604" y="369.7964">DispatchReadyNodes()</text><text fill="#000000" font-family="sans-serif" font-size="11" lengthAdjust="spacingAndGlyphs" textLength="23" x="577" y="382.6011">void</text><text fill="#008000" font-family="sans-serif" font-size="11" font-weight="bold" lengthAdjust="spacingAndGlyphs" textLength="46" x="604" y="382.6011">Dump()</text><text fill="#000000" font-family="sans-serif" font-size="11" lengthAdjust="spacingAndGlyphs" textLength="23" x="577" y="395.4058">void</text><text fill="#008000" font-family="sans-serif" font-size="11" font-weight="bold" lengthAdjust="spacingAndGlyphs" textLength="191" x="604" y="395.4058">SetPreemptDependencyFlag()</text><text fill="#000000" font-family="sans-serif" font-size="11" lengthAdjust="spacingAndGlyphs" textLength="23" x="577" y="408.2104">void</text><text fill="#008000" font-family="sans-serif" font-size="11" font-weight="bold" lengthAdjust="spacingAndGlyphs" textLength="195" x="604" y="408.2104">DeferredRequestQueueFlush()</text><text fill="#000000" font-family="sans-serif" font-size="11" lengthAdjust="spacingAndGlyphs" textLength="0" x="581" y="421.0151"/><line style="stroke: #A80036; stroke-width: 1.5;" x1="572" x2="685.5" y1="148.3086" y2="148.3086"/><text fill="#000000" font-family="sans-serif" font-size="11" lengthAdjust="spacingAndGlyphs" textLength="33" x="685.5" y="151.6167">public</text><line style="stroke: #A80036; stroke-width: 1.5;" x1="718.5" x2="832" y1="148.3086" y2="148.3086"/><!--class Actuator--><rect fill="#FEFECE" filter="url(#f1e5holledinvy)" height="48" id="Actuator" style="stroke: #A80036; stroke-width: 1.5;" width="86" x="868" y="240.9063"/><ellipse cx="883" cy="256.9063" fill="#ADD1B2" rx="11" ry="11" style="stroke: #A80036; stroke-width: 1.0;"/><path d="M885.9688,262.5469 Q885.3906,262.8438 884.75,262.9922 Q884.1094,263.1406 883.4063,263.1406 Q880.9063,263.1406 879.5859,261.4922 Q878.2656,259.8438 878.2656,256.7188 Q878.2656,253.5938 879.5859,251.9375 Q880.9063,250.2813 883.4063,250.2813 Q884.1094,250.2813 884.7578,250.4375 Q885.4063,250.5938 885.9688,250.8906 L885.9688,253.6094 Q885.3438,253.0313 884.75,252.7578 Q884.1563,252.4844 883.5313,252.4844 Q882.1875,252.4844 881.5,253.5547 Q880.8125,254.625 880.8125,256.7188 Q880.8125,258.8125 881.5,259.8828 Q882.1875,260.9531 883.5313,260.9531 Q884.1563,260.9531 884.75,260.6797 Q885.3438,260.4063 885.9688,259.8281 L885.9688,262.5469 Z "/><text fill="#000000" font-family="sans-serif" font-size="12" lengthAdjust="spacingAndGlyphs" textLength="54" x="897" y="261.0605">Actuator</text><line style="stroke: #A80036; stroke-width: 1.5;" x1="869" x2="953" y1="272.9063" y2="272.9063"/><line style="stroke: #A80036; stroke-width: 1.5;" x1="869" x2="953" y1="280.9063" y2="280.9063"/><!--class OIS--><rect fill="#FEFECE" filter="url(#f1e5holledinvy)" height="48" id="OIS" style="stroke: #A80036; stroke-width: 1.5;" width="52" x="989" y="240.9063"/><ellipse cx="1004" cy="256.9063" fill="#ADD1B2" rx="11" ry="11" style="stroke: #A80036; stroke-width: 1.0;"/><path d="M1006.9688,262.5469 Q1006.3906,262.8438 1005.75,262.9922 Q1005.1094,263.1406 1004.4063,263.1406 Q1001.9063,263.1406 1000.5859,261.4922 Q999.2656,259.8438 999.2656,256.7188 Q999.2656,253.5938 1000.5859,251.9375 Q1001.9063,250.2813 1004.4063,250.2813 Q1005.1094,250.2813 1005.7578,250.4375 Q1006.4063,250.5938 1006.9688,250.8906 L1006.9688,253.6094 Q1006.3438,253.0313 1005.75,252.7578 Q1005.1563,252.4844 1004.5313,252.4844 Q1003.1875,252.4844 1002.5,253.5547 Q1001.8125,254.625 1001.8125,256.7188 Q1001.8125,258.8125 1002.5,259.8828 Q1003.1875,260.9531 1004.5313,260.9531 Q1005.1563,260.9531 1005.75,260.6797 Q1006.3438,260.4063 1006.9688,259.8281 L1006.9688,262.5469 Z "/><text fill="#000000" font-family="sans-serif" font-size="12" lengthAdjust="spacingAndGlyphs" textLength="20" x="1018" y="261.0605">OIS</text><line style="stroke: #A80036; stroke-width: 1.5;" x1="990" x2="1040" y1="272.9063" y2="272.9063"/><line style="stroke: #A80036; stroke-width: 1.5;" x1="990" x2="1040" y1="280.9063" y2="280.9063"/><!--link DeferredRequestQueue to IPropertyPoolObserver--><path d="M819.634,428.0043 C833.753,447.4603 847.546,466.4683 859.962,483.5773 " fill="none" id="DeferredRequestQueue-IPropertyPoolObserver" style="stroke: #A80036; stroke-width: 1.0;"/><polygon fill="#A80036" points="863.089,487.8843,861.0401,478.2509,860.1522,483.8376,854.5655,482.9497,863.089,487.8843" style="stroke: #A80036; stroke-width: 1.0;"/><!--link Actuator to IPropertyPoolObserver--><path d="M911,288.9873 C911,330.4683 911,419.1912 911,482.5263 " fill="none" id="Actuator-IPropertyPoolObserver" style="stroke: #A80036; stroke-width: 1.0;"/><polygon fill="#A80036" points="911,487.8053,915,478.8053,911,482.8053,907,478.8053,911,487.8053" style="stroke: #A80036; stroke-width: 1.0;"/><!--link OIS to IPropertyPoolObserver--><path d="M1010.3,289.1403 C1003.532,320.9923 989.86,379.7523 972,427.9063 C965.279,446.0273 956.848,465.0483 948.417,482.6623 " fill="none" id="OIS-IPropertyPoolObserver" style="stroke: #A80036; stroke-width: 1.0;"/><polygon fill="#A80036" points="946.04,487.5913,953.5514,481.2211,948.2113,483.0873,946.3451,477.7471,946.04,487.5913" style="stroke: #A80036; stroke-width: 1.0;"/><!--
@startuml
title <size:18>camx DRQ class Arch</size>\n     Lin Jin





package <color:blue><size:15>**DRQ_and_PropertyPoolObserver**</color></size> {
  class IPropertyPoolObserver {
      __public__
      <color:blue>**virtual**</color> <color:green>**OnPropertyUpdate**</color>=0;
      <color:blue>**virtual**</color> <color:green>**OnMetadataUpdate**</color>=0;
      <color:blue>**virtual**</color> <color:green>**OnPropertyFailure**</color>=0;
      <color:blue>**virtual**</color> <color:green>**OnMetadataFailure**</color>=0;
      <color:blue>**virtual**</color> <color:green>**LockForPublish**</color>=0;
      <color:blue>**virtual**</color> <color:green>**UnlockAfterPublish**</color>=0;
  }

  class MetadataSlot {
      __public__
      <color:orange>**static**</color> <color:green>**Create()**</color>
      <color:green>**Destroy()**</color>
      <color:green>**GetMetadataByIndex**</color>
      <color:green>**GetMetadataByTag**</color>
      <color:green>**GetPropertyBlob**</color>
      <color:green>**SetMetadataByTag**</color>
      <color:green>**GetMetadataCountByTag**</color>
      <color:green>**CopyPublishedMetadataFromTag**</color>
  }

  class MetadataPool {
      __public__
      <color:orange>**static**</color> <color:green>**Create()**</color>
      <color:green>**GetSlot()**</color>
      <color:green>**GetCurrentEarlyTagsCountForSlot()**</color>
      <color:green>**Subscribe()**</color>
      <color:green>**SubscribeAll()**</color>
      <color:green>**UnsubscribeAll()**</color>
      <color:green>**FindIndexByPropertyId()**</color>
  }


  class DeferredRequestQueue {
      __public__
      <color:orange>**static**</color> <color:green>**Create()**</color>
      void <color:green>**Destroy()**</color>
      void <color:green>**UpdateDependency()**</color>
      CamxResult <color:green>**AddDeferredNode()**</color>
      CamxResult <color:green>**WaitForFenceDependency()**</color>
      void <color:green>**FenceErrorSignaledCallback()**</color>
      void <color:green>**FenceSignaledCallback()**</color>
      void <color:green>**ChiFenceSignaledCallback()**</color>
      void <color:green>**OnPropertyUpdate()**</color>
      void <color:green>**OnMetadataUpdate()**</color>
      void <color:green>**OnPropertyFailure()**</color>
      void <color:green>**OnMetadataFailure()**</color>
      void <color:green>**LockForPublish()**</color>
      void <color:green>**UnlockAfterPublish()**</color>
      BOOL <color:green>**RequestInErrorState()**</color>
      void <color:green>**HandleFenceError()**</color>
      void <color:green>**DispatchReadyNodes()**</color>
      void <color:green>**Dump()**</color>
      void <color:green>**SetPreemptDependencyFlag()**</color>
      void <color:green>**DeferredRequestQueueFlush()**</color>

  }

  class Actuator {
  }

  class OIS {
  }

  IPropertyPoolObserver<-down-DeferredRequestQueue
  IPropertyPoolObserver<-down-Actuator
  IPropertyPoolObserver<-down-OIS

}

@enduml

PlantUML version 1.2017.20(Mon Dec 11 16:57:05 GMT 2017)
(GPL source distribution)
Java Runtime: OpenJDK Runtime Environment
JVM: OpenJDK 64-Bit Server VM
Java Version: 1.8.0_171-8u171-b11-0ubuntu0.16.04.1-b11
Operating System: Linux
OS Version: 4.4.0-43-Microsoft
Default Encoding: UTF-8
Language: en
Country: US
--></g></svg>