<?xml version="1.0" encoding="UTF-8" standalone="no"?><svg xmlns="http://www.w3.org/2000/svg" xmlns:xlink="http://www.w3.org/1999/xlink" contentScriptType="application/ecmascript" contentStyleType="text/css" height="1703px" preserveAspectRatio="none" style="width:976px;height:1703px;" version="1.1" viewBox="0 0 976 1703" width="976px" zoomAndPan="magnify"><defs><filter height="300%" id="f15iq4oh30itdh" width="300%" x="-1" y="-1"><feGaussianBlur result="blurOut" stdDeviation="2.0"/><feColorMatrix in="blurOut" result="blurOut2" type="matrix" values="0 0 0 0 0 0 0 0 0 0 0 0 0 0 0 0 0 0 .4 0"/><feOffset dx="4.0" dy="4.0" in="blurOut2" result="blurOut3"/><feBlend in="SourceGraphic" in2="blurOut3" mode="normal"/></filter></defs><g><text fill="#000000" font-family="sans-serif" font-size="14" font-weight="bold" lengthAdjust="spacingAndGlyphs" textLength="99" x="375.75" y="24.5332">3A sync of 845</text><a target="_top" xlink:actuate="onRequest" xlink:href="https://confluence.qualcomm.com/confluence/display/3AWIDETELE/3A+Sync+Design" xlink:show="new" xlink:title="https://confluence.qualcomm.com/confluence/display/3AWIDETELE/3A+Sync+Design" xlink:type="simple"><text fill="#0000FF" font-family="sans-serif" font-size="14" font-weight="bold" lengthAdjust="spacingAndGlyphs" text-decoration="underline" textLength="109" x="478.75" y="24.5332">ReferencePage</text><line style="stroke: #0000FF; stroke-width: 1.0;" x1="478.75" x2="587.75" y1="26.5332" y2="26.5332"/></a><text fill="#000000" font-family="sans-serif" font-size="14" font-weight="bold" lengthAdjust="spacingAndGlyphs" textLength="0" x="591.75" y="24.5332"/><text fill="#000000" font-family="sans-serif" font-size="14" font-weight="bold" lengthAdjust="spacingAndGlyphs" textLength="34" x="468.75" y="42.1426">jinlin</text><rect fill="#00FF00" filter="url(#f15iq4oh30itdh)" height="413.6953" style="stroke: #A80036; stroke-width: 1.0;" width="10" x="179" y="166.4375"/><rect fill="#98FB98" filter="url(#f15iq4oh30itdh)" height="337.9922" style="stroke: #A80036; stroke-width: 1.0;" width="10" x="184" y="204.7891"/><rect fill="#ADFF2F" filter="url(#f15iq4oh30itdh)" height="413.6953" style="stroke: #A80036; stroke-width: 1.0;" width="10" x="309" y="697.9297"/><rect fill="#98FB98" filter="url(#f15iq4oh30itdh)" height="337.9922" style="stroke: #A80036; stroke-width: 1.0;" width="10" x="314" y="736.2813"/><rect fill="#7FFF00" filter="url(#f15iq4oh30itdh)" height="413.6953" style="stroke: #A80036; stroke-width: 1.0;" width="10" x="439" y="1229.4219"/><rect fill="#98FB98" filter="url(#f15iq4oh30itdh)" height="337.9922" style="stroke: #A80036; stroke-width: 1.0;" width="10" x="444" y="1267.7734"/><rect fill="#FFFFFF" filter="url(#f15iq4oh30itdh)" height="242.2891" style="stroke: #000000; stroke-width: 2.0;" width="652.5" x="143" y="265.4922"/><rect fill="#FFFFFF" height="80.3125" style="stroke: none; stroke-width: 1.0;" width="652.5" x="143" y="347.1563"/><rect fill="#FFFFFF" height="80.3125" style="stroke: none; stroke-width: 1.0;" width="652.5" x="143" y="427.4688"/><rect fill="#FFFFFF" filter="url(#f15iq4oh30itdh)" height="242.2891" style="stroke: #000000; stroke-width: 2.0;" width="558" x="264" y="796.9844"/><rect fill="#FFFFFF" height="80.3125" style="stroke: none; stroke-width: 1.0;" width="558" x="264" y="878.6484"/><rect fill="#FFFFFF" height="80.3125" style="stroke: none; stroke-width: 1.0;" width="558" x="264" y="958.9609"/><rect fill="#FFFFFF" filter="url(#f15iq4oh30itdh)" height="242.2891" style="stroke: #000000; stroke-width: 2.0;" width="558" x="396.5" y="1328.4766"/><rect fill="#FFFFFF" height="80.3125" style="stroke: none; stroke-width: 1.0;" width="558" x="396.5" y="1410.1406"/><rect fill="#FFFFFF" height="80.3125" style="stroke: none; stroke-width: 1.0;" width="558" x="396.5" y="1490.4531"/><line style="stroke: #A80036; stroke-width: 1.0;" x1="49" x2="49" y1="88.8281" y2="588.4844"/><line style="stroke: #A80036; stroke-width: 1.0; stroke-dasharray: 1.0,4.0;" x1="49" x2="49" y1="588.4844" y2="630.3203"/><line style="stroke: #A80036; stroke-width: 1.0;" x1="49" x2="49" y1="630.3203" y2="1119.9766"/><line style="stroke: #A80036; stroke-width: 1.0; stroke-dasharray: 1.0,4.0;" x1="49" x2="49" y1="1119.9766" y2="1161.8125"/><line style="stroke: #A80036; stroke-width: 1.0;" x1="49" x2="49" y1="1161.8125" y2="1661.4688"/><line style="stroke: #A80036; stroke-width: 1.0;" x1="184" x2="184" y1="88.8281" y2="588.4844"/><line style="stroke: #A80036; stroke-width: 1.0; stroke-dasharray: 1.0,4.0;" x1="184" x2="184" y1="588.4844" y2="630.3203"/><line style="stroke: #A80036; stroke-width: 1.0;" x1="184" x2="184" y1="630.3203" y2="1119.9766"/><line style="stroke: #A80036; stroke-width: 1.0; stroke-dasharray: 1.0,4.0;" x1="184" x2="184" y1="1119.9766" y2="1161.8125"/><line style="stroke: #A80036; stroke-width: 1.0;" x1="184" x2="184" y1="1161.8125" y2="1661.4688"/><line style="stroke: #A80036; stroke-width: 1.0;" x1="314" x2="314" y1="88.8281" y2="588.4844"/><line style="stroke: #A80036; stroke-width: 1.0; stroke-dasharray: 1.0,4.0;" x1="314" x2="314" y1="588.4844" y2="630.3203"/><line style="stroke: #A80036; stroke-width: 1.0;" x1="314" x2="314" y1="630.3203" y2="1119.9766"/><line style="stroke: #A80036; stroke-width: 1.0; stroke-dasharray: 1.0,4.0;" x1="314" x2="314" y1="1119.9766" y2="1161.8125"/><line style="stroke: #A80036; stroke-width: 1.0;" x1="314" x2="314" y1="1161.8125" y2="1661.4688"/><line style="stroke: #A80036; stroke-width: 1.0;" x1="443.5" x2="443.5" y1="88.8281" y2="588.4844"/><line style="stroke: #A80036; stroke-width: 1.0; stroke-dasharray: 1.0,4.0;" x1="443.5" x2="443.5" y1="588.4844" y2="630.3203"/><line style="stroke: #A80036; stroke-width: 1.0;" x1="443.5" x2="443.5" y1="630.3203" y2="1119.9766"/><line style="stroke: #A80036; stroke-width: 1.0; stroke-dasharray: 1.0,4.0;" x1="443.5" x2="443.5" y1="1119.9766" y2="1161.8125"/><line style="stroke: #A80036; stroke-width: 1.0;" x1="443.5" x2="443.5" y1="1161.8125" y2="1661.4688"/><line style="stroke: #A80036; stroke-width: 1.0;" x1="703.5" x2="703.5" y1="88.8281" y2="588.4844"/><line style="stroke: #A80036; stroke-width: 1.0; stroke-dasharray: 1.0,4.0;" x1="703.5" x2="703.5" y1="588.4844" y2="630.3203"/><line style="stroke: #A80036; stroke-width: 1.0;" x1="703.5" x2="703.5" y1="630.3203" y2="1119.9766"/><line style="stroke: #A80036; stroke-width: 1.0; stroke-dasharray: 1.0,4.0;" x1="703.5" x2="703.5" y1="1119.9766" y2="1161.8125"/><line style="stroke: #A80036; stroke-width: 1.0;" x1="703.5" x2="703.5" y1="1161.8125" y2="1661.4688"/><rect fill="#FF0000" filter="url(#f15iq4oh30itdh)" height="31.6094" style="stroke: #A80036; stroke-width: 1.5;" width="78" x="8" y="52.2188"/><text fill="#000000" font-family="sans-serif" font-size="14" lengthAdjust="spacingAndGlyphs" textLength="64" x="15" y="73.752">camxnode</text><rect fill="#FF0000" filter="url(#f15iq4oh30itdh)" height="31.6094" style="stroke: #A80036; stroke-width: 1.5;" width="78" x="8" y="1660.4688"/><text fill="#000000" font-family="sans-serif" font-size="14" lengthAdjust="spacingAndGlyphs" textLength="64" x="15" y="1682.002">camxnode</text><rect fill="#00FF00" filter="url(#f15iq4oh30itdh)" height="31.6094" style="stroke: #A80036; stroke-width: 1.5;" width="58" x="153" y="52.2188"/><text fill="#000000" font-family="sans-serif" font-size="14" lengthAdjust="spacingAndGlyphs" textLength="44" x="160" y="73.752">afnode</text><rect fill="#00FF00" filter="url(#f15iq4oh30itdh)" height="31.6094" style="stroke: #A80036; stroke-width: 1.5;" width="58" x="153" y="1660.4688"/><text fill="#000000" font-family="sans-serif" font-size="14" lengthAdjust="spacingAndGlyphs" textLength="44" x="160" y="1682.002">afnode</text><rect fill="#ADFF2F" filter="url(#f15iq4oh30itdh)" height="31.6094" style="stroke: #A80036; stroke-width: 1.5;" width="76" x="274" y="52.2188"/><text fill="#000000" font-family="sans-serif" font-size="14" lengthAdjust="spacingAndGlyphs" textLength="62" x="281" y="73.752">statsnode</text><rect fill="#ADFF2F" filter="url(#f15iq4oh30itdh)" height="31.6094" style="stroke: #A80036; stroke-width: 1.5;" width="76" x="274" y="1660.4688"/><text fill="#000000" font-family="sans-serif" font-size="14" lengthAdjust="spacingAndGlyphs" textLength="62" x="281" y="1682.002">statsnode</text><rect fill="#7FFF00" filter="url(#f15iq4oh30itdh)" height="31.6094" style="stroke: #A80036; stroke-width: 1.5;" width="71" x="406.5" y="52.2188"/><text fill="#000000" font-family="sans-serif" font-size="14" lengthAdjust="spacingAndGlyphs" textLength="57" x="413.5" y="73.752">awbnode</text><rect fill="#7FFF00" filter="url(#f15iq4oh30itdh)" height="31.6094" style="stroke: #A80036; stroke-width: 1.5;" width="71" x="406.5" y="1660.4688"/><text fill="#000000" font-family="sans-serif" font-size="14" lengthAdjust="spacingAndGlyphs" textLength="57" x="413.5" y="1682.002">awbnode</text><rect fill="#4169E1" filter="url(#f15iq4oh30itdh)" height="31.6094" style="stroke: #A80036; stroke-width: 1.5;" width="159" x="622.5" y="52.2188"/><text fill="#000000" font-family="sans-serif" font-size="14" lengthAdjust="spacingAndGlyphs" textLength="145" x="629.5" y="73.752">camxmultistatsoperator</text><rect fill="#4169E1" filter="url(#f15iq4oh30itdh)" height="31.6094" style="stroke: #A80036; stroke-width: 1.5;" width="159" x="622.5" y="1660.4688"/><text fill="#000000" font-family="sans-serif" font-size="14" lengthAdjust="spacingAndGlyphs" textLength="145" x="629.5" y="1682.002">camxmultistatsoperator</text><rect fill="#00FF00" filter="url(#f15iq4oh30itdh)" height="413.6953" style="stroke: #A80036; stroke-width: 1.0;" width="10" x="179" y="166.4375"/><rect fill="#98FB98" filter="url(#f15iq4oh30itdh)" height="337.9922" style="stroke: #A80036; stroke-width: 1.0;" width="10" x="184" y="204.7891"/><rect fill="#ADFF2F" filter="url(#f15iq4oh30itdh)" height="413.6953" style="stroke: #A80036; stroke-width: 1.0;" width="10" x="309" y="697.9297"/><rect fill="#98FB98" filter="url(#f15iq4oh30itdh)" height="337.9922" style="stroke: #A80036; stroke-width: 1.0;" width="10" x="314" y="736.2813"/><rect fill="#7FFF00" filter="url(#f15iq4oh30itdh)" height="413.6953" style="stroke: #A80036; stroke-width: 1.0;" width="10" x="439" y="1229.4219"/><rect fill="#98FB98" filter="url(#f15iq4oh30itdh)" height="337.9922" style="stroke: #A80036; stroke-width: 1.0;" width="10" x="444" y="1267.7734"/><rect fill="#EEEEEE" filter="url(#f15iq4oh30itdh)" height="3" style="stroke: #EEEEEE; stroke-width: 1.0;" width="961.5" x="3" y="120.6328"/><line style="stroke: #000000; stroke-width: 1.0;" x1="3" x2="964.5" y1="120.6328" y2="120.6328"/><line style="stroke: #000000; stroke-width: 1.0;" x1="3" x2="964.5" y1="123.6328" y2="123.6328"/><rect fill="#EEEEEE" filter="url(#f15iq4oh30itdh)" height="25.6094" style="stroke: #000000; stroke-width: 2.0;" width="40" x="463.75" y="108.8281"/><text fill="#FF0000" font-family="sans-serif" font-size="14" font-weight="bold" lengthAdjust="spacingAndGlyphs" textLength="14" x="473.75" y="127.3613">Af</text><text fill="#000000" font-family="sans-serif" font-size="13" font-weight="bold" lengthAdjust="spacingAndGlyphs" textLength="0" x="495.75" y="127.5811"/><polygon fill="#A80036" points="167,162.4375,177,166.4375,167,170.4375,171,166.4375" style="stroke: #A80036; stroke-width: 1.0;"/><line style="stroke: #A80036; stroke-width: 1.0;" x1="49" x2="173" y1="166.4375" y2="166.4375"/><text fill="#000000" font-family="sans-serif" font-size="13" lengthAdjust="spacingAndGlyphs" textLength="111" x="56" y="161.9326">PostPipelineCreate</text><line style="stroke: #A80036; stroke-width: 1.0;" x1="189" x2="236" y1="192.1406" y2="192.1406"/><line style="stroke: #A80036; stroke-width: 1.0;" x1="236" x2="236" y1="192.1406" y2="205.1406"/><line style="stroke: #A80036; stroke-width: 1.0;" x1="195" x2="236" y1="205.1406" y2="205.1406"/><polygon fill="#A80036" points="205,201.1406,195,205.1406,205,209.1406,201,205.1406" style="stroke: #A80036; stroke-width: 1.0;"/><text fill="#000000" font-family="sans-serif" font-size="13" lengthAdjust="spacingAndGlyphs" textLength="106" x="201" y="187.2842">InitializeMultiStats</text><polygon fill="#FBFB77" filter="url(#f15iq4oh30itdh)" points="11,223.1406,11,249.1406,352,249.1406,352,233.1406,342,223.1406,11,223.1406" style="stroke: #A80036; stroke-width: 1.0;"/><line style="stroke: #A80036; stroke-width: 1.0;" x1="342" x2="342" y1="223.1406" y2="233.1406"/><line style="stroke: #A80036; stroke-width: 1.0;" x1="352" x2="342" y1="233.1406" y2="233.1406"/><text fill="#000000" font-family="sans-serif" font-size="13" lengthAdjust="spacingAndGlyphs" textLength="184" x="17" y="241.6357">multiStatsData.algoSyncType =</text><text fill="#FF0000" font-family="sans-serif" font-size="13" lengthAdjust="spacingAndGlyphs" textLength="132" x="205" y="241.6357">StatsAlgoSyncTypeAF</text><rect fill="none" height="242.2891" style="stroke: #000000; stroke-width: 2.0;" width="652.5" x="143" y="265.4922"/><polygon fill="#EEEEEE" points="143,265.4922,204,265.4922,204,273.4922,194,283.4922,143,283.4922,143,265.4922" style="stroke: #000000; stroke-width: 2.0;"/><text fill="#000000" font-family="sans-serif" font-size="13" font-weight="bold" lengthAdjust="spacingAndGlyphs" textLength="16" x="158" y="279.9873">alt</text><text fill="#000000" font-family="sans-serif" font-size="11" font-weight="bold" lengthAdjust="spacingAndGlyphs" textLength="223" x="219" y="282.6846">[pStaticSettings-&gt;multiCamera3ASync ==</text><text fill="#FF0000" font-family="sans-serif" font-size="14" font-weight="bold" lengthAdjust="spacingAndGlyphs" textLength="161" x="445" y="282.0254">MultiCamera3ASyncQTI</text><text fill="#000000" font-family="sans-serif" font-size="11" font-weight="bold" lengthAdjust="spacingAndGlyphs" textLength="84" x="609" y="282.6846">&lt;-- Default One]</text><polygon fill="#A80036" points="692,304.4531,702,308.4531,692,312.4531,696,308.4531" style="stroke: #A80036; stroke-width: 1.0;"/><line style="stroke: #A80036; stroke-width: 1.0;" x1="194" x2="698" y1="308.4531" y2="308.4531"/><text fill="#000000" font-family="sans-serif" font-size="13" lengthAdjust="spacingAndGlyphs" textLength="74" x="201" y="303.9482">CAMX_NEW</text><text fill="#000000" font-family="sans-serif" font-size="13" font-weight="bold" lengthAdjust="spacingAndGlyphs" textLength="140" x="279" y="303.9482">QTIMultiStatsOperator</text><polygon fill="#A80036" points="205,334.8047,195,338.8047,205,342.8047,201,338.8047" style="stroke: #A80036; stroke-width: 1.0;"/><line style="stroke: #A80036; stroke-width: 1.0;" x1="199" x2="703" y1="338.8047" y2="338.8047"/><text fill="#000000" font-family="sans-serif" font-size="13" lengthAdjust="spacingAndGlyphs" textLength="79" x="211" y="334.2998">return handler</text><line style="stroke: #000000; stroke-width: 1.0; stroke-dasharray: 2.0,2.0;" x1="143" x2="795.5" y1="348.1563" y2="348.1563"/><text fill="#000000" font-family="sans-serif" font-size="11" font-weight="bold" lengthAdjust="spacingAndGlyphs" textLength="223" x="148" y="363.3486">[pStaticSettings-&gt;multiCamera3ASync ==</text><text fill="#FF0000" font-family="sans-serif" font-size="14" font-weight="bold" lengthAdjust="spacingAndGlyphs" textLength="205" x="374" y="362.6895">MultiCamera3ASyncSingleton</text><text fill="#000000" font-family="sans-serif" font-size="11" font-weight="bold" lengthAdjust="spacingAndGlyphs" textLength="4" x="579" y="363.3486">]</text><polygon fill="#A80036" points="692,384.7656,702,388.7656,692,392.7656,696,388.7656" style="stroke: #A80036; stroke-width: 1.0;"/><line style="stroke: #A80036; stroke-width: 1.0;" x1="194" x2="698" y1="388.7656" y2="388.7656"/><text fill="#000000" font-family="sans-serif" font-size="13" lengthAdjust="spacingAndGlyphs" textLength="74" x="201" y="384.2607">CAMX_NEW</text><text fill="#000000" font-family="sans-serif" font-size="13" font-weight="bold" lengthAdjust="spacingAndGlyphs" textLength="148" x="279" y="384.2607">SingletonStatsOperator</text><polygon fill="#A80036" points="205,415.1172,195,419.1172,205,423.1172,201,419.1172" style="stroke: #A80036; stroke-width: 1.0;"/><line style="stroke: #A80036; stroke-width: 1.0;" x1="199" x2="703" y1="419.1172" y2="419.1172"/><text fill="#000000" font-family="sans-serif" font-size="13" lengthAdjust="spacingAndGlyphs" textLength="79" x="211" y="414.6123">return handler</text><line style="stroke: #000000; stroke-width: 1.0; stroke-dasharray: 2.0,2.0;" x1="143" x2="795.5" y1="428.4688" y2="428.4688"/><text fill="#000000" font-family="sans-serif" font-size="11" font-weight="bold" lengthAdjust="spacingAndGlyphs" textLength="223" x="148" y="443.6611">[pStaticSettings-&gt;multiCamera3ASync ==</text><text fill="#FF0000" font-family="sans-serif" font-size="14" font-weight="bold" lengthAdjust="spacingAndGlyphs" textLength="199" x="374" y="443.002">MultiCamera3ASyncDisabled</text><text fill="#000000" font-family="sans-serif" font-size="11" font-weight="bold" lengthAdjust="spacingAndGlyphs" textLength="4" x="573" y="443.6611">]</text><polygon fill="#A80036" points="692,465.0781,702,469.0781,692,473.0781,696,469.0781" style="stroke: #A80036; stroke-width: 1.0;"/><line style="stroke: #A80036; stroke-width: 1.0;" x1="194" x2="698" y1="469.0781" y2="469.0781"/><text fill="#000000" font-family="sans-serif" font-size="13" lengthAdjust="spacingAndGlyphs" textLength="74" x="201" y="464.5732">CAMX_NEW</text><text fill="#000000" font-family="sans-serif" font-size="13" font-weight="bold" lengthAdjust="spacingAndGlyphs" textLength="135" x="279" y="464.5732">NoSyncStatsOperator</text><polygon fill="#A80036" points="205,495.4297,195,499.4297,205,503.4297,201,499.4297" style="stroke: #A80036; stroke-width: 1.0;"/><line style="stroke: #A80036; stroke-width: 1.0;" x1="199" x2="703" y1="499.4297" y2="499.4297"/><text fill="#000000" font-family="sans-serif" font-size="13" lengthAdjust="spacingAndGlyphs" textLength="79" x="211" y="494.9248">return handler</text><line style="stroke: #A80036; stroke-width: 1.0;" x1="194" x2="236" y1="542.1328" y2="542.1328"/><line style="stroke: #A80036; stroke-width: 1.0;" x1="236" x2="236" y1="542.1328" y2="555.1328"/><line style="stroke: #A80036; stroke-width: 1.0;" x1="189" x2="236" y1="555.1328" y2="555.1328"/><polygon fill="#A80036" points="199,551.1328,189,555.1328,199,559.1328,195,555.1328" style="stroke: #A80036; stroke-width: 1.0;"/><text fill="#000000" font-family="sans-serif" font-size="13" lengthAdjust="spacingAndGlyphs" textLength="33" x="201" y="537.2764">return</text><polygon fill="#A80036" points="60,576.1328,50,580.1328,60,584.1328,56,580.1328" style="stroke: #A80036; stroke-width: 1.0;"/><line style="stroke: #A80036; stroke-width: 1.0;" x1="54" x2="183" y1="580.1328" y2="580.1328"/><text fill="#000000" font-family="sans-serif" font-size="13" lengthAdjust="spacingAndGlyphs" textLength="33" x="66" y="575.6279">return</text><text fill="#000000" font-family="sans-serif" font-size="11" lengthAdjust="spacingAndGlyphs" textLength="0" x="378" y="613.9033"/><rect fill="#EEEEEE" filter="url(#f15iq4oh30itdh)" height="3" style="stroke: #EEEEEE; stroke-width: 1.0;" width="961.5" x="3" y="652.125"/><line style="stroke: #000000; stroke-width: 1.0;" x1="3" x2="964.5" y1="652.125" y2="652.125"/><line style="stroke: #000000; stroke-width: 1.0;" x1="3" x2="964.5" y1="655.125" y2="655.125"/><rect fill="#EEEEEE" filter="url(#f15iq4oh30itdh)" height="25.6094" style="stroke: #000000; stroke-width: 2.0;" width="52" x="457.75" y="640.3203"/><text fill="#FF0000" font-family="sans-serif" font-size="14" font-weight="bold" lengthAdjust="spacingAndGlyphs" textLength="26" x="467.75" y="658.8535">Aec</text><text fill="#000000" font-family="sans-serif" font-size="13" font-weight="bold" lengthAdjust="spacingAndGlyphs" textLength="0" x="501.75" y="659.0732"/><polygon fill="#A80036" points="297,693.9297,307,697.9297,297,701.9297,301,697.9297" style="stroke: #A80036; stroke-width: 1.0;"/><line style="stroke: #A80036; stroke-width: 1.0;" x1="49" x2="303" y1="697.9297" y2="697.9297"/><text fill="#000000" font-family="sans-serif" font-size="13" lengthAdjust="spacingAndGlyphs" textLength="111" x="56" y="693.4248">PostPipelineCreate</text><line style="stroke: #A80036; stroke-width: 1.0;" x1="319" x2="366" y1="723.6328" y2="723.6328"/><line style="stroke: #A80036; stroke-width: 1.0;" x1="366" x2="366" y1="723.6328" y2="736.6328"/><line style="stroke: #A80036; stroke-width: 1.0;" x1="325" x2="366" y1="736.6328" y2="736.6328"/><polygon fill="#A80036" points="335,732.6328,325,736.6328,335,740.6328,331,736.6328" style="stroke: #A80036; stroke-width: 1.0;"/><text fill="#000000" font-family="sans-serif" font-size="13" lengthAdjust="spacingAndGlyphs" textLength="106" x="331" y="718.7764">InitializeMultiStats</text><polygon fill="#FBFB77" filter="url(#f15iq4oh30itdh)" points="136,754.6328,136,780.6328,487,780.6328,487,764.6328,477,754.6328,136,754.6328" style="stroke: #A80036; stroke-width: 1.0;"/><line style="stroke: #A80036; stroke-width: 1.0;" x1="477" x2="477" y1="754.6328" y2="764.6328"/><line style="stroke: #A80036; stroke-width: 1.0;" x1="487" x2="477" y1="764.6328" y2="764.6328"/><text fill="#000000" font-family="sans-serif" font-size="13" lengthAdjust="spacingAndGlyphs" textLength="184" x="142" y="773.1279">multiStatsData.algoSyncType =</text><text fill="#FF0000" font-family="sans-serif" font-size="13" lengthAdjust="spacingAndGlyphs" textLength="142" x="330" y="773.1279">StatsAlgoSyncTypeAEC</text><rect fill="none" height="242.2891" style="stroke: #000000; stroke-width: 2.0;" width="558" x="264" y="796.9844"/><polygon fill="#EEEEEE" points="264,796.9844,325,796.9844,325,804.9844,315,814.9844,264,814.9844,264,796.9844" style="stroke: #000000; stroke-width: 2.0;"/><text fill="#000000" font-family="sans-serif" font-size="13" font-weight="bold" lengthAdjust="spacingAndGlyphs" textLength="16" x="279" y="811.4795">alt</text><text fill="#000000" font-family="sans-serif" font-size="11" font-weight="bold" lengthAdjust="spacingAndGlyphs" textLength="223" x="340" y="814.1768">[pStaticSettings-&gt;multiCamera3ASync ==</text><text fill="#FF0000" font-family="sans-serif" font-size="14" font-weight="bold" lengthAdjust="spacingAndGlyphs" textLength="161" x="566" y="813.5176">MultiCamera3ASyncQTI</text><text fill="#000000" font-family="sans-serif" font-size="11" font-weight="bold" lengthAdjust="spacingAndGlyphs" textLength="84" x="733" y="814.1768">&lt;-- Default One]</text><polygon fill="#A80036" points="692,835.9453,702,839.9453,692,843.9453,696,839.9453" style="stroke: #A80036; stroke-width: 1.0;"/><line style="stroke: #A80036; stroke-width: 1.0;" x1="324" x2="698" y1="839.9453" y2="839.9453"/><text fill="#000000" font-family="sans-serif" font-size="13" lengthAdjust="spacingAndGlyphs" textLength="74" x="331" y="835.4404">CAMX_NEW</text><text fill="#000000" font-family="sans-serif" font-size="13" font-weight="bold" lengthAdjust="spacingAndGlyphs" textLength="140" x="409" y="835.4404">QTIMultiStatsOperator</text><polygon fill="#A80036" points="335,866.2969,325,870.2969,335,874.2969,331,870.2969" style="stroke: #A80036; stroke-width: 1.0;"/><line style="stroke: #A80036; stroke-width: 1.0;" x1="329" x2="703" y1="870.2969" y2="870.2969"/><text fill="#000000" font-family="sans-serif" font-size="13" lengthAdjust="spacingAndGlyphs" textLength="79" x="341" y="865.792">return handler</text><line style="stroke: #000000; stroke-width: 1.0; stroke-dasharray: 2.0,2.0;" x1="264" x2="822" y1="879.6484" y2="879.6484"/><text fill="#000000" font-family="sans-serif" font-size="11" font-weight="bold" lengthAdjust="spacingAndGlyphs" textLength="223" x="269" y="894.8408">[pStaticSettings-&gt;multiCamera3ASync ==</text><text fill="#FF0000" font-family="sans-serif" font-size="14" font-weight="bold" lengthAdjust="spacingAndGlyphs" textLength="205" x="495" y="894.1816">MultiCamera3ASyncSingleton</text><text fill="#000000" font-family="sans-serif" font-size="11" font-weight="bold" lengthAdjust="spacingAndGlyphs" textLength="4" x="700" y="894.8408">]</text><polygon fill="#A80036" points="692,916.2578,702,920.2578,692,924.2578,696,920.2578" style="stroke: #A80036; stroke-width: 1.0;"/><line style="stroke: #A80036; stroke-width: 1.0;" x1="324" x2="698" y1="920.2578" y2="920.2578"/><text fill="#000000" font-family="sans-serif" font-size="13" lengthAdjust="spacingAndGlyphs" textLength="74" x="331" y="915.7529">CAMX_NEW</text><text fill="#000000" font-family="sans-serif" font-size="13" font-weight="bold" lengthAdjust="spacingAndGlyphs" textLength="148" x="409" y="915.7529">SingletonStatsOperator</text><polygon fill="#A80036" points="335,946.6094,325,950.6094,335,954.6094,331,950.6094" style="stroke: #A80036; stroke-width: 1.0;"/><line style="stroke: #A80036; stroke-width: 1.0;" x1="329" x2="703" y1="950.6094" y2="950.6094"/><text fill="#000000" font-family="sans-serif" font-size="13" lengthAdjust="spacingAndGlyphs" textLength="79" x="341" y="946.1045">return handler</text><line style="stroke: #000000; stroke-width: 1.0; stroke-dasharray: 2.0,2.0;" x1="264" x2="822" y1="959.9609" y2="959.9609"/><text fill="#000000" font-family="sans-serif" font-size="11" font-weight="bold" lengthAdjust="spacingAndGlyphs" textLength="223" x="269" y="975.1533">[pStaticSettings-&gt;multiCamera3ASync ==</text><text fill="#FF0000" font-family="sans-serif" font-size="14" font-weight="bold" lengthAdjust="spacingAndGlyphs" textLength="199" x="495" y="974.4941">MultiCamera3ASyncDisabled</text><text fill="#000000" font-family="sans-serif" font-size="11" font-weight="bold" lengthAdjust="spacingAndGlyphs" textLength="4" x="694" y="975.1533">]</text><polygon fill="#A80036" points="692,996.5703,702,1000.5703,692,1004.5703,696,1000.5703" style="stroke: #A80036; stroke-width: 1.0;"/><line style="stroke: #A80036; stroke-width: 1.0;" x1="324" x2="698" y1="1000.5703" y2="1000.5703"/><text fill="#000000" font-family="sans-serif" font-size="13" lengthAdjust="spacingAndGlyphs" textLength="74" x="331" y="996.0654">CAMX_NEW</text><text fill="#000000" font-family="sans-serif" font-size="13" font-weight="bold" lengthAdjust="spacingAndGlyphs" textLength="135" x="409" y="996.0654">NoSyncStatsOperator</text><polygon fill="#A80036" points="335,1026.9219,325,1030.9219,335,1034.9219,331,1030.9219" style="stroke: #A80036; stroke-width: 1.0;"/><line style="stroke: #A80036; stroke-width: 1.0;" x1="329" x2="703" y1="1030.9219" y2="1030.9219"/><text fill="#000000" font-family="sans-serif" font-size="13" lengthAdjust="spacingAndGlyphs" textLength="79" x="341" y="1026.417">return handler</text><line style="stroke: #A80036; stroke-width: 1.0;" x1="324" x2="366" y1="1073.625" y2="1073.625"/><line style="stroke: #A80036; stroke-width: 1.0;" x1="366" x2="366" y1="1073.625" y2="1086.625"/><line style="stroke: #A80036; stroke-width: 1.0;" x1="319" x2="366" y1="1086.625" y2="1086.625"/><polygon fill="#A80036" points="329,1082.625,319,1086.625,329,1090.625,325,1086.625" style="stroke: #A80036; stroke-width: 1.0;"/><text fill="#000000" font-family="sans-serif" font-size="13" lengthAdjust="spacingAndGlyphs" textLength="33" x="331" y="1068.7686">return</text><polygon fill="#A80036" points="60,1107.625,50,1111.625,60,1115.625,56,1111.625" style="stroke: #A80036; stroke-width: 1.0;"/><line style="stroke: #A80036; stroke-width: 1.0;" x1="54" x2="313" y1="1111.625" y2="1111.625"/><text fill="#000000" font-family="sans-serif" font-size="13" lengthAdjust="spacingAndGlyphs" textLength="33" x="66" y="1107.1201">return</text><text fill="#000000" font-family="sans-serif" font-size="11" lengthAdjust="spacingAndGlyphs" textLength="0" x="378" y="1145.3955"/><rect fill="#EEEEEE" filter="url(#f15iq4oh30itdh)" height="3" style="stroke: #EEEEEE; stroke-width: 1.0;" width="961.5" x="3" y="1183.6172"/><line style="stroke: #000000; stroke-width: 1.0;" x1="3" x2="964.5" y1="1183.6172" y2="1183.6172"/><line style="stroke: #000000; stroke-width: 1.0;" x1="3" x2="964.5" y1="1186.6172" y2="1186.6172"/><rect fill="#EEEEEE" filter="url(#f15iq4oh30itdh)" height="25.6094" style="stroke: #000000; stroke-width: 2.0;" width="51" x="458.25" y="1171.8125"/><text fill="#FF0000" font-family="sans-serif" font-size="14" font-weight="bold" lengthAdjust="spacingAndGlyphs" textLength="29" x="468.25" y="1190.3457">Awb</text><text fill="#000000" font-family="sans-serif" font-size="13" font-weight="bold" lengthAdjust="spacingAndGlyphs" textLength="0" x="501.25" y="1190.5654"/><polygon fill="#A80036" points="427,1225.4219,437,1229.4219,427,1233.4219,431,1229.4219" style="stroke: #A80036; stroke-width: 1.0;"/><line style="stroke: #A80036; stroke-width: 1.0;" x1="49" x2="433" y1="1229.4219" y2="1229.4219"/><text fill="#000000" font-family="sans-serif" font-size="13" lengthAdjust="spacingAndGlyphs" textLength="111" x="56" y="1224.917">PostPipelineCreate</text><line style="stroke: #A80036; stroke-width: 1.0;" x1="449" x2="496" y1="1255.125" y2="1255.125"/><line style="stroke: #A80036; stroke-width: 1.0;" x1="496" x2="496" y1="1255.125" y2="1268.125"/><line style="stroke: #A80036; stroke-width: 1.0;" x1="455" x2="496" y1="1268.125" y2="1268.125"/><polygon fill="#A80036" points="465,1264.125,455,1268.125,465,1272.125,461,1268.125" style="stroke: #A80036; stroke-width: 1.0;"/><text fill="#000000" font-family="sans-serif" font-size="13" lengthAdjust="spacingAndGlyphs" textLength="106" x="461" y="1250.2686">InitializeMultiStats</text><polygon fill="#FBFB77" filter="url(#f15iq4oh30itdh)" points="264,1286.125,264,1312.125,619,1312.125,619,1296.125,609,1286.125,264,1286.125" style="stroke: #A80036; stroke-width: 1.0;"/><line style="stroke: #A80036; stroke-width: 1.0;" x1="609" x2="609" y1="1286.125" y2="1296.125"/><line style="stroke: #A80036; stroke-width: 1.0;" x1="619" x2="609" y1="1296.125" y2="1296.125"/><text fill="#000000" font-family="sans-serif" font-size="13" lengthAdjust="spacingAndGlyphs" textLength="184" x="270" y="1304.6201">multiStatsData.algoSyncType =</text><text fill="#FF0000" font-family="sans-serif" font-size="13" lengthAdjust="spacingAndGlyphs" textLength="146" x="458" y="1304.6201">StatsAlgoSyncTypeAWB</text><rect fill="none" height="242.2891" style="stroke: #000000; stroke-width: 2.0;" width="558" x="396.5" y="1328.4766"/><polygon fill="#EEEEEE" points="396.5,1328.4766,457.5,1328.4766,457.5,1336.4766,447.5,1346.4766,396.5,1346.4766,396.5,1328.4766" style="stroke: #000000; stroke-width: 2.0;"/><text fill="#000000" font-family="sans-serif" font-size="13" font-weight="bold" lengthAdjust="spacingAndGlyphs" textLength="16" x="411.5" y="1342.9717">alt</text><text fill="#000000" font-family="sans-serif" font-size="11" font-weight="bold" lengthAdjust="spacingAndGlyphs" textLength="223" x="472.5" y="1345.6689">[pStaticSettings-&gt;multiCamera3ASync ==</text><text fill="#FF0000" font-family="sans-serif" font-size="14" font-weight="bold" lengthAdjust="spacingAndGlyphs" textLength="161" x="698.5" y="1345.0098">MultiCamera3ASyncQTI</text><text fill="#000000" font-family="sans-serif" font-size="11" font-weight="bold" lengthAdjust="spacingAndGlyphs" textLength="84" x="865.5" y="1345.6689">&lt;-- Default One]</text><polygon fill="#A80036" points="692,1367.4375,702,1371.4375,692,1375.4375,696,1371.4375" style="stroke: #A80036; stroke-width: 1.0;"/><line style="stroke: #A80036; stroke-width: 1.0;" x1="454" x2="698" y1="1371.4375" y2="1371.4375"/><text fill="#000000" font-family="sans-serif" font-size="13" lengthAdjust="spacingAndGlyphs" textLength="74" x="461" y="1366.9326">CAMX_NEW</text><text fill="#000000" font-family="sans-serif" font-size="13" font-weight="bold" lengthAdjust="spacingAndGlyphs" textLength="140" x="539" y="1366.9326">QTIMultiStatsOperator</text><polygon fill="#A80036" points="465,1397.7891,455,1401.7891,465,1405.7891,461,1401.7891" style="stroke: #A80036; stroke-width: 1.0;"/><line style="stroke: #A80036; stroke-width: 1.0;" x1="459" x2="703" y1="1401.7891" y2="1401.7891"/><text fill="#000000" font-family="sans-serif" font-size="13" lengthAdjust="spacingAndGlyphs" textLength="79" x="471" y="1397.2842">return handler</text><line style="stroke: #000000; stroke-width: 1.0; stroke-dasharray: 2.0,2.0;" x1="396.5" x2="954.5" y1="1411.1406" y2="1411.1406"/><text fill="#000000" font-family="sans-serif" font-size="11" font-weight="bold" lengthAdjust="spacingAndGlyphs" textLength="223" x="401.5" y="1426.333">[pStaticSettings-&gt;multiCamera3ASync ==</text><text fill="#FF0000" font-family="sans-serif" font-size="14" font-weight="bold" lengthAdjust="spacingAndGlyphs" textLength="205" x="627.5" y="1425.6738">MultiCamera3ASyncSingleton</text><text fill="#000000" font-family="sans-serif" font-size="11" font-weight="bold" lengthAdjust="spacingAndGlyphs" textLength="4" x="832.5" y="1426.333">]</text><polygon fill="#A80036" points="692,1447.75,702,1451.75,692,1455.75,696,1451.75" style="stroke: #A80036; stroke-width: 1.0;"/><line style="stroke: #A80036; stroke-width: 1.0;" x1="454" x2="698" y1="1451.75" y2="1451.75"/><text fill="#000000" font-family="sans-serif" font-size="13" lengthAdjust="spacingAndGlyphs" textLength="74" x="461" y="1447.2451">CAMX_NEW</text><text fill="#000000" font-family="sans-serif" font-size="13" font-weight="bold" lengthAdjust="spacingAndGlyphs" textLength="148" x="539" y="1447.2451">SingletonStatsOperator</text><polygon fill="#A80036" points="465,1478.1016,455,1482.1016,465,1486.1016,461,1482.1016" style="stroke: #A80036; stroke-width: 1.0;"/><line style="stroke: #A80036; stroke-width: 1.0;" x1="459" x2="703" y1="1482.1016" y2="1482.1016"/><text fill="#000000" font-family="sans-serif" font-size="13" lengthAdjust="spacingAndGlyphs" textLength="79" x="471" y="1477.5967">return handler</text><line style="stroke: #000000; stroke-width: 1.0; stroke-dasharray: 2.0,2.0;" x1="396.5" x2="954.5" y1="1491.4531" y2="1491.4531"/><text fill="#000000" font-family="sans-serif" font-size="11" font-weight="bold" lengthAdjust="spacingAndGlyphs" textLength="223" x="401.5" y="1506.6455">[pStaticSettings-&gt;multiCamera3ASync ==</text><text fill="#FF0000" font-family="sans-serif" font-size="14" font-weight="bold" lengthAdjust="spacingAndGlyphs" textLength="199" x="627.5" y="1505.9863">MultiCamera3ASyncDisabled</text><text fill="#000000" font-family="sans-serif" font-size="11" font-weight="bold" lengthAdjust="spacingAndGlyphs" textLength="4" x="826.5" y="1506.6455">]</text><polygon fill="#A80036" points="692,1528.0625,702,1532.0625,692,1536.0625,696,1532.0625" style="stroke: #A80036; stroke-width: 1.0;"/><line style="stroke: #A80036; stroke-width: 1.0;" x1="454" x2="698" y1="1532.0625" y2="1532.0625"/><text fill="#000000" font-family="sans-serif" font-size="13" lengthAdjust="spacingAndGlyphs" textLength="74" x="461" y="1527.5576">CAMX_NEW</text><text fill="#000000" font-family="sans-serif" font-size="13" font-weight="bold" lengthAdjust="spacingAndGlyphs" textLength="135" x="539" y="1527.5576">NoSyncStatsOperator</text><polygon fill="#A80036" points="465,1558.4141,455,1562.4141,465,1566.4141,461,1562.4141" style="stroke: #A80036; stroke-width: 1.0;"/><line style="stroke: #A80036; stroke-width: 1.0;" x1="459" x2="703" y1="1562.4141" y2="1562.4141"/><text fill="#000000" font-family="sans-serif" font-size="13" lengthAdjust="spacingAndGlyphs" textLength="79" x="471" y="1557.9092">return handler</text><line style="stroke: #A80036; stroke-width: 1.0;" x1="454" x2="496" y1="1605.1172" y2="1605.1172"/><line style="stroke: #A80036; stroke-width: 1.0;" x1="496" x2="496" y1="1605.1172" y2="1618.1172"/><line style="stroke: #A80036; stroke-width: 1.0;" x1="449" x2="496" y1="1618.1172" y2="1618.1172"/><polygon fill="#A80036" points="459,1614.1172,449,1618.1172,459,1622.1172,455,1618.1172" style="stroke: #A80036; stroke-width: 1.0;"/><text fill="#000000" font-family="sans-serif" font-size="13" lengthAdjust="spacingAndGlyphs" textLength="33" x="461" y="1600.2607">return</text><polygon fill="#A80036" points="60,1639.1172,50,1643.1172,60,1647.1172,56,1643.1172" style="stroke: #A80036; stroke-width: 1.0;"/><line style="stroke: #A80036; stroke-width: 1.0;" x1="54" x2="443" y1="1643.1172" y2="1643.1172"/><text fill="#000000" font-family="sans-serif" font-size="13" lengthAdjust="spacingAndGlyphs" textLength="33" x="66" y="1638.6123">return</text><!--
@startuml
title 3A sync of 845 [[https://confluence.qualcomm.com/confluence/display/3AWIDETELE/3A+Sync+Design ReferencePage]] \n jinlin

participant camxnode #ff0000
participant afnode #00ff00
participant statsnode #GreenYellow
participant awbnode #Chartreuse
participant camxmultistatsoperator as camx_multistats #RoyalBlue

== <color:red><size:14> Af </size></color> ==
camxnode->afnode: PostPipelineCreate
activate afnode #00ff00
  afnode->afnode: InitializeMultiStats
  note over afnode
    multiStatsData.algoSyncType = <color:red><size:13>StatsAlgoSyncTypeAF</size></color>
  end note
  activate afnode #PaleGreen
    alt pStaticSettings->multiCamera3ASync == <color:red><size:14>MultiCamera3ASyncQTI</size></color> <- - Default One
      afnode->camx_multistats: CAMX_NEW **QTIMultiStatsOperator**
      camx_multistats->afnode: return handler
    else pStaticSettings->multiCamera3ASync == <color:red><size:14>MultiCamera3ASyncSingleton</size></color>
      afnode->camx_multistats: CAMX_NEW **SingletonStatsOperator**
      camx_multistats->afnode: return handler
    else pStaticSettings->multiCamera3ASync == <color:red><size:14>MultiCamera3ASyncDisabled</size></color>
      afnode->camx_multistats: CAMX_NEW **NoSyncStatsOperator**
      camx_multistats->afnode: return handler
    end
  afnode->afnode: return
  deactivate afnode
afnode->camxnode: return
deactivate afnode

... ...
== <color:red><size:14> Aec </size></color> ==
camxnode->statsnode: PostPipelineCreate
activate statsnode #GreenYellow
  statsnode->statsnode: InitializeMultiStats
  note over statsnode
    multiStatsData.algoSyncType = <color:red><size:13>StatsAlgoSyncTypeAEC</size></color>
  end note
  activate statsnode #PaleGreen
    alt pStaticSettings->multiCamera3ASync == <color:red><size:14>MultiCamera3ASyncQTI</size></color>  <- - Default One
      statsnode->camx_multistats: CAMX_NEW **QTIMultiStatsOperator**
      camx_multistats->statsnode: return handler
    else pStaticSettings->multiCamera3ASync == <color:red><size:14>MultiCamera3ASyncSingleton</size></color>
      statsnode->camx_multistats: CAMX_NEW **SingletonStatsOperator**
      camx_multistats->statsnode: return handler
    else pStaticSettings->multiCamera3ASync == <color:red><size:14>MultiCamera3ASyncDisabled</size></color>
      statsnode->camx_multistats: CAMX_NEW **NoSyncStatsOperator**
      camx_multistats->statsnode: return handler
    end
  statsnode->statsnode: return
  deactivate statsnode
statsnode->camxnode: return
deactivate statsnode

... ...
== <color:red><size:14> Awb</size></color> ==
camxnode->awbnode: PostPipelineCreate
activate awbnode #Chartreuse
  awbnode->awbnode: InitializeMultiStats
  note over awbnode
    multiStatsData.algoSyncType = <color:red><size:13>StatsAlgoSyncTypeAWB</size></color>
  end note
  activate awbnode #PaleGreen
    alt pStaticSettings->multiCamera3ASync == <color:red><size:14>MultiCamera3ASyncQTI</size></color>  <- - Default One
      awbnode->camx_multistats: CAMX_NEW **QTIMultiStatsOperator**
      camx_multistats->awbnode: return handler
    else pStaticSettings->multiCamera3ASync == <color:red><size:14>MultiCamera3ASyncSingleton</size></color>
      awbnode->camx_multistats: CAMX_NEW **SingletonStatsOperator**
      camx_multistats->awbnode: return handler
    else pStaticSettings->multiCamera3ASync == <color:red><size:14>MultiCamera3ASyncDisabled</size></color>
      awbnode->camx_multistats: CAMX_NEW **NoSyncStatsOperator**
      camx_multistats->awbnode: return handler
    end
  awbnode->awbnode: return
  deactivate awbnode
awbnode->camxnode: return
deactivate awbnode


@enduml

PlantUML version 1.2017.20(Tue Dec 12 00:57:05 CST 2017)
(GPL source distribution)
Java Runtime: Java(TM) SE Runtime Environment
JVM: Java HotSpot(TM) Client VM
Java Version: 1.8.0_171-b11
Operating System: Windows 10
OS Version: 10.0
Default Encoding: Cp1252
Language: en
Country: US
--></g></svg>