<?xml version="1.0" encoding="UTF-8" standalone="no"?><svg xmlns="http://www.w3.org/2000/svg" xmlns:xlink="http://www.w3.org/1999/xlink" contentScriptType="application/ecmascript" contentStyleType="text/css" height="892px" preserveAspectRatio="none" style="width:997px;height:892px;" version="1.1" viewBox="0 0 997 892" width="997px" zoomAndPan="magnify"><defs><filter height="300%" id="fokdwqirta8jv" width="300%" x="-1" y="-1"><feGaussianBlur result="blurOut" stdDeviation="2.0"/><feColorMatrix in="blurOut" result="blurOut2" type="matrix" values="0 0 0 0 0 0 0 0 0 0 0 0 0 0 0 0 0 0 .4 0"/><feOffset dx="4.0" dy="4.0" in="blurOut2" result="blurOut3"/><feBlend in="SourceGraphic" in2="blurOut3" mode="normal"/></filter></defs><g><text fill="#000000" font-family="sans-serif" font-size="16" font-weight="bold" lengthAdjust="spacingAndGlyphs" textLength="166" x="348" y="24.8516">af Peer data Trans</text><text fill="#000000" font-family="sans-serif" font-size="14" font-weight="bold" lengthAdjust="spacingAndGlyphs" textLength="0" x="519" y="25.3232"/><a target="_top" xlink:actuate="onRequest" xlink:href="https://confluence.qualcomm.com/confluence/display/3AWIDETELE/3A+Sync+Design" xlink:show="new" xlink:title="https://confluence.qualcomm.com/confluence/display/3AWIDETELE/3A+Sync+Design" xlink:type="simple"><text fill="#0000FF" font-family="sans-serif" font-size="14" font-weight="bold" lengthAdjust="spacingAndGlyphs" text-decoration="underline" textLength="121" x="519" y="25.3232">ReferencePage</text><line style="stroke: #0000FF; stroke-width: 1.0;" x1="519" x2="640" y1="27.3232" y2="27.3232"/></a><rect fill="#00FF00" filter="url(#fokdwqirta8jv)" height="272.4922" style="stroke: #A80036; stroke-width: 1.0;" width="10" x="175" y="146.2188"/><rect fill="#4169E1" filter="url(#fokdwqirta8jv)" height="172.0938" style="stroke: #A80036; stroke-width: 1.0;" width="10" x="377" y="217.4844"/><rect fill="#EE82EE" filter="url(#fokdwqirta8jv)" height="128.5313" style="stroke: #A80036; stroke-width: 1.0;" width="10" x="566" y="532.9453"/><rect fill="#EE82EE" filter="url(#fokdwqirta8jv)" height="58.2656" style="stroke: #A80036; stroke-width: 1.0;" width="10" x="566" y="775.7109"/><rect fill="#FFFFFF" filter="url(#fokdwqirta8jv)" height="85.3984" style="stroke: #000000; stroke-width: 2.0;" width="503" x="472" y="548.0781"/><line style="stroke: #A80036; stroke-width: 1.0;" x1="53" x2="53" y1="70.9219" y2="426.8438"/><line style="stroke: #A80036; stroke-width: 1.0; stroke-dasharray: 1.0,4.0;" x1="53" x2="53" y1="426.8438" y2="467.6484"/><line style="stroke: #A80036; stroke-width: 1.0;" x1="53" x2="53" y1="467.6484" y2="669.6094"/><line style="stroke: #A80036; stroke-width: 1.0; stroke-dasharray: 1.0,4.0;" x1="53" x2="53" y1="669.6094" y2="710.4141"/><line style="stroke: #A80036; stroke-width: 1.0;" x1="53" x2="53" y1="710.4141" y2="852.1094"/><line style="stroke: #A80036; stroke-width: 1.0;" x1="180" x2="180" y1="70.9219" y2="426.8438"/><line style="stroke: #A80036; stroke-width: 1.0; stroke-dasharray: 1.0,4.0;" x1="180" x2="180" y1="426.8438" y2="467.6484"/><line style="stroke: #A80036; stroke-width: 1.0;" x1="180" x2="180" y1="467.6484" y2="669.6094"/><line style="stroke: #A80036; stroke-width: 1.0; stroke-dasharray: 1.0,4.0;" x1="180" x2="180" y1="669.6094" y2="710.4141"/><line style="stroke: #A80036; stroke-width: 1.0;" x1="180" x2="180" y1="710.4141" y2="852.1094"/><line style="stroke: #A80036; stroke-width: 1.0;" x1="382" x2="382" y1="70.9219" y2="426.8438"/><line style="stroke: #A80036; stroke-width: 1.0; stroke-dasharray: 1.0,4.0;" x1="382" x2="382" y1="426.8438" y2="467.6484"/><line style="stroke: #A80036; stroke-width: 1.0;" x1="382" x2="382" y1="467.6484" y2="669.6094"/><line style="stroke: #A80036; stroke-width: 1.0; stroke-dasharray: 1.0,4.0;" x1="382" x2="382" y1="669.6094" y2="710.4141"/><line style="stroke: #A80036; stroke-width: 1.0;" x1="382" x2="382" y1="710.4141" y2="852.1094"/><line style="stroke: #A80036; stroke-width: 1.0;" x1="571" x2="571" y1="70.9219" y2="426.8438"/><line style="stroke: #A80036; stroke-width: 1.0; stroke-dasharray: 1.0,4.0;" x1="571" x2="571" y1="426.8438" y2="467.6484"/><line style="stroke: #A80036; stroke-width: 1.0;" x1="571" x2="571" y1="467.6484" y2="669.6094"/><line style="stroke: #A80036; stroke-width: 1.0; stroke-dasharray: 1.0,4.0;" x1="571" x2="571" y1="669.6094" y2="710.4141"/><line style="stroke: #A80036; stroke-width: 1.0;" x1="571" x2="571" y1="710.4141" y2="852.1094"/><line style="stroke: #A80036; stroke-width: 1.0;" x1="734" x2="734" y1="70.9219" y2="426.8438"/><line style="stroke: #A80036; stroke-width: 1.0; stroke-dasharray: 1.0,4.0;" x1="734" x2="734" y1="426.8438" y2="467.6484"/><line style="stroke: #A80036; stroke-width: 1.0;" x1="734" x2="734" y1="467.6484" y2="669.6094"/><line style="stroke: #A80036; stroke-width: 1.0; stroke-dasharray: 1.0,4.0;" x1="734" x2="734" y1="669.6094" y2="710.4141"/><line style="stroke: #A80036; stroke-width: 1.0;" x1="734" x2="734" y1="710.4141" y2="852.1094"/><rect fill="#FF0000" filter="url(#fokdwqirta8jv)" height="30.2969" style="stroke: #A80036; stroke-width: 1.5;" width="86" x="8" y="35.625"/><text fill="#000000" font-family="sans-serif" font-size="14" lengthAdjust="spacingAndGlyphs" textLength="72" x="15" y="55.6201">camxnode</text><rect fill="#FF0000" filter="url(#fokdwqirta8jv)" height="30.2969" style="stroke: #A80036; stroke-width: 1.5;" width="86" x="8" y="851.1094"/><text fill="#000000" font-family="sans-serif" font-size="14" lengthAdjust="spacingAndGlyphs" textLength="72" x="15" y="871.1045">camxnode</text><rect fill="#00FF00" filter="url(#fokdwqirta8jv)" height="30.2969" style="stroke: #A80036; stroke-width: 1.5;" width="62" x="147" y="35.625"/><text fill="#000000" font-family="sans-serif" font-size="14" lengthAdjust="spacingAndGlyphs" textLength="48" x="154" y="55.6201">afnode</text><rect fill="#00FF00" filter="url(#fokdwqirta8jv)" height="30.2969" style="stroke: #A80036; stroke-width: 1.5;" width="62" x="147" y="851.1094"/><text fill="#000000" font-family="sans-serif" font-size="14" lengthAdjust="spacingAndGlyphs" textLength="48" x="154" y="871.1045">afnode</text><rect fill="#4169E1" filter="url(#fokdwqirta8jv)" height="30.2969" style="stroke: #A80036; stroke-width: 1.5;" width="176" x="292" y="35.625"/><text fill="#000000" font-family="sans-serif" font-size="14" lengthAdjust="spacingAndGlyphs" textLength="162" x="299" y="55.6201">camxmultistatsoperator</text><rect fill="#4169E1" filter="url(#fokdwqirta8jv)" height="30.2969" style="stroke: #A80036; stroke-width: 1.5;" width="176" x="292" y="851.1094"/><text fill="#000000" font-family="sans-serif" font-size="14" lengthAdjust="spacingAndGlyphs" textLength="162" x="299" y="871.1045">camxmultistatsoperator</text><rect fill="#EE82EE" filter="url(#fokdwqirta8jv)" height="30.2969" style="stroke: #A80036; stroke-width: 1.5;" width="174" x="482" y="35.625"/><text fill="#000000" font-family="sans-serif" font-size="14" lengthAdjust="spacingAndGlyphs" textLength="160" x="489" y="55.6201">camxcafstatsprocessor</text><rect fill="#EE82EE" filter="url(#fokdwqirta8jv)" height="30.2969" style="stroke: #A80036; stroke-width: 1.5;" width="174" x="482" y="851.1094"/><text fill="#000000" font-family="sans-serif" font-size="14" lengthAdjust="spacingAndGlyphs" textLength="160" x="489" y="871.1045">camxcafstatsprocessor</text><rect fill="#FFFF00" filter="url(#fokdwqirta8jv)" height="30.2969" style="stroke: #A80036; stroke-width: 1.5;" width="102" x="681" y="35.625"/><text fill="#000000" font-family="sans-serif" font-size="14" lengthAdjust="spacingAndGlyphs" textLength="88" x="688" y="55.6201">camxcafioutil</text><rect fill="#FFFF00" filter="url(#fokdwqirta8jv)" height="30.2969" style="stroke: #A80036; stroke-width: 1.5;" width="102" x="681" y="851.1094"/><text fill="#000000" font-family="sans-serif" font-size="14" lengthAdjust="spacingAndGlyphs" textLength="88" x="688" y="871.1045">camxcafioutil</text><rect fill="#00FF00" filter="url(#fokdwqirta8jv)" height="272.4922" style="stroke: #A80036; stroke-width: 1.0;" width="10" x="175" y="146.2188"/><rect fill="#4169E1" filter="url(#fokdwqirta8jv)" height="172.0938" style="stroke: #A80036; stroke-width: 1.0;" width="10" x="377" y="217.4844"/><rect fill="#EE82EE" filter="url(#fokdwqirta8jv)" height="128.5313" style="stroke: #A80036; stroke-width: 1.0;" width="10" x="566" y="532.9453"/><rect fill="#EE82EE" filter="url(#fokdwqirta8jv)" height="58.2656" style="stroke: #A80036; stroke-width: 1.0;" width="10" x="566" y="775.7109"/><rect fill="#EEEEEE" filter="url(#fokdwqirta8jv)" height="3" style="stroke: #EEEEEE; stroke-width: 1.0;" width="982" x="3" y="102.0703"/><line style="stroke: #000000; stroke-width: 1.0;" x1="3" x2="985" y1="102.0703" y2="102.0703"/><line style="stroke: #000000; stroke-width: 1.0;" x1="3" x2="985" y1="105.0703" y2="105.0703"/><rect fill="#EEEEEE" filter="url(#fokdwqirta8jv)" height="24.2969" style="stroke: #000000; stroke-width: 2.0;" width="205" x="391.5" y="90.9219"/><text fill="#FF0000" font-family="sans-serif" font-size="14" font-weight="bold" lengthAdjust="spacingAndGlyphs" textLength="176" x="402.5" y="107.917">MultiStatsDependency</text><text fill="#000000" font-family="sans-serif" font-size="13" font-weight="bold" lengthAdjust="spacingAndGlyphs" textLength="0" x="588.5" y="108.1528"/><polygon fill="#A80036" points="163,142.2188,173,146.2188,163,150.2188,167,146.2188" style="stroke: #A80036; stroke-width: 1.0;"/><line style="stroke: #A80036; stroke-width: 1.0;" x1="3" x2="169" y1="146.2188" y2="146.2188"/><text fill="#000000" font-family="sans-serif" font-size="13" lengthAdjust="spacingAndGlyphs" textLength="153" x="10" y="141.2856">ExecuteProcessRequest</text><line style="stroke: #A80036; stroke-width: 1.0;" x1="185" x2="227" y1="175.4844" y2="175.4844"/><line style="stroke: #A80036; stroke-width: 1.0;" x1="227" x2="227" y1="175.4844" y2="188.4844"/><line style="stroke: #A80036; stroke-width: 1.0;" x1="186" x2="227" y1="188.4844" y2="188.4844"/><polygon fill="#A80036" points="196,184.4844,186,188.4844,196,192.4844,192,188.4844" style="stroke: #A80036; stroke-width: 1.0;"/><text fill="#000000" font-family="sans-serif" font-size="13" lengthAdjust="spacingAndGlyphs" textLength="178" x="192" y="170.4185">GetMultiStatsDependencies</text><polygon fill="#A80036" points="365,213.4844,375,217.4844,365,221.4844,369,217.4844" style="stroke: #A80036; stroke-width: 1.0;"/><line style="stroke: #A80036; stroke-width: 1.0;" x1="185" x2="371" y1="217.4844" y2="217.4844"/><text fill="#000000" font-family="sans-serif" font-size="13" lengthAdjust="spacingAndGlyphs" textLength="156" x="192" y="212.5513">UpdateStatsDependcies</text><line style="stroke: #A80036; stroke-width: 1.0;" x1="387" x2="429" y1="246.75" y2="246.75"/><line style="stroke: #A80036; stroke-width: 1.0;" x1="429" x2="429" y1="246.75" y2="259.75"/><line style="stroke: #A80036; stroke-width: 1.0;" x1="388" x2="429" y1="259.75" y2="259.75"/><polygon fill="#A80036" points="398,255.75,388,259.75,398,263.75,394,259.75" style="stroke: #A80036; stroke-width: 1.0;"/><text fill="#000000" font-family="sans-serif" font-size="13" lengthAdjust="spacingAndGlyphs" textLength="101" x="394" y="241.6841">ReadVendorTag</text><polygon fill="#FBFB77" filter="url(#fokdwqirta8jv)" points="245,272.75,245,358.75,514,358.75,514,282.75,504,272.75,245,272.75" style="stroke: #A80036; stroke-width: 1.0;"/><line style="stroke: #A80036; stroke-width: 1.0;" x1="504" x2="504" y1="272.75" y2="282.75"/><line style="stroke: #A80036; stroke-width: 1.0;" x1="514" x2="504" y1="282.75" y2="282.75"/><text fill="#000000" font-family="sans-serif" font-size="13" lengthAdjust="spacingAndGlyphs" textLength="248" x="251" y="289.8169">read Tag "com.qti.chi.multicamerainfo"</text><text fill="#000000" font-family="sans-serif" font-size="13" lengthAdjust="spacingAndGlyphs" textLength="0" x="255" y="304.9497"/><text fill="#000000" font-family="sans-serif" font-size="13" lengthAdjust="spacingAndGlyphs" textLength="43" x="251" y="320.0825">search</text><text fill="#FF0000" font-family="sans-serif" font-size="13" font-weight="bold" lengthAdjust="spacingAndGlyphs" textLength="152" x="298" y="320.0825">qtiDependencyTable</text><text fill="#000000" font-family="sans-serif" font-size="13" lengthAdjust="spacingAndGlyphs" textLength="207" x="251" y="335.2153">got the dependency info Tag like</text><text fill="#0000FF" font-family="sans-serif" font-size="14" lengthAdjust="spacingAndGlyphs" textLength="157" x="251" y="351.2764">PropertyIDAECPeerInfo</text><polygon fill="#A80036" points="196,385.5781,186,389.5781,196,393.5781,192,389.5781" style="stroke: #A80036; stroke-width: 1.0;"/><line style="stroke: #A80036; stroke-width: 1.0;" x1="190" x2="381" y1="389.5781" y2="389.5781"/><text fill="#000000" font-family="sans-serif" font-size="13" lengthAdjust="spacingAndGlyphs" textLength="39" x="202" y="384.645">return</text><polygon fill="#A80036" points="14,414.7109,4,418.7109,14,422.7109,10,418.7109" style="stroke: #A80036; stroke-width: 1.0;"/><line style="stroke: #A80036; stroke-width: 1.0;" x1="8" x2="179" y1="418.7109" y2="418.7109"/><text fill="#000000" font-family="sans-serif" font-size="13" lengthAdjust="spacingAndGlyphs" textLength="39" x="20" y="413.7778">return</text><text fill="#000000" font-family="sans-serif" font-size="11" lengthAdjust="spacingAndGlyphs" textLength="0" x="395.5" y="451.0542"/><rect fill="#EEEEEE" filter="url(#fokdwqirta8jv)" height="3" style="stroke: #EEEEEE; stroke-width: 1.0;" width="982" x="3" y="488.7969"/><line style="stroke: #000000; stroke-width: 1.0;" x1="3" x2="985" y1="488.7969" y2="488.7969"/><line style="stroke: #000000; stroke-width: 1.0;" x1="3" x2="985" y1="491.7969" y2="491.7969"/><rect fill="#EEEEEE" filter="url(#fokdwqirta8jv)" height="24.2969" style="stroke: #000000; stroke-width: 2.0;" width="215" x="386.5" y="477.6484"/><text fill="#FF0000" font-family="sans-serif" font-size="14" font-weight="bold" lengthAdjust="spacingAndGlyphs" textLength="186" x="397.5" y="494.6436">when af read peer data</text><text fill="#000000" font-family="sans-serif" font-size="13" font-weight="bold" lengthAdjust="spacingAndGlyphs" textLength="0" x="593.5" y="494.8794"/><polygon fill="#A80036" points="554,528.9453,564,532.9453,554,536.9453,558,532.9453" style="stroke: #A80036; stroke-width: 1.0;"/><line style="stroke: #A80036; stroke-width: 1.0;" x1="3" x2="560" y1="532.9453" y2="532.9453"/><text fill="#000000" font-family="sans-serif" font-size="13" lengthAdjust="spacingAndGlyphs" textLength="121" x="10" y="528.0122">ProcessSetParams</text><rect fill="none" height="85.3984" style="stroke: #000000; stroke-width: 2.0;" width="503" x="472" y="548.0781"/><polygon fill="#EEEEEE" points="472,548.0781,536,548.0781,536,555.0781,526,565.0781,472,565.0781,472,548.0781" style="stroke: #000000; stroke-width: 2.0;"/><text fill="#000000" font-family="sans-serif" font-size="13" font-weight="bold" lengthAdjust="spacingAndGlyphs" textLength="19" x="487" y="561.145">alt</text><text fill="#000000" font-family="sans-serif" font-size="11" font-weight="bold" lengthAdjust="spacingAndGlyphs" textLength="5" x="551" y="560.2886">[</text><text fill="#000000" font-family="sans-serif" font-size="11" font-weight="bold" lengthAdjust="spacingAndGlyphs" textLength="184" x="556" y="560.2886">TRUE == multiCameraEnable</text><text fill="#000000" font-family="sans-serif" font-size="11" font-weight="bold" lengthAdjust="spacingAndGlyphs" textLength="20" x="744" y="560.2886">&amp;&amp;</text><text fill="#000000" font-family="sans-serif" font-size="11" font-weight="bold" lengthAdjust="spacingAndGlyphs" textLength="197" x="768" y="560.2886">multiCamera3ASync != Disable</text><text fill="#000000" font-family="sans-serif" font-size="11" font-weight="bold" lengthAdjust="spacingAndGlyphs" textLength="5" x="965" y="560.2886">]</text><polygon fill="#A80036" points="722,582.2109,732,586.2109,722,590.2109,726,586.2109" style="stroke: #A80036; stroke-width: 1.0;"/><line style="stroke: #A80036; stroke-width: 1.0;" x1="576" x2="728" y1="586.2109" y2="586.2109"/><text fill="#000000" font-family="sans-serif" font-size="13" lengthAdjust="spacingAndGlyphs" textLength="75" x="583" y="581.2778">GetPeerInfo</text><polygon fill="#FBFB77" filter="url(#fokdwqirta8jv)" points="568,599.3438,568,624.3438,895,624.3438,895,609.3438,885,599.3438,568,599.3438" style="stroke: #A80036; stroke-width: 1.0;"/><line style="stroke: #A80036; stroke-width: 1.0;" x1="885" x2="885" y1="599.3438" y2="609.3438"/><line style="stroke: #A80036; stroke-width: 1.0;" x1="895" x2="885" y1="609.3438" y2="609.3438"/><text fill="#000000" font-family="sans-serif" font-size="13" lengthAdjust="spacingAndGlyphs" textLength="54" x="574" y="616.4106">then call</text><text fill="#FF0000" font-family="sans-serif" font-size="13" lengthAdjust="spacingAndGlyphs" textLength="132" x="632" y="616.4106">AFSetParamPeerInfo</text><text fill="#000000" font-family="sans-serif" font-size="13" lengthAdjust="spacingAndGlyphs" textLength="112" x="768" y="616.4106">and set to af algo</text><polygon fill="#A80036" points="14,657.4766,4,661.4766,14,665.4766,10,661.4766" style="stroke: #A80036; stroke-width: 1.0;"/><line style="stroke: #A80036; stroke-width: 1.0;" x1="8" x2="570" y1="661.4766" y2="661.4766"/><text fill="#000000" font-family="sans-serif" font-size="13" lengthAdjust="spacingAndGlyphs" textLength="39" x="20" y="656.5435">return</text><text fill="#000000" font-family="sans-serif" font-size="11" lengthAdjust="spacingAndGlyphs" textLength="0" x="395.5" y="693.8198"/><rect fill="#EEEEEE" filter="url(#fokdwqirta8jv)" height="3" style="stroke: #EEEEEE; stroke-width: 1.0;" width="982" x="3" y="731.5625"/><line style="stroke: #000000; stroke-width: 1.0;" x1="3" x2="985" y1="731.5625" y2="731.5625"/><line style="stroke: #000000; stroke-width: 1.0;" x1="3" x2="985" y1="734.5625" y2="734.5625"/><rect fill="#EEEEEE" filter="url(#fokdwqirta8jv)" height="24.2969" style="stroke: #000000; stroke-width: 2.0;" width="220" x="384" y="720.4141"/><text fill="#FF0000" font-family="sans-serif" font-size="14" font-weight="bold" lengthAdjust="spacingAndGlyphs" textLength="191" x="395" y="737.4092">when af write peer data</text><text fill="#000000" font-family="sans-serif" font-size="13" font-weight="bold" lengthAdjust="spacingAndGlyphs" textLength="0" x="596" y="737.645"/><polygon fill="#A80036" points="554,771.7109,564,775.7109,554,779.7109,558,775.7109" style="stroke: #A80036; stroke-width: 1.0;"/><line style="stroke: #A80036; stroke-width: 1.0;" x1="3" x2="560" y1="775.7109" y2="775.7109"/><text fill="#000000" font-family="sans-serif" font-size="13" lengthAdjust="spacingAndGlyphs" textLength="153" x="10" y="770.7778">ExecuteProcessRequest</text><polygon fill="#A80036" points="722,800.8438,732,804.8438,722,808.8438,726,804.8438" style="stroke: #A80036; stroke-width: 1.0;"/><line style="stroke: #A80036; stroke-width: 1.0;" x1="576" x2="728" y1="804.8438" y2="804.8438"/><text fill="#000000" font-family="sans-serif" font-size="13" lengthAdjust="spacingAndGlyphs" textLength="134" x="583" y="799.9106">PublishPeerFocusInfo</text><polygon fill="#A80036" points="14,829.9766,4,833.9766,14,837.9766,10,833.9766" style="stroke: #A80036; stroke-width: 1.0;"/><line style="stroke: #A80036; stroke-width: 1.0;" x1="8" x2="570" y1="833.9766" y2="833.9766"/><text fill="#000000" font-family="sans-serif" font-size="13" lengthAdjust="spacingAndGlyphs" textLength="39" x="20" y="829.0435">return</text><!--
@startuml
title <size:16>**af Peer data Trans**</size> [[https://confluence.qualcomm.com/confluence/display/3AWIDETELE/3A+Sync+Design ReferencePage]]

participant camxnode #ff0000
participant afnode #00ff00
participant camxmultistatsoperator as camx_multistats #RoyalBlue
participant camxcafstatsprocessor as camx_cafstats #Violet
participant camxcafioutil as camx_cafio #Yellow


== <color:red><size:14> MultiStatsDependency </size></color> ==
[->afnode: ExecuteProcessRequest
activate afnode #00ff00
  afnode->afnode: GetMultiStatsDependencies
  afnode->camx_multistats: UpdateStatsDependcies
  activate camx_multistats #royalblue
    camx_multistats->camx_multistats: ReadVendorTag
    note over camx_multistats
      read Tag "com.qti.chi.multicamerainfo"
      
      search <color:red>**qtiDependencyTable**</color>
      got the dependency info Tag like
      <color:blue><size:14>PropertyIDAECPeerInfo</size></color>
    end note

  camx_multistats->afnode: return
  deactivate camx_multistats
[<-afnode: return
deactivate afnode

... ...
== <color:red><size:14> when af read peer data </size></color> ==
[->camx_cafstats: ProcessSetParams
activate camx_cafstats #Violet
  alt **TRUE == multiCameraEnable** && **multiCamera3ASync != Disable**
    camx_cafstats->camx_cafio: GetPeerInfo
    note over camx_cafio: then call <color:red>AFSetParamPeerInfo</color> and set to af algo
  end

[<-camx_cafstats: return
deactivate camx_cafstats


... ...
== <color:red><size:14> when af write peer data </size></color> ==
[->camx_cafstats: ExecuteProcessRequest
activate camx_cafstats #violet
  camx_cafstats->camx_cafio: PublishPeerFocusInfo

[<-camx_cafstats: return
deactivate camx_cafstats

@enduml

PlantUML version 1.2017.20(Mon Dec 11 16:57:05 GMT 2017)
(GPL source distribution)
Java Runtime: OpenJDK Runtime Environment
JVM: OpenJDK 64-Bit Server VM
Java Version: 1.8.0_171-8u171-b11-0ubuntu0.16.04.1-b11
Operating System: Linux
OS Version: 4.4.0-43-Microsoft
Default Encoding: UTF-8
Language: en
Country: US
--></g></svg>