<?xml version="1.0" encoding="UTF-8" standalone="no"?><svg xmlns="http://www.w3.org/2000/svg" xmlns:xlink="http://www.w3.org/1999/xlink" contentScriptType="application/ecmascript" contentStyleType="text/css" height="296px" preserveAspectRatio="none" style="width:3223px;height:296px;" version="1.1" viewBox="0 0 3223 296" width="3223px" zoomAndPan="magnify"><defs><filter height="300%" id="filqclqaldfhp" width="300%" x="-1" y="-1"><feGaussianBlur result="blurOut" stdDeviation="2.0"/><feColorMatrix in="blurOut" result="blurOut2" type="matrix" values="0 0 0 0 0 0 0 0 0 0 0 0 0 0 0 0 0 0 .4 0"/><feOffset dx="4.0" dy="4.0" in="blurOut2" result="blurOut3"/><feBlend in="SourceGraphic" in2="blurOut3" mode="normal"/></filter></defs><g><text fill="#000000" font-family="sans-serif" font-size="18" lengthAdjust="spacingAndGlyphs" textLength="175" x="1530" y="16.708">camx aec class Arch</text><text fill="#000000" font-family="sans-serif" font-size="18" lengthAdjust="spacingAndGlyphs" textLength="54" x="1605.5" y="37.6611">Lin Jin</text><!--cluster <color:blue><size:15>**AECLumaCalculator**--><polygon fill="#FFFFFF" filter="url(#filqclqaldfhp)" points="22,65.9063,188,65.9063,195,89.3672,1776,89.3672,1776,284.9063,22,284.9063,22,65.9063" style="stroke: #000000; stroke-width: 1.5;"/><line style="stroke: #000000; stroke-width: 1.5;" x1="22" x2="195" y1="89.3672" y2="89.3672"/><text fill="#0000FF" font-family="sans-serif" font-size="15" font-weight="bold" lengthAdjust="spacingAndGlyphs" textLength="160" x="26" y="81.8296">AECLumaCalculator</text><!--cluster <color:blue><size:15>**AECTargetCalculator**--><polygon fill="#FFFFFF" filter="url(#filqclqaldfhp)" points="1800,71.4063,1974,71.4063,1981,94.8672,2469,94.8672,2469,284.9063,1800,284.9063,1800,71.4063" style="stroke: #000000; stroke-width: 1.5;"/><line style="stroke: #000000; stroke-width: 1.5;" x1="1800" x2="1981" y1="94.8672" y2="94.8672"/><text fill="#0000FF" font-family="sans-serif" font-size="15" font-weight="bold" lengthAdjust="spacingAndGlyphs" textLength="168" x="1804" y="87.3296">AECTargetCalculator</text><!--cluster <color:blue><size:15>**IAECContext**--><polygon fill="#FFFFFF" filter="url(#filqclqaldfhp)" points="3063,184.9063,3173,184.9063,3180,208.3672,3201,208.3672,3201,284.9063,3063,284.9063,3063,184.9063" style="stroke: #000000; stroke-width: 1.5;"/><line style="stroke: #000000; stroke-width: 1.5;" x1="3063" x2="3180" y1="208.3672" y2="208.3672"/><text fill="#0000FF" font-family="sans-serif" font-size="15" font-weight="bold" lengthAdjust="spacingAndGlyphs" textLength="104" x="3067" y="200.8296">IAECContext</text><!--cluster <color:blue><size:15>**CAECCoreDataManager**--><polygon fill="#FFFFFF" filter="url(#filqclqaldfhp)" points="2493,71.4063,2690,71.4063,2697,94.8672,3039,94.8672,3039,284.9063,2493,284.9063,2493,71.4063" style="stroke: #000000; stroke-width: 1.5;"/><line style="stroke: #000000; stroke-width: 1.5;" x1="2493" x2="2697" y1="94.8672" y2="94.8672"/><text fill="#0000FF" font-family="sans-serif" font-size="15" font-weight="bold" lengthAdjust="spacingAndGlyphs" textLength="191" x="2497" y="87.3296">CAECCoreDataManager</text><!--class IAECLumaCalculator--><rect fill="#FEFECE" filter="url(#filqclqaldfhp)" height="59.207" id="IAECLumaCalculator" style="stroke: #A80036; stroke-width: 1.5;" width="155" x="804.5" y="101.9063"/><ellipse cx="819.5" cy="117.9063" fill="#ADD1B2" rx="11" ry="11" style="stroke: #A80036; stroke-width: 1.0;"/><path d="M822.4688,123.5469 Q821.8906,123.8438 821.25,123.9922 Q820.6094,124.1406 819.9063,124.1406 Q817.4063,124.1406 816.0859,122.4922 Q814.7656,120.8438 814.7656,117.7188 Q814.7656,114.5938 816.0859,112.9375 Q817.4063,111.2813 819.9063,111.2813 Q820.6094,111.2813 821.2578,111.4375 Q821.9063,111.5938 822.4688,111.8906 L822.4688,114.6094 Q821.8438,114.0313 821.25,113.7578 Q820.6563,113.4844 820.0313,113.4844 Q818.6875,113.4844 818,114.5547 Q817.3125,115.625 817.3125,117.7188 Q817.3125,119.8125 818,120.8828 Q818.6875,121.9531 820.0313,121.9531 Q820.6563,121.9531 821.25,121.6797 Q821.8438,121.4063 822.4688,120.8281 L822.4688,123.5469 Z "/><text fill="#000000" font-family="sans-serif" font-size="12" lengthAdjust="spacingAndGlyphs" textLength="123" x="833.5" y="122.0605">IAECLumaCalculator</text><line style="stroke: #A80036; stroke-width: 1.5;" x1="805.5" x2="958.5" y1="133.9063" y2="133.9063"/><line style="stroke: #A80036; stroke-width: 1.5;" x1="805.5" x2="865.5" y1="148.3086" y2="148.3086"/><text fill="#000000" font-family="sans-serif" font-size="11" lengthAdjust="spacingAndGlyphs" textLength="33" x="865.5" y="151.6167">public</text><line style="stroke: #A80036; stroke-width: 1.5;" x1="898.5" x2="958.5" y1="148.3086" y2="148.3086"/><!--class CLuxLumaCalculator--><rect fill="#FEFECE" filter="url(#filqclqaldfhp)" height="48" id="CLuxLumaCalculator" style="stroke: #A80036; stroke-width: 1.5;" width="156" x="38" y="220.9063"/><ellipse cx="53" cy="236.9063" fill="#ADD1B2" rx="11" ry="11" style="stroke: #A80036; stroke-width: 1.0;"/><path d="M55.9688,242.5469 Q55.3906,242.8438 54.75,242.9922 Q54.1094,243.1406 53.4063,243.1406 Q50.9063,243.1406 49.5859,241.4922 Q48.2656,239.8438 48.2656,236.7188 Q48.2656,233.5938 49.5859,231.9375 Q50.9063,230.2813 53.4063,230.2813 Q54.1094,230.2813 54.7578,230.4375 Q55.4063,230.5938 55.9688,230.8906 L55.9688,233.6094 Q55.3438,233.0313 54.75,232.7578 Q54.1563,232.4844 53.5313,232.4844 Q52.1875,232.4844 51.5,233.5547 Q50.8125,234.625 50.8125,236.7188 Q50.8125,238.8125 51.5,239.8828 Q52.1875,240.9531 53.5313,240.9531 Q54.1563,240.9531 54.75,240.6797 Q55.3438,240.4063 55.9688,239.8281 L55.9688,242.5469 Z "/><text fill="#000000" font-family="sans-serif" font-size="12" lengthAdjust="spacingAndGlyphs" textLength="124" x="67" y="241.0605">CLuxLumaCalculator</text><line style="stroke: #A80036; stroke-width: 1.5;" x1="39" x2="193" y1="252.9063" y2="252.9063"/><line style="stroke: #A80036; stroke-width: 1.5;" x1="39" x2="193" y1="260.9063" y2="260.9063"/><!--class CPreflashLumaCalculator--><rect fill="#FEFECE" filter="url(#filqclqaldfhp)" height="48" id="CPreflashLumaCalculator" style="stroke: #A80036; stroke-width: 1.5;" width="187" x="229.5" y="220.9063"/><ellipse cx="244.5" cy="236.9063" fill="#ADD1B2" rx="11" ry="11" style="stroke: #A80036; stroke-width: 1.0;"/><path d="M247.4688,242.5469 Q246.8906,242.8438 246.25,242.9922 Q245.6094,243.1406 244.9063,243.1406 Q242.4063,243.1406 241.0859,241.4922 Q239.7656,239.8438 239.7656,236.7188 Q239.7656,233.5938 241.0859,231.9375 Q242.4063,230.2813 244.9063,230.2813 Q245.6094,230.2813 246.2578,230.4375 Q246.9063,230.5938 247.4688,230.8906 L247.4688,233.6094 Q246.8438,233.0313 246.25,232.7578 Q245.6563,232.4844 245.0313,232.4844 Q243.6875,232.4844 243,233.5547 Q242.3125,234.625 242.3125,236.7188 Q242.3125,238.8125 243,239.8828 Q243.6875,240.9531 245.0313,240.9531 Q245.6563,240.9531 246.25,240.6797 Q246.8438,240.4063 247.4688,239.8281 L247.4688,242.5469 Z "/><text fill="#000000" font-family="sans-serif" font-size="12" lengthAdjust="spacingAndGlyphs" textLength="155" x="258.5" y="241.0605">CPreflashLumaCalculator</text><line style="stroke: #A80036; stroke-width: 1.5;" x1="230.5" x2="415.5" y1="252.9063" y2="252.9063"/><line style="stroke: #A80036; stroke-width: 1.5;" x1="230.5" x2="415.5" y1="260.9063" y2="260.9063"/><!--class CDepthAssisLumaCalculator--><rect fill="#FEFECE" filter="url(#filqclqaldfhp)" height="48" id="CDepthAssisLumaCalculator" style="stroke: #A80036; stroke-width: 1.5;" width="206" x="452" y="220.9063"/><ellipse cx="467" cy="236.9063" fill="#ADD1B2" rx="11" ry="11" style="stroke: #A80036; stroke-width: 1.0;"/><path d="M469.9688,242.5469 Q469.3906,242.8438 468.75,242.9922 Q468.1094,243.1406 467.4063,243.1406 Q464.9063,243.1406 463.5859,241.4922 Q462.2656,239.8438 462.2656,236.7188 Q462.2656,233.5938 463.5859,231.9375 Q464.9063,230.2813 467.4063,230.2813 Q468.1094,230.2813 468.7578,230.4375 Q469.4063,230.5938 469.9688,230.8906 L469.9688,233.6094 Q469.3438,233.0313 468.75,232.7578 Q468.1563,232.4844 467.5313,232.4844 Q466.1875,232.4844 465.5,233.5547 Q464.8125,234.625 464.8125,236.7188 Q464.8125,238.8125 465.5,239.8828 Q466.1875,240.9531 467.5313,240.9531 Q468.1563,240.9531 468.75,240.6797 Q469.3438,240.4063 469.9688,239.8281 L469.9688,242.5469 Z "/><text fill="#000000" font-family="sans-serif" font-size="12" lengthAdjust="spacingAndGlyphs" textLength="174" x="481" y="241.0605">CDepthAssisLumaCalculator</text><line style="stroke: #A80036; stroke-width: 1.5;" x1="453" x2="657" y1="252.9063" y2="252.9063"/><line style="stroke: #A80036; stroke-width: 1.5;" x1="453" x2="657" y1="260.9063" y2="260.9063"/><!--class CTouchLumaCalculator--><rect fill="#FEFECE" filter="url(#filqclqaldfhp)" height="48" id="CTouchLumaCalculator" style="stroke: #A80036; stroke-width: 1.5;" width="174" x="693" y="220.9063"/><ellipse cx="708" cy="236.9063" fill="#ADD1B2" rx="11" ry="11" style="stroke: #A80036; stroke-width: 1.0;"/><path d="M710.9688,242.5469 Q710.3906,242.8438 709.75,242.9922 Q709.1094,243.1406 708.4063,243.1406 Q705.9063,243.1406 704.5859,241.4922 Q703.2656,239.8438 703.2656,236.7188 Q703.2656,233.5938 704.5859,231.9375 Q705.9063,230.2813 708.4063,230.2813 Q709.1094,230.2813 709.7578,230.4375 Q710.4063,230.5938 710.9688,230.8906 L710.9688,233.6094 Q710.3438,233.0313 709.75,232.7578 Q709.1563,232.4844 708.5313,232.4844 Q707.1875,232.4844 706.5,233.5547 Q705.8125,234.625 705.8125,236.7188 Q705.8125,238.8125 706.5,239.8828 Q707.1875,240.9531 708.5313,240.9531 Q709.1563,240.9531 709.75,240.6797 Q710.3438,240.4063 710.9688,239.8281 L710.9688,242.5469 Z "/><text fill="#000000" font-family="sans-serif" font-size="12" lengthAdjust="spacingAndGlyphs" textLength="142" x="722" y="241.0605">CTouchLumaCalculator</text><line style="stroke: #A80036; stroke-width: 1.5;" x1="694" x2="866" y1="252.9063" y2="252.9063"/><line style="stroke: #A80036; stroke-width: 1.5;" x1="694" x2="866" y1="260.9063" y2="260.9063"/><!--class CFaceLumaCalculator--><rect fill="#FEFECE" filter="url(#filqclqaldfhp)" height="48" id="CFaceLumaCalculator" style="stroke: #A80036; stroke-width: 1.5;" width="166" x="902" y="220.9063"/><ellipse cx="917" cy="236.9063" fill="#ADD1B2" rx="11" ry="11" style="stroke: #A80036; stroke-width: 1.0;"/><path d="M919.9688,242.5469 Q919.3906,242.8438 918.75,242.9922 Q918.1094,243.1406 917.4063,243.1406 Q914.9063,243.1406 913.5859,241.4922 Q912.2656,239.8438 912.2656,236.7188 Q912.2656,233.5938 913.5859,231.9375 Q914.9063,230.2813 917.4063,230.2813 Q918.1094,230.2813 918.7578,230.4375 Q919.4063,230.5938 919.9688,230.8906 L919.9688,233.6094 Q919.3438,233.0313 918.75,232.7578 Q918.1563,232.4844 917.5313,232.4844 Q916.1875,232.4844 915.5,233.5547 Q914.8125,234.625 914.8125,236.7188 Q914.8125,238.8125 915.5,239.8828 Q916.1875,240.9531 917.5313,240.9531 Q918.1563,240.9531 918.75,240.6797 Q919.3438,240.4063 919.9688,239.8281 L919.9688,242.5469 Z "/><text fill="#000000" font-family="sans-serif" font-size="12" lengthAdjust="spacingAndGlyphs" textLength="134" x="931" y="241.0605">CFaceLumaCalculator</text><line style="stroke: #A80036; stroke-width: 1.5;" x1="903" x2="1067" y1="252.9063" y2="252.9063"/><line style="stroke: #A80036; stroke-width: 1.5;" x1="903" x2="1067" y1="260.9063" y2="260.9063"/><!--class CDiagLumaCalculator--><rect fill="#FEFECE" filter="url(#filqclqaldfhp)" height="48" id="CDiagLumaCalculator" style="stroke: #A80036; stroke-width: 1.5;" width="164" x="1103" y="220.9063"/><ellipse cx="1118" cy="236.9063" fill="#ADD1B2" rx="11" ry="11" style="stroke: #A80036; stroke-width: 1.0;"/><path d="M1120.9688,242.5469 Q1120.3906,242.8438 1119.75,242.9922 Q1119.1094,243.1406 1118.4063,243.1406 Q1115.9063,243.1406 1114.5859,241.4922 Q1113.2656,239.8438 1113.2656,236.7188 Q1113.2656,233.5938 1114.5859,231.9375 Q1115.9063,230.2813 1118.4063,230.2813 Q1119.1094,230.2813 1119.7578,230.4375 Q1120.4063,230.5938 1120.9688,230.8906 L1120.9688,233.6094 Q1120.3438,233.0313 1119.75,232.7578 Q1119.1563,232.4844 1118.5313,232.4844 Q1117.1875,232.4844 1116.5,233.5547 Q1115.8125,234.625 1115.8125,236.7188 Q1115.8125,238.8125 1116.5,239.8828 Q1117.1875,240.9531 1118.5313,240.9531 Q1119.1563,240.9531 1119.75,240.6797 Q1120.3438,240.4063 1120.9688,239.8281 L1120.9688,242.5469 Z "/><text fill="#000000" font-family="sans-serif" font-size="12" lengthAdjust="spacingAndGlyphs" textLength="132" x="1132" y="241.0605">CDiagLumaCalculator</text><line style="stroke: #A80036; stroke-width: 1.5;" x1="1104" x2="1266" y1="252.9063" y2="252.9063"/><line style="stroke: #A80036; stroke-width: 1.5;" x1="1104" x2="1266" y1="260.9063" y2="260.9063"/><!--class FlashMeasurementLumaCalculator--><rect fill="#FEFECE" filter="url(#filqclqaldfhp)" height="48" id="FlashMeasurementLumaCalculator" style="stroke: #A80036; stroke-width: 1.5;" width="247" x="1302.5" y="220.9063"/><ellipse cx="1317.5" cy="236.9063" fill="#ADD1B2" rx="11" ry="11" style="stroke: #A80036; stroke-width: 1.0;"/><path d="M1320.4688,242.5469 Q1319.8906,242.8438 1319.25,242.9922 Q1318.6094,243.1406 1317.9063,243.1406 Q1315.4063,243.1406 1314.0859,241.4922 Q1312.7656,239.8438 1312.7656,236.7188 Q1312.7656,233.5938 1314.0859,231.9375 Q1315.4063,230.2813 1317.9063,230.2813 Q1318.6094,230.2813 1319.2578,230.4375 Q1319.9063,230.5938 1320.4688,230.8906 L1320.4688,233.6094 Q1319.8438,233.0313 1319.25,232.7578 Q1318.6563,232.4844 1318.0313,232.4844 Q1316.6875,232.4844 1316,233.5547 Q1315.3125,234.625 1315.3125,236.7188 Q1315.3125,238.8125 1316,239.8828 Q1316.6875,240.9531 1318.0313,240.9531 Q1318.6563,240.9531 1319.25,240.6797 Q1319.8438,240.4063 1320.4688,239.8281 L1320.4688,242.5469 Z "/><text fill="#000000" font-family="sans-serif" font-size="12" lengthAdjust="spacingAndGlyphs" textLength="215" x="1331.5" y="241.0605">FlashMeasurementLumaCalculator</text><line style="stroke: #A80036; stroke-width: 1.5;" x1="1303.5" x2="1548.5" y1="252.9063" y2="252.9063"/><line style="stroke: #A80036; stroke-width: 1.5;" x1="1303.5" x2="1548.5" y1="260.9063" y2="260.9063"/><!--class CFrameLumaCalculator--><rect fill="#FEFECE" filter="url(#filqclqaldfhp)" height="48" id="CFrameLumaCalculator" style="stroke: #A80036; stroke-width: 1.5;" width="175" x="1584.5" y="220.9063"/><ellipse cx="1599.5" cy="236.9063" fill="#ADD1B2" rx="11" ry="11" style="stroke: #A80036; stroke-width: 1.0;"/><path d="M1602.4688,242.5469 Q1601.8906,242.8438 1601.25,242.9922 Q1600.6094,243.1406 1599.9063,243.1406 Q1597.4063,243.1406 1596.0859,241.4922 Q1594.7656,239.8438 1594.7656,236.7188 Q1594.7656,233.5938 1596.0859,231.9375 Q1597.4063,230.2813 1599.9063,230.2813 Q1600.6094,230.2813 1601.2578,230.4375 Q1601.9063,230.5938 1602.4688,230.8906 L1602.4688,233.6094 Q1601.8438,233.0313 1601.25,232.7578 Q1600.6563,232.4844 1600.0313,232.4844 Q1598.6875,232.4844 1598,233.5547 Q1597.3125,234.625 1597.3125,236.7188 Q1597.3125,238.8125 1598,239.8828 Q1598.6875,240.9531 1600.0313,240.9531 Q1600.6563,240.9531 1601.25,240.6797 Q1601.8438,240.4063 1602.4688,239.8281 L1602.4688,242.5469 Z "/><text fill="#000000" font-family="sans-serif" font-size="12" lengthAdjust="spacingAndGlyphs" textLength="143" x="1613.5" y="241.0605">CFrameLumaCalculator</text><line style="stroke: #A80036; stroke-width: 1.5;" x1="1585.5" x2="1758.5" y1="252.9063" y2="252.9063"/><line style="stroke: #A80036; stroke-width: 1.5;" x1="1585.5" x2="1758.5" y1="260.9063" y2="260.9063"/><!--class IAECTargetCalculator--><rect fill="#FEFECE" filter="url(#filqclqaldfhp)" height="48" id="IAECTargetCalculator" style="stroke: #A80036; stroke-width: 1.5;" width="163" x="2046.5" y="107.4063"/><ellipse cx="2061.5" cy="123.4063" fill="#ADD1B2" rx="11" ry="11" style="stroke: #A80036; stroke-width: 1.0;"/><path d="M2064.4688,129.0469 Q2063.8906,129.3438 2063.25,129.4922 Q2062.6094,129.6406 2061.9063,129.6406 Q2059.4063,129.6406 2058.0859,127.9922 Q2056.7656,126.3438 2056.7656,123.2188 Q2056.7656,120.0938 2058.0859,118.4375 Q2059.4063,116.7813 2061.9063,116.7813 Q2062.6094,116.7813 2063.2578,116.9375 Q2063.9063,117.0938 2064.4688,117.3906 L2064.4688,120.1094 Q2063.8438,119.5313 2063.25,119.2578 Q2062.6563,118.9844 2062.0313,118.9844 Q2060.6875,118.9844 2060,120.0547 Q2059.3125,121.125 2059.3125,123.2188 Q2059.3125,125.3125 2060,126.3828 Q2060.6875,127.4531 2062.0313,127.4531 Q2062.6563,127.4531 2063.25,127.1797 Q2063.8438,126.9063 2064.4688,126.3281 L2064.4688,129.0469 Z "/><text fill="#000000" font-family="sans-serif" font-size="12" lengthAdjust="spacingAndGlyphs" textLength="131" x="2075.5" y="127.5605">IAECTargetCalculator</text><line style="stroke: #A80036; stroke-width: 1.5;" x1="2047.5" x2="2208.5" y1="139.4063" y2="139.4063"/><line style="stroke: #A80036; stroke-width: 1.5;" x1="2047.5" x2="2208.5" y1="147.4063" y2="147.4063"/><!--class CExtrmClrTargetCalculator--><rect fill="#FEFECE" filter="url(#filqclqaldfhp)" height="48" id="CExtrmClrTargetCalculator" style="stroke: #A80036; stroke-width: 1.5;" width="195" x="1815.5" y="220.9063"/><ellipse cx="1830.5" cy="236.9063" fill="#ADD1B2" rx="11" ry="11" style="stroke: #A80036; stroke-width: 1.0;"/><path d="M1833.4688,242.5469 Q1832.8906,242.8438 1832.25,242.9922 Q1831.6094,243.1406 1830.9063,243.1406 Q1828.4063,243.1406 1827.0859,241.4922 Q1825.7656,239.8438 1825.7656,236.7188 Q1825.7656,233.5938 1827.0859,231.9375 Q1828.4063,230.2813 1830.9063,230.2813 Q1831.6094,230.2813 1832.2578,230.4375 Q1832.9063,230.5938 1833.4688,230.8906 L1833.4688,233.6094 Q1832.8438,233.0313 1832.25,232.7578 Q1831.6563,232.4844 1831.0313,232.4844 Q1829.6875,232.4844 1829,233.5547 Q1828.3125,234.625 1828.3125,236.7188 Q1828.3125,238.8125 1829,239.8828 Q1829.6875,240.9531 1831.0313,240.9531 Q1831.6563,240.9531 1832.25,240.6797 Q1832.8438,240.4063 1833.4688,239.8281 L1833.4688,242.5469 Z "/><text fill="#000000" font-family="sans-serif" font-size="12" lengthAdjust="spacingAndGlyphs" textLength="163" x="1844.5" y="241.0605">CExtrmClrTargetCalculator</text><line style="stroke: #A80036; stroke-width: 1.5;" x1="1816.5" x2="2009.5" y1="252.9063" y2="252.9063"/><line style="stroke: #A80036; stroke-width: 1.5;" x1="1816.5" x2="2009.5" y1="260.9063" y2="260.9063"/><!--class CLuxTargetCalculator--><rect fill="#FEFECE" filter="url(#filqclqaldfhp)" height="48" id="CLuxTargetCalculator" style="stroke: #A80036; stroke-width: 1.5;" width="164" x="2046" y="220.9063"/><ellipse cx="2061" cy="236.9063" fill="#ADD1B2" rx="11" ry="11" style="stroke: #A80036; stroke-width: 1.0;"/><path d="M2063.9688,242.5469 Q2063.3906,242.8438 2062.75,242.9922 Q2062.1094,243.1406 2061.4063,243.1406 Q2058.9063,243.1406 2057.5859,241.4922 Q2056.2656,239.8438 2056.2656,236.7188 Q2056.2656,233.5938 2057.5859,231.9375 Q2058.9063,230.2813 2061.4063,230.2813 Q2062.1094,230.2813 2062.7578,230.4375 Q2063.4063,230.5938 2063.9688,230.8906 L2063.9688,233.6094 Q2063.3438,233.0313 2062.75,232.7578 Q2062.1563,232.4844 2061.5313,232.4844 Q2060.1875,232.4844 2059.5,233.5547 Q2058.8125,234.625 2058.8125,236.7188 Q2058.8125,238.8125 2059.5,239.8828 Q2060.1875,240.9531 2061.5313,240.9531 Q2062.1563,240.9531 2062.75,240.6797 Q2063.3438,240.4063 2063.9688,239.8281 L2063.9688,242.5469 Z "/><text fill="#000000" font-family="sans-serif" font-size="12" lengthAdjust="spacingAndGlyphs" textLength="132" x="2075" y="241.0605">CLuxTargetCalculator</text><line style="stroke: #A80036; stroke-width: 1.5;" x1="2047" x2="2209" y1="252.9063" y2="252.9063"/><line style="stroke: #A80036; stroke-width: 1.5;" x1="2047" x2="2209" y1="260.9063" y2="260.9063"/><!--class CHistogramTargetCalculator--><rect fill="#FEFECE" filter="url(#filqclqaldfhp)" height="48" id="CHistogramTargetCalculator" style="stroke: #A80036; stroke-width: 1.5;" width="208" x="2245" y="220.9063"/><ellipse cx="2260" cy="236.9063" fill="#ADD1B2" rx="11" ry="11" style="stroke: #A80036; stroke-width: 1.0;"/><path d="M2262.9688,242.5469 Q2262.3906,242.8438 2261.75,242.9922 Q2261.1094,243.1406 2260.4063,243.1406 Q2257.9063,243.1406 2256.5859,241.4922 Q2255.2656,239.8438 2255.2656,236.7188 Q2255.2656,233.5938 2256.5859,231.9375 Q2257.9063,230.2813 2260.4063,230.2813 Q2261.1094,230.2813 2261.7578,230.4375 Q2262.4063,230.5938 2262.9688,230.8906 L2262.9688,233.6094 Q2262.3438,233.0313 2261.75,232.7578 Q2261.1563,232.4844 2260.5313,232.4844 Q2259.1875,232.4844 2258.5,233.5547 Q2257.8125,234.625 2257.8125,236.7188 Q2257.8125,238.8125 2258.5,239.8828 Q2259.1875,240.9531 2260.5313,240.9531 Q2261.1563,240.9531 2261.75,240.6797 Q2262.3438,240.4063 2262.9688,239.8281 L2262.9688,242.5469 Z "/><text fill="#000000" font-family="sans-serif" font-size="12" lengthAdjust="spacingAndGlyphs" textLength="176" x="2274" y="241.0605">CHistogramTargetCalculator</text><line style="stroke: #A80036; stroke-width: 1.5;" x1="2246" x2="2452" y1="252.9063" y2="252.9063"/><line style="stroke: #A80036; stroke-width: 1.5;" x1="2246" x2="2452" y1="260.9063" y2="260.9063"/><!--class IAECContext--><rect fill="#FEFECE" filter="url(#filqclqaldfhp)" height="48" id="IAECContext" style="stroke: #A80036; stroke-width: 1.5;" width="107" x="3078.5" y="220.9063"/><ellipse cx="3093.5" cy="236.9063" fill="#ADD1B2" rx="11" ry="11" style="stroke: #A80036; stroke-width: 1.0;"/><path d="M3096.4688,242.5469 Q3095.8906,242.8438 3095.25,242.9922 Q3094.6094,243.1406 3093.9063,243.1406 Q3091.4063,243.1406 3090.0859,241.4922 Q3088.7656,239.8438 3088.7656,236.7188 Q3088.7656,233.5938 3090.0859,231.9375 Q3091.4063,230.2813 3093.9063,230.2813 Q3094.6094,230.2813 3095.2578,230.4375 Q3095.9063,230.5938 3096.4688,230.8906 L3096.4688,233.6094 Q3095.8438,233.0313 3095.25,232.7578 Q3094.6563,232.4844 3094.0313,232.4844 Q3092.6875,232.4844 3092,233.5547 Q3091.3125,234.625 3091.3125,236.7188 Q3091.3125,238.8125 3092,239.8828 Q3092.6875,240.9531 3094.0313,240.9531 Q3094.6563,240.9531 3095.25,240.6797 Q3095.8438,240.4063 3096.4688,239.8281 L3096.4688,242.5469 Z "/><text fill="#000000" font-family="sans-serif" font-size="12" lengthAdjust="spacingAndGlyphs" textLength="75" x="3107.5" y="241.0605">IAECContext</text><line style="stroke: #A80036; stroke-width: 1.5;" x1="3079.5" x2="3184.5" y1="252.9063" y2="252.9063"/><line style="stroke: #A80036; stroke-width: 1.5;" x1="3079.5" x2="3184.5" y1="260.9063" y2="260.9063"/><!--class CAECCoreDataManager--><rect fill="#FEFECE" filter="url(#filqclqaldfhp)" height="48" id="CAECCoreDataManager" style="stroke: #A80036; stroke-width: 1.5;" width="178" x="2759" y="107.4063"/><ellipse cx="2774" cy="123.4063" fill="#ADD1B2" rx="11" ry="11" style="stroke: #A80036; stroke-width: 1.0;"/><path d="M2776.9688,129.0469 Q2776.3906,129.3438 2775.75,129.4922 Q2775.1094,129.6406 2774.4063,129.6406 Q2771.9063,129.6406 2770.5859,127.9922 Q2769.2656,126.3438 2769.2656,123.2188 Q2769.2656,120.0938 2770.5859,118.4375 Q2771.9063,116.7813 2774.4063,116.7813 Q2775.1094,116.7813 2775.7578,116.9375 Q2776.4063,117.0938 2776.9688,117.3906 L2776.9688,120.1094 Q2776.3438,119.5313 2775.75,119.2578 Q2775.1563,118.9844 2774.5313,118.9844 Q2773.1875,118.9844 2772.5,120.0547 Q2771.8125,121.125 2771.8125,123.2188 Q2771.8125,125.3125 2772.5,126.3828 Q2773.1875,127.4531 2774.5313,127.4531 Q2775.1563,127.4531 2775.75,127.1797 Q2776.3438,126.9063 2776.9688,126.3281 L2776.9688,129.0469 Z "/><text fill="#000000" font-family="sans-serif" font-size="12" lengthAdjust="spacingAndGlyphs" textLength="146" x="2788" y="127.5605">CAECCoreDataManager</text><line style="stroke: #A80036; stroke-width: 1.5;" x1="2760" x2="2936" y1="139.4063" y2="139.4063"/><line style="stroke: #A80036; stroke-width: 1.5;" x1="2760" x2="2936" y1="147.4063" y2="147.4063"/><!--class IMeteringCallback--><rect fill="#FEFECE" filter="url(#filqclqaldfhp)" height="48" id="IMeteringCallback" style="stroke: #A80036; stroke-width: 1.5;" width="142" x="2509" y="220.9063"/><ellipse cx="2524" cy="236.9063" fill="#ADD1B2" rx="11" ry="11" style="stroke: #A80036; stroke-width: 1.0;"/><path d="M2526.9688,242.5469 Q2526.3906,242.8438 2525.75,242.9922 Q2525.1094,243.1406 2524.4063,243.1406 Q2521.9063,243.1406 2520.5859,241.4922 Q2519.2656,239.8438 2519.2656,236.7188 Q2519.2656,233.5938 2520.5859,231.9375 Q2521.9063,230.2813 2524.4063,230.2813 Q2525.1094,230.2813 2525.7578,230.4375 Q2526.4063,230.5938 2526.9688,230.8906 L2526.9688,233.6094 Q2526.3438,233.0313 2525.75,232.7578 Q2525.1563,232.4844 2524.5313,232.4844 Q2523.1875,232.4844 2522.5,233.5547 Q2521.8125,234.625 2521.8125,236.7188 Q2521.8125,238.8125 2522.5,239.8828 Q2523.1875,240.9531 2524.5313,240.9531 Q2525.1563,240.9531 2525.75,240.6797 Q2526.3438,240.4063 2526.9688,239.8281 L2526.9688,242.5469 Z "/><text fill="#000000" font-family="sans-serif" font-size="12" lengthAdjust="spacingAndGlyphs" textLength="110" x="2538" y="241.0605">IMeteringCallback</text><line style="stroke: #A80036; stroke-width: 1.5;" x1="2510" x2="2650" y1="252.9063" y2="252.9063"/><line style="stroke: #A80036; stroke-width: 1.5;" x1="2510" x2="2650" y1="260.9063" y2="260.9063"/><!--class IArbitrationCallback--><rect fill="#FEFECE" filter="url(#filqclqaldfhp)" height="48" id="IArbitrationCallback" style="stroke: #A80036; stroke-width: 1.5;" width="153" x="2686.5" y="220.9063"/><ellipse cx="2701.5" cy="236.9063" fill="#ADD1B2" rx="11" ry="11" style="stroke: #A80036; stroke-width: 1.0;"/><path d="M2704.4688,242.5469 Q2703.8906,242.8438 2703.25,242.9922 Q2702.6094,243.1406 2701.9063,243.1406 Q2699.4063,243.1406 2698.0859,241.4922 Q2696.7656,239.8438 2696.7656,236.7188 Q2696.7656,233.5938 2698.0859,231.9375 Q2699.4063,230.2813 2701.9063,230.2813 Q2702.6094,230.2813 2703.2578,230.4375 Q2703.9063,230.5938 2704.4688,230.8906 L2704.4688,233.6094 Q2703.8438,233.0313 2703.25,232.7578 Q2702.6563,232.4844 2702.0313,232.4844 Q2700.6875,232.4844 2700,233.5547 Q2699.3125,234.625 2699.3125,236.7188 Q2699.3125,238.8125 2700,239.8828 Q2700.6875,240.9531 2702.0313,240.9531 Q2702.6563,240.9531 2703.25,240.6797 Q2703.8438,240.4063 2704.4688,239.8281 L2704.4688,242.5469 Z "/><text fill="#000000" font-family="sans-serif" font-size="12" lengthAdjust="spacingAndGlyphs" textLength="121" x="2715.5" y="241.0605">IArbitrationCallback</text><line style="stroke: #A80036; stroke-width: 1.5;" x1="2687.5" x2="2838.5" y1="252.9063" y2="252.9063"/><line style="stroke: #A80036; stroke-width: 1.5;" x1="2687.5" x2="2838.5" y1="260.9063" y2="260.9063"/><!--class IExtensionCallback--><rect fill="#FEFECE" filter="url(#filqclqaldfhp)" height="48" id="IExtensionCallback" style="stroke: #A80036; stroke-width: 1.5;" width="148" x="2875" y="220.9063"/><ellipse cx="2890" cy="236.9063" fill="#ADD1B2" rx="11" ry="11" style="stroke: #A80036; stroke-width: 1.0;"/><path d="M2892.9688,242.5469 Q2892.3906,242.8438 2891.75,242.9922 Q2891.1094,243.1406 2890.4063,243.1406 Q2887.9063,243.1406 2886.5859,241.4922 Q2885.2656,239.8438 2885.2656,236.7188 Q2885.2656,233.5938 2886.5859,231.9375 Q2887.9063,230.2813 2890.4063,230.2813 Q2891.1094,230.2813 2891.7578,230.4375 Q2892.4063,230.5938 2892.9688,230.8906 L2892.9688,233.6094 Q2892.3438,233.0313 2891.75,232.7578 Q2891.1563,232.4844 2890.5313,232.4844 Q2889.1875,232.4844 2888.5,233.5547 Q2887.8125,234.625 2887.8125,236.7188 Q2887.8125,238.8125 2888.5,239.8828 Q2889.1875,240.9531 2890.5313,240.9531 Q2891.1563,240.9531 2891.75,240.6797 Q2892.3438,240.4063 2892.9688,239.8281 L2892.9688,242.5469 Z "/><text fill="#000000" font-family="sans-serif" font-size="12" lengthAdjust="spacingAndGlyphs" textLength="116" x="2904" y="241.0605">IExtensionCallback</text><line style="stroke: #A80036; stroke-width: 1.5;" x1="2876" x2="3022" y1="252.9063" y2="252.9063"/><line style="stroke: #A80036; stroke-width: 1.5;" x1="2876" x2="3022" y1="260.9063" y2="260.9063"/><!--link IAECLumaCalculator to CLuxLumaCalculator--><path d="M784.147,132.4923 C624.313,133.7023 314.734,140.8173 212,176.9063 C185.346,186.2693 159.334,205.2176 141.125,220.5814 " fill="none" id="IAECLumaCalculator-CLuxLumaCalculator" style="stroke: #A80036; stroke-width: 1.0;"/><polygon fill="none" points="784.228,125.4923,804.271,132.3653,784.316,139.4913,784.228,125.4923" style="stroke: #A80036; stroke-width: 1.0;"/><!--link IAECLumaCalculator to CPreflashLumaCalculator--><path d="M784.091,137.0863 C672.29,143.3153 496.752,156.0383 434,176.9063 C404.311,186.7793 374.138,205.6833 352.759,220.9006 " fill="none" id="IAECLumaCalculator-CPreflashLumaCalculator" style="stroke: #A80036; stroke-width: 1.0;"/><polygon fill="none" points="783.834,130.0903,804.183,135.9983,784.591,144.0693,783.834,130.0903" style="stroke: #A80036; stroke-width: 1.0;"/><!--link IAECLumaCalculator to CDepthAssisLumaCalculator--><path d="M784.162,147.2453 C749.077,154.1733 709.647,163.8453 675,176.9063 C644.859,188.2683 613.136,206.279 589.882,220.7666 " fill="none" id="IAECLumaCalculator-CDepthAssisLumaCalculator" style="stroke: #A80036; stroke-width: 1.0;"/><polygon fill="none" points="783.301,140.2853,804.249,143.4783,785.882,154.0453,783.301,140.2853" style="stroke: #A80036; stroke-width: 1.0;"/><!--link IAECLumaCalculator to CTouchLumaCalculator--><path d="M841.805,176.3453 C827.871,191.5773 812.808,208.0425 801.042,220.9048 " fill="none" id="IAECLumaCalculator-CTouchLumaCalculator" style="stroke: #A80036; stroke-width: 1.0;"/><polygon fill="none" points="837.068,171.1523,855.732,161.1203,847.398,180.6023,837.068,171.1523" style="stroke: #A80036; stroke-width: 1.0;"/><!--link IAECLumaCalculator to CFaceLumaCalculator--><path d="M922.145,175.8643 C936.34,191.2303 951.745,207.9071 963.752,220.9048 " fill="none" id="IAECLumaCalculator-CFaceLumaCalculator" style="stroke: #A80036; stroke-width: 1.0;"/><polygon fill="none" points="916.954,180.5613,908.525,161.1203,927.238,171.0613,916.954,180.5613" style="stroke: #A80036; stroke-width: 1.0;"/><!--link IAECLumaCalculator to CDiagLumaCalculator--><path d="M979.89,146.1923 C1014.01,152.9823 1052,162.8353 1085,176.9063 C1111.14,188.0533 1137.73,206.2661 1156.91,220.891 " fill="none" id="IAECLumaCalculator-CDiagLumaCalculator" style="stroke: #A80036; stroke-width: 1.0;"/><polygon fill="none" points="978.149,152.9883,959.768,142.4453,980.712,139.2253,978.149,152.9883" style="stroke: #A80036; stroke-width: 1.0;"/><!--link IAECLumaCalculator to FlashMeasurementLumaCalculator--><path d="M979.882,134.2513 C1062.36,137.9233 1182.78,148.2863 1284,176.9063 C1320.2,187.1413 1358.63,205.8111 1386.38,220.8478 " fill="none" id="IAECLumaCalculator-FlashMeasurementLumaCalculator" style="stroke: #A80036; stroke-width: 1.0;"/><polygon fill="none" points="979.471,141.2403,959.764,133.4543,980.025,127.2513,979.471,141.2403" style="stroke: #A80036; stroke-width: 1.0;"/><!--link IAECLumaCalculator to CFrameLumaCalculator--><path d="M980.003,132.7913 C1142.61,134.4273 1460.8,142.1353 1567,176.9063 C1595.77,186.3263 1624.48,205.481 1644.58,220.9059 " fill="none" id="IAECLumaCalculator-CFrameLumaCalculator" style="stroke: #A80036; stroke-width: 1.0;"/><polygon fill="none" points="979.484,139.7873,959.547,132.6093,979.609,125.7873,979.484,139.7873" style="stroke: #A80036; stroke-width: 1.0;"/><!--link IAECTargetCalculator to CExtrmClrTargetCalculator--><path d="M2054.79,163.8753 C2045.7,168.1083 2036.59,172.5103 2028,176.9063 C2001.47,190.4883 1972.47,207.3949 1950.24,220.8268 " fill="none" id="IAECTargetCalculator-CExtrmClrTargetCalculator" style="stroke: #A80036; stroke-width: 1.0;"/><polygon fill="none" points="2052.15,157.3863,2073.26,155.4793,2057.95,170.1303,2052.15,157.3863" style="stroke: #A80036; stroke-width: 1.0;"/><!--link IAECTargetCalculator to CLuxTargetCalculator--><path d="M2128,175.5512 C2128,190.9753 2128,207.7573 2128,220.8329 " fill="none" id="IAECTargetCalculator-CLuxTargetCalculator" style="stroke: #A80036; stroke-width: 1.0;"/><polygon fill="none" points="2121,175.5093,2128,155.5093,2135,175.5093,2121,175.5093" style="stroke: #A80036; stroke-width: 1.0;"/><!--link IAECTargetCalculator to CHistogramTargetCalculator--><path d="M2199.52,163.7353 C2208.82,168.0473 2218.17,172.5073 2227,176.9063 C2254.68,190.7023 2285.18,207.4522 2308.76,220.7532 " fill="none" id="IAECTargetCalculator-CHistogramTargetCalculator" style="stroke: #A80036; stroke-width: 1.0;"/><polygon fill="none" points="2196.58,170.0883,2181.29,155.4213,2202.39,157.3493,2196.58,170.0883" style="stroke: #A80036; stroke-width: 1.0;"/><!--link CAECCoreDataManager to IAECContext--><path d="M2950.29,148.4383 C2979.72,155.1093 3011.32,164.3273 3039,176.9063 C3063.46,188.0222 3087.98,206.0465 3105.7,220.6016 " fill="none" id="CAECCoreDataManager-IAECContext" style="stroke: #A80036; stroke-width: 1.0;"/><polygon fill="#A80036" points="2937.39,145.6413,2942.4053,150.8227,2949.1171,148.186,2944.1018,143.0046,2937.39,145.6413" style="stroke: #A80036; stroke-width: 1.0;"/><!--link CAECCoreDataManager to IMeteringCallback--><path d="M2745.7,150.3543 C2719.95,156.8763 2692.87,165.5393 2669,176.9063 C2645.43,188.1333 2621.97,206.1512 2605.05,220.6759 " fill="none" id="CAECCoreDataManager-IMeteringCallback" style="stroke: #A80036; stroke-width: 1.0;"/><polygon fill="#A80036" points="2758.62,147.2303,2751.8476,144.7534,2746.9565,150.0522,2753.7289,152.529,2758.62,147.2303" style="stroke: #A80036; stroke-width: 1.0;"/><!--link CAECCoreDataManager to IArbitrationCallback--><path d="M2822.39,165.9983 C2808.89,183.7122 2792.67,204.9927 2780.59,220.8329 " fill="none" id="CAECCoreDataManager-IArbitrationCallback" style="stroke: #A80036; stroke-width: 1.0;"/><polygon fill="#A80036" points="2830.39,155.5093,2823.5718,157.8572,2823.1168,165.0539,2829.935,162.706,2830.39,155.5093" style="stroke: #A80036; stroke-width: 1.0;"/><!--link CAECCoreDataManager to IExtensionCallback--><path d="M2877.75,165.2483 C2893.93,183.1093 2913.55,204.7685 2928.1,220.8329 " fill="none" id="CAECCoreDataManager-IExtensionCallback" style="stroke: #A80036; stroke-width: 1.0;"/><polygon fill="#A80036" points="2868.93,155.5093,2869.9904,162.642,2876.9823,164.4065,2875.9219,157.2738,2868.93,155.5093" style="stroke: #A80036; stroke-width: 1.0;"/><!--
@startuml
title <size:18>camx aec class Arch</size>\n     Lin Jin



package <color:blue><size:15>**AECLumaCalculator** {
  class IAECLumaCalculator {
  __public__
  }
  
  class CLuxLumaCalculator {
  }

  class CPreflashLumaCalculator {
  }

  class CDepthAssisLumaCalculator {
  }

  class CTouchLumaCalculator {
  }

  class CFaceLumaCalculator {
  }

  class CDiagLumaCalculator {
  }

  class FlashMeasurementLumaCalculator {
  }

  class CFrameLumaCalculator {
  }

  IAECLumaCalculator<|-down-CLuxLumaCalculator
  IAECLumaCalculator<|-down-CPreflashLumaCalculator
  IAECLumaCalculator<|-down-CDepthAssisLumaCalculator
  IAECLumaCalculator<|-down-CTouchLumaCalculator
  IAECLumaCalculator<|-down-CFaceLumaCalculator
  IAECLumaCalculator<|-down-CDiagLumaCalculator
  IAECLumaCalculator<|-down-FlashMeasurementLumaCalculator
  IAECLumaCalculator<|-down-CFrameLumaCalculator
}


package <color:blue><size:15>**AECTargetCalculator** {
  class IAECTargetCalculator {
  }

  class CExtrmClrTargetCalculator {
  }

  class CLuxTargetCalculator {
  }

  class CHistogramTargetCalculator {
  }


  IAECTargetCalculator<|-down-CExtrmClrTargetCalculator
  IAECTargetCalculator<|-down-CLuxTargetCalculator
  IAECTargetCalculator<|-down-CHistogramTargetCalculator
}


package <color:blue><size:15>**IAECContext** {
    class IAECContext {
    }
}

package <color:blue><size:15>**CAECCoreDataManager** {
    class CAECCoreDataManager {
    }

    class IAECContext {
    }

    class IMeteringCallback {
    }

    class IArbitrationCallback {
    }

    class IExtensionCallback {
    }

    CAECCoreDataManager*-down-IAECContext
    CAECCoreDataManager*-down-IMeteringCallback
    CAECCoreDataManager*-down-IArbitrationCallback
    CAECCoreDataManager*-down-IExtensionCallback

}
@enduml

PlantUML version 1.2017.20(Mon Dec 11 16:57:05 GMT 2017)
(GPL source distribution)
Java Runtime: OpenJDK Runtime Environment
JVM: OpenJDK 64-Bit Server VM
Java Version: 1.8.0_171-8u171-b11-0ubuntu0.16.04.1-b11
Operating System: Linux
OS Version: 4.4.0-43-Microsoft
Default Encoding: UTF-8
Language: en
Country: US
--></g></svg>