<?xml version="1.0" encoding="UTF-8" standalone="no"?><svg xmlns="http://www.w3.org/2000/svg" xmlns:xlink="http://www.w3.org/1999/xlink" contentScriptType="application/ecmascript" contentStyleType="text/css" height="947px" preserveAspectRatio="none" style="width:1637px;height:947px;" version="1.1" viewBox="0 0 1637 947" width="1637px" zoomAndPan="magnify"><defs><filter height="300%" id="fm5xi9e8fk7ed" width="300%" x="-1" y="-1"><feGaussianBlur result="blurOut" stdDeviation="2.0"/><feColorMatrix in="blurOut" result="blurOut2" type="matrix" values="0 0 0 0 0 0 0 0 0 0 0 0 0 0 0 0 0 0 .4 0"/><feOffset dx="4.0" dy="4.0" in="blurOut2" result="blurOut3"/><feBlend in="SourceGraphic" in2="blurOut3" mode="normal"/></filter></defs><g><text fill="#000000" font-family="sans-serif" font-size="14" font-weight="bold" lengthAdjust="spacingAndGlyphs" textLength="149" x="744" y="24.5332">hal3Device construct</text><rect fill="#FFFFFF" filter="url(#fm5xi9e8fk7ed)" height="94.8906" style="stroke: #000000; stroke-width: 2.0;" width="1073" x="277" y="235.625"/><rect fill="#FFFFFF" height="46.1875" style="stroke: none; stroke-width: 1.0;" width="1073" x="277" y="284.3281"/><line style="stroke: #A80036; stroke-width: 1.0; stroke-dasharray: 5.0,5.0;" x1="199" x2="199" y1="71.2188" y2="906.1406"/><line style="stroke: #A80036; stroke-width: 1.0; stroke-dasharray: 5.0,5.0;" x1="380" x2="380" y1="71.2188" y2="906.1406"/><line style="stroke: #A80036; stroke-width: 1.0; stroke-dasharray: 5.0,5.0;" x1="674.5" x2="674.5" y1="71.2188" y2="906.1406"/><line style="stroke: #A80036; stroke-width: 1.0; stroke-dasharray: 5.0,5.0;" x1="870" x2="870" y1="71.2188" y2="906.1406"/><line style="stroke: #A80036; stroke-width: 1.0; stroke-dasharray: 5.0,5.0;" x1="974" x2="974" y1="71.2188" y2="906.1406"/><line style="stroke: #A80036; stroke-width: 1.0; stroke-dasharray: 5.0,5.0;" x1="1104" x2="1104" y1="71.2188" y2="906.1406"/><line style="stroke: #A80036; stroke-width: 1.0; stroke-dasharray: 5.0,5.0;" x1="1263" x2="1263" y1="71.2188" y2="906.1406"/><line style="stroke: #A80036; stroke-width: 1.0; stroke-dasharray: 5.0,5.0;" x1="1440" x2="1440" y1="71.2188" y2="906.1406"/><rect fill="#FEFECE" filter="url(#fm5xi9e8fk7ed)" height="31.6094" style="stroke: #A80036; stroke-width: 1.5;" width="146" x="124" y="34.6094"/><text fill="#000000" font-family="sans-serif" font-size="14" lengthAdjust="spacingAndGlyphs" textLength="132" x="131" y="56.1426">camxhal3module.cpp</text><rect fill="#FEFECE" filter="url(#fm5xi9e8fk7ed)" height="31.6094" style="stroke: #A80036; stroke-width: 1.5;" width="146" x="124" y="905.1406"/><text fill="#000000" font-family="sans-serif" font-size="14" lengthAdjust="spacingAndGlyphs" textLength="132" x="131" y="926.6738">camxhal3module.cpp</text><rect fill="#FEFECE" filter="url(#fm5xi9e8fk7ed)" height="31.6094" style="stroke: #A80036; stroke-width: 1.5;" width="182" x="287" y="34.6094"/><text fill="#000000" font-family="sans-serif" font-size="14" lengthAdjust="spacingAndGlyphs" textLength="168" x="294" y="56.1426">camxusecasemanager.cpp</text><rect fill="#FEFECE" filter="url(#fm5xi9e8fk7ed)" height="31.6094" style="stroke: #A80036; stroke-width: 1.5;" width="182" x="287" y="905.1406"/><text fill="#000000" font-family="sans-serif" font-size="14" lengthAdjust="spacingAndGlyphs" textLength="168" x="294" y="926.6738">camxusecasemanager.cpp</text><rect fill="#FEFECE" filter="url(#fm5xi9e8fk7ed)" height="31.6094" style="stroke: #A80036; stroke-width: 1.5;" width="165" x="590.5" y="34.6094"/><text fill="#000000" font-family="sans-serif" font-size="14" lengthAdjust="spacingAndGlyphs" textLength="151" x="597.5" y="56.1426">pipelinesetmanager.cpp</text><rect fill="#FEFECE" filter="url(#fm5xi9e8fk7ed)" height="31.6094" style="stroke: #A80036; stroke-width: 1.5;" width="165" x="590.5" y="905.1406"/><text fill="#000000" font-family="sans-serif" font-size="14" lengthAdjust="spacingAndGlyphs" textLength="151" x="597.5" y="926.6738">pipelinesetmanager.cpp</text><rect fill="#FEFECE" filter="url(#fm5xi9e8fk7ed)" height="31.6094" style="stroke: #A80036; stroke-width: 1.5;" width="90" x="823" y="34.6094"/><text fill="#000000" font-family="sans-serif" font-size="14" lengthAdjust="spacingAndGlyphs" textLength="76" x="830" y="56.1426">pipeline.cpp</text><rect fill="#FEFECE" filter="url(#fm5xi9e8fk7ed)" height="31.6094" style="stroke: #A80036; stroke-width: 1.5;" width="90" x="823" y="905.1406"/><text fill="#000000" font-family="sans-serif" font-size="14" lengthAdjust="spacingAndGlyphs" textLength="76" x="830" y="926.6738">pipeline.cpp</text><rect fill="#FEFECE" filter="url(#fm5xi9e8fk7ed)" height="31.6094" style="stroke: #A80036; stroke-width: 1.5;" width="91" x="927" y="34.6094"/><text fill="#000000" font-family="sans-serif" font-size="14" lengthAdjust="spacingAndGlyphs" textLength="77" x="934" y="56.1426">camxchi.cpp</text><rect fill="#FEFECE" filter="url(#fm5xi9e8fk7ed)" height="31.6094" style="stroke: #A80036; stroke-width: 1.5;" width="91" x="927" y="905.1406"/><text fill="#000000" font-family="sans-serif" font-size="14" lengthAdjust="spacingAndGlyphs" textLength="77" x="934" y="926.6738">camxchi.cpp</text><rect fill="#FEFECE" filter="url(#fm5xi9e8fk7ed)" height="31.6094" style="stroke: #A80036; stroke-width: 1.5;" width="141" x="1032" y="34.6094"/><text fill="#000000" font-family="sans-serif" font-size="14" lengthAdjust="spacingAndGlyphs" textLength="127" x="1039" y="56.1426">camxosutilslinux.cpp</text><rect fill="#FEFECE" filter="url(#fm5xi9e8fk7ed)" height="31.6094" style="stroke: #A80036; stroke-width: 1.5;" width="141" x="1032" y="905.1406"/><text fill="#000000" font-family="sans-serif" font-size="14" lengthAdjust="spacingAndGlyphs" textLength="127" x="1039" y="926.6738">camxosutilslinux.cpp</text><rect fill="#FEFECE" filter="url(#fm5xi9e8fk7ed)" height="31.6094" style="stroke: #A80036; stroke-width: 1.5;" width="149" x="1187" y="34.6094"/><text fill="#000000" font-family="sans-serif" font-size="14" lengthAdjust="spacingAndGlyphs" textLength="135" x="1194" y="56.1426">camxosutilswin32.cpp</text><rect fill="#FEFECE" filter="url(#fm5xi9e8fk7ed)" height="31.6094" style="stroke: #A80036; stroke-width: 1.5;" width="149" x="1187" y="905.1406"/><text fill="#000000" font-family="sans-serif" font-size="14" lengthAdjust="spacingAndGlyphs" textLength="135" x="1194" y="926.6738">camxosutilswin32.cpp</text><rect fill="#FEFECE" filter="url(#fm5xi9e8fk7ed)" height="31.6094" style="stroke: #A80036; stroke-width: 1.5;" width="177" x="1350" y="34.6094"/><text fill="#000000" font-family="sans-serif" font-size="14" lengthAdjust="spacingAndGlyphs" textLength="163" x="1357" y="56.1426">chxextensioninterface.cpp</text><rect fill="#FEFECE" filter="url(#fm5xi9e8fk7ed)" height="31.6094" style="stroke: #A80036; stroke-width: 1.5;" width="177" x="1350" y="905.1406"/><text fill="#000000" font-family="sans-serif" font-size="14" lengthAdjust="spacingAndGlyphs" textLength="163" x="1357" y="926.6738">chxextensioninterface.cpp</text><ellipse cx="10.5" cy="102.4688" fill="none" rx="4" ry="4" style="stroke: #A80036; stroke-width: 1.5;"/><polygon fill="#A80036" points="187,99.2188,197,103.2188,187,107.2188,191,103.2188" style="stroke: #A80036; stroke-width: 1.0;"/><line style="stroke: #A80036; stroke-width: 1.0;" x1="15" x2="193" y1="103.2188" y2="103.2188"/><text fill="#000000" font-family="sans-serif" font-size="13" lengthAdjust="spacingAndGlyphs" textLength="164" x="18" y="98.7139">HAL3Module::HAL3Module()</text><polygon fill="#A80036" points="368,129.5703,378,133.5703,368,137.5703,372,133.5703" style="stroke: #A80036; stroke-width: 1.0;"/><line style="stroke: #A80036; stroke-width: 1.0;" x1="199" x2="374" y1="133.5703" y2="133.5703"/><text fill="#000000" font-family="sans-serif" font-size="13" lengthAdjust="spacingAndGlyphs" textLength="157" x="206" y="129.0654">UseCaseManager::Create()</text><line style="stroke: #A80036; stroke-width: 1.0;" x1="380" x2="422" y1="164.2734" y2="164.2734"/><line style="stroke: #A80036; stroke-width: 1.0;" x1="422" x2="422" y1="164.2734" y2="177.2734"/><line style="stroke: #A80036; stroke-width: 1.0;" x1="381" x2="422" y1="177.2734" y2="177.2734"/><polygon fill="#A80036" points="391,173.2734,381,177.2734,391,181.2734,387,177.2734" style="stroke: #A80036; stroke-width: 1.0;"/><text fill="#000000" font-family="sans-serif" font-size="13" lengthAdjust="spacingAndGlyphs" textLength="170" x="387" y="159.417">UseCaseManager-&gt;Initialize()</text><line style="stroke: #A80036; stroke-width: 1.0;" x1="380" x2="422" y1="207.625" y2="207.625"/><line style="stroke: #A80036; stroke-width: 1.0;" x1="422" x2="422" y1="207.625" y2="220.625"/><line style="stroke: #A80036; stroke-width: 1.0;" x1="381" x2="422" y1="220.625" y2="220.625"/><polygon fill="#A80036" points="391,216.625,381,220.625,391,224.625,387,220.625" style="stroke: #A80036; stroke-width: 1.0;"/><text fill="#000000" font-family="sans-serif" font-size="13" lengthAdjust="spacingAndGlyphs" textLength="281" x="387" y="202.7686">UseCaseManager::ProcessTopologyXMLBinary()</text><rect fill="none" height="94.8906" style="stroke: #000000; stroke-width: 2.0;" width="1073" x="277" y="235.625"/><polygon fill="#EEEEEE" points="277,235.625,338,235.625,338,243.625,328,253.625,277,253.625,277,235.625" style="stroke: #000000; stroke-width: 2.0;"/><text fill="#000000" font-family="sans-serif" font-size="13" font-weight="bold" lengthAdjust="spacingAndGlyphs" textLength="16" x="292" y="250.1201">alt</text><text fill="#000000" font-family="sans-serif" font-size="11" font-weight="bold" lengthAdjust="spacingAndGlyphs" textLength="34" x="353" y="249.0439">[linux]</text><polygon fill="#A80036" points="1092.5,271.9766,1102.5,275.9766,1092.5,279.9766,1096.5,275.9766" style="stroke: #A80036; stroke-width: 1.0;"/><line style="stroke: #A80036; stroke-width: 1.0;" x1="380" x2="1098.5" y1="275.9766" y2="275.9766"/><text fill="#000000" font-family="sans-serif" font-size="13" lengthAdjust="spacingAndGlyphs" textLength="39" x="387" y="271.4717">FOpen</text><line style="stroke: #000000; stroke-width: 1.0; stroke-dasharray: 2.0,2.0;" x1="277" x2="1350" y1="285.3281" y2="285.3281"/><text fill="#000000" font-family="sans-serif" font-size="11" font-weight="bold" lengthAdjust="spacingAndGlyphs" textLength="40" x="282" y="296.7471">[win32]</text><polygon fill="#A80036" points="1251.5,318.1641,1261.5,322.1641,1251.5,326.1641,1255.5,322.1641" style="stroke: #A80036; stroke-width: 1.0;"/><line style="stroke: #A80036; stroke-width: 1.0;" x1="380" x2="1257.5" y1="322.1641" y2="322.1641"/><text fill="#000000" font-family="sans-serif" font-size="13" lengthAdjust="spacingAndGlyphs" textLength="39" x="387" y="317.6592">FOpen</text><polygon fill="#FBFB77" filter="url(#fm5xi9e8fk7ed)" points="385,342.5156,385,368.5156,537,368.5156,537,352.5156,527,342.5156,385,342.5156" style="stroke: #A80036; stroke-width: 1.0;"/><line style="stroke: #A80036; stroke-width: 1.0;" x1="527" x2="527" y1="342.5156" y2="352.5156"/><line style="stroke: #A80036; stroke-width: 1.0;" x1="537" x2="527" y1="352.5156" y2="352.5156"/><text fill="#000000" font-family="sans-serif" font-size="13" lengthAdjust="spacingAndGlyphs" textLength="131" x="391" y="361.0107">open and read XML file</text><polygon fill="#A80036" points="663,395.8672,673,399.8672,663,403.8672,667,399.8672" style="stroke: #A80036; stroke-width: 1.0;"/><line style="stroke: #A80036; stroke-width: 1.0;" x1="380" x2="669" y1="399.8672" y2="399.8672"/><text fill="#000000" font-family="sans-serif" font-size="13" lengthAdjust="spacingAndGlyphs" textLength="159" x="387" y="395.3623">NEW PipelineSetManager()</text><polygon fill="#FBFB77" filter="url(#fm5xi9e8fk7ed)" points="680,413.2188,680,439.2188,862,439.2188,862,423.2188,852,413.2188,680,413.2188" style="stroke: #A80036; stroke-width: 1.0;"/><line style="stroke: #A80036; stroke-width: 1.0;" x1="852" x2="852" y1="413.2188" y2="423.2188"/><line style="stroke: #A80036; stroke-width: 1.0;" x1="862" x2="852" y1="423.2188" y2="423.2188"/><text fill="#000000" font-family="sans-serif" font-size="13" lengthAdjust="spacingAndGlyphs" textLength="161" x="686" y="431.7139">this is auto-generated code.</text><polygon fill="#A80036" points="858,466.5703,868,470.5703,858,474.5703,862,470.5703" style="stroke: #A80036; stroke-width: 1.0;"/><line style="stroke: #A80036; stroke-width: 1.0;" x1="675" x2="864" y1="470.5703" y2="470.5703"/><text fill="#000000" font-family="sans-serif" font-size="13" lengthAdjust="spacingAndGlyphs" textLength="171" x="682" y="466.0654">new UsecaseDefinitionsClass</text><polygon fill="#A80036" points="663,496.9219,673,500.9219,663,504.9219,667,500.9219" style="stroke: #A80036; stroke-width: 1.0;"/><line style="stroke: #A80036; stroke-width: 1.0;" x1="380" x2="669" y1="500.9219" y2="500.9219"/><text fill="#000000" font-family="sans-serif" font-size="13" lengthAdjust="spacingAndGlyphs" textLength="140" x="387" y="496.417">GetModule_UsecaseDef</text><line style="stroke: #A80036; stroke-width: 1.0;" x1="380" x2="422" y1="531.625" y2="531.625"/><line style="stroke: #A80036; stroke-width: 1.0;" x1="422" x2="422" y1="531.625" y2="544.625"/><line style="stroke: #A80036; stroke-width: 1.0;" x1="381" x2="422" y1="544.625" y2="544.625"/><polygon fill="#A80036" points="391,540.625,381,544.625,391,548.625,387,544.625" style="stroke: #A80036; stroke-width: 1.0;"/><text fill="#000000" font-family="sans-serif" font-size="13" lengthAdjust="spacingAndGlyphs" textLength="91" x="387" y="526.7686">InitializeLinkInfo</text><polygon fill="#A80036" points="1092.5,570.625,1102.5,574.625,1092.5,578.625,1096.5,574.625" style="stroke: #A80036; stroke-width: 1.0;"/><line style="stroke: #A80036; stroke-width: 1.0;" x1="380" x2="1098.5" y1="574.625" y2="574.625"/><text fill="#000000" font-family="sans-serif" font-size="13" lengthAdjust="spacingAndGlyphs" textLength="41" x="387" y="570.1201">FClose</text><polygon fill="#A80036" points="962.5,600.9766,972.5,604.9766,962.5,608.9766,966.5,604.9766" style="stroke: #A80036; stroke-width: 1.0;"/><line style="stroke: #A80036; stroke-width: 1.0;" x1="199" x2="968.5" y1="604.9766" y2="604.9766"/><text fill="#000000" font-family="sans-serif" font-size="13" lengthAdjust="spacingAndGlyphs" textLength="173" x="206" y="600.4717">ChiEntry(&amp;m_ChiContextOps)</text><polygon fill="#FBFB77" filter="url(#fm5xi9e8fk7ed)" points="979,618.3281,979,644.3281,1184,644.3281,1184,628.3281,1174,618.3281,979,618.3281" style="stroke: #A80036; stroke-width: 1.0;"/><line style="stroke: #A80036; stroke-width: 1.0;" x1="1174" x2="1174" y1="618.3281" y2="628.3281"/><line style="stroke: #A80036; stroke-width: 1.0;" x1="1184" x2="1174" y1="628.3281" y2="628.3281"/><text fill="#000000" font-family="sans-serif" font-size="13" lengthAdjust="spacingAndGlyphs" textLength="184" x="985" y="636.8232">will init pChiContextOpslist here</text><polygon fill="#A80036" points="1092.5,671.6797,1102.5,675.6797,1092.5,679.6797,1096.5,675.6797" style="stroke: #A80036; stroke-width: 1.0;"/><line style="stroke: #A80036; stroke-width: 1.0;" x1="199" x2="1098.5" y1="675.6797" y2="675.6797"/><text fill="#000000" font-family="sans-serif" font-size="13" lengthAdjust="spacingAndGlyphs" textLength="251" x="206" y="671.1748">GetFilesFromPath(CHIOverrideModulePath)</text><polygon fill="#FBFB77" filter="url(#fm5xi9e8fk7ed)" points="204,689.0313,204,715.0313,433,715.0313,433,699.0313,423,689.0313,204,689.0313" style="stroke: #A80036; stroke-width: 1.0;"/><line style="stroke: #A80036; stroke-width: 1.0;" x1="423" x2="423" y1="689.0313" y2="699.0313"/><line style="stroke: #A80036; stroke-width: 1.0;" x1="433" x2="423" y1="699.0313" y2="699.0313"/><text fill="#000000" font-family="sans-serif" font-size="13" lengthAdjust="spacingAndGlyphs" textLength="208" x="210" y="707.5264">search Chi Override module in folder</text><polygon fill="#A80036" points="1092.5,742.3828,1102.5,746.3828,1092.5,750.3828,1096.5,746.3828" style="stroke: #A80036; stroke-width: 1.0;"/><line style="stroke: #A80036; stroke-width: 1.0;" x1="199" x2="1098.5" y1="746.3828" y2="746.3828"/><text fill="#000000" font-family="sans-serif" font-size="13" lengthAdjust="spacingAndGlyphs" textLength="42" x="206" y="741.8779">LibMap</text><polygon fill="#A80036" points="1092.5,772.7344,1102.5,776.7344,1092.5,780.7344,1096.5,776.7344" style="stroke: #A80036; stroke-width: 1.0;"/><line style="stroke: #A80036; stroke-width: 1.0;" x1="199" x2="1098.5" y1="776.7344" y2="776.7344"/><text fill="#000000" font-family="sans-serif" font-size="13" lengthAdjust="spacingAndGlyphs" textLength="211" x="206" y="772.2295">LibGetAddr("chi_hal_override_entry")</text><polygon fill="#A80036" points="1428.5,803.0859,1438.5,807.0859,1428.5,811.0859,1432.5,807.0859" style="stroke: #A80036; stroke-width: 1.0;"/><line style="stroke: #A80036; stroke-width: 1.0;" x1="199" x2="1434.5" y1="807.0859" y2="807.0859"/><text fill="#000000" font-family="sans-serif" font-size="13" lengthAdjust="spacingAndGlyphs" textLength="128" x="206" y="802.5811">chi_hal_override_entry</text><polygon fill="#FBFB77" filter="url(#fm5xi9e8fk7ed)" points="1445,820.4375,1445,846.4375,1608,846.4375,1608,830.4375,1598,820.4375,1445,820.4375" style="stroke: #A80036; stroke-width: 1.0;"/><line style="stroke: #A80036; stroke-width: 1.0;" x1="1598" x2="1598" y1="820.4375" y2="830.4375"/><line style="stroke: #A80036; stroke-width: 1.0;" x1="1608" x2="1598" y1="830.4375" y2="830.4375"/><text fill="#000000" font-family="sans-serif" font-size="13" lengthAdjust="spacingAndGlyphs" textLength="142" x="1451" y="838.9326">will get chi override entry</text><polygon fill="#FBFB77" filter="url(#fm5xi9e8fk7ed)" points="1445,860.7891,1445,886.7891,1625,886.7891,1625,870.7891,1615,860.7891,1445,860.7891" style="stroke: #A80036; stroke-width: 1.0;"/><line style="stroke: #A80036; stroke-width: 1.0;" x1="1615" x2="1615" y1="860.7891" y2="870.7891"/><line style="stroke: #A80036; stroke-width: 1.0;" x1="1625" x2="1615" y1="870.7891" y2="870.7891"/><text fill="#000000" font-family="sans-serif" font-size="13" lengthAdjust="spacingAndGlyphs" textLength="159" x="1451" y="879.2842">assign m_ChiAppCallbacks</text><!--
@startuml
participant camxhal3module.cpp as camxModule
participant camxusecasemanager.cpp as camxUCM
participant pipelinesetmanager.cpp as pipeM
participant pipeline.cpp as pipe
participant camxchi.cpp as camxchi

title hal3Device construct
[o->camxModule: HAL3Module::HAL3Module()

camxModule->camxUCM: UseCaseManager::Create()
camxUCM->camxUCM: UseCaseManager->Initialize()
camxUCM->camxUCM: UseCaseManager::ProcessTopologyXMLBinary()
alt linux
camxUCM->camxosutilslinux.cpp:FOpen
else win32
camxUCM->camxosutilswin32.cpp:FOpen
end
note right of camxUCM: open and read XML file

camxUCM->pipeM: NEW PipelineSetManager()
note right of pipeM: this is auto-generated code.

pipeM->pipe: new UsecaseDefinitionsClass

camxUCM->pipeM: GetModule_UsecaseDef

camxUCM->camxUCM: InitializeLinkInfo

camxUCM->camxosutilslinux.cpp:FClose

camxModule->camxchi: ChiEntry(&m_ChiContextOps)

note right of camxchi:will init pChiContextOpslist here

camxModule->camxosutilslinux.cpp:GetFilesFromPath(CHIOverrideModulePath)
note right of camxModule:search Chi Override module in folder
camxModule->camxosutilslinux.cpp:LibMap
camxModule->camxosutilslinux.cpp:LibGetAddr("chi_hal_override_entry")
camxModule->chxextensioninterface.cpp: chi_hal_override_entry
note right of chxextensioninterface.cpp:will get chi override entry
note right of chxextensioninterface.cpp:assign m_ChiAppCallbacks


@end

PlantUML version 1.2017.20(Tue Dec 12 00:57:05 CST 2017)
(GPL source distribution)
Java Runtime: Java(TM) SE Runtime Environment
JVM: Java HotSpot(TM) Client VM
Java Version: 1.8.0_151-b12
Operating System: Windows 10
OS Version: 10.0
Default Encoding: Cp1252
Language: en
Country: US
--></g></svg>