<?xml version="1.0" encoding="UTF-8" standalone="no"?><svg xmlns="http://www.w3.org/2000/svg" xmlns:xlink="http://www.w3.org/1999/xlink" contentScriptType="application/ecmascript" contentStyleType="text/css" height="1581px" preserveAspectRatio="none" style="width:1264px;height:1581px;" version="1.1" viewBox="0 0 1264 1581" width="1264px" zoomAndPan="magnify"><defs><filter height="300%" id="f1m970lg5glf1g" width="300%" x="-1" y="-1"><feGaussianBlur result="blurOut" stdDeviation="2.0"/><feColorMatrix in="blurOut" result="blurOut2" type="matrix" values="0 0 0 0 0 0 0 0 0 0 0 0 0 0 0 0 0 0 .4 0"/><feOffset dx="4.0" dy="4.0" in="blurOut2" result="blurOut3"/><feBlend in="SourceGraphic" in2="blurOut3" mode="normal"/></filter></defs><g><rect fill="#FFFFFF" filter="url(#f1m970lg5glf1g)" height="29.1328" style="stroke: #A80036; stroke-width: 1.0;" width="10" x="429" y="112.4297"/><rect fill="#FFFFFF" filter="url(#f1m970lg5glf1g)" height="83.3984" style="stroke: #A80036; stroke-width: 1.0;" width="10" x="506" y="345.4922"/><rect fill="#FFFFFF" filter="url(#f1m970lg5glf1g)" height="88.3984" style="stroke: #A80036; stroke-width: 1.0;" width="10" x="506" y="509.1563"/><rect fill="#FFFFFF" filter="url(#f1m970lg5glf1g)" height="29.1328" style="stroke: #A80036; stroke-width: 1.0;" width="10" x="727" y="170.6953"/><rect fill="#FFFFFF" filter="url(#f1m970lg5glf1g)" height="29.1328" style="stroke: #A80036; stroke-width: 1.0;" width="10" x="727" y="228.9609"/><rect fill="#FFFFFF" filter="url(#f1m970lg5glf1g)" height="29.1328" style="stroke: #A80036; stroke-width: 1.0;" width="10" x="727" y="287.2266"/><rect fill="#FFFFFF" filter="url(#f1m970lg5glf1g)" height="505.3906" style="stroke: #A80036; stroke-width: 1.0;" width="10" x="727" y="641.6875"/><rect fill="#FFFFFF" filter="url(#f1m970lg5glf1g)" height="94.3984" style="stroke: #A80036; stroke-width: 1.0;" width="10" x="732" y="793.75"/><rect fill="#FFFFFF" filter="url(#f1m970lg5glf1g)" height="178.6641" style="stroke: #A80036; stroke-width: 1.0;" width="10" x="732" y="932.2813"/><rect fill="#FFFFFF" filter="url(#f1m970lg5glf1g)" height="94.3984" style="stroke: #A80036; stroke-width: 1.0;" width="10" x="737" y="974.4141"/><rect fill="#FFFFFF" filter="url(#f1m970lg5glf1g)" height="102.5313" style="stroke: #A80036; stroke-width: 1.0;" width="10" x="906.5" y="1260.1484"/><rect fill="#FFFFFF" filter="url(#f1m970lg5glf1g)" height="29.2656" style="stroke: #A80036; stroke-width: 1.0;" width="10" x="1149.5" y="1304.2813"/><line style="stroke: #A80036; stroke-width: 1.0;" x1="29" x2="29" y1="38.2969" y2="1155.2109"/><line style="stroke: #A80036; stroke-width: 1.0; stroke-dasharray: 1.0,4.0;" x1="29" x2="29" y1="1155.2109" y2="1196.0156"/><line style="stroke: #A80036; stroke-width: 1.0;" x1="29" x2="29" y1="1196.0156" y2="1541.0078"/><line style="stroke: #A80036; stroke-width: 1.0;" x1="84" x2="84" y1="38.2969" y2="1155.2109"/><line style="stroke: #A80036; stroke-width: 1.0; stroke-dasharray: 1.0,4.0;" x1="84" x2="84" y1="1155.2109" y2="1196.0156"/><line style="stroke: #A80036; stroke-width: 1.0;" x1="84" x2="84" y1="1196.0156" y2="1541.0078"/><line style="stroke: #A80036; stroke-width: 1.0;" x1="151" x2="151" y1="38.2969" y2="1155.2109"/><line style="stroke: #A80036; stroke-width: 1.0; stroke-dasharray: 1.0,4.0;" x1="151" x2="151" y1="1155.2109" y2="1196.0156"/><line style="stroke: #A80036; stroke-width: 1.0;" x1="151" x2="151" y1="1196.0156" y2="1541.0078"/><line style="stroke: #A80036; stroke-width: 1.0;" x1="434" x2="434" y1="38.2969" y2="1155.2109"/><line style="stroke: #A80036; stroke-width: 1.0; stroke-dasharray: 1.0,4.0;" x1="434" x2="434" y1="1155.2109" y2="1196.0156"/><line style="stroke: #A80036; stroke-width: 1.0;" x1="434" x2="434" y1="1196.0156" y2="1541.0078"/><line style="stroke: #A80036; stroke-width: 1.0;" x1="511" x2="511" y1="38.2969" y2="1155.2109"/><line style="stroke: #A80036; stroke-width: 1.0; stroke-dasharray: 1.0,4.0;" x1="511" x2="511" y1="1155.2109" y2="1196.0156"/><line style="stroke: #A80036; stroke-width: 1.0;" x1="511" x2="511" y1="1196.0156" y2="1541.0078"/><line style="stroke: #A80036; stroke-width: 1.0;" x1="731.5" x2="731.5" y1="38.2969" y2="1155.2109"/><line style="stroke: #A80036; stroke-width: 1.0; stroke-dasharray: 1.0,4.0;" x1="731.5" x2="731.5" y1="1155.2109" y2="1196.0156"/><line style="stroke: #A80036; stroke-width: 1.0;" x1="731.5" x2="731.5" y1="1196.0156" y2="1541.0078"/><line style="stroke: #A80036; stroke-width: 1.0;" x1="911.5" x2="911.5" y1="38.2969" y2="1155.2109"/><line style="stroke: #A80036; stroke-width: 1.0; stroke-dasharray: 1.0,4.0;" x1="911.5" x2="911.5" y1="1155.2109" y2="1196.0156"/><line style="stroke: #A80036; stroke-width: 1.0;" x1="911.5" x2="911.5" y1="1196.0156" y2="1541.0078"/><line style="stroke: #A80036; stroke-width: 1.0;" x1="1154.5" x2="1154.5" y1="38.2969" y2="1155.2109"/><line style="stroke: #A80036; stroke-width: 1.0; stroke-dasharray: 1.0,4.0;" x1="1154.5" x2="1154.5" y1="1155.2109" y2="1196.0156"/><line style="stroke: #A80036; stroke-width: 1.0;" x1="1154.5" x2="1154.5" y1="1196.0156" y2="1541.0078"/><line style="stroke: #A80036; stroke-width: 1.0;" x1="1233.5" x2="1233.5" y1="38.2969" y2="1155.2109"/><line style="stroke: #A80036; stroke-width: 1.0; stroke-dasharray: 1.0,4.0;" x1="1233.5" x2="1233.5" y1="1155.2109" y2="1196.0156"/><line style="stroke: #A80036; stroke-width: 1.0;" x1="1233.5" x2="1233.5" y1="1196.0156" y2="1541.0078"/><rect fill="#FEFECE" filter="url(#f1m970lg5glf1g)" height="30.2969" style="stroke: #A80036; stroke-width: 1.5;" width="39" x="8" y="3"/><text fill="#000000" font-family="sans-serif" font-size="14" lengthAdjust="spacingAndGlyphs" textLength="25" x="15" y="22.9951">aec</text><rect fill="#FEFECE" filter="url(#f1m970lg5glf1g)" height="30.2969" style="stroke: #A80036; stroke-width: 1.5;" width="39" x="8" y="1540.0078"/><text fill="#000000" font-family="sans-serif" font-size="14" lengthAdjust="spacingAndGlyphs" textLength="25" x="15" y="1560.0029">aec</text><rect fill="#FEFECE" filter="url(#f1m970lg5glf1g)" height="30.2969" style="stroke: #A80036; stroke-width: 1.5;" width="42" x="61" y="3"/><text fill="#000000" font-family="sans-serif" font-size="14" lengthAdjust="spacingAndGlyphs" textLength="28" x="68" y="22.9951">awb</text><rect fill="#FEFECE" filter="url(#f1m970lg5glf1g)" height="30.2969" style="stroke: #A80036; stroke-width: 1.5;" width="42" x="61" y="1540.0078"/><text fill="#000000" font-family="sans-serif" font-size="14" lengthAdjust="spacingAndGlyphs" textLength="28" x="68" y="1560.0029">awb</text><rect fill="#FEFECE" filter="url(#f1m970lg5glf1g)" height="30.2969" style="stroke: #A80036; stroke-width: 1.5;" width="64" x="117" y="3"/><text fill="#000000" font-family="sans-serif" font-size="14" lengthAdjust="spacingAndGlyphs" textLength="50" x="124" y="22.9951">af_core</text><rect fill="#FEFECE" filter="url(#f1m970lg5glf1g)" height="30.2969" style="stroke: #A80036; stroke-width: 1.5;" width="64" x="117" y="1540.0078"/><text fill="#000000" font-family="sans-serif" font-size="14" lengthAdjust="spacingAndGlyphs" textLength="50" x="124" y="1560.0029">af_core</text><rect fill="#FEFECE" filter="url(#f1m970lg5glf1g)" height="30.2969" style="stroke: #A80036; stroke-width: 1.5;" width="72" x="396" y="3"/><text fill="#000000" font-family="sans-serif" font-size="14" lengthAdjust="spacingAndGlyphs" textLength="58" x="403" y="22.9951">af_fdprio</text><rect fill="#FEFECE" filter="url(#f1m970lg5glf1g)" height="30.2969" style="stroke: #A80036; stroke-width: 1.5;" width="72" x="396" y="1540.0078"/><text fill="#000000" font-family="sans-serif" font-size="14" lengthAdjust="spacingAndGlyphs" textLength="58" x="403" y="1560.0029">af_fdprio</text><rect fill="#FEFECE" filter="url(#f1m970lg5glf1g)" height="30.2969" style="stroke: #A80036; stroke-width: 1.5;" width="54" x="482" y="3"/><text fill="#000000" font-family="sans-serif" font-size="14" lengthAdjust="spacingAndGlyphs" textLength="40" x="489" y="22.9951">af_haf</text><rect fill="#FEFECE" filter="url(#f1m970lg5glf1g)" height="30.2969" style="stroke: #A80036; stroke-width: 1.5;" width="54" x="482" y="1540.0078"/><text fill="#000000" font-family="sans-serif" font-size="14" lengthAdjust="spacingAndGlyphs" textLength="40" x="489" y="1560.0029">af_haf</text><rect fill="#FEFECE" filter="url(#f1m970lg5glf1g)" height="30.2969" style="stroke: #A80036; stroke-width: 1.5;" width="171" x="644.5" y="3"/><text fill="#000000" font-family="sans-serif" font-size="14" lengthAdjust="spacingAndGlyphs" textLength="157" x="651.5" y="22.9951">camxstatsroiprocessor</text><rect fill="#FEFECE" filter="url(#f1m970lg5glf1g)" height="30.2969" style="stroke: #A80036; stroke-width: 1.5;" width="171" x="644.5" y="1540.0078"/><text fill="#000000" font-family="sans-serif" font-size="14" lengthAdjust="spacingAndGlyphs" textLength="157" x="651.5" y="1560.0029">camxstatsroiprocessor</text><rect fill="#FEFECE" filter="url(#f1m970lg5glf1g)" height="30.2969" style="stroke: #A80036; stroke-width: 1.5;" width="160" x="829.5" y="3"/><text fill="#000000" font-family="sans-serif" font-size="14" lengthAdjust="spacingAndGlyphs" textLength="146" x="836.5" y="22.9951">camxfdmanagernode</text><rect fill="#FEFECE" filter="url(#f1m970lg5glf1g)" height="30.2969" style="stroke: #A80036; stroke-width: 1.5;" width="160" x="829.5" y="1540.0078"/><text fill="#000000" font-family="sans-serif" font-size="14" lengthAdjust="spacingAndGlyphs" textLength="146" x="836.5" y="1560.0029">camxfdmanagernode</text><rect fill="#FEFECE" filter="url(#f1m970lg5glf1g)" height="30.2969" style="stroke: #A80036; stroke-width: 1.5;" width="108" x="1098.5" y="3"/><text fill="#000000" font-family="sans-serif" font-size="14" lengthAdjust="spacingAndGlyphs" textLength="94" x="1105.5" y="22.9951">MetadataPool</text><rect fill="#FEFECE" filter="url(#f1m970lg5glf1g)" height="30.2969" style="stroke: #A80036; stroke-width: 1.5;" width="108" x="1098.5" y="1540.0078"/><text fill="#000000" font-family="sans-serif" font-size="14" lengthAdjust="spacingAndGlyphs" textLength="94" x="1105.5" y="1560.0029">MetadataPool</text><rect fill="#FEFECE" filter="url(#f1m970lg5glf1g)" height="30.2969" style="stroke: #A80036; stroke-width: 1.5;" width="23" x="1220.5" y="3"/><text fill="#000000" font-family="sans-serif" font-size="14" lengthAdjust="spacingAndGlyphs" textLength="9" x="1227.5" y="22.9951">o</text><rect fill="#FEFECE" filter="url(#f1m970lg5glf1g)" height="30.2969" style="stroke: #A80036; stroke-width: 1.5;" width="23" x="1220.5" y="1540.0078"/><text fill="#000000" font-family="sans-serif" font-size="14" lengthAdjust="spacingAndGlyphs" textLength="9" x="1227.5" y="1560.0029">o</text><rect fill="#FFFFFF" filter="url(#f1m970lg5glf1g)" height="29.1328" style="stroke: #A80036; stroke-width: 1.0;" width="10" x="429" y="112.4297"/><rect fill="#FFFFFF" filter="url(#f1m970lg5glf1g)" height="83.3984" style="stroke: #A80036; stroke-width: 1.0;" width="10" x="506" y="345.4922"/><rect fill="#FFFFFF" filter="url(#f1m970lg5glf1g)" height="88.3984" style="stroke: #A80036; stroke-width: 1.0;" width="10" x="506" y="509.1563"/><rect fill="#FFFFFF" filter="url(#f1m970lg5glf1g)" height="29.1328" style="stroke: #A80036; stroke-width: 1.0;" width="10" x="727" y="170.6953"/><rect fill="#FFFFFF" filter="url(#f1m970lg5glf1g)" height="29.1328" style="stroke: #A80036; stroke-width: 1.0;" width="10" x="727" y="228.9609"/><rect fill="#FFFFFF" filter="url(#f1m970lg5glf1g)" height="29.1328" style="stroke: #A80036; stroke-width: 1.0;" width="10" x="727" y="287.2266"/><rect fill="#FFFFFF" filter="url(#f1m970lg5glf1g)" height="505.3906" style="stroke: #A80036; stroke-width: 1.0;" width="10" x="727" y="641.6875"/><rect fill="#FFFFFF" filter="url(#f1m970lg5glf1g)" height="94.3984" style="stroke: #A80036; stroke-width: 1.0;" width="10" x="732" y="793.75"/><rect fill="#FFFFFF" filter="url(#f1m970lg5glf1g)" height="178.6641" style="stroke: #A80036; stroke-width: 1.0;" width="10" x="732" y="932.2813"/><rect fill="#FFFFFF" filter="url(#f1m970lg5glf1g)" height="94.3984" style="stroke: #A80036; stroke-width: 1.0;" width="10" x="737" y="974.4141"/><rect fill="#FFFFFF" filter="url(#f1m970lg5glf1g)" height="102.5313" style="stroke: #A80036; stroke-width: 1.0;" width="10" x="906.5" y="1260.1484"/><rect fill="#FFFFFF" filter="url(#f1m970lg5glf1g)" height="29.2656" style="stroke: #A80036; stroke-width: 1.0;" width="10" x="1149.5" y="1304.2813"/><rect fill="#EEEEEE" filter="url(#f1m970lg5glf1g)" height="3" style="stroke: #EEEEEE; stroke-width: 1.0;" width="1249.5" x="3" y="68.8633"/><line style="stroke: #000000; stroke-width: 1.0;" x1="3" x2="1252.5" y1="68.8633" y2="68.8633"/><line style="stroke: #000000; stroke-width: 1.0;" x1="3" x2="1252.5" y1="71.8633" y2="71.8633"/><rect fill="#EEEEEE" filter="url(#f1m970lg5glf1g)" height="23.1328" style="stroke: #000000; stroke-width: 2.0;" width="176" x="539.75" y="58.2969"/><text fill="#0000FF" font-family="sans-serif" font-size="13" font-weight="bold" lengthAdjust="spacingAndGlyphs" textLength="152" x="550.75" y="74.3638">When ROIPriority init</text><polygon fill="#A80036" points="417,108.4297,427,112.4297,417,116.4297,421,112.4297" style="stroke: #A80036; stroke-width: 1.0;"/><line style="stroke: #A80036; stroke-width: 1.0;" x1="151" x2="423" y1="112.4297" y2="112.4297"/><text fill="#000000" font-family="sans-serif" font-size="13" font-weight="bold" lengthAdjust="spacingAndGlyphs" textLength="259" x="158" y="107.4966">FDPrio::process(FDPRIO_CMD_INIT)</text><polygon fill="#A80036" points="162,137.5625,152,141.5625,162,145.5625,158,141.5625" style="stroke: #A80036; stroke-width: 1.0;"/><line style="stroke: #A80036; stroke-width: 1.0;" x1="156" x2="433" y1="141.5625" y2="141.5625"/><text fill="#000000" font-family="sans-serif" font-size="13" lengthAdjust="spacingAndGlyphs" textLength="39" x="168" y="136.6294">return</text><polygon fill="#A80036" points="715,166.6953,725,170.6953,715,174.6953,719,170.6953" style="stroke: #A80036; stroke-width: 1.0;"/><line style="stroke: #A80036; stroke-width: 1.0;" x1="151" x2="721" y1="170.6953" y2="170.6953"/><text fill="#000000" font-family="sans-serif" font-size="13" font-weight="bold" lengthAdjust="spacingAndGlyphs" textLength="167" x="158" y="165.7622">CAMX_NEW ROIPriority</text><polygon fill="#A80036" points="162,195.8281,152,199.8281,162,203.8281,158,199.8281" style="stroke: #A80036; stroke-width: 1.0;"/><line style="stroke: #A80036; stroke-width: 1.0;" x1="156" x2="731" y1="199.8281" y2="199.8281"/><text fill="#000000" font-family="sans-serif" font-size="13" lengthAdjust="spacingAndGlyphs" textLength="39" x="168" y="194.895">return</text><polygon fill="#A80036" points="715,224.9609,725,228.9609,715,232.9609,719,228.9609" style="stroke: #A80036; stroke-width: 1.0;"/><line style="stroke: #A80036; stroke-width: 1.0;" x1="151" x2="721" y1="228.9609" y2="228.9609"/><text fill="#000000" font-family="sans-serif" font-size="13" font-weight="bold" lengthAdjust="spacingAndGlyphs" textLength="274" x="158" y="224.0278">m_pFaceROIPriority-&gt;SetLogFunction</text><polygon fill="#A80036" points="162,254.0938,152,258.0938,162,262.0938,158,258.0938" style="stroke: #A80036; stroke-width: 1.0;"/><line style="stroke: #A80036; stroke-width: 1.0;" x1="156" x2="731" y1="258.0938" y2="258.0938"/><text fill="#000000" font-family="sans-serif" font-size="13" lengthAdjust="spacingAndGlyphs" textLength="39" x="168" y="253.1606">return</text><polygon fill="#A80036" points="715,283.2266,725,287.2266,715,291.2266,719,287.2266" style="stroke: #A80036; stroke-width: 1.0;"/><line style="stroke: #A80036; stroke-width: 1.0;" x1="151" x2="721" y1="287.2266" y2="287.2266"/><text fill="#000000" font-family="sans-serif" font-size="13" font-weight="bold" lengthAdjust="spacingAndGlyphs" textLength="268" x="158" y="282.2935">m_pFaceROIPriority-&gt;SetTuningData</text><polygon fill="#A80036" points="162,312.3594,152,316.3594,162,320.3594,158,316.3594" style="stroke: #A80036; stroke-width: 1.0;"/><line style="stroke: #A80036; stroke-width: 1.0;" x1="156" x2="731" y1="316.3594" y2="316.3594"/><text fill="#000000" font-family="sans-serif" font-size="13" lengthAdjust="spacingAndGlyphs" textLength="39" x="168" y="311.4263">return</text><polygon fill="#A80036" points="494,341.4922,504,345.4922,494,349.4922,498,345.4922" style="stroke: #A80036; stroke-width: 1.0;"/><line style="stroke: #A80036; stroke-width: 1.0;" x1="151" x2="500" y1="345.4922" y2="345.4922"/><text fill="#000000" font-family="sans-serif" font-size="13" font-weight="bold" lengthAdjust="spacingAndGlyphs" textLength="162" x="158" y="340.5591">af_haf_set_roi_priority</text><polygon fill="#FBFB77" filter="url(#f1m970lg5glf1g)" points="318,358.625,318,398.625,699,398.625,699,368.625,689,358.625,318,358.625" style="stroke: #A80036; stroke-width: 1.0;"/><line style="stroke: #A80036; stroke-width: 1.0;" x1="689" x2="689" y1="358.625" y2="368.625"/><line style="stroke: #A80036; stroke-width: 1.0;" x1="699" x2="689" y1="368.625" y2="368.625"/><text fill="#000000" font-family="sans-serif" font-size="13" lengthAdjust="spacingAndGlyphs" textLength="45" x="324" y="375.6919">will use</text><text fill="#000000" font-family="sans-serif" font-size="13" font-weight="bold" lengthAdjust="spacingAndGlyphs" textLength="215" x="373" y="375.6919">HAFSetParamFaceROIPriority</text><text fill="#000000" font-family="sans-serif" font-size="13" lengthAdjust="spacingAndGlyphs" textLength="92" x="592" y="375.6919">set to caf/pdaf</text><text fill="#000000" font-family="sans-serif" font-size="13" lengthAdjust="spacingAndGlyphs" textLength="266" x="324" y="390.8247">and caf/pdaf will make use of FaceROI info</text><polygon fill="#A80036" points="162,424.8906,152,428.8906,162,432.8906,158,428.8906" style="stroke: #A80036; stroke-width: 1.0;"/><line style="stroke: #A80036; stroke-width: 1.0;" x1="156" x2="510" y1="428.8906" y2="428.8906"/><text fill="#000000" font-family="sans-serif" font-size="13" lengthAdjust="spacingAndGlyphs" textLength="39" x="168" y="423.9575">return</text><rect fill="#EEEEEE" filter="url(#f1m970lg5glf1g)" height="3" style="stroke: #EEEEEE; stroke-width: 1.0;" width="1249.5" x="3" y="457.5898"/><line style="stroke: #000000; stroke-width: 1.0;" x1="3" x2="1252.5" y1="457.5898" y2="457.5898"/><line style="stroke: #000000; stroke-width: 1.0;" x1="3" x2="1252.5" y1="460.5898" y2="460.5898"/><rect fill="#EEEEEE" filter="url(#f1m970lg5glf1g)" height="23.1328" style="stroke: #000000; stroke-width: 2.0;" width="169" x="543.25" y="447.0234"/><text fill="#0000FF" font-family="sans-serif" font-size="13" font-weight="bold" lengthAdjust="spacingAndGlyphs" textLength="145" x="554.25" y="463.0903">What ROIPriority do</text><line style="stroke: #A80036; stroke-width: 1.0;" x1="511" x2="558" y1="496.2891" y2="496.2891"/><line style="stroke: #A80036; stroke-width: 1.0;" x1="558" x2="558" y1="496.2891" y2="509.2891"/><line style="stroke: #A80036; stroke-width: 1.0;" x1="517" x2="558" y1="509.2891" y2="509.2891"/><polygon fill="#A80036" points="527,505.2891,517,509.2891,527,513.2891,523,509.2891" style="stroke: #A80036; stroke-width: 1.0;"/><text fill="#000000" font-family="sans-serif" font-size="13" font-weight="bold" lengthAdjust="spacingAndGlyphs" textLength="207" x="523" y="491.2231">af_haf_set_face_information</text><polygon fill="#FBFB77" filter="url(#f1m970lg5glf1g)" points="314,527.2891,314,567.2891,704,567.2891,704,537.2891,694,527.2891,314,527.2891" style="stroke: #A80036; stroke-width: 1.0;"/><line style="stroke: #A80036; stroke-width: 1.0;" x1="694" x2="694" y1="527.2891" y2="537.2891"/><line style="stroke: #A80036; stroke-width: 1.0;" x1="704" x2="694" y1="537.2891" y2="537.2891"/><text fill="#000000" font-family="sans-serif" font-size="13" font-weight="bold" lengthAdjust="spacingAndGlyphs" textLength="247" x="320" y="544.356">HAFSetParamFaceROIInformation</text><text fill="#000000" font-family="sans-serif" font-size="13" lengthAdjust="spacingAndGlyphs" textLength="122" x="567" y="544.356">, will set to caf/pdaf</text><text fill="#000000" font-family="sans-serif" font-size="13" lengthAdjust="spacingAndGlyphs" textLength="301" x="320" y="559.4888">will see what happen, when face roi info change</text><polygon fill="#A80036" points="162,593.5547,152,597.5547,162,601.5547,158,597.5547" style="stroke: #A80036; stroke-width: 1.0;"/><line style="stroke: #A80036; stroke-width: 1.0;" x1="156" x2="510" y1="597.5547" y2="597.5547"/><text fill="#000000" font-family="sans-serif" font-size="13" lengthAdjust="spacingAndGlyphs" textLength="39" x="168" y="592.6216">return</text><polygon fill="#A80036" points="748,637.6875,738,641.6875,748,645.6875,744,641.6875" style="stroke: #A80036; stroke-width: 1.0;"/><line style="stroke: #A80036; stroke-width: 1.0;" x1="742" x2="1233" y1="641.6875" y2="641.6875"/><text fill="#000000" font-family="sans-serif" font-size="13" lengthAdjust="spacingAndGlyphs" textLength="122" x="754" y="621.7544">ROIStableChecker::</text><text fill="#000000" font-family="sans-serif" font-size="13" font-weight="bold" lengthAdjust="spacingAndGlyphs" textLength="114" x="754" y="636.8872">UpdateROIData</text><polygon fill="#FBFB77" filter="url(#f1m970lg5glf1g)" points="574,654.9531,574,754.9531,885,754.9531,885,664.9531,875,654.9531,574,654.9531" style="stroke: #A80036; stroke-width: 1.0;"/><line style="stroke: #A80036; stroke-width: 1.0;" x1="875" x2="875" y1="654.9531" y2="664.9531"/><line style="stroke: #A80036; stroke-width: 1.0;" x1="885" x2="875" y1="664.9531" y2="664.9531"/><text fill="#000000" font-family="sans-serif" font-size="13" lengthAdjust="spacingAndGlyphs" textLength="81" x="580" y="672.02">now we have</text><text fill="#000000" font-family="sans-serif" font-size="13" font-weight="bold" lengthAdjust="spacingAndGlyphs" textLength="76" x="665" y="672.02">ROI stable</text><text fill="#000000" font-family="sans-serif" font-size="13" lengthAdjust="spacingAndGlyphs" textLength="24" x="745" y="672.02">and</text><text fill="#000000" font-family="sans-serif" font-size="13" font-weight="bold" lengthAdjust="spacingAndGlyphs" textLength="86" x="773" y="672.02">ROI Change</text><text fill="#000000" font-family="sans-serif" font-size="13" lengthAdjust="spacingAndGlyphs" textLength="17" x="580" y="687.1528">for</text><text fill="#FF0000" font-family="sans-serif" font-size="13" font-weight="bold" lengthAdjust="spacingAndGlyphs" textLength="29" x="601" y="687.1528">CAF</text><text fill="#000000" font-family="sans-serif" font-size="13" lengthAdjust="spacingAndGlyphs" textLength="4" x="630" y="687.1528">:</text><text fill="#000000" font-family="sans-serif" font-size="13" lengthAdjust="spacingAndGlyphs" textLength="208" x="596" y="702.2856">we have pROIStable/pROIChange</text><text fill="#000000" font-family="sans-serif" font-size="13" lengthAdjust="spacingAndGlyphs" textLength="17" x="580" y="717.4185">for</text><text fill="#FF0000" font-family="sans-serif" font-size="13" font-weight="bold" lengthAdjust="spacingAndGlyphs" textLength="40" x="601" y="717.4185">PDAF</text><text fill="#000000" font-family="sans-serif" font-size="13" lengthAdjust="spacingAndGlyphs" textLength="4" x="641" y="717.4185">:</text><text fill="#000000" font-family="sans-serif" font-size="13" lengthAdjust="spacingAndGlyphs" textLength="274" x="596" y="732.5513">we have pROIRoubhStable/pROIStrictStable</text><text fill="#000000" font-family="sans-serif" font-size="13" lengthAdjust="spacingAndGlyphs" textLength="114" x="596" y="747.6841">ROIStableChecker</text><line style="stroke: #A80036; stroke-width: 1.0;" x1="737" x2="784" y1="780.8828" y2="780.8828"/><line style="stroke: #A80036; stroke-width: 1.0;" x1="784" x2="784" y1="780.8828" y2="793.8828"/><line style="stroke: #A80036; stroke-width: 1.0;" x1="743" x2="784" y1="793.8828" y2="793.8828"/><polygon fill="#A80036" points="753,789.8828,743,793.8828,753,797.8828,749,793.8828" style="stroke: #A80036; stroke-width: 1.0;"/><text fill="#000000" font-family="sans-serif" font-size="13" lengthAdjust="spacingAndGlyphs" textLength="117" x="749" y="775.8169">ConvertToROIData</text><polygon fill="#FBFB77" filter="url(#f1m970lg5glf1g)" points="632,811.8828,632,851.8828,827,851.8828,827,821.8828,817,811.8828,632,811.8828" style="stroke: #A80036; stroke-width: 1.0;"/><line style="stroke: #A80036; stroke-width: 1.0;" x1="817" x2="817" y1="811.8828" y2="821.8828"/><line style="stroke: #A80036; stroke-width: 1.0;" x1="827" x2="817" y1="821.8828" y2="821.8828"/><text fill="#000000" font-family="sans-serif" font-size="13" lengthAdjust="spacingAndGlyphs" textLength="119" x="638" y="828.9497">will push_back to a</text><text fill="#000000" font-family="sans-serif" font-size="13" font-weight="bold" lengthAdjust="spacingAndGlyphs" textLength="46" x="761" y="828.9497">vector</text><text fill="#000000" font-family="sans-serif" font-size="13" lengthAdjust="spacingAndGlyphs" textLength="174" x="638" y="844.0825">which contain inputROIData</text><line style="stroke: #A80036; stroke-width: 1.0;" x1="742" x2="784" y1="887.2813" y2="887.2813"/><line style="stroke: #A80036; stroke-width: 1.0;" x1="784" x2="784" y1="887.2813" y2="900.2813"/><line style="stroke: #A80036; stroke-width: 1.0;" x1="737" x2="784" y1="900.2813" y2="900.2813"/><polygon fill="#A80036" points="747,896.2813,737,900.2813,747,904.2813,743,900.2813" style="stroke: #A80036; stroke-width: 1.0;"/><text fill="#000000" font-family="sans-serif" font-size="13" lengthAdjust="spacingAndGlyphs" textLength="39" x="749" y="882.2153">return</text><line style="stroke: #A80036; stroke-width: 1.0;" x1="737" x2="784" y1="919.4141" y2="919.4141"/><line style="stroke: #A80036; stroke-width: 1.0;" x1="784" x2="784" y1="919.4141" y2="932.4141"/><line style="stroke: #A80036; stroke-width: 1.0;" x1="743" x2="784" y1="932.4141" y2="932.4141"/><polygon fill="#A80036" points="753,928.4141,743,932.4141,753,936.4141,749,932.4141" style="stroke: #A80036; stroke-width: 1.0;"/><text fill="#FF0000" font-family="sans-serif" font-size="13" font-weight="bold" lengthAdjust="spacingAndGlyphs" textLength="126" x="749" y="914.3481">UpdateROIStable</text><line style="stroke: #A80036; stroke-width: 1.0;" x1="742" x2="789" y1="961.5469" y2="961.5469"/><line style="stroke: #A80036; stroke-width: 1.0;" x1="789" x2="789" y1="961.5469" y2="974.5469"/><line style="stroke: #A80036; stroke-width: 1.0;" x1="748" x2="789" y1="974.5469" y2="974.5469"/><polygon fill="#A80036" points="758,970.5469,748,974.5469,758,978.5469,754,974.5469" style="stroke: #A80036; stroke-width: 1.0;"/><text fill="#000000" font-family="sans-serif" font-size="13" font-weight="bold" lengthAdjust="spacingAndGlyphs" textLength="126" x="754" y="956.481">UpdateThreshold</text><polygon fill="#FBFB77" filter="url(#f1m970lg5glf1g)" points="589,992.5469,589,1032.5469,871,1032.5469,871,1002.5469,861,992.5469,589,992.5469" style="stroke: #A80036; stroke-width: 1.0;"/><line style="stroke: #A80036; stroke-width: 1.0;" x1="861" x2="861" y1="992.5469" y2="1002.5469"/><line style="stroke: #A80036; stroke-width: 1.0;" x1="871" x2="861" y1="1002.5469" y2="1002.5469"/><text fill="#000000" font-family="sans-serif" font-size="13" lengthAdjust="spacingAndGlyphs" textLength="18" x="595" y="1009.6138">will</text><text fill="#000000" font-family="sans-serif" font-size="13" font-weight="bold" lengthAdjust="spacingAndGlyphs" textLength="88" x="617" y="1009.6138">GetAECGain</text><text fill="#000000" font-family="sans-serif" font-size="13" lengthAdjust="spacingAndGlyphs" textLength="147" x="709" y="1009.6138">and tuning trigger data</text><text fill="#000000" font-family="sans-serif" font-size="13" lengthAdjust="spacingAndGlyphs" textLength="230" x="595" y="1024.7466">got the trigger index m_TuningIndex</text><line style="stroke: #A80036; stroke-width: 1.0;" x1="747" x2="789" y1="1067.9453" y2="1067.9453"/><line style="stroke: #A80036; stroke-width: 1.0;" x1="789" x2="789" y1="1067.9453" y2="1080.9453"/><line style="stroke: #A80036; stroke-width: 1.0;" x1="742" x2="789" y1="1080.9453" y2="1080.9453"/><polygon fill="#A80036" points="752,1076.9453,742,1080.9453,752,1084.9453,748,1080.9453" style="stroke: #A80036; stroke-width: 1.0;"/><text fill="#000000" font-family="sans-serif" font-size="13" lengthAdjust="spacingAndGlyphs" textLength="39" x="754" y="1062.8794">return</text><line style="stroke: #A80036; stroke-width: 1.0;" x1="742" x2="784" y1="1110.0781" y2="1110.0781"/><line style="stroke: #A80036; stroke-width: 1.0;" x1="784" x2="784" y1="1110.0781" y2="1123.0781"/><line style="stroke: #A80036; stroke-width: 1.0;" x1="737" x2="784" y1="1123.0781" y2="1123.0781"/><polygon fill="#A80036" points="747,1119.0781,737,1123.0781,747,1127.0781,743,1123.0781" style="stroke: #A80036; stroke-width: 1.0;"/><text fill="#000000" font-family="sans-serif" font-size="13" lengthAdjust="spacingAndGlyphs" textLength="39" x="749" y="1105.0122">return</text><polygon fill="#A80036" points="1222,1143.0781,1232,1147.0781,1222,1151.0781,1226,1147.0781" style="stroke: #A80036; stroke-width: 1.0;"/><line style="stroke: #A80036; stroke-width: 1.0;" x1="732" x2="1228" y1="1147.0781" y2="1147.0781"/><text fill="#000000" font-family="sans-serif" font-size="13" lengthAdjust="spacingAndGlyphs" textLength="39" x="739" y="1142.145">return</text><text fill="#000000" font-family="sans-serif" font-size="11" lengthAdjust="spacingAndGlyphs" textLength="0" x="633.75" y="1179.4214"/><rect fill="#EEEEEE" filter="url(#f1m970lg5glf1g)" height="3" style="stroke: #EEEEEE; stroke-width: 1.0;" width="1249.5" x="3" y="1216.582"/><line style="stroke: #000000; stroke-width: 1.0;" x1="3" x2="1252.5" y1="1216.582" y2="1216.582"/><line style="stroke: #000000; stroke-width: 1.0;" x1="3" x2="1252.5" y1="1219.582" y2="1219.582"/><rect fill="#EEEEEE" filter="url(#f1m970lg5glf1g)" height="23.1328" style="stroke: #000000; stroke-width: 2.0;" width="430" x="412.75" y="1206.0156"/><text fill="#0000FF" font-family="sans-serif" font-size="13" font-weight="bold" lengthAdjust="spacingAndGlyphs" textLength="406" x="423.75" y="1222.0825">What does FD Node output? (means face data source)</text><polygon fill="#A80036" points="927.5,1256.1484,917.5,1260.1484,927.5,1264.1484,923.5,1260.1484" style="stroke: #A80036; stroke-width: 1.0;"/><line style="stroke: #A80036; stroke-width: 1.0;" x1="921.5" x2="1233" y1="1260.1484" y2="1260.1484"/><text fill="#000000" font-family="sans-serif" font-size="13" font-weight="bold" lengthAdjust="spacingAndGlyphs" textLength="236" x="933.5" y="1255.2153">PublishFDResultstoUsecasePool</text><polygon fill="#A80036" points="1137.5,1300.2813,1147.5,1304.2813,1137.5,1308.2813,1141.5,1304.2813" style="stroke: #A80036; stroke-width: 1.0;"/><line style="stroke: #A80036; stroke-width: 1.0;" x1="916.5" x2="1143.5" y1="1304.2813" y2="1304.2813"/><text fill="#000000" font-family="sans-serif" font-size="13" font-weight="bold" lengthAdjust="spacingAndGlyphs" textLength="100" x="923.5" y="1284.3481">WriteDataList</text><text fill="#000000" font-family="sans-serif" font-size="13" font-weight="bold" lengthAdjust="spacingAndGlyphs" textLength="214" x="923.5" y="1299.481">PropertyIDUsecaseFDResults</text><polygon fill="#A80036" points="927.5,1329.5469,917.5,1333.5469,927.5,1337.5469,923.5,1333.5469" style="stroke: #A80036; stroke-width: 1.0;"/><line style="stroke: #A80036; stroke-width: 1.0;" x1="921.5" x2="1153.5" y1="1333.5469" y2="1333.5469"/><text fill="#000000" font-family="sans-serif" font-size="13" lengthAdjust="spacingAndGlyphs" textLength="39" x="933.5" y="1328.6138">return</text><polygon fill="#A80036" points="1222,1358.6797,1232,1362.6797,1222,1366.6797,1226,1362.6797" style="stroke: #A80036; stroke-width: 1.0;"/><line style="stroke: #A80036; stroke-width: 1.0;" x1="911.5" x2="1228" y1="1362.6797" y2="1362.6797"/><text fill="#000000" font-family="sans-serif" font-size="13" lengthAdjust="spacingAndGlyphs" textLength="39" x="918.5" y="1357.7466">return</text><polygon fill="#FBFB77" filter="url(#f1m970lg5glf1g)" points="706,1375.8125,706,1521.8125,1112,1521.8125,1112,1385.8125,1102,1375.8125,706,1375.8125" style="stroke: #A80036; stroke-width: 1.0;"/><line style="stroke: #A80036; stroke-width: 1.0;" x1="1102" x2="1102" y1="1375.8125" y2="1385.8125"/><line style="stroke: #A80036; stroke-width: 1.0;" x1="1112" x2="1102" y1="1385.8125" y2="1385.8125"/><text fill="#000000" font-family="sans-serif" font-size="13" lengthAdjust="spacingAndGlyphs" textLength="114" x="712" y="1392.8794">Result from Code:</text><text fill="#000000" font-family="sans-serif" font-size="13" lengthAdjust="spacingAndGlyphs" textLength="162" x="712" y="1408.0122">1. in fdmanagernode, run</text><text fill="#000000" font-family="sans-serif" font-size="13" font-weight="bold" lengthAdjust="spacingAndGlyphs" textLength="193" x="878" y="1408.0122">DoFDFramePreprocessing</text><text fill="#000000" font-family="sans-serif" font-size="13" lengthAdjust="spacingAndGlyphs" textLength="4" x="1071" y="1408.0122">,</text><text fill="#000000" font-family="sans-serif" font-size="13" lengthAdjust="spacingAndGlyphs" textLength="373" x="724" y="1423.145">We can choose GTM、LTM for Preprocessing。but 8150 may</text><text fill="#000000" font-family="sans-serif" font-size="13" lengthAdjust="spacingAndGlyphs" textLength="57" x="724" y="1438.2778">not need</text><text fill="#000000" font-family="sans-serif" font-size="13" lengthAdjust="spacingAndGlyphs" textLength="172" x="712" y="1453.4106">2. FD node get image from</text><text fill="#000000" font-family="sans-serif" font-size="13" font-weight="bold" lengthAdjust="spacingAndGlyphs" textLength="200" x="888" y="1453.4106">FDManagerInputPortImage</text><text fill="#000000" font-family="sans-serif" font-size="13" lengthAdjust="spacingAndGlyphs" textLength="320" x="712" y="1468.5435">3. we can choose if publish the FD result(sw or hw)</text><text fill="#000000" font-family="sans-serif" font-size="13" lengthAdjust="spacingAndGlyphs" textLength="60" x="724" y="1483.6763">the tag is</text><text fill="#000000" font-family="sans-serif" font-size="13" font-weight="bold" lengthAdjust="spacingAndGlyphs" textLength="193" x="788" y="1483.6763">StatisticsFaceDetectMode</text><text fill="#000000" font-family="sans-serif" font-size="13" lengthAdjust="spacingAndGlyphs" textLength="0" x="724" y="1498.8091"/><text fill="#000000" font-family="sans-serif" font-size="13" font-weight="bold" lengthAdjust="spacingAndGlyphs" textLength="185" x="724" y="1498.8091">StatisticsFaceRectangles</text><text fill="#000000" font-family="sans-serif" font-size="13" lengthAdjust="spacingAndGlyphs" textLength="0" x="724" y="1513.9419"/><text fill="#000000" font-family="sans-serif" font-size="13" font-weight="bold" lengthAdjust="spacingAndGlyphs" textLength="152" x="724" y="1513.9419">StatisticsFaceScores</text><!--
@startuml
participant aec
participant awb
participant af_core
participant af_fdprio
participant af_haf
participant camxstatsroiprocessor

participant camxfdmanagernode
participant MetadataPool

== <color:blue> When ROIPriority init </color>==
af_core->af_fdprio: **FDPrio::process(FDPRIO_CMD_INIT)**
activate af_fdprio
af_fdprio->af_core: return
deactivate af_fdprio

af_core->camxstatsroiprocessor: **CAMX_NEW ROIPriority**
activate camxstatsroiprocessor
camxstatsroiprocessor->af_core: return
deactivate camxstatsroiprocessor

af_core->camxstatsroiprocessor: **m_pFaceROIPriority->SetLogFunction**
activate camxstatsroiprocessor
camxstatsroiprocessor->af_core: return
deactivate camxstatsroiprocessor

af_core->camxstatsroiprocessor: **m_pFaceROIPriority->SetTuningData**
activate camxstatsroiprocessor
camxstatsroiprocessor->af_core: return
deactivate camxstatsroiprocessor

af_core->af_haf: **af_haf_set_roi_priority**
activate af_haf
  note over af_haf
    will use **HAFSetParamFaceROIPriority** set to caf/pdaf
    and caf/pdaf will make use of FaceROI info
  end note
af_haf->af_core: return
deactivate af_haf

== <color:blue> What ROIPriority do </color>==
af_haf->af_haf: **af_haf_set_face_information**
activate af_haf
  note over af_haf
    **HAFSetParamFaceROIInformation**, will set to caf/pdaf
    will see what happen, when face roi info change
  end note
af_haf->af_core: return
deactivate af_haf

o->camxstatsroiprocessor: ROIStableChecker::\n**UpdateROIData**
note over camxstatsroiprocessor
  now we have **ROI stable** and **ROI Change**
  for <color:red>**CAF**</color>:
      we have pROIStable/pROIChange
  for <color:red>**PDAF**</color>:
      we have pROIRoubhStable/pROIStrictStable
      ROIStableChecker
end note
activate camxstatsroiprocessor
  camxstatsroiprocessor->camxstatsroiprocessor: ConvertToROIData
  activate camxstatsroiprocessor
    note over camxstatsroiprocessor
      will push_back to a **vector**
      which contain inputROIData
    end note
  camxstatsroiprocessor->camxstatsroiprocessor: return
  deactivate camxstatsroiprocessor

  camxstatsroiprocessor->camxstatsroiprocessor: <color:red>**UpdateROIStable**</color>
  activate camxstatsroiprocessor

    camxstatsroiprocessor->camxstatsroiprocessor: **UpdateThreshold**
    activate camxstatsroiprocessor
      note over camxstatsroiprocessor
        will **GetAECGain** and tuning trigger data
        got the trigger index m_TuningIndex
      end note
    camxstatsroiprocessor->camxstatsroiprocessor: return
    deactivate camxstatsroiprocessor

  camxstatsroiprocessor->camxstatsroiprocessor: return
  deactivate camxstatsroiprocessor

o<-camxstatsroiprocessor: return
deactivate camxstatsroiprocessor

... ...
== <color:blue> What does FD Node output? (means face data source) </color>==
o->camxfdmanagernode: **PublishFDResultstoUsecasePool**
activate camxfdmanagernode
  camxfdmanagernode->MetadataPool: **WriteDataList**\n**PropertyIDUsecaseFDResults**
  activate MetadataPool
  MetadataPool->camxfdmanagernode: return
  deactivate MetadataPool
camxfdmanagernode->o: return
deactivate camxfdmanagernode


note over camxfdmanagernode
Result from Code:
1. in fdmanagernode, run **DoFDFramePreprocessing**,
   We can choose GTM、LTM for Preprocessing。but 8150 may
   not need
2. FD node get image from **FDManagerInputPortImage**
3. we can choose if publish the FD result(sw or hw)
   the tag is **StatisticsFaceDetectMode**
   **StatisticsFaceRectangles**
   **StatisticsFaceScores**
end note
@enduml

PlantUML version 1.2017.20(Mon Dec 11 16:57:05 GMT 2017)
(GPL source distribution)
Java Runtime: OpenJDK Runtime Environment
JVM: OpenJDK 64-Bit Server VM
Java Version: 1.8.0_171-8u171-b11-0ubuntu0.16.04.1-b11
Operating System: Linux
OS Version: 4.4.0-43-Microsoft
Default Encoding: UTF-8
Language: en
Country: US
--></g></svg>