<?xml version="1.0" encoding="UTF-8" standalone="no"?><svg xmlns="http://www.w3.org/2000/svg" xmlns:xlink="http://www.w3.org/1999/xlink" contentScriptType="application/ecmascript" contentStyleType="text/css" height="1806px" preserveAspectRatio="none" style="width:1361px;height:1806px;" version="1.1" viewBox="0 0 1361 1806" width="1361px" zoomAndPan="magnify"><defs><filter height="300%" id="f7ee67y93f63o" width="300%" x="-1" y="-1"><feGaussianBlur result="blurOut" stdDeviation="2.0"/><feColorMatrix in="blurOut" result="blurOut2" type="matrix" values="0 0 0 0 0 0 0 0 0 0 0 0 0 0 0 0 0 0 .4 0"/><feOffset dx="4.0" dy="4.0" in="blurOut2" result="blurOut3"/><feBlend in="SourceGraphic" in2="blurOut3" mode="normal"/></filter></defs><g><text fill="#000000" font-family="sans-serif" font-size="18" font-weight="bold" lengthAdjust="spacingAndGlyphs" textLength="132" x="610" y="28.6855">PD parse detail</text><rect fill="#FFA07A" filter="url(#f7ee67y93f63o)" height="344.8125" style="stroke: #A80036; stroke-width: 1.0;" width="10" x="428.5" y="347.1875"/><rect fill="#FFFFFF" filter="url(#f7ee67y93f63o)" height="259.1641" style="stroke: #A80036; stroke-width: 1.0;" width="10" x="732" y="950"/><rect fill="#FFFFFF" filter="url(#f7ee67y93f63o)" height="147.1094" style="stroke: #A80036; stroke-width: 1.0;" width="10" x="737" y="988.3516"/><rect fill="#FFFFFF" filter="url(#f7ee67y93f63o)" height="244.8672" style="stroke: #A80036; stroke-width: 1.0;" width="10" x="1069" y="1483.8438"/><line style="stroke: #A80036; stroke-width: 1.0;" x1="433" x2="433" y1="93.8594" y2="886.1641"/><line style="stroke: #A80036; stroke-width: 1.0; stroke-dasharray: 1.0,4.0;" x1="433" x2="433" y1="886.1641" y2="928"/><line style="stroke: #A80036; stroke-width: 1.0;" x1="433" x2="433" y1="928" y2="1747.0625"/><line style="stroke: #A80036; stroke-width: 1.0;" x1="614" x2="614" y1="93.8594" y2="886.1641"/><line style="stroke: #A80036; stroke-width: 1.0; stroke-dasharray: 1.0,4.0;" x1="614" x2="614" y1="886.1641" y2="928"/><line style="stroke: #A80036; stroke-width: 1.0;" x1="614" x2="614" y1="928" y2="1747.0625"/><line style="stroke: #A80036; stroke-width: 1.0;" x1="737" x2="737" y1="93.8594" y2="886.1641"/><line style="stroke: #A80036; stroke-width: 1.0; stroke-dasharray: 1.0,4.0;" x1="737" x2="737" y1="886.1641" y2="928"/><line style="stroke: #A80036; stroke-width: 1.0;" x1="737" x2="737" y1="928" y2="1747.0625"/><line style="stroke: #A80036; stroke-width: 1.0;" x1="907" x2="907" y1="93.8594" y2="886.1641"/><line style="stroke: #A80036; stroke-width: 1.0; stroke-dasharray: 1.0,4.0;" x1="907" x2="907" y1="886.1641" y2="928"/><line style="stroke: #A80036; stroke-width: 1.0;" x1="907" x2="907" y1="928" y2="1747.0625"/><line style="stroke: #A80036; stroke-width: 1.0;" x1="1074" x2="1074" y1="93.8594" y2="886.1641"/><line style="stroke: #A80036; stroke-width: 1.0; stroke-dasharray: 1.0,4.0;" x1="1074" x2="1074" y1="886.1641" y2="928"/><line style="stroke: #A80036; stroke-width: 1.0;" x1="1074" x2="1074" y1="928" y2="1747.0625"/><line style="stroke: #A80036; stroke-width: 1.0;" x1="1254" x2="1254" y1="93.8594" y2="886.1641"/><line style="stroke: #A80036; stroke-width: 1.0; stroke-dasharray: 1.0,4.0;" x1="1254" x2="1254" y1="886.1641" y2="928"/><line style="stroke: #A80036; stroke-width: 1.0;" x1="1254" x2="1254" y1="928" y2="1747.0625"/><rect fill="#FEFECE" filter="url(#f7ee67y93f63o)" height="31.6094" style="stroke: #A80036; stroke-width: 1.5;" width="35" x="414" y="57.25"/><text fill="#000000" font-family="sans-serif" font-size="14" lengthAdjust="spacingAndGlyphs" textLength="21" x="421" y="78.7832">Chi</text><rect fill="#FEFECE" filter="url(#f7ee67y93f63o)" height="31.6094" style="stroke: #A80036; stroke-width: 1.5;" width="35" x="414" y="1746.0625"/><text fill="#000000" font-family="sans-serif" font-size="14" lengthAdjust="spacingAndGlyphs" textLength="21" x="421" y="1767.5957">Chi</text><rect fill="#FEFECE" filter="url(#f7ee67y93f63o)" height="31.6094" style="stroke: #A80036; stroke-width: 1.5;" width="63" x="581" y="57.25"/><text fill="#000000" font-family="sans-serif" font-size="14" lengthAdjust="spacingAndGlyphs" textLength="49" x="588" y="78.7832">pipeline</text><rect fill="#FEFECE" filter="url(#f7ee67y93f63o)" height="31.6094" style="stroke: #A80036; stroke-width: 1.5;" width="63" x="581" y="1746.0625"/><text fill="#000000" font-family="sans-serif" font-size="14" lengthAdjust="spacingAndGlyphs" textLength="49" x="588" y="1767.5957">pipeline</text><rect fill="#FEFECE" filter="url(#f7ee67y93f63o)" height="49.2188" style="stroke: #A80036; stroke-width: 1.5;" width="154" x="658" y="39.6406"/><text fill="#000000" font-family="sans-serif" font-size="14" lengthAdjust="spacingAndGlyphs" textLength="81" x="694.5" y="61.1738">pdlibwrapper</text><text fill="#000000" font-family="sans-serif" font-size="14" lengthAdjust="spacingAndGlyphs" textLength="140" x="665" y="78.7832">camxpdlibwrapper.cpp</text><rect fill="#FEFECE" filter="url(#f7ee67y93f63o)" height="49.2188" style="stroke: #A80036; stroke-width: 1.5;" width="154" x="658" y="1746.0625"/><text fill="#000000" font-family="sans-serif" font-size="14" lengthAdjust="spacingAndGlyphs" textLength="81" x="694.5" y="1767.5957">pdlibwrapper</text><text fill="#000000" font-family="sans-serif" font-size="14" lengthAdjust="spacingAndGlyphs" textLength="140" x="665" y="1785.2051">camxpdlibwrapper.cpp</text><rect fill="#FEFECE" filter="url(#f7ee67y93f63o)" height="49.2188" style="stroke: #A80036; stroke-width: 1.5;" width="158" x="826" y="39.6406"/><text fill="#000000" font-family="sans-serif" font-size="14" lengthAdjust="spacingAndGlyphs" textLength="85" x="862.5" y="61.1738">pdlibinterface</text><text fill="#000000" font-family="sans-serif" font-size="14" lengthAdjust="spacingAndGlyphs" textLength="144" x="833" y="78.7832">camxpdlibinterface.cpp</text><rect fill="#FEFECE" filter="url(#f7ee67y93f63o)" height="49.2188" style="stroke: #A80036; stroke-width: 1.5;" width="158" x="826" y="1746.0625"/><text fill="#000000" font-family="sans-serif" font-size="14" lengthAdjust="spacingAndGlyphs" textLength="85" x="862.5" y="1767.5957">pdlibinterface</text><text fill="#000000" font-family="sans-serif" font-size="14" lengthAdjust="spacingAndGlyphs" textLength="144" x="833" y="1785.2051">camxpdlibinterface.cpp</text><rect fill="#FEFECE" filter="url(#f7ee67y93f63o)" height="31.6094" style="stroke: #A80036; stroke-width: 1.5;" width="148" x="998" y="57.25"/><text fill="#000000" font-family="sans-serif" font-size="14" lengthAdjust="spacingAndGlyphs" textLength="134" x="1005" y="78.7832">camxsensornode.cpp</text><rect fill="#FEFECE" filter="url(#f7ee67y93f63o)" height="31.6094" style="stroke: #A80036; stroke-width: 1.5;" width="148" x="998" y="1746.0625"/><text fill="#000000" font-family="sans-serif" font-size="14" lengthAdjust="spacingAndGlyphs" textLength="134" x="1005" y="1767.5957">camxsensornode.cpp</text><rect fill="#FEFECE" filter="url(#f7ee67y93f63o)" height="31.6094" style="stroke: #A80036; stroke-width: 1.5;" width="176" x="1164" y="57.25"/><text fill="#000000" font-family="sans-serif" font-size="14" lengthAdjust="spacingAndGlyphs" textLength="162" x="1171" y="78.7832">camxpdlibraryhandler.cpp</text><rect fill="#FEFECE" filter="url(#f7ee67y93f63o)" height="31.6094" style="stroke: #A80036; stroke-width: 1.5;" width="176" x="1164" y="1746.0625"/><text fill="#000000" font-family="sans-serif" font-size="14" lengthAdjust="spacingAndGlyphs" textLength="162" x="1171" y="1767.5957">camxpdlibraryhandler.cpp</text><rect fill="#FFA07A" filter="url(#f7ee67y93f63o)" height="344.8125" style="stroke: #A80036; stroke-width: 1.0;" width="10" x="428.5" y="347.1875"/><rect fill="#FFFFFF" filter="url(#f7ee67y93f63o)" height="259.1641" style="stroke: #A80036; stroke-width: 1.0;" width="10" x="732" y="950"/><rect fill="#FFFFFF" filter="url(#f7ee67y93f63o)" height="147.1094" style="stroke: #A80036; stroke-width: 1.0;" width="10" x="737" y="988.3516"/><rect fill="#FFFFFF" filter="url(#f7ee67y93f63o)" height="244.8672" style="stroke: #A80036; stroke-width: 1.0;" width="10" x="1069" y="1483.8438"/><rect fill="#EEEEEE" filter="url(#f7ee67y93f63o)" height="3" style="stroke: #EEEEEE; stroke-width: 1.0;" width="1346" x="3" y="125.6641"/><line style="stroke: #000000; stroke-width: 1.0;" x1="3" x2="1349" y1="125.6641" y2="125.6641"/><line style="stroke: #000000; stroke-width: 1.0;" x1="3" x2="1349" y1="128.6641" y2="128.6641"/><rect fill="#EEEEEE" filter="url(#f7ee67y93f63o)" height="25.6094" style="stroke: #000000; stroke-width: 2.0;" width="119" x="616.5" y="113.8594"/><text fill="#FF0000" font-family="sans-serif" font-size="14" font-weight="bold" lengthAdjust="spacingAndGlyphs" textLength="93" x="626.5" y="132.3926">chi stats algo</text><text fill="#000000" font-family="sans-serif" font-size="13" font-weight="bold" lengthAdjust="spacingAndGlyphs" textLength="0" x="727.5" y="132.6123"/><polygon fill="#FBFB77" filter="url(#f7ee67y93f63o)" points="144,154.4688,144,262.4688,424,262.4688,424,164.4688,414,154.4688,144,154.4688" style="stroke: #A80036; stroke-width: 1.0;"/><line style="stroke: #A80036; stroke-width: 1.0;" x1="414" x2="414" y1="154.4688" y2="164.4688"/><line style="stroke: #A80036; stroke-width: 1.0;" x1="424" x2="414" y1="164.4688" y2="164.4688"/><text fill="#000000" font-family="sans-serif" font-size="13" lengthAdjust="spacingAndGlyphs" textLength="221" x="150" y="172.9639">ChiPDEntry[]    = "ChiPDLibraryEntry"</text><text fill="#000000" font-family="sans-serif" font-size="13" lengthAdjust="spacingAndGlyphs" textLength="251" x="150" y="189.3154">ChiASDEntry[]   = "ChiASDAlgorithmEntry"</text><text fill="#000000" font-family="sans-serif" font-size="13" lengthAdjust="spacingAndGlyphs" textLength="249" x="150" y="205.667">ChiAFDEntry[]   = "ChiAFDAlgorithmEntry"</text><text fill="#000000" font-family="sans-serif" font-size="13" lengthAdjust="spacingAndGlyphs" textLength="259" x="150" y="222.0186">ChiAWBEntry[]   = "ChiAWBAlgorithmEntry"</text><text fill="#000000" font-family="sans-serif" font-size="13" lengthAdjust="spacingAndGlyphs" textLength="235" x="150" y="238.3701">ChiAFEntry[]    = "ChiAFAlgorithmEntry"</text><text fill="#000000" font-family="sans-serif" font-size="13" lengthAdjust="spacingAndGlyphs" textLength="221" x="150" y="254.7217">from this text, can get Algorithm Entry</text><rect fill="#EEEEEE" filter="url(#f7ee67y93f63o)" height="3" style="stroke: #EEEEEE; stroke-width: 1.0;" width="1346" x="3" y="293.3828"/><line style="stroke: #000000; stroke-width: 1.0;" x1="3" x2="1349" y1="293.3828" y2="293.3828"/><line style="stroke: #000000; stroke-width: 1.0;" x1="3" x2="1349" y1="296.3828" y2="296.3828"/><rect fill="#EEEEEE" filter="url(#f7ee67y93f63o)" height="25.6094" style="stroke: #000000; stroke-width: 2.0;" width="115" x="618.5" y="281.5781"/><text fill="#FF0000" font-family="sans-serif" font-size="14" font-weight="bold" lengthAdjust="spacingAndGlyphs" textLength="89" x="628.5" y="300.1113">PD lib create</text><text fill="#000000" font-family="sans-serif" font-size="13" font-weight="bold" lengthAdjust="spacingAndGlyphs" textLength="0" x="725.5" y="300.3311"/><line style="stroke: #A80036; stroke-width: 1.0;" x1="433.5" x2="480.5" y1="334.5391" y2="334.5391"/><line style="stroke: #A80036; stroke-width: 1.0;" x1="480.5" x2="480.5" y1="334.5391" y2="347.5391"/><line style="stroke: #A80036; stroke-width: 1.0;" x1="439.5" x2="480.5" y1="347.5391" y2="347.5391"/><polygon fill="#A80036" points="449.5,343.5391,439.5,347.5391,449.5,351.5391,445.5,347.5391" style="stroke: #A80036; stroke-width: 1.0;"/><text fill="#000000" font-family="sans-serif" font-size="13" lengthAdjust="spacingAndGlyphs" textLength="126" x="445.5" y="329.6826">ProbeChiComponents</text><line style="stroke: #A80036; stroke-width: 1.0;" x1="438.5" x2="480.5" y1="382.8906" y2="382.8906"/><line style="stroke: #A80036; stroke-width: 1.0;" x1="480.5" x2="480.5" y1="382.8906" y2="395.8906"/><line style="stroke: #A80036; stroke-width: 1.0;" x1="439.5" x2="480.5" y1="395.8906" y2="395.8906"/><polygon fill="#A80036" points="449.5,391.8906,439.5,395.8906,449.5,399.8906,445.5,395.8906" style="stroke: #A80036; stroke-width: 1.0;"/><text fill="#000000" font-family="sans-serif" font-size="13" lengthAdjust="spacingAndGlyphs" textLength="153" x="445.5" y="378.0342">GetAECAlgorithmCallback</text><line style="stroke: #A80036; stroke-width: 1.0;" x1="438.5" x2="480.5" y1="426.2422" y2="426.2422"/><line style="stroke: #A80036; stroke-width: 1.0;" x1="480.5" x2="480.5" y1="426.2422" y2="439.2422"/><line style="stroke: #A80036; stroke-width: 1.0;" x1="439.5" x2="480.5" y1="439.2422" y2="439.2422"/><polygon fill="#A80036" points="449.5,435.2422,439.5,439.2422,449.5,443.2422,445.5,439.2422" style="stroke: #A80036; stroke-width: 1.0;"/><text fill="#000000" font-family="sans-serif" font-size="13" lengthAdjust="spacingAndGlyphs" textLength="152" x="445.5" y="421.3857">GetAFDAlgorithmCallback</text><line style="stroke: #A80036; stroke-width: 1.0;" x1="438.5" x2="480.5" y1="469.5938" y2="469.5938"/><line style="stroke: #A80036; stroke-width: 1.0;" x1="480.5" x2="480.5" y1="469.5938" y2="482.5938"/><line style="stroke: #A80036; stroke-width: 1.0;" x1="439.5" x2="480.5" y1="482.5938" y2="482.5938"/><polygon fill="#A80036" points="449.5,478.5938,439.5,482.5938,449.5,486.5938,445.5,482.5938" style="stroke: #A80036; stroke-width: 1.0;"/><text fill="#000000" font-family="sans-serif" font-size="13" lengthAdjust="spacingAndGlyphs" textLength="143" x="445.5" y="464.7373">GetAFAlgorithmCallback</text><line style="stroke: #A80036; stroke-width: 1.0;" x1="438.5" x2="480.5" y1="512.9453" y2="512.9453"/><line style="stroke: #A80036; stroke-width: 1.0;" x1="480.5" x2="480.5" y1="512.9453" y2="525.9453"/><line style="stroke: #A80036; stroke-width: 1.0;" x1="439.5" x2="480.5" y1="525.9453" y2="525.9453"/><polygon fill="#A80036" points="449.5,521.9453,439.5,525.9453,449.5,529.9453,445.5,525.9453" style="stroke: #A80036; stroke-width: 1.0;"/><text fill="#000000" font-family="sans-serif" font-size="13" lengthAdjust="spacingAndGlyphs" textLength="157" x="445.5" y="508.0889">GetAWBAlgorithmCallback</text><line style="stroke: #A80036; stroke-width: 1.0;" x1="438.5" x2="480.5" y1="556.2969" y2="556.2969"/><line style="stroke: #A80036; stroke-width: 1.0;" x1="480.5" x2="480.5" y1="556.2969" y2="569.2969"/><line style="stroke: #A80036; stroke-width: 1.0;" x1="439.5" x2="480.5" y1="569.2969" y2="569.2969"/><polygon fill="#A80036" points="449.5,565.2969,439.5,569.2969,449.5,573.2969,445.5,569.2969" style="stroke: #A80036; stroke-width: 1.0;"/><text fill="#000000" font-family="sans-serif" font-size="13" lengthAdjust="spacingAndGlyphs" textLength="153" x="445.5" y="551.4404">GetASDAlgorithmCallback</text><line style="stroke: #A80036; stroke-width: 1.0;" x1="438.5" x2="480.5" y1="599.6484" y2="599.6484"/><line style="stroke: #A80036; stroke-width: 1.0;" x1="480.5" x2="480.5" y1="599.6484" y2="612.6484"/><line style="stroke: #A80036; stroke-width: 1.0;" x1="439.5" x2="480.5" y1="612.6484" y2="612.6484"/><polygon fill="#A80036" points="449.5,608.6484,439.5,612.6484,449.5,616.6484,445.5,612.6484" style="stroke: #A80036; stroke-width: 1.0;"/><text fill="#000000" font-family="sans-serif" font-size="13" font-weight="bold" lengthAdjust="spacingAndGlyphs" textLength="140" x="445.5" y="594.792">GetPDLibraryCallback</text><line style="stroke: #A80036; stroke-width: 1.0;" x1="438.5" x2="480.5" y1="643" y2="643"/><line style="stroke: #A80036; stroke-width: 1.0;" x1="480.5" x2="480.5" y1="643" y2="656"/><line style="stroke: #A80036; stroke-width: 1.0;" x1="439.5" x2="480.5" y1="656" y2="656"/><polygon fill="#A80036" points="449.5,652,439.5,656,449.5,660,445.5,656" style="stroke: #A80036; stroke-width: 1.0;"/><text fill="#000000" font-family="sans-serif" font-size="13" lengthAdjust="spacingAndGlyphs" textLength="151" x="445.5" y="638.1436">GetHVXAlgorithmCallback</text><line style="stroke: #A80036; stroke-width: 1.0;" x1="438.5" x2="480.5" y1="691.3516" y2="691.3516"/><line style="stroke: #A80036; stroke-width: 1.0;" x1="480.5" x2="480.5" y1="691.3516" y2="704.3516"/><line style="stroke: #A80036; stroke-width: 1.0;" x1="433.5" x2="480.5" y1="704.3516" y2="704.3516"/><polygon fill="#A80036" points="443.5,700.3516,433.5,704.3516,443.5,708.3516,439.5,704.3516" style="stroke: #A80036; stroke-width: 1.0;"/><text fill="#000000" font-family="sans-serif" font-size="13" lengthAdjust="spacingAndGlyphs" textLength="33" x="445.5" y="686.4951">return</text><polygon fill="#FBFB77" filter="url(#f7ee67y93f63o)" points="163,712.3516,163,754.3516,424,754.3516,424,722.3516,414,712.3516,163,712.3516" style="stroke: #A80036; stroke-width: 1.0;"/><line style="stroke: #A80036; stroke-width: 1.0;" x1="414" x2="414" y1="712.3516" y2="722.3516"/><line style="stroke: #A80036; stroke-width: 1.0;" x1="424" x2="414" y1="722.3516" y2="722.3516"/><text fill="#000000" font-family="sans-serif" font-size="13" lengthAdjust="spacingAndGlyphs" textLength="240" x="169" y="730.8467">These Callback used in camxpipeline.cpp</text><text fill="#000000" font-family="sans-serif" font-size="13" lengthAdjust="spacingAndGlyphs" textLength="181" x="169" y="747.1982">when call pipeline:CreateNodes</text><polygon fill="#FBFB77" filter="url(#f7ee67y93f63o)" points="8,769.0547,8,877.0547,425,877.0547,425,779.0547,415,769.0547,8,769.0547" style="stroke: #A80036; stroke-width: 1.0;"/><line style="stroke: #A80036; stroke-width: 1.0;" x1="415" x2="415" y1="769.0547" y2="779.0547"/><line style="stroke: #A80036; stroke-width: 1.0;" x1="425" x2="415" y1="779.0547" y2="779.0547"/><text fill="#000000" font-family="sans-serif" font-size="13" lengthAdjust="spacingAndGlyphs" textLength="201" x="14" y="787.5498">for m_pStatscallback.pPDCallback</text><text fill="#000000" font-family="sans-serif" font-size="13" lengthAdjust="spacingAndGlyphs" textLength="127" x="14" y="803.9014">contain these inteface</text><text fill="#000000" font-family="sans-serif" font-size="13" lengthAdjust="spacingAndGlyphs" textLength="362" x="34" y="820.2529">pCallBacks-&gt;pfnGetCapabilities  = PDWrapperGetCapabilities;</text><text fill="#000000" font-family="sans-serif" font-size="13" lengthAdjust="spacingAndGlyphs" textLength="315" x="34" y="836.6045">pCallBacks-&gt;pfnCreate           = CreatePDLibWrapper;</text><text fill="#000000" font-family="sans-serif" font-size="13" lengthAdjust="spacingAndGlyphs" textLength="252" x="34" y="852.9561">pCallBacks-&gt;pfnQueryVendorTag   = NULL;</text><text fill="#000000" font-family="sans-serif" font-size="13" lengthAdjust="spacingAndGlyphs" textLength="376" x="34" y="869.3076">pCallBacks-&gt;pfnSetAlgoInterface = PDWrapperSetNodeInterface;</text><text fill="#000000" font-family="sans-serif" font-size="11" lengthAdjust="spacingAndGlyphs" textLength="0" x="845.25" y="911.583"/><polygon fill="#A80036" points="720,946,730,950,720,954,724,950" style="stroke: #A80036; stroke-width: 1.0;"/><line style="stroke: #A80036; stroke-width: 1.0;" x1="3" x2="726" y1="950" y2="950"/><text fill="#000000" font-family="sans-serif" font-size="13" lengthAdjust="spacingAndGlyphs" textLength="122" x="10" y="945.4951">CreatePDLibWrapper</text><line style="stroke: #A80036; stroke-width: 1.0;" x1="742" x2="789" y1="975.7031" y2="975.7031"/><line style="stroke: #A80036; stroke-width: 1.0;" x1="789" x2="789" y1="975.7031" y2="988.7031"/><line style="stroke: #A80036; stroke-width: 1.0;" x1="748" x2="789" y1="988.7031" y2="988.7031"/><polygon fill="#A80036" points="758,984.7031,748,988.7031,758,992.7031,754,988.7031" style="stroke: #A80036; stroke-width: 1.0;"/><text fill="#000000" font-family="sans-serif" font-size="13" lengthAdjust="spacingAndGlyphs" textLength="105" x="754" y="970.8467">CamX::LoadPDLib</text><polygon fill="#FBFB77" filter="url(#f7ee67y93f63o)" points="554,1006.7031,554,1097.7031,723,1097.7031,723,1016.7031,713,1006.7031,554,1006.7031" style="stroke: #A80036; stroke-width: 1.0;"/><line style="stroke: #A80036; stroke-width: 1.0;" x1="713" x2="713" y1="1006.7031" y2="1016.7031"/><line style="stroke: #A80036; stroke-width: 1.0;" x1="723" x2="713" y1="1016.7031" y2="1016.7031"/><text fill="#000000" font-family="sans-serif" font-size="13" lengthAdjust="spacingAndGlyphs" textLength="90" x="560" y="1025.1982">"%s%s%s.%s"</text><text fill="#000000" font-family="sans-serif" font-size="13" lengthAdjust="spacingAndGlyphs" textLength="95" x="560" y="1041.5498">"VendorLibPath"</text><text fill="#000000" font-family="sans-serif" font-size="13" lengthAdjust="spacingAndGlyphs" textLength="93" x="560" y="1057.9014">"PathSeparator"</text><text fill="#000000" font-family="sans-serif" font-size="13" lengthAdjust="spacingAndGlyphs" textLength="68" x="560" y="1074.2529">"pLibName"</text><text fill="#000000" font-family="sans-serif" font-size="13" lengthAdjust="spacingAndGlyphs" textLength="148" x="560" y="1090.6045">"SharedLibraryExtension"</text><line style="stroke: #A80036; stroke-width: 1.0;" x1="747" x2="789" y1="1134.8125" y2="1134.8125"/><line style="stroke: #A80036; stroke-width: 1.0;" x1="789" x2="789" y1="1134.8125" y2="1147.8125"/><line style="stroke: #A80036; stroke-width: 1.0;" x1="742" x2="789" y1="1147.8125" y2="1147.8125"/><polygon fill="#A80036" points="752,1143.8125,742,1147.8125,752,1151.8125,748,1147.8125" style="stroke: #A80036; stroke-width: 1.0;"/><text fill="#000000" font-family="sans-serif" font-size="13" lengthAdjust="spacingAndGlyphs" textLength="64" x="754" y="1129.9561">return Addr</text><polygon fill="#A80036" points="1337,1168.8125,1347,1172.8125,1337,1176.8125,1341,1172.8125" style="stroke: #A80036; stroke-width: 1.0;"/><line style="stroke: #A80036; stroke-width: 1.0;" x1="742" x2="1343" y1="1172.8125" y2="1172.8125"/><text fill="#000000" font-family="sans-serif" font-size="13" lengthAdjust="spacingAndGlyphs" textLength="55" x="749" y="1168.3076">pfnCreate</text><line style="stroke: #A80036; stroke-width: 1.0;" x1="742" x2="784" y1="1208.5156" y2="1208.5156"/><line style="stroke: #A80036; stroke-width: 1.0;" x1="784" x2="784" y1="1208.5156" y2="1221.5156"/><line style="stroke: #A80036; stroke-width: 1.0;" x1="737" x2="784" y1="1221.5156" y2="1221.5156"/><polygon fill="#A80036" points="747,1217.5156,737,1221.5156,747,1225.5156,743,1221.5156" style="stroke: #A80036; stroke-width: 1.0;"/><text fill="#000000" font-family="sans-serif" font-size="13" lengthAdjust="spacingAndGlyphs" textLength="33" x="749" y="1203.6592">return</text><rect fill="#EEEEEE" filter="url(#f7ee67y93f63o)" height="3" style="stroke: #EEEEEE; stroke-width: 1.0;" width="1346" x="3" y="1246.3203"/><line style="stroke: #000000; stroke-width: 1.0;" x1="3" x2="1349" y1="1246.3203" y2="1246.3203"/><line style="stroke: #000000; stroke-width: 1.0;" x1="3" x2="1349" y1="1249.3203" y2="1249.3203"/><rect fill="#EEEEEE" filter="url(#f7ee67y93f63o)" height="25.6094" style="stroke: #000000; stroke-width: 2.0;" width="94" x="629" y="1234.5156"/><text fill="#FF0000" font-family="sans-serif" font-size="14" font-weight="bold" lengthAdjust="spacingAndGlyphs" textLength="68" x="639" y="1253.0488">call PD lib</text><text fill="#000000" font-family="sans-serif" font-size="13" font-weight="bold" lengthAdjust="spacingAndGlyphs" textLength="0" x="715" y="1253.2686"/><polygon fill="#FBFB77" filter="url(#f7ee67y93f63o)" points="650,1275.125,650,1350.125,898,1350.125,898,1285.125,888,1275.125,650,1275.125" style="stroke: #A80036; stroke-width: 1.0;"/><line style="stroke: #A80036; stroke-width: 1.0;" x1="888" x2="888" y1="1275.125" y2="1285.125"/><line style="stroke: #A80036; stroke-width: 1.0;" x1="898" x2="888" y1="1285.125" y2="1285.125"/><text fill="#000000" font-family="sans-serif" font-size="13" lengthAdjust="spacingAndGlyphs" textLength="32" x="656" y="1293.6201">in dir:</text><text fill="#000000" font-family="sans-serif" font-size="13" lengthAdjust="spacingAndGlyphs" textLength="217" x="656" y="1309.9717">1. camx-lib-3a/system/statsalgo/pdlib</text><text fill="#000000" font-family="sans-serif" font-size="13" lengthAdjust="spacingAndGlyphs" textLength="227" x="656" y="1326.3232">2. camx-lib/system/statsalgo/pdlibsony</text><text fill="#000000" font-family="sans-serif" font-size="13" lengthAdjust="spacingAndGlyphs" textLength="192" x="656" y="1342.6748">both have camxpdlibinterface.cpp</text><rect fill="#EEEEEE" filter="url(#f7ee67y93f63o)" height="3" style="stroke: #EEEEEE; stroke-width: 1.0;" width="1346" x="3" y="1381.3359"/><line style="stroke: #000000; stroke-width: 1.0;" x1="3" x2="1349" y1="1381.3359" y2="1381.3359"/><line style="stroke: #000000; stroke-width: 1.0;" x1="3" x2="1349" y1="1384.3359" y2="1384.3359"/><rect fill="#EEEEEE" filter="url(#f7ee67y93f63o)" height="25.6094" style="stroke: #000000; stroke-width: 2.0;" width="92" x="630" y="1369.5313"/><text fill="#FF0000" font-family="sans-serif" font-size="14" font-weight="bold" lengthAdjust="spacingAndGlyphs" textLength="66" x="640" y="1388.0645">Init PDLib</text><text fill="#000000" font-family="sans-serif" font-size="13" font-weight="bold" lengthAdjust="spacingAndGlyphs" textLength="0" x="714" y="1388.2842"/><polygon fill="#FBFB77" filter="url(#f7ee67y93f63o)" points="169,1410.1406,169,1452.1406,424,1452.1406,424,1420.1406,414,1410.1406,169,1410.1406" style="stroke: #A80036; stroke-width: 1.0;"/><line style="stroke: #A80036; stroke-width: 1.0;" x1="414" x2="414" y1="1410.1406" y2="1420.1406"/><line style="stroke: #A80036; stroke-width: 1.0;" x1="424" x2="414" y1="1420.1406" y2="1420.1406"/><text fill="#000000" font-family="sans-serif" font-size="13" lengthAdjust="spacingAndGlyphs" textLength="234" x="175" y="1428.6357">for pipeline create, will create every node</text><text fill="#000000" font-family="sans-serif" font-size="13" lengthAdjust="spacingAndGlyphs" textLength="176" x="175" y="1444.9873">and pdlib is init in sensor node</text><polygon fill="#A80036" points="1057,1479.8438,1067,1483.8438,1057,1487.8438,1061,1483.8438" style="stroke: #A80036; stroke-width: 1.0;"/><line style="stroke: #A80036; stroke-width: 1.0;" x1="614.5" x2="1063" y1="1483.8438" y2="1483.8438"/><text fill="#000000" font-family="sans-serif" font-size="13" lengthAdjust="spacingAndGlyphs" textLength="208" x="621.5" y="1479.3389">ProcessingNodeFinalizeInitialization</text><polygon fill="#FBFB77" filter="url(#f7ee67y93f63o)" points="526,1497.1953,526,1654.1953,1060,1654.1953,1060,1507.1953,1050,1497.1953,526,1497.1953" style="stroke: #A80036; stroke-width: 1.0;"/><line style="stroke: #A80036; stroke-width: 1.0;" x1="1050" x2="1050" y1="1497.1953" y2="1507.1953"/><line style="stroke: #A80036; stroke-width: 1.0;" x1="1060" x2="1050" y1="1507.1953" y2="1507.1953"/><text fill="#000000" font-family="sans-serif" font-size="13" lengthAdjust="spacingAndGlyphs" textLength="129" x="532" y="1515.6904">1. ReadEEPROMData</text><text fill="#000000" font-family="sans-serif" font-size="13" lengthAdjust="spacingAndGlyphs" textLength="77" x="532" y="1532.042">2. GetCSIInfo</text><text fill="#000000" font-family="sans-serif" font-size="13" lengthAdjust="spacingAndGlyphs" textLength="89" x="532" y="1548.3936">3. GetOTPData</text><text fill="#000000" font-family="sans-serif" font-size="13" lengthAdjust="spacingAndGlyphs" textLength="164" x="532" y="1564.7451">4. PopulatePDAFInformation</text><text fill="#000000" font-family="sans-serif" font-size="13" lengthAdjust="spacingAndGlyphs" textLength="156" x="532" y="1581.0967">5. PublishPDAFInformation</text><text fill="#000000" font-family="sans-serif" font-size="13" lengthAdjust="spacingAndGlyphs" textLength="176" x="532" y="1597.4482">why we need publish this info?</text><text fill="#000000" font-family="sans-serif" font-size="13" lengthAdjust="spacingAndGlyphs" textLength="505" x="540" y="1613.7998">actually for PropertyIDSensorPDAFInfo, in IFE PDPCv1.1 and BPS PDPC2.0 will use it.</text><text fill="#000000" font-family="sans-serif" font-size="13" lengthAdjust="spacingAndGlyphs" textLength="208" x="540" y="1630.1514">since type 3 sensor will not do pdpc</text><text fill="#000000" font-family="sans-serif" font-size="13" lengthAdjust="spacingAndGlyphs" textLength="0" x="536" y="1646.5029"/><line style="stroke: #A80036; stroke-width: 1.0;" x1="1079" x2="1121" y1="1685.7109" y2="1685.7109"/><line style="stroke: #A80036; stroke-width: 1.0;" x1="1121" x2="1121" y1="1685.7109" y2="1698.7109"/><line style="stroke: #A80036; stroke-width: 1.0;" x1="1080" x2="1121" y1="1698.7109" y2="1698.7109"/><polygon fill="#A80036" points="1090,1694.7109,1080,1698.7109,1090,1702.7109,1086,1698.7109" style="stroke: #A80036; stroke-width: 1.0;"/><text fill="#000000" font-family="sans-serif" font-size="13" lengthAdjust="spacingAndGlyphs" textLength="85" x="1086" y="1680.8545">LoadPDLibrary</text><polygon fill="#A80036" points="1242,1724.7109,1252,1728.7109,1242,1732.7109,1246,1728.7109" style="stroke: #A80036; stroke-width: 1.0;"/><line style="stroke: #A80036; stroke-width: 1.0;" x1="1074" x2="1248" y1="1728.7109" y2="1728.7109"/><text fill="#000000" font-family="sans-serif" font-size="13" lengthAdjust="spacingAndGlyphs" textLength="151" x="1081" y="1724.2061">CPDLibHandler::CreateLib</text><!--
@startuml

title <size:18>PD parse detail</size>

participant Chi
participant pipeline
participant "pdlibwrapper\ncamxpdlibwrapper.cpp" as pdlibwrapper
participant "pdlibinterface\ncamxpdlibinterface.cpp" as pdlibinterface
participant "camxsensornode.cpp" as camxsensornode

== <color:red><size:14> chi stats algo </size></color> ==
note left Chi
  ChiPDEntry[]    = "ChiPDLibraryEntry"
  ChiASDEntry[]   = "ChiASDAlgorithmEntry"
  ChiAFDEntry[]   = "ChiAFDAlgorithmEntry"
  ChiAWBEntry[]   = "ChiAWBAlgorithmEntry"
  ChiAFEntry[]    = "ChiAFAlgorithmEntry"
  from this text, can get Algorithm Entry
end note
== <color:red><size:14> PD lib create </size></color> ==
Chi->Chi: ProbeChiComponents
activate Chi #LightSalmon
  Chi->Chi: GetAECAlgorithmCallback
  Chi->Chi: GetAFDAlgorithmCallback
  Chi->Chi: GetAFAlgorithmCallback
  Chi->Chi: GetAWBAlgorithmCallback
  Chi->Chi: GetASDAlgorithmCallback
  Chi->Chi: **GetPDLibraryCallback**
  Chi->Chi: GetHVXAlgorithmCallback
  Chi->Chi: return
  note left Chi
    These Callback used in camxpipeline.cpp
    when call pipeline:CreateNodes
  end note
  note left Chi
    for m_pStatscallback.pPDCallback
    contain these inteface
         pCallBacks->pfnGetCapabilities  = PDWrapperGetCapabilities;
         pCallBacks->pfnCreate           = CreatePDLibWrapper;
         pCallBacks->pfnQueryVendorTag   = NULL;
         pCallBacks->pfnSetAlgoInterface = PDWrapperSetNodeInterface;
  end note
deactivate Chi

  ... ...
  [->pdlibwrapper: CreatePDLibWrapper
  activate pdlibwrapper
    pdlibwrapper->pdlibwrapper: CamX::LoadPDLib
    note left pdlibwrapper
      "%s%s%s.%s"
      "VendorLibPath"
      "PathSeparator"
      "pLibName"
      "SharedLibraryExtension"
    end note
    activate pdlibwrapper
      pdlibwrapper->pdlibwrapper: return Addr
    deactivate pdlibwrapper
    pdlibwrapper->]: pfnCreate
    pdlibwrapper->pdlibwrapper: return
  deactivate pdlibwrapper

== <color:red><size:14> call PD lib </size></color> ==
note left pdlibinterface
  in dir:
  1. camx-lib-3a/system/statsalgo/pdlib
  2. camx-lib/system/statsalgo/pdlibsony
  both have camxpdlibinterface.cpp
end note


== <color:red><size:14> Init PDLib </size></color> ==
note left Chi
for pipeline create, will create every node
and pdlib is init in sensor node
end note

pipeline->camxsensornode: ProcessingNodeFinalizeInitialization
activate camxsensornode
  note left camxsensornode
    1. ReadEEPROMData
    2. GetCSIInfo
    3. GetOTPData
    4. PopulatePDAFInformation
    5. PublishPDAFInformation
    why we need publish this info?
      actually for PropertyIDSensorPDAFInfo, in IFE PDPCv1.1 and BPS PDPC2.0 will use it.
      since type 3 sensor will not do pdpc

  end note
  camxsensornode->camxsensornode: LoadPDLibrary
  participant camxpdlibraryhandler.cpp as camxpdlibhandler
  camxsensornode->camxpdlibhandler: CPDLibHandler::CreateLib
deactivate camxsensornode

@enduml

PlantUML version 1.2017.20(Tue Dec 12 00:57:05 CST 2017)
(GPL source distribution)
Java Runtime: Java(TM) SE Runtime Environment
JVM: Java HotSpot(TM) Client VM
Java Version: 1.8.0_171-b11
Operating System: Windows 10
OS Version: 10.0
Default Encoding: Cp1252
Language: en
Country: US
--></g></svg>