<?xml version="1.0" encoding="UTF-8" standalone="no"?><svg xmlns="http://www.w3.org/2000/svg" xmlns:xlink="http://www.w3.org/1999/xlink" contentScriptType="application/ecmascript" contentStyleType="text/css" height="499px" preserveAspectRatio="none" style="width:541px;height:499px;" version="1.1" viewBox="0 0 541 499" width="541px" zoomAndPan="magnify"><defs><filter height="300%" id="fmonvk68uze37" width="300%" x="-1" y="-1"><feGaussianBlur result="blurOut" stdDeviation="2.0"/><feColorMatrix in="blurOut" result="blurOut2" type="matrix" values="0 0 0 0 0 0 0 0 0 0 0 0 0 0 0 0 0 0 .4 0"/><feOffset dx="4.0" dy="4.0" in="blurOut2" result="blurOut3"/><feBlend in="SourceGraphic" in2="blurOut3" mode="normal"/></filter></defs><g><text fill="#0000FF" font-family="sans-serif" font-size="14" font-weight="bold" lengthAdjust="spacingAndGlyphs" textLength="75" x="163" y="22.9951">awb sync</text><text fill="#000000" font-family="sans-serif" font-size="14" font-weight="bold" lengthAdjust="spacingAndGlyphs" textLength="0" x="243" y="22.9951"/><a target="_top" xlink:actuate="onRequest" xlink:href="https://confluence.qualcomm.com/confluence/display/3AWIDETELE/3A+Sync+Design" xlink:show="new" xlink:title="https://confluence.qualcomm.com/confluence/display/3AWIDETELE/3A+Sync+Design" xlink:type="simple"><text fill="#0000FF" font-family="sans-serif" font-size="14" font-weight="bold" lengthAdjust="spacingAndGlyphs" text-decoration="underline" textLength="121" x="243" y="22.9951">ReferencePage</text><line style="stroke: #0000FF; stroke-width: 1.0;" x1="243" x2="364" y1="24.9951" y2="24.9951"/></a><text fill="#000000" font-family="sans-serif" font-size="14" font-weight="bold" lengthAdjust="spacingAndGlyphs" textLength="0" x="369" y="22.9951"/><rect fill="#FFFFFF" filter="url(#fmonvk68uze37)" height="97.5313" style="stroke: #FFFFFF; stroke-width: 1.0;" width="10" x="178" y="143.8906"/><line style="stroke: #A80036; stroke-width: 1.0;" x1="178" x2="178" y1="143.8906" y2="241.4219"/><line style="stroke: #A80036; stroke-width: 1.0;" x1="188" x2="188" y1="143.8906" y2="241.4219"/><line style="stroke: #A80036; stroke-width: 1.0;" x1="178" x2="188" y1="143.8906" y2="143.8906"/><rect fill="#FFFFFF" filter="url(#fmonvk68uze37)" height="39.1328" style="stroke: #FFFFFF; stroke-width: 1.0;" width="10" x="178" y="282.2266"/><line style="stroke: #A80036; stroke-width: 1.0;" x1="178" x2="178" y1="282.2266" y2="321.3594"/><line style="stroke: #A80036; stroke-width: 1.0;" x1="188" x2="188" y1="282.2266" y2="321.3594"/><rect fill="#FFFFFF" filter="url(#fmonvk68uze37)" height="79.2656" style="stroke: #FFFFFF; stroke-width: 1.0;" width="10" x="178" y="362.1641"/><line style="stroke: #A80036; stroke-width: 1.0;" x1="178" x2="178" y1="362.1641" y2="441.4297"/><line style="stroke: #A80036; stroke-width: 1.0;" x1="188" x2="188" y1="362.1641" y2="441.4297"/><line style="stroke: #A80036; stroke-width: 1.0;" x1="178" x2="188" y1="441.4297" y2="441.4297"/><rect fill="#FFFFFF" filter="url(#fmonvk68uze37)" height="29.1328" style="stroke: #A80036; stroke-width: 1.0;" width="10" x="346" y="383.1641"/><rect fill="#FFFFFF" filter="url(#fmonvk68uze37)" height="46.2656" style="stroke: #000000; stroke-width: 2.0;" width="426" x="76" y="159.0234"/><line style="stroke: #A80036; stroke-width: 1.0;" x1="42" x2="42" y1="68.5938" y2="241.4219"/><line style="stroke: #A80036; stroke-width: 1.0; stroke-dasharray: 1.0,4.0;" x1="42" x2="42" y1="241.4219" y2="282.2266"/><line style="stroke: #A80036; stroke-width: 1.0;" x1="42" x2="42" y1="282.2266" y2="321.3594"/><line style="stroke: #A80036; stroke-width: 1.0; stroke-dasharray: 1.0,4.0;" x1="42" x2="42" y1="321.3594" y2="362.1641"/><line style="stroke: #A80036; stroke-width: 1.0;" x1="42" x2="42" y1="362.1641" y2="459.5625"/><line style="stroke: #A80036; stroke-width: 1.0;" x1="183" x2="183" y1="68.5938" y2="241.4219"/><line style="stroke: #A80036; stroke-width: 1.0; stroke-dasharray: 1.0,4.0;" x1="183" x2="183" y1="241.4219" y2="282.2266"/><line style="stroke: #A80036; stroke-width: 1.0;" x1="183" x2="183" y1="282.2266" y2="321.3594"/><line style="stroke: #A80036; stroke-width: 1.0; stroke-dasharray: 1.0,4.0;" x1="183" x2="183" y1="321.3594" y2="362.1641"/><line style="stroke: #A80036; stroke-width: 1.0;" x1="183" x2="183" y1="362.1641" y2="459.5625"/><line style="stroke: #A80036; stroke-width: 1.0;" x1="351" x2="351" y1="68.5938" y2="241.4219"/><line style="stroke: #A80036; stroke-width: 1.0; stroke-dasharray: 1.0,4.0;" x1="351" x2="351" y1="241.4219" y2="282.2266"/><line style="stroke: #A80036; stroke-width: 1.0;" x1="351" x2="351" y1="282.2266" y2="321.3594"/><line style="stroke: #A80036; stroke-width: 1.0; stroke-dasharray: 1.0,4.0;" x1="351" x2="351" y1="321.3594" y2="362.1641"/><line style="stroke: #A80036; stroke-width: 1.0;" x1="351" x2="351" y1="362.1641" y2="459.5625"/><line style="stroke: #A80036; stroke-width: 1.0;" x1="473" x2="473" y1="68.5938" y2="241.4219"/><line style="stroke: #A80036; stroke-width: 1.0; stroke-dasharray: 1.0,4.0;" x1="473" x2="473" y1="241.4219" y2="282.2266"/><line style="stroke: #A80036; stroke-width: 1.0;" x1="473" x2="473" y1="282.2266" y2="321.3594"/><line style="stroke: #A80036; stroke-width: 1.0; stroke-dasharray: 1.0,4.0;" x1="473" x2="473" y1="321.3594" y2="362.1641"/><line style="stroke: #A80036; stroke-width: 1.0;" x1="473" x2="473" y1="362.1641" y2="459.5625"/><rect fill="#ADFF2F" filter="url(#fmonvk68uze37)" height="30.2969" style="stroke: #A80036; stroke-width: 1.5;" width="64" x="8" y="33.2969"/><text fill="#000000" font-family="sans-serif" font-size="14" lengthAdjust="spacingAndGlyphs" textLength="50" x="15" y="53.292">af_core</text><rect fill="#ADFF2F" filter="url(#fmonvk68uze37)" height="30.2969" style="stroke: #A80036; stroke-width: 1.5;" width="64" x="8" y="458.5625"/><text fill="#000000" font-family="sans-serif" font-size="14" lengthAdjust="spacingAndGlyphs" textLength="50" x="15" y="478.5576">af_core</text><rect fill="#7FFF00" filter="url(#fmonvk68uze37)" height="30.2969" style="stroke: #A80036; stroke-width: 1.5;" width="190" x="86" y="33.2969"/><text fill="#000000" font-family="sans-serif" font-size="14" lengthAdjust="spacingAndGlyphs" textLength="176" x="93" y="53.292">camxcawbstatsprocessor</text><rect fill="#7FFF00" filter="url(#fmonvk68uze37)" height="30.2969" style="stroke: #A80036; stroke-width: 1.5;" width="190" x="86" y="458.5625"/><text fill="#000000" font-family="sans-serif" font-size="14" lengthAdjust="spacingAndGlyphs" textLength="176" x="93" y="478.5576">camxcawbstatsprocessor</text><rect fill="#98FB98" filter="url(#fmonvk68uze37)" height="30.2969" style="stroke: #A80036; stroke-width: 1.5;" width="118" x="290" y="33.2969"/><text fill="#000000" font-family="sans-serif" font-size="14" lengthAdjust="spacingAndGlyphs" textLength="104" x="297" y="53.292">camxcawbioutil</text><rect fill="#98FB98" filter="url(#fmonvk68uze37)" height="30.2969" style="stroke: #A80036; stroke-width: 1.5;" width="118" x="290" y="458.5625"/><text fill="#000000" font-family="sans-serif" font-size="14" lengthAdjust="spacingAndGlyphs" textLength="104" x="297" y="478.5576">camxcawbioutil</text><rect fill="#00FA9A" filter="url(#fmonvk68uze37)" height="30.2969" style="stroke: #A80036; stroke-width: 1.5;" width="98" x="422" y="33.2969"/><text fill="#000000" font-family="sans-serif" font-size="14" lengthAdjust="spacingAndGlyphs" textLength="84" x="429" y="53.292">awbwrapper</text><rect fill="#00FA9A" filter="url(#fmonvk68uze37)" height="30.2969" style="stroke: #A80036; stroke-width: 1.5;" width="98" x="422" y="458.5625"/><text fill="#000000" font-family="sans-serif" font-size="14" lengthAdjust="spacingAndGlyphs" textLength="84" x="429" y="478.5576">awbwrapper</text><rect fill="#FFFFFF" filter="url(#fmonvk68uze37)" height="97.5313" style="stroke: #FFFFFF; stroke-width: 1.0;" width="10" x="178" y="143.8906"/><line style="stroke: #A80036; stroke-width: 1.0;" x1="178" x2="178" y1="143.8906" y2="241.4219"/><line style="stroke: #A80036; stroke-width: 1.0;" x1="188" x2="188" y1="143.8906" y2="241.4219"/><line style="stroke: #A80036; stroke-width: 1.0;" x1="178" x2="188" y1="143.8906" y2="143.8906"/><rect fill="#FFFFFF" filter="url(#fmonvk68uze37)" height="39.1328" style="stroke: #FFFFFF; stroke-width: 1.0;" width="10" x="178" y="282.2266"/><line style="stroke: #A80036; stroke-width: 1.0;" x1="178" x2="178" y1="282.2266" y2="321.3594"/><line style="stroke: #A80036; stroke-width: 1.0;" x1="188" x2="188" y1="282.2266" y2="321.3594"/><rect fill="#FFFFFF" filter="url(#fmonvk68uze37)" height="79.2656" style="stroke: #FFFFFF; stroke-width: 1.0;" width="10" x="178" y="362.1641"/><line style="stroke: #A80036; stroke-width: 1.0;" x1="178" x2="178" y1="362.1641" y2="441.4297"/><line style="stroke: #A80036; stroke-width: 1.0;" x1="188" x2="188" y1="362.1641" y2="441.4297"/><line style="stroke: #A80036; stroke-width: 1.0;" x1="178" x2="188" y1="441.4297" y2="441.4297"/><rect fill="#FFFFFF" filter="url(#fmonvk68uze37)" height="29.1328" style="stroke: #A80036; stroke-width: 1.0;" width="10" x="346" y="383.1641"/><rect fill="#EEEEEE" filter="url(#fmonvk68uze37)" height="3" style="stroke: #EEEEEE; stroke-width: 1.0;" width="526" x="3" y="99.7422"/><line style="stroke: #000000; stroke-width: 1.0;" x1="3" x2="529" y1="99.7422" y2="99.7422"/><line style="stroke: #000000; stroke-width: 1.0;" x1="3" x2="529" y1="102.7422" y2="102.7422"/><rect fill="#EEEEEE" filter="url(#fmonvk68uze37)" height="24.2969" style="stroke: #000000; stroke-width: 2.0;" width="196" x="168" y="88.5938"/><text fill="#FF0000" font-family="sans-serif" font-size="14" font-weight="bold" lengthAdjust="spacingAndGlyphs" textLength="167" x="179" y="105.5889">peer info get and set</text><text fill="#000000" font-family="sans-serif" font-size="13" font-weight="bold" lengthAdjust="spacingAndGlyphs" textLength="0" x="356" y="105.8247"/><polygon fill="#A80036" points="166,139.8906,176,143.8906,166,147.8906,170,143.8906" style="stroke: #A80036; stroke-width: 1.0;"/><line style="stroke: #A80036; stroke-width: 1.0;" x1="3" x2="172" y1="143.8906" y2="143.8906"/><text fill="#000000" font-family="sans-serif" font-size="13" lengthAdjust="spacingAndGlyphs" textLength="153" x="10" y="138.9575">ExecuteProcessRequest</text><rect fill="none" height="46.2656" style="stroke: #000000; stroke-width: 2.0;" width="426" x="76" y="159.0234"/><polygon fill="#EEEEEE" points="76,159.0234,140,159.0234,140,166.0234,130,176.0234,76,176.0234,76,159.0234" style="stroke: #000000; stroke-width: 2.0;"/><text fill="#000000" font-family="sans-serif" font-size="13" font-weight="bold" lengthAdjust="spacingAndGlyphs" textLength="19" x="91" y="172.0903">alt</text><text fill="#000000" font-family="sans-serif" font-size="11" font-weight="bold" lengthAdjust="spacingAndGlyphs" textLength="342" x="155" y="171.2339">[multiCamera3ASync != MultiCamera3ASyncDisabled]</text><polygon fill="#A80036" points="339,193.1563,349,197.1563,339,201.1563,343,197.1563" style="stroke: #A80036; stroke-width: 1.0;"/><line style="stroke: #A80036; stroke-width: 1.0;" x1="188" x2="345" y1="197.1563" y2="197.1563"/><text fill="#000000" font-family="sans-serif" font-size="13" lengthAdjust="spacingAndGlyphs" textLength="74" x="195" y="192.2231">SetPeerInfo</text><polygon fill="#A80036" points="461,229.2891,471,233.2891,461,237.2891,465,233.2891" style="stroke: #A80036; stroke-width: 1.0;"/><line style="stroke: #A80036; stroke-width: 1.0;" x1="188" x2="467" y1="233.2891" y2="233.2891"/><text fill="#000000" font-family="sans-serif" font-size="13" lengthAdjust="spacingAndGlyphs" textLength="93" x="195" y="228.356">AWBSetParam</text><text fill="#000000" font-family="sans-serif" font-size="11" lengthAdjust="spacingAndGlyphs" textLength="0" x="259.5" y="265.6323"/><polygon fill="#FBFB77" filter="url(#fmonvk68uze37)" points="124,287.2266,124,312.2266,237,312.2266,237,297.2266,227,287.2266,124,287.2266" style="stroke: #A80036; stroke-width: 1.0;"/><line style="stroke: #A80036; stroke-width: 1.0;" x1="227" x2="227" y1="287.2266" y2="297.2266"/><line style="stroke: #A80036; stroke-width: 1.0;" x1="237" x2="227" y1="297.2266" y2="297.2266"/><text fill="#FF0000" font-family="sans-serif" font-size="13" font-weight="bold" lengthAdjust="spacingAndGlyphs" textLength="92" x="130" y="304.2935">AWBProcess</text><text fill="#000000" font-family="sans-serif" font-size="11" lengthAdjust="spacingAndGlyphs" textLength="0" x="259.5" y="345.5698"/><polygon fill="#A80036" points="334,379.1641,344,383.1641,334,387.1641,338,383.1641" style="stroke: #A80036; stroke-width: 1.0;"/><line style="stroke: #A80036; stroke-width: 1.0;" x1="188" x2="340" y1="383.1641" y2="383.1641"/><text fill="#000000" font-family="sans-serif" font-size="13" lengthAdjust="spacingAndGlyphs" textLength="97" x="195" y="378.231">PublishPeerInfo</text><polygon fill="#A80036" points="199,408.2969,189,412.2969,199,416.2969,195,412.2969" style="stroke: #A80036; stroke-width: 1.0;"/><line style="stroke: #A80036; stroke-width: 1.0;" x1="193" x2="350" y1="412.2969" y2="412.2969"/><text fill="#000000" font-family="sans-serif" font-size="13" lengthAdjust="spacingAndGlyphs" textLength="39" x="205" y="407.3638">return</text><polygon fill="#A80036" points="14,437.4297,4,441.4297,14,445.4297,10,441.4297" style="stroke: #A80036; stroke-width: 1.0;"/><line style="stroke: #A80036; stroke-width: 1.0;" x1="8" x2="182" y1="441.4297" y2="441.4297"/><text fill="#000000" font-family="sans-serif" font-size="13" lengthAdjust="spacingAndGlyphs" textLength="39" x="20" y="436.4966">return</text><!--
@startuml
title
<size:14><color:blue>awb sync</color></size> [[https://confluence.qualcomm.com/confluence/display/3AWIDETELE/3A+Sync+Design ReferencePage]] 
end title

participant af_core #GreenYellow
participant camxcawbstatsprocessor as camxcawb_statsp #Chartreuse
participant camxcawbioutil  #PaleGreen
participant awbwrapper  #MediumSpringGreen


== <color:red><size:14> peer info get and set </size></color> ==
[->camxcawb_statsp: ExecuteProcessRequest
activate camxcawb_statsp
  alt multiCamera3ASync != MultiCamera3ASyncDisabled
    camxcawb_statsp->camxcawbioutil: SetPeerInfo
  end
  camxcawb_statsp->awbwrapper: AWBSetParam
  ... ...
  note over camxcawb_statsp
   <color:red>**AWBProcess**</color>
  end note
  ... ...
  camxcawb_statsp->camxcawbioutil: PublishPeerInfo
  activate camxcawbioutil
  camxcawbioutil->camxcawb_statsp: return
  deactivate camxcawbioutil
[<-camxcawb_statsp: return
deactivate camxcawb_statsp
@enduml

PlantUML version 1.2017.20(Mon Dec 11 16:57:05 GMT 2017)
(GPL source distribution)
Java Runtime: OpenJDK Runtime Environment
JVM: OpenJDK 64-Bit Server VM
Java Version: 1.8.0_171-8u171-b11-0ubuntu0.16.04.1-b11
Operating System: Linux
OS Version: 4.4.0-43-Microsoft
Default Encoding: UTF-8
Language: en
Country: US
--></g></svg>