<?xml version="1.0" encoding="UTF-8" standalone="no"?><svg xmlns="http://www.w3.org/2000/svg" xmlns:xlink="http://www.w3.org/1999/xlink" contentScriptType="application/ecmascript" contentStyleType="text/css" height="765px" preserveAspectRatio="none" style="width:691px;height:765px;" version="1.1" viewBox="0 0 691 765" width="691px" zoomAndPan="magnify"><defs><filter height="300%" id="fvunise1wck4z" width="300%" x="-1" y="-1"><feGaussianBlur result="blurOut" stdDeviation="2.0"/><feColorMatrix in="blurOut" result="blurOut2" type="matrix" values="0 0 0 0 0 0 0 0 0 0 0 0 0 0 0 0 0 0 .4 0"/><feOffset dx="4.0" dy="4.0" in="blurOut2" result="blurOut3"/><feBlend in="SourceGraphic" in2="blurOut3" mode="normal"/></filter></defs><g><ellipse cx="177" cy="48.6982" fill="#000000" filter="url(#fvunise1wck4z)" rx="10" ry="10" style="stroke:none;stroke-width:1.0;"/><rect fill="#FEFECE" filter="url(#fvunise1wck4z)" height="33.9688" rx="12.5" ry="12.5" style="stroke:#A80036;stroke-width:1.5;" width="65" x="144.5" y="78.6982"/><text fill="#000000" font-family="sans-serif" font-size="12" lengthAdjust="spacing" textLength="45" x="154.5" y="99.8369">frameN</text><rect fill="#FEFECE" filter="url(#fvunise1wck4z)" height="33.9688" rx="12.5" ry="12.5" style="stroke:#A80036;stroke-width:1.5;" width="312" x="21" y="294.5732"/><text fill="#000000" font-family="sans-serif" font-size="12" lengthAdjust="spacing" textLength="292" x="31" y="315.7119">Gap ExposureIndex between Cam-A and Cam-B</text><rect fill="#FEFECE" filter="url(#fvunise1wck4z)" height="33.9688" rx="12.5" ry="12.5" style="stroke:#A80036;stroke-width:1.5;" width="83" x="135.5" y="348.542"/><text fill="#000000" font-family="sans-serif" font-size="12" lengthAdjust="spacing" textLength="63" x="145.5" y="369.6807">frameN+4</text><rect fill="#FEFECE" filter="url(#fvunise1wck4z)" height="33.9688" rx="12.5" ry="12.5" style="stroke:#A80036;stroke-width:1.5;" width="83" x="135.5" y="402.5107"/><text fill="#000000" font-family="sans-serif" font-size="12" lengthAdjust="spacing" textLength="63" x="145.5" y="423.6494">frameN+5</text><rect fill="#FEFECE" filter="url(#fvunise1wck4z)" height="33.9688" rx="12.5" ry="12.5" style="stroke:#A80036;stroke-width:1.5;" width="83" x="135.5" y="456.4795"/><text fill="#000000" font-family="sans-serif" font-size="12" lengthAdjust="spacing" textLength="63" x="145.5" y="477.6182">frameN+6</text><line style="stroke:#000000;stroke-width:2.0;" x1="15" x2="15" y1="12.7451" y2="748.3232"/><rect fill="#FAEBD7" height="735.5781" style="stroke:#FAEBD7;stroke-width:1.0;" width="328" x="343" y="12.7451"/><rect fill="#FEFECE" filter="url(#fvunise1wck4z)" height="33.9688" rx="12.5" ry="12.5" style="stroke:#A80036;stroke-width:1.5;" width="83" x="463.5" y="132.667"/><text fill="#000000" font-family="sans-serif" font-size="12" lengthAdjust="spacing" textLength="63" x="473.5" y="153.8057">frameN+1</text><rect fill="#FEFECE" filter="url(#fvunise1wck4z)" height="33.9688" rx="12.5" ry="12.5" style="stroke:#A80036;stroke-width:1.5;" width="83" x="463.5" y="186.6357"/><text fill="#000000" font-family="sans-serif" font-size="12" lengthAdjust="spacing" textLength="63" x="473.5" y="207.7744">frameN+2</text><rect fill="#FEFECE" filter="url(#fvunise1wck4z)" height="33.9688" rx="12.5" ry="12.5" style="stroke:#A80036;stroke-width:1.5;" width="83" x="463.5" y="240.6045"/><text fill="#000000" font-family="sans-serif" font-size="12" lengthAdjust="spacing" textLength="63" x="473.5" y="261.7432">frameN+3</text><rect fill="#FEFECE" filter="url(#fvunise1wck4z)" height="33.9688" rx="12.5" ry="12.5" style="stroke:#A80036;stroke-width:1.5;" width="312" x="349" y="510.4482"/><text fill="#000000" font-family="sans-serif" font-size="12" lengthAdjust="spacing" textLength="292" x="359" y="531.5869">Gap ExposureIndex between Cam-A and Cam-B</text><rect fill="#FEFECE" filter="url(#fvunise1wck4z)" height="33.9688" rx="12.5" ry="12.5" style="stroke:#A80036;stroke-width:1.5;" width="83" x="463.5" y="564.417"/><text fill="#000000" font-family="sans-serif" font-size="12" lengthAdjust="spacing" textLength="63" x="473.5" y="585.5557">frameN+7</text><rect fill="#FEFECE" filter="url(#fvunise1wck4z)" height="33.9688" rx="12.5" ry="12.5" style="stroke:#A80036;stroke-width:1.5;" width="83" x="463.5" y="618.3857"/><text fill="#000000" font-family="sans-serif" font-size="12" lengthAdjust="spacing" textLength="63" x="473.5" y="639.5244">frameN+8</text><rect fill="#FEFECE" filter="url(#fvunise1wck4z)" height="33.9688" rx="12.5" ry="12.5" style="stroke:#A80036;stroke-width:1.5;" width="83" x="463.5" y="672.3545"/><text fill="#000000" font-family="sans-serif" font-size="12" lengthAdjust="spacing" textLength="63" x="473.5" y="693.4932">frameN+9</text><ellipse cx="505" cy="737.3232" fill="#FFFFFF" filter="url(#fvunise1wck4z)" rx="11" ry="11" style="stroke:#000000;stroke-width:1.0;"/><ellipse cx="505" cy="737.3232" fill="#000000" rx="6" ry="6" style="stroke:#7F7F7F;stroke-width:1.0;"/><line style="stroke:#000000;stroke-width:2.0;" x1="343" x2="343" y1="12.7451" y2="748.3232"/><line style="stroke:#000000;stroke-width:2.0;" x1="671" x2="671" y1="12.7451" y2="748.3232"/><line style="stroke:#A80036;stroke-width:1.5;" x1="177" x2="177" y1="58.6982" y2="78.6982"/><polygon fill="#A80036" points="173,68.6982,177,78.6982,181,68.6982,177,72.6982" style="stroke:#A80036;stroke-width:1.0;"/><line style="stroke:#A80036;stroke-width:1.5;" x1="177" x2="177" y1="328.542" y2="348.542"/><polygon fill="#A80036" points="173,338.542,177,348.542,181,338.542,177,342.542" style="stroke:#A80036;stroke-width:1.0;"/><line style="stroke:#A80036;stroke-width:1.5;" x1="177" x2="177" y1="382.5107" y2="402.5107"/><polygon fill="#A80036" points="173,392.5107,177,402.5107,181,392.5107,177,396.5107" style="stroke:#A80036;stroke-width:1.0;"/><line style="stroke:#A80036;stroke-width:1.5;" x1="177" x2="177" y1="436.4795" y2="456.4795"/><polygon fill="#A80036" points="173,446.4795,177,456.4795,181,446.4795,177,450.4795" style="stroke:#A80036;stroke-width:1.0;"/><line style="stroke:#A80036;stroke-width:1.5;" x1="505" x2="505" y1="166.6357" y2="186.6357"/><polygon fill="#A80036" points="501,176.6357,505,186.6357,509,176.6357,505,180.6357" style="stroke:#A80036;stroke-width:1.0;"/><line style="stroke:#A80036;stroke-width:1.5;" x1="505" x2="505" y1="220.6045" y2="240.6045"/><polygon fill="#A80036" points="501,230.6045,505,240.6045,509,230.6045,505,234.6045" style="stroke:#A80036;stroke-width:1.0;"/><line style="stroke:#A80036;stroke-width:1.5;" x1="505" x2="505" y1="544.417" y2="564.417"/><polygon fill="#A80036" points="501,554.417,505,564.417,509,554.417,505,558.417" style="stroke:#A80036;stroke-width:1.0;"/><line style="stroke:#A80036;stroke-width:1.5;" x1="505" x2="505" y1="598.3857" y2="618.3857"/><polygon fill="#A80036" points="501,608.3857,505,618.3857,509,608.3857,505,612.3857" style="stroke:#A80036;stroke-width:1.0;"/><line style="stroke:#A80036;stroke-width:1.5;" x1="505" x2="505" y1="652.3545" y2="672.3545"/><polygon fill="#A80036" points="501,662.3545,505,672.3545,509,662.3545,505,666.3545" style="stroke:#A80036;stroke-width:1.0;"/><line style="stroke:#A80036;stroke-width:1.5;" x1="505" x2="505" y1="706.3232" y2="726.3232"/><polygon fill="#A80036" points="501,716.3232,505,726.3232,509,716.3232,505,720.3232" style="stroke:#A80036;stroke-width:1.0;"/><line style="stroke:#A80036;stroke-width:1.5;" x1="177" x2="177" y1="112.667" y2="117.667"/><line style="stroke:#A80036;stroke-width:1.5;" x1="177" x2="505" y1="117.667" y2="117.667"/><line style="stroke:#A80036;stroke-width:1.5;" x1="505" x2="505" y1="117.667" y2="132.667"/><polygon fill="#A80036" points="501,122.667,505,132.667,509,122.667,505,126.667" style="stroke:#A80036;stroke-width:1.0;"/><line style="stroke:#A80036;stroke-width:1.5;" x1="505" x2="505" y1="274.5732" y2="279.5732"/><line style="stroke:#A80036;stroke-width:1.5;" x1="505" x2="177" y1="279.5732" y2="279.5732"/><line style="stroke:#A80036;stroke-width:1.5;" x1="177" x2="177" y1="279.5732" y2="294.5732"/><polygon fill="#A80036" points="173,284.5732,177,294.5732,181,284.5732,177,288.5732" style="stroke:#A80036;stroke-width:1.0;"/><line style="stroke:#A80036;stroke-width:1.5;" x1="177" x2="177" y1="490.4482" y2="495.4482"/><line style="stroke:#A80036;stroke-width:1.5;" x1="177" x2="505" y1="495.4482" y2="495.4482"/><line style="stroke:#A80036;stroke-width:1.5;" x1="505" x2="505" y1="495.4482" y2="510.4482"/><polygon fill="#A80036" points="501,500.4482,505,510.4482,509,500.4482,505,504.4482" style="stroke:#A80036;stroke-width:1.0;"/><text fill="#000000" font-family="sans-serif" font-size="18" lengthAdjust="spacing" textLength="59" x="149.5" y="29.4531">Cam-A</text><text fill="#000000" font-family="sans-serif" font-size="18" lengthAdjust="spacing" textLength="59" x="477.5" y="29.4531">Cam-B</text><!--MD5=[f400e610e76ef6ae3c11a7581ef4992f]
@startuml
|Cam-A|
start
:frameN;
|#AntiqueWhite|Cam-B|
:frameN+1;
:frameN+2;
:frameN+3;
|Cam-A|
:Gap ExposureIndex between Cam-A and Cam-B;
:frameN+4;
:frameN+5;
:frameN+6;
|Cam-B|
:Gap ExposureIndex between Cam-A and Cam-B;
:frameN+7;
:frameN+8;
:frameN+9;
stop
@enduml

PlantUML version 1.2021.00(Sun Jan 10 10:25:05 GMT 2021)
(GPL source distribution)
Java Runtime: OpenJDK Runtime Environment
JVM: OpenJDK 64-Bit Server VM
Default Encoding: ANSI_X3.4-1968
Language: en
Country: US
--></g></svg>