<?xml version="1.0" encoding="UTF-8" standalone="no"?>
<!DOCTYPE svg PUBLIC "-//W3C//DTD SVG 1.1//EN"
 "http://www.w3.org/Graphics/SVG/1.1/DTD/svg11.dtd">
<!-- Generated by graphviz version 2.38.0 (20140413.2041)
 -->
<!-- Title: g Pages: 1 -->
<svg width="5559pt" height="864pt"
 viewBox="0.00 0.00 5559.00 864.00" xmlns="http://www.w3.org/2000/svg" xmlns:xlink="http://www.w3.org/1999/xlink">
<g id="graph0" class="graph" transform="scale(1 1) rotate(0) translate(4 860)">
<title>g</title>
<polygon fill="white" stroke="none" points="-4,4 -4,-860 5555,-860 5555,4 -4,4"/>
<!-- node0 -->
<g id="node1" class="node"><title>node0</title>
<polygon fill="none" stroke="black" points="1721.5,-386 1721.5,-478 2089.5,-478 2089.5,-386 1721.5,-386"/>
<text text-anchor="middle" x="1905.5" y="-462.8" font-family="Times,serif" font-size="14.00">struct ChiFeature2SessionDescriptor</text>
<polyline fill="none" stroke="black" points="1721.5,-455 2089.5,-455 "/>
<text text-anchor="start" x="1729.5" y="-439.8" font-family="Times,serif" font-size="14.00">UINT8 sessionId</text>
<polyline fill="none" stroke="black" points="1721.5,-432 2089.5,-432 "/>
<text text-anchor="start" x="1729.5" y="-416.8" font-family="Times,serif" font-size="14.00">const CHAR* pSessionName</text>
<polyline fill="none" stroke="black" points="1721.5,-409 2089.5,-409 "/>
<text text-anchor="start" x="1729.5" y="-393.8" font-family="Times,serif" font-size="14.00">const ChiFeature2PipelineDescriptor* pPipeline;</text>
</g>
<!-- node1 -->
<g id="node2" class="node"><title>node1</title>
<polygon fill="none" stroke="black" points="2169,-201.5 2169,-408.5 2605,-408.5 2605,-201.5 2169,-201.5"/>
<text text-anchor="middle" x="2387" y="-393.3" font-family="Times,serif" font-size="14.00">struct ChiFeature2PipelineDescriptor</text>
<polyline fill="none" stroke="black" points="2169,-385.5 2605,-385.5 "/>
<text text-anchor="start" x="2177" y="-370.3" font-family="Times,serif" font-size="14.00">UINT8 sessionId</text>
<polyline fill="none" stroke="black" points="2169,-362.5 2605,-362.5 "/>
<text text-anchor="start" x="2177" y="-347.3" font-family="Times,serif" font-size="14.00">UINT8 pipelineId</text>
<polyline fill="none" stroke="black" points="2169,-339.5 2605,-339.5 "/>
<text text-anchor="start" x="2177" y="-324.3" font-family="Times,serif" font-size="14.00">const CHAR* pPipelineName</text>
<polyline fill="none" stroke="black" points="2169,-316.5 2605,-316.5 "/>
<text text-anchor="start" x="2177" y="-301.3" font-family="Times,serif" font-size="14.00">ChiFeature2PipelineType pipelineType</text>
<polyline fill="none" stroke="black" points="2169,-293.5 2605,-293.5 "/>
<text text-anchor="start" x="2177" y="-278.3" font-family="Times,serif" font-size="14.00">UINT8 numInputPorts</text>
<polyline fill="none" stroke="black" points="2169,-270.5 2605,-270.5 "/>
<text text-anchor="start" x="2177" y="-255.3" font-family="Times,serif" font-size="14.00">const ChiFeature2PortDescriptor* pInputPortDescriptor</text>
<polyline fill="none" stroke="black" points="2169,-247.5 2605,-247.5 "/>
<text text-anchor="start" x="2177" y="-232.3" font-family="Times,serif" font-size="14.00">UINT8 numOutputPorts</text>
<polyline fill="none" stroke="black" points="2169,-224.5 2605,-224.5 "/>
<text text-anchor="start" x="2177" y="-209.3" font-family="Times,serif" font-size="14.00">const ChiFeature2PortDescriptor* pOutputPortDescriptor</text>
</g>
<!-- node0&#45;&gt;node1 -->
<g id="1" class="edge"><title>node0:f3&#45;&gt;node1:f0</title>
<path fill="none" stroke="black" d="M2090.5,-397C2121.71,-397 2131.98,-397 2158.77,-397"/>
<polygon fill="black" stroke="black" points="2159,-400.5 2169,-397 2159,-393.5 2159,-400.5"/>
</g>
<!-- node4 -->
<g id="node5" class="node"><title>node4</title>
<polygon fill="none" stroke="black" points="2685.5,-67 2685.5,-159 3104.5,-159 3104.5,-67 2685.5,-67"/>
<text text-anchor="middle" x="2895" y="-143.8" font-family="Times,serif" font-size="14.00">struct ChiFeatur2PortDescriptor</text>
<polyline fill="none" stroke="black" points="2685.5,-136 3104.5,-136 "/>
<text text-anchor="start" x="2693.5" y="-120.8" font-family="Times,serif" font-size="14.00">ChiFeature2Identifier globalId</text>
<polyline fill="none" stroke="black" points="2685.5,-113 3104.5,-113 "/>
<text text-anchor="start" x="2693.5" y="-97.8" font-family="Times,serif" font-size="14.00">const CHAR* pPortName</text>
<polyline fill="none" stroke="black" points="2685.5,-90 3104.5,-90 "/>
<text text-anchor="start" x="2693.5" y="-74.8" font-family="Times,serif" font-size="14.00">const ChiFeature2TargetDescriptor* pTargetDescriptor</text>
</g>
<!-- node1&#45;&gt;node4 -->
<g id="1" class="edge"><title>node1:f6&#45;&gt;node4:f0</title>
<path fill="none" stroke="black" d="M2605,-259C2661.77,-259 2628.31,-161.441 2673.8,-149.247"/>
<polygon fill="black" stroke="black" points="2674.5,-152.687 2684,-148 2673.65,-145.739 2674.5,-152.687"/>
</g>
<!-- node12 -->
<g id="node13" class="node"><title>node12</title>
<polygon fill="none" stroke="black" points="2775.5,-247.5 2775.5,-316.5 3014.5,-316.5 3014.5,-247.5 2775.5,-247.5"/>
<text text-anchor="middle" x="2895" y="-301.3" font-family="Times,serif" font-size="14.00">class ChiFeature2PipelineType</text>
<polyline fill="none" stroke="black" points="2775.5,-293.5 3014.5,-293.5 "/>
<text text-anchor="start" x="2783.5" y="-278.3" font-family="Times,serif" font-size="14.00">CHI CHI pipeline </text>
<polyline fill="none" stroke="black" points="2775.5,-270.5 3014.5,-270.5 "/>
<text text-anchor="start" x="2783.5" y="-255.3" font-family="Times,serif" font-size="14.00">Virtual, Virtual pipeline </text>
</g>
<!-- node1&#45;&gt;node12 -->
<g id="1" class="edge"><title>node1:f4&#45;&gt;node12:f0</title>
<path fill="none" stroke="black" d="M2605,-305C2676.59,-305 2697,-305 2763.8,-305"/>
<polygon fill="black" stroke="black" points="2764,-308.5 2774,-305 2764,-301.5 2764,-308.5"/>
</g>
<!-- node2 -->
<g id="node3" class="node"><title>node2</title>
<polygon fill="none" stroke="black" points="1153,-409.5 1153,-616.5 1575,-616.5 1575,-409.5 1153,-409.5"/>
<text text-anchor="middle" x="1364" y="-601.3" font-family="Times,serif" font-size="14.00">struct ChiFeature2Descriptor</text>
<polyline fill="none" stroke="black" points="1153,-593.5 1575,-593.5 "/>
<text text-anchor="start" x="1161" y="-578.3" font-family="Times,serif" font-size="14.00">UINT32 featureId;</text>
<polyline fill="none" stroke="black" points="1153,-570.5 1575,-570.5 "/>
<text text-anchor="start" x="1161" y="-555.3" font-family="Times,serif" font-size="14.00">const CHAR* pFeatureName;</text>
<polyline fill="none" stroke="black" points="1153,-547.5 1575,-547.5 "/>
<text text-anchor="start" x="1161" y="-532.3" font-family="Times,serif" font-size="14.00">UINT8 numStages</text>
<polyline fill="none" stroke="black" points="1153,-524.5 1575,-524.5 "/>
<text text-anchor="start" x="1161" y="-509.3" font-family="Times,serif" font-size="14.00">const ChiFeature2StageDescriptor* pStages</text>
<polyline fill="none" stroke="black" points="1153,-501.5 1575,-501.5 "/>
<text text-anchor="start" x="1161" y="-486.3" font-family="Times,serif" font-size="14.00">UINT8 numSessions</text>
<polyline fill="none" stroke="black" points="1153,-478.5 1575,-478.5 "/>
<text text-anchor="start" x="1161" y="-463.3" font-family="Times,serif" font-size="14.00">const ChiFeature2SessionDescriptor* pSession</text>
<polyline fill="none" stroke="black" points="1153,-455.5 1575,-455.5 "/>
<text text-anchor="start" x="1161" y="-440.3" font-family="Times,serif" font-size="14.00">UINT numInternalLinks;</text>
<polyline fill="none" stroke="black" points="1153,-432.5 1575,-432.5 "/>
<text text-anchor="start" x="1161" y="-417.3" font-family="Times,serif" font-size="14.00">const ChiFeature2InternalLinkDesc* pInternalLinkDesc</text>
</g>
<!-- node2&#45;&gt;node0 -->
<g id="0" class="edge"><title>node2:f6&#45;&gt;node0:f0</title>
<path fill="none" stroke="black" d="M1576,-467C1636.71,-467 1654.38,-467 1710.38,-467"/>
<polygon fill="black" stroke="black" points="1710.5,-470.5 1720.5,-467 1710.5,-463.5 1710.5,-470.5"/>
</g>
<!-- node3 -->
<g id="node4" class="node"><title>node3</title>
<polygon fill="none" stroke="black" points="2214.5,-113.5 2214.5,-182.5 2559.5,-182.5 2559.5,-113.5 2214.5,-113.5"/>
<text text-anchor="middle" x="2387" y="-167.3" font-family="Times,serif" font-size="14.00">struct ChiFeature2InternalLinkDesc</text>
<polyline fill="none" stroke="black" points="2214.5,-159.5 2559.5,-159.5 "/>
<text text-anchor="start" x="2222.5" y="-144.3" font-family="Times,serif" font-size="14.00">const ChiFeature2PortDescriptor* pSrcPort;</text>
<polyline fill="none" stroke="black" points="2214.5,-136.5 2559.5,-136.5 "/>
<text text-anchor="start" x="2222.5" y="-121.3" font-family="Times,serif" font-size="14.00">const ChiFeature2PortDescriptor* pSinkPort;</text>
</g>
<!-- node2&#45;&gt;node3 -->
<g id="0" class="edge"><title>node2:f8&#45;&gt;node3:f0</title>
<path fill="none" stroke="black" d="M1576,-421C1606.92,-421 1614.09,-412.314 1642,-399 1659.14,-390.825 1660.23,-382.68 1678,-376 1869.46,-304.041 1977.75,-440.161 2133,-307 2173.65,-272.132 2133.91,-232.46 2169,-192 2180.76,-178.444 2188.36,-172.938 2202.93,-171.446"/>
<polygon fill="black" stroke="black" points="2203.16,-174.939 2213,-171 2202.85,-167.946 2203.16,-174.939"/>
</g>
<!-- node9 -->
<g id="node10" class="node"><title>node9</title>
<polygon fill="none" stroke="black" points="1692,-496.5 1692,-611.5 2119,-611.5 2119,-496.5 1692,-496.5"/>
<text text-anchor="middle" x="1905.5" y="-596.3" font-family="Times,serif" font-size="14.00">ChiFeature2StageDescriptor </text>
<polyline fill="none" stroke="black" points="1692,-588.5 2119,-588.5 "/>
<text text-anchor="start" x="1700" y="-573.3" font-family="Times,serif" font-size="14.00">stageId; </text>
<polyline fill="none" stroke="black" points="1692,-565.5 2119,-565.5 "/>
<text text-anchor="start" x="1700" y="-550.3" font-family="Times,serif" font-size="14.00">pStageName; </text>
<polyline fill="none" stroke="black" points="1692,-542.5 2119,-542.5 "/>
<text text-anchor="start" x="1700" y="-527.3" font-family="Times,serif" font-size="14.00">numDependencyConfigDescriptor </text>
<polyline fill="none" stroke="black" points="1692,-519.5 2119,-519.5 "/>
<text text-anchor="start" x="1700" y="-504.3" font-family="Times,serif" font-size="14.00">ChiFeature2SessionInfo* pDependencyConfigDescriptor </text>
</g>
<!-- node2&#45;&gt;node9 -->
<g id="0" class="edge"><title>node2:f4&#45;&gt;node9:f0</title>
<path fill="none" stroke="black" d="M1576,-513C1636.29,-513 1627.85,-590.424 1680.36,-599.194"/>
<polygon fill="black" stroke="black" points="1680.25,-602.697 1690.5,-600 1680.81,-595.719 1680.25,-602.697"/>
</g>
<!-- node3&#45;&gt;node4 -->
<g id="0" class="edge"><title>node3:f1&#45;&gt;node4:f0</title>
<path fill="none" stroke="black" d="M2561,-148C2612.14,-148 2627.4,-148 2673.92,-148"/>
<polygon fill="black" stroke="black" points="2674,-151.5 2684,-148 2674,-144.5 2674,-151.5"/>
</g>
<!-- node3&#45;&gt;node4 -->
<g id="0" class="edge"><title>node3:f2&#45;&gt;node4:f0</title>
<path fill="none" stroke="black" d="M2561,-125C2613.03,-125 2626.69,-145.131 2673.77,-147.726"/>
<polygon fill="black" stroke="black" points="2673.91,-151.231 2684,-148 2674.1,-144.233 2673.91,-151.231"/>
</g>
<!-- node5 -->
<g id="node6" class="node"><title>node5</title>
<polygon fill="none" stroke="black" points="4851,-13 4851,-59 5129,-59 5129,-13 4851,-13"/>
<text text-anchor="middle" x="4990" y="-43.8" font-family="Times,serif" font-size="14.00">struct ChiFeature2TargetDescriptor</text>
<polyline fill="none" stroke="black" points="4851,-36 5129,-36 "/>
<text text-anchor="start" x="4859" y="-20.8" font-family="Times,serif" font-size="14.00">const CHAR* pTargetName</text>
</g>
<!-- node4&#45;&gt;node5 -->
<g id="0" class="edge"><title>node4:f3&#45;&gt;node5:f0</title>
<path fill="none" stroke="black" d="M3106,-78C3877.82,-78 4073.06,-48.2631 4839.81,-48.0017"/>
<polygon fill="black" stroke="black" points="4840,-51.5018 4850,-48 4840,-44.5018 4840,-51.5018"/>
</g>
<!-- node6 -->
<g id="node7" class="node"><title>node6</title>
<polygon fill="none" stroke="black" points="4788,-78.5 4788,-239.5 5192,-239.5 5192,-78.5 4788,-78.5"/>
<text text-anchor="middle" x="4990" y="-224.3" font-family="Times,serif" font-size="14.00">struct ChiFeature2Identifier</text>
<polyline fill="none" stroke="black" points="4788,-216.5 5192,-216.5 "/>
<text text-anchor="start" x="4796" y="-201.3" font-family="Times,serif" font-size="14.00">UINT8 session</text>
<polyline fill="none" stroke="black" points="4788,-193.5 5192,-193.5 "/>
<text text-anchor="start" x="4796" y="-178.3" font-family="Times,serif" font-size="14.00">UINT8 pipeline</text>
<polyline fill="none" stroke="black" points="4788,-170.5 5192,-170.5 "/>
<text text-anchor="start" x="4796" y="-155.3" font-family="Times,serif" font-size="14.00">UINT8 port</text>
<polyline fill="none" stroke="black" points="4788,-147.5 5192,-147.5 "/>
<text text-anchor="start" x="4796" y="-132.3" font-family="Times,serif" font-size="14.00">ChiFeature2PortDirection portDirectionType</text>
<polyline fill="none" stroke="black" points="4788,-124.5 5192,-124.5 "/>
<text text-anchor="start" x="4796" y="-109.3" font-family="Times,serif" font-size="14.00">ChiFeature2PortType portType</text>
<polyline fill="none" stroke="black" points="4788,-101.5 5192,-101.5 "/>
<text text-anchor="start" x="4796" y="-86.3" font-family="Times,serif" font-size="14.00">bool operator==(const ChiFeature2Identifier&amp; rRHS)</text>
</g>
<!-- node4&#45;&gt;node6 -->
<g id="0" class="edge"><title>node4:f1&#45;&gt;node6:f0</title>
<path fill="none" stroke="black" d="M3106,-125C3288.92,-125 4598.02,-54.271 4752,-153 4779.72,-170.774 4757.29,-216.379 4778.17,-226.143"/>
<polygon fill="black" stroke="black" points="4777.52,-229.582 4788,-228 4778.82,-222.703 4777.52,-229.582"/>
</g>
<!-- node7 -->
<g id="node8" class="node"><title>node7</title>
<polygon fill="none" stroke="black" points="5281.5,-0.5 5281.5,-69.5 5497.5,-69.5 5497.5,-0.5 5281.5,-0.5"/>
<text text-anchor="middle" x="5389.5" y="-54.3" font-family="Times,serif" font-size="14.00">enum ChiFeature2PortType</text>
<polyline fill="none" stroke="black" points="5281.5,-46.5 5497.5,-46.5 "/>
<text text-anchor="start" x="5289.5" y="-31.3" font-family="Times,serif" font-size="14.00">ImageBuffer</text>
<polyline fill="none" stroke="black" points="5281.5,-23.5 5497.5,-23.5 "/>
<text text-anchor="start" x="5289.5" y="-8.3" font-family="Times,serif" font-size="14.00">MetaData</text>
</g>
<!-- node6&#45;&gt;node7 -->
<g id="0" class="edge"><title>node6:f5&#45;&gt;node7:f0</title>
<path fill="none" stroke="black" d="M5192,-113C5214.01,-113 5209.46,-90.8515 5228,-79 5246.03,-67.4756 5253.2,-60.3504 5270.45,-58.489"/>
<polygon fill="black" stroke="black" points="5270.68,-61.9819 5280.5,-58 5270.34,-54.9902 5270.68,-61.9819"/>
</g>
<!-- node8 -->
<g id="node9" class="node"><title>node8</title>
<polygon fill="none" stroke="black" points="5228,-88.5 5228,-203.5 5551,-203.5 5551,-88.5 5228,-88.5"/>
<text text-anchor="middle" x="5389.5" y="-188.3" font-family="Times,serif" font-size="14.00">enum class ChiFeature2PortDirectionType</text>
<polyline fill="none" stroke="black" points="5228,-180.5 5551,-180.5 "/>
<text text-anchor="start" x="5236" y="-165.3" font-family="Times,serif" font-size="14.00">InternalInput</text>
<polyline fill="none" stroke="black" points="5228,-157.5 5551,-157.5 "/>
<text text-anchor="start" x="5236" y="-142.3" font-family="Times,serif" font-size="14.00">ExternalInput</text>
<polyline fill="none" stroke="black" points="5228,-134.5 5551,-134.5 "/>
<text text-anchor="start" x="5236" y="-119.3" font-family="Times,serif" font-size="14.00">InternalOutput</text>
<polyline fill="none" stroke="black" points="5228,-111.5 5551,-111.5 "/>
<text text-anchor="start" x="5236" y="-96.3" font-family="Times,serif" font-size="14.00">ExternalOutput</text>
</g>
<!-- node6&#45;&gt;node8 -->
<g id="0" class="edge"><title>node6:f4&#45;&gt;node8:f0</title>
<path fill="none" stroke="black" d="M5192,-136C5217.43,-136 5203.89,-177.357 5218.35,-188.989"/>
<polygon fill="black" stroke="black" points="5217.41,-192.361 5228,-192 5219.5,-185.679 5217.41,-192.361"/>
</g>
<!-- node10 -->
<g id="node11" class="node"><title>node10</title>
<polygon fill="none" stroke="black" points="2232.5,-428 2232.5,-520 2541.5,-520 2541.5,-428 2232.5,-428"/>
<text text-anchor="middle" x="2387" y="-504.8" font-family="Times,serif" font-size="14.00">ChiFeature2SessionInfo </text>
<polyline fill="none" stroke="black" points="2232.5,-497 2541.5,-497 "/>
<text text-anchor="start" x="2240.5" y="-481.8" font-family="Times,serif" font-size="14.00">sessionId; </text>
<polyline fill="none" stroke="black" points="2232.5,-474 2541.5,-474 "/>
<text text-anchor="start" x="2240.5" y="-458.8" font-family="Times,serif" font-size="14.00">numPipelines; </text>
<polyline fill="none" stroke="black" points="2232.5,-451 2541.5,-451 "/>
<text text-anchor="start" x="2240.5" y="-435.8" font-family="Times,serif" font-size="14.00">ChiFeature2PipelineInfo* pPipelineInfo; </text>
</g>
<!-- node9&#45;&gt;node10 -->
<g id="0" class="edge"><title>node9:f4&#45;&gt;node10:f0</title>
<path fill="none" stroke="black" d="M2120.5,-508C2166.06,-508 2179.92,-508.861 2220.9,-508.985"/>
<polygon fill="black" stroke="black" points="2220.99,-512.485 2231,-509 2221.01,-505.485 2220.99,-512.485"/>
</g>
<!-- node11 -->
<g id="node12" class="node"><title>node11</title>
<polygon fill="none" stroke="black" points="2641,-335.5 2641,-450.5 3149,-450.5 3149,-335.5 2641,-335.5"/>
<text text-anchor="middle" x="2895" y="-435.3" font-family="Times,serif" font-size="14.00">ChiFeature2PipelineInfo </text>
<polyline fill="none" stroke="black" points="2641,-427.5 3149,-427.5 "/>
<text text-anchor="start" x="2649" y="-412.3" font-family="Times,serif" font-size="14.00">pipelineId; </text>
<polyline fill="none" stroke="black" points="2641,-404.5 3149,-404.5 "/>
<text text-anchor="start" x="2649" y="-389.3" font-family="Times,serif" font-size="14.00">numHandles; </text>
<polyline fill="none" stroke="black" points="2641,-381.5 3149,-381.5 "/>
<text text-anchor="start" x="2649" y="-366.3" font-family="Times,serif" font-size="14.00">ChiFeature2HandleType type </text>
<polyline fill="none" stroke="black" points="2641,-358.5 3149,-358.5 "/>
<text text-anchor="start" x="2649" y="-343.3" font-family="Times,serif" font-size="14.00">CHIFEATURE2HANDLE handle [注:(void *)] Current is Dependency </text>
</g>
<!-- node10&#45;&gt;node11 -->
<g id="0" class="edge"><title>node10:f3&#45;&gt;node11:f0</title>
<path fill="none" stroke="black" d="M2543,-439C2582.98,-439 2595.44,-439 2630.9,-439"/>
<polygon fill="black" stroke="black" points="2631,-442.5 2641,-439 2631,-435.5 2631,-442.5"/>
</g>
<!-- node13 -->
<g id="node14" class="node"><title>node13</title>
<polygon fill="none" stroke="black" points="3185,-375 3185,-513 3855,-513 3855,-375 3185,-375"/>
<text text-anchor="middle" x="3520" y="-497.8" font-family="Times,serif" font-size="14.00">enum class ChiFeature2HandleType </text>
<polyline fill="none" stroke="black" points="3185,-490 3855,-490 "/>
<text text-anchor="start" x="3193" y="-474.8" font-family="Times,serif" font-size="14.00">PortDescriptor, Handle is of type ChiFeature2PortDescriptor.</text>
<polyline fill="none" stroke="black" points="3185,-467 3855,-467 "/>
<text text-anchor="start" x="3193" y="-451.8" font-family="Times,serif" font-size="14.00">BufferMetaInfo, Handle is of type ChiFeature2BufferMetadataInfo </text>
<polyline fill="none" stroke="black" points="3185,-444 3855,-444 "/>
<text text-anchor="start" x="3193" y="-428.8" font-family="Times,serif" font-size="14.00">PortBufferMetaInfo, Handle is of type ChiFeature2RequestOutputInfo </text>
<polyline fill="none" stroke="black" points="3185,-421 3855,-421 "/>
<text text-anchor="start" x="3193" y="-405.8" font-family="Times,serif" font-size="14.00">DependencyConfigInfo, Handle is of type ChiFeature2DependencyConfigInfo</text>
<polyline fill="none" stroke="black" points="3185,-398 3855,-398 "/>
<text text-anchor="start" x="3193" y="-382.8" font-family="Times,serif" font-size="14.00">DependencyConfigDescriptor, Handle is of type ChiFeature2DependencyConfigDescriptor </text>
</g>
<!-- node11&#45;&gt;node13 -->
<g id="0" class="edge"><title>node11:f3&#45;&gt;node13:f0</title>
<path fill="none" stroke="black" d="M3149,-370C3205.77,-370 3134.92,-485.051 3174.74,-500.331"/>
<polygon fill="black" stroke="black" points="3174.57,-503.849 3185,-502 3175.69,-496.94 3174.57,-503.849"/>
</g>
<!-- node20 -->
<g id="node21" class="node"><title>node20</title>
<polygon fill="none" stroke="black" points="3315,-194.5 3315,-355.5 3725,-355.5 3725,-194.5 3315,-194.5"/>
<text text-anchor="middle" x="3520" y="-340.3" font-family="Times,serif" font-size="14.00">struct ChiFeature2DependencyConfigDescriptor</text>
<polyline fill="none" stroke="black" points="3315,-332.5 3725,-332.5 "/>
<text text-anchor="start" x="3323" y="-317.3" font-family="Times,serif" font-size="14.00">UINT8 numInputDependency</text>
<polyline fill="none" stroke="black" points="3315,-309.5 3725,-309.5 "/>
<text text-anchor="start" x="3323" y="-294.3" font-family="Times,serif" font-size="14.00">ChiFeature2InputDependency* pInputDependencyList</text>
<polyline fill="none" stroke="black" points="3315,-286.5 3725,-286.5 "/>
<text text-anchor="start" x="3323" y="-271.3" font-family="Times,serif" font-size="14.00">UINT8 numInputConfig</text>
<polyline fill="none" stroke="black" points="3315,-263.5 3725,-263.5 "/>
<text text-anchor="start" x="3323" y="-248.3" font-family="Times,serif" font-size="14.00">const ChiFeature2PortDescriptor* pInputConfig</text>
<polyline fill="none" stroke="black" points="3315,-240.5 3725,-240.5 "/>
<text text-anchor="start" x="3323" y="-225.3" font-family="Times,serif" font-size="14.00">UINT8 numOutputConfig</text>
<polyline fill="none" stroke="black" points="3315,-217.5 3725,-217.5 "/>
<text text-anchor="start" x="3323" y="-202.3" font-family="Times,serif" font-size="14.00">const ChiFeature2PortDescriptor* pOutputConfig</text>
</g>
<!-- node11&#45;&gt;node20 -->
<g id="1" class="edge"><title>node11:f4&#45;&gt;node20:f0</title>
<path fill="none" stroke="black" d="M3149,-347C3218.76,-347 3238.74,-344.286 3303.64,-344.021"/>
<polygon fill="black" stroke="black" points="3304.01,-347.52 3314,-344 3303.99,-340.52 3304.01,-347.52"/>
</g>
<!-- node14 -->
<g id="node15" class="node"><title>node14</title>
<polygon fill="none" stroke="black" points="653,-468.5 653,-537.5 1001,-537.5 1001,-468.5 653,-468.5"/>
<text text-anchor="middle" x="827" y="-522.3" font-family="Times,serif" font-size="14.00">ChiFeature2InstanceDesc </text>
<polyline fill="none" stroke="black" points="653,-514.5 1001,-514.5 "/>
<text text-anchor="start" x="661" y="-499.3" font-family="Times,serif" font-size="14.00">const ChiFeature2Descriptor* pFeatureDesc; </text>
<polyline fill="none" stroke="black" points="653,-491.5 1001,-491.5 "/>
<text text-anchor="start" x="661" y="-476.3" font-family="Times,serif" font-size="14.00">ChiFeature2InstanceProps* pInstanceProps; </text>
</g>
<!-- node14&#45;&gt;node2 -->
<g id="1" class="edge"><title>node14:f1&#45;&gt;node2:f0</title>
<path fill="none" stroke="black" d="M1002,-503C1079,-503 1072.2,-596.042 1141.67,-604.401"/>
<polygon fill="black" stroke="black" points="1141.81,-607.915 1152,-605 1142.22,-600.927 1141.81,-607.915"/>
</g>
<!-- node15 -->
<g id="node16" class="node"><title>node15</title>
<polygon fill="none" stroke="black" points="1086,-252 1086,-390 1642,-390 1642,-252 1086,-252"/>
<text text-anchor="middle" x="1364" y="-374.8" font-family="Times,serif" font-size="14.00">ChiFeature2InstanceProps</text>
<polyline fill="none" stroke="black" points="1086,-367 1642,-367 "/>
<text text-anchor="start" x="1094" y="-351.8" font-family="Times,serif" font-size="14.00">UINT32 instanceId [ID of the feature instance] </text>
<polyline fill="none" stroke="black" points="1086,-344 1642,-344 "/>
<text text-anchor="start" x="1094" y="-328.8" font-family="Times,serif" font-size="14.00">UINT32 cameraId [ID of the camera associated with this feature instance] </text>
<polyline fill="none" stroke="black" points="1086,-321 1642,-321 "/>
<text text-anchor="start" x="1094" y="-305.8" font-family="Times,serif" font-size="14.00">UINT32 numFeatureProps [Number of feature properties] </text>
<polyline fill="none" stroke="black" points="1086,-298 1642,-298 "/>
<text text-anchor="start" x="1094" y="-282.8" font-family="Times,serif" font-size="14.00">ChiFeature2Property* pFeatureProperties [Array of feature properties] </text>
<polyline fill="none" stroke="black" points="1086,-275 1642,-275 "/>
<text text-anchor="start" x="1094" y="-259.8" font-family="Times,serif" font-size="14.00">bool operator==(const ChiFeature2InstanceProps&amp; rRHS) const</text>
</g>
<!-- node14&#45;&gt;node15 -->
<g id="1" class="edge"><title>node14:f2&#45;&gt;node15:f0</title>
<path fill="none" stroke="black" d="M1002,-480C1025.29,-480 1033.45,-475.379 1050,-459 1074.79,-434.467 1052.84,-389.81 1075.84,-380.663"/>
<polygon fill="black" stroke="black" points="1076.7,-384.07 1086,-379 1075.57,-377.161 1076.7,-384.07"/>
</g>
<!-- node16 -->
<g id="node17" class="node"><title>node16</title>
<polygon fill="none" stroke="black" points="1678,-182.5 1678,-297.5 2133,-297.5 2133,-182.5 1678,-182.5"/>
<text text-anchor="middle" x="1905.5" y="-282.3" font-family="Times,serif" font-size="14.00">ChiFeature2Property </text>
<polyline fill="none" stroke="black" points="1678,-274.5 2133,-274.5 "/>
<text text-anchor="start" x="1686" y="-259.3" font-family="Times,serif" font-size="14.00">UINT32 propertyId [ID of the property] </text>
<polyline fill="none" stroke="black" points="1678,-251.5 2133,-251.5 "/>
<text text-anchor="start" x="1686" y="-236.3" font-family="Times,serif" font-size="14.00">const CHAR* pPropertyName [Name of the property] </text>
<polyline fill="none" stroke="black" points="1678,-228.5 2133,-228.5 "/>
<text text-anchor="start" x="1686" y="-213.3" font-family="Times,serif" font-size="14.00">UINT32 size [size of property value] </text>
<polyline fill="none" stroke="black" points="1678,-205.5 2133,-205.5 "/>
<text text-anchor="start" x="1686" y="-190.3" font-family="Times,serif" font-size="14.00">const VOID* pValue [Pointer to data. Type dependent on ID] </text>
</g>
<!-- node15&#45;&gt;node16 -->
<g id="1" class="edge"><title>node15:f4&#45;&gt;node16:f0</title>
<path fill="none" stroke="black" d="M1642,-286C1654,-286 1659.25,-286 1667.88,-286"/>
<polygon fill="black" stroke="black" points="1668,-289.5 1678,-286 1668,-282.5 1668,-289.5"/>
</g>
<!-- node17 -->
<g id="node18" class="node"><title>node17</title>
<polygon fill="none" stroke="black" points="84.5,-335.5 84.5,-542.5 483.5,-542.5 483.5,-335.5 84.5,-335.5"/>
<text text-anchor="middle" x="284" y="-527.3" font-family="Times,serif" font-size="14.00">ChiFeature2GraphDesc</text>
<polyline fill="none" stroke="black" points="84.5,-519.5 483.5,-519.5 "/>
<text text-anchor="start" x="92.5" y="-504.3" font-family="Times,serif" font-size="14.00">UINT32 numFeatureInstances</text>
<polyline fill="none" stroke="black" points="84.5,-496.5 483.5,-496.5 "/>
<text text-anchor="start" x="92.5" y="-481.3" font-family="Times,serif" font-size="14.00">ChiFeature2InstanceDesc* pFeatureInstances </text>
<polyline fill="none" stroke="black" points="84.5,-473.5 483.5,-473.5 "/>
<text text-anchor="start" x="92.5" y="-458.3" font-family="Times,serif" font-size="14.00">UINT32 numExtSrcLinks </text>
<polyline fill="none" stroke="black" points="84.5,-450.5 483.5,-450.5 "/>
<text text-anchor="start" x="92.5" y="-435.3" font-family="Times,serif" font-size="14.00">ChiFeature2GraphExtSrcLinkDesc* pExtSrcLinks </text>
<polyline fill="none" stroke="black" points="84.5,-427.5 483.5,-427.5 "/>
<text text-anchor="start" x="92.5" y="-412.3" font-family="Times,serif" font-size="14.00">UINT32 numInternalLinks </text>
<polyline fill="none" stroke="black" points="84.5,-404.5 483.5,-404.5 "/>
<text text-anchor="start" x="92.5" y="-389.3" font-family="Times,serif" font-size="14.00">ChiFeature2GraphInternalLinkDesc* pInternalLinks </text>
<polyline fill="none" stroke="black" points="84.5,-381.5 483.5,-381.5 "/>
<text text-anchor="start" x="92.5" y="-366.3" font-family="Times,serif" font-size="14.00">UINT32 numExtSinkLinks </text>
<polyline fill="none" stroke="black" points="84.5,-358.5 483.5,-358.5 "/>
<text text-anchor="start" x="92.5" y="-343.3" font-family="Times,serif" font-size="14.00">ChiFeature2GraphExtSinkLinkDesc* pExtSinkLinks </text>
</g>
<!-- node17&#45;&gt;node14 -->
<g id="1" class="edge"><title>node17:f2&#45;&gt;node14:f0</title>
<path fill="none" stroke="black" d="M485,-485C557.844,-485 574.11,-522.246 641.65,-525.738"/>
<polygon fill="black" stroke="black" points="641.915,-529.246 652,-526 642.092,-522.248 641.915,-529.246"/>
</g>
<!-- node18 -->
<g id="node19" class="node"><title>node18</title>
<polygon fill="none" stroke="black" points="669.5,-404 669.5,-450 984.5,-450 984.5,-404 669.5,-404"/>
<text text-anchor="middle" x="827" y="-434.8" font-family="Times,serif" font-size="14.00">struct ChiFeature2GraphExtSrcLinkDesc</text>
<polyline fill="none" stroke="black" points="669.5,-427 984.5,-427 "/>
<text text-anchor="start" x="677.5" y="-411.8" font-family="Times,serif" font-size="14.00">ChiFeature2GlobalPortInstanceId portId</text>
</g>
<!-- node17&#45;&gt;node18 -->
<g id="1" class="edge"><title>node17:f4&#45;&gt;node18:f0</title>
<path fill="none" stroke="black" d="M485,-439C562.839,-439 584.807,-439 657.844,-439"/>
<polygon fill="black" stroke="black" points="658,-442.5 668,-439 658,-435.5 658,-442.5"/>
</g>
<!-- node19 -->
<g id="node20" class="node"><title>node19</title>
<polygon fill="none" stroke="black" points="656.5,-316.5 656.5,-385.5 997.5,-385.5 997.5,-316.5 656.5,-316.5"/>
<text text-anchor="middle" x="827" y="-370.3" font-family="Times,serif" font-size="14.00">struct ChiFeature2GraphInternalLinkDesc</text>
<polyline fill="none" stroke="black" points="656.5,-362.5 997.5,-362.5 "/>
<text text-anchor="start" x="664.5" y="-347.3" font-family="Times,serif" font-size="14.00">ChiFeature2GlobalPortInstanceId srcPortId</text>
<polyline fill="none" stroke="black" points="656.5,-339.5 997.5,-339.5 "/>
<text text-anchor="start" x="664.5" y="-324.3" font-family="Times,serif" font-size="14.00">ChiFeature2GlobalPortInstanceId sinkPortId</text>
</g>
<!-- node17&#45;&gt;node19 -->
<g id="1" class="edge"><title>node17:f6&#45;&gt;node19:f0</title>
<path fill="none" stroke="black" d="M485,-393C557.462,-393 577.164,-375.74 644.68,-374.121"/>
<polygon fill="black" stroke="black" points="645.042,-377.617 655,-374 644.96,-370.618 645.042,-377.617"/>
</g>
<!-- node21 -->
<g id="node22" class="node"><title>node21</title>
<polygon fill="none" stroke="black" points="4333,-163 4333,-255 4752,-255 4752,-163 4333,-163"/>
<text text-anchor="middle" x="4542.5" y="-239.8" font-family="Times,serif" font-size="14.00">struct ChiFeature2PortDescriptor</text>
<polyline fill="none" stroke="black" points="4333,-232 4752,-232 "/>
<text text-anchor="start" x="4341" y="-216.8" font-family="Times,serif" font-size="14.00">ChiFeature2Identifier globalId</text>
<polyline fill="none" stroke="black" points="4333,-209 4752,-209 "/>
<text text-anchor="start" x="4341" y="-193.8" font-family="Times,serif" font-size="14.00">const ChiFeature2TargetDescriptor* pTargetDescriptor</text>
<polyline fill="none" stroke="black" points="4333,-186 4752,-186 "/>
<text text-anchor="start" x="4341" y="-170.8" font-family="Times,serif" font-size="14.00">const CHAR* pPortName</text>
</g>
<!-- node20&#45;&gt;node21 -->
<g id="1" class="edge"><title>node20:f4&#45;&gt;node21:f0</title>
<path fill="none" stroke="black" d="M3726,-252C3992.38,-252 4061.45,-244.202 4322.82,-244.004"/>
<polygon fill="black" stroke="black" points="4323,-247.504 4333,-244 4323,-240.504 4323,-247.504"/>
</g>
<!-- node20&#45;&gt;node21 -->
<g id="1" class="edge"><title>node20:f6&#45;&gt;node21:f0</title>
<path fill="none" stroke="black" d="M3726,-206C3980.25,-206 4043.41,-222.664 4297,-241 4309.01,-241.868 4314.22,-243.122 4322.85,-243.694"/>
<polygon fill="black" stroke="black" points="4322.9,-247.197 4333,-244 4323.11,-240.2 4322.9,-247.197"/>
</g>
<!-- node23 -->
<g id="node23" class="node"><title>node23</title>
<polygon fill="none" stroke="black" points="3891,-272.5 3891,-341.5 4297,-341.5 4297,-272.5 3891,-272.5"/>
<text text-anchor="middle" x="4094" y="-326.3" font-family="Times,serif" font-size="14.00">struct ChiFeature2InputDependency</text>
<polyline fill="none" stroke="black" points="3891,-318.5 4297,-318.5 "/>
<text text-anchor="start" x="3899" y="-303.3" font-family="Times,serif" font-size="14.00">UINT8 numInputDependency</text>
<polyline fill="none" stroke="black" points="3891,-295.5 4297,-295.5 "/>
<text text-anchor="start" x="3899" y="-280.3" font-family="Times,serif" font-size="14.00">const ChiFeature2PortDescriptor* pInputDependency</text>
</g>
<!-- node20&#45;&gt;node23 -->
<g id="1" class="edge"><title>node20:f2&#45;&gt;node23:f0</title>
<path fill="none" stroke="black" d="M3726,-298C3797.2,-298 3814.71,-327.07 3880.87,-329.796"/>
<polygon fill="black" stroke="black" points="3880.93,-333.297 3891,-330 3881.07,-326.299 3880.93,-333.297"/>
</g>
<!-- node21&#45;&gt;node5 -->
<g id="1" class="edge"><title>node21:f2&#45;&gt;node5:f0</title>
<path fill="none" stroke="black" d="M4752,-197C4811.1,-197 4747.32,-111.868 4788,-69 4805.52,-50.5339 4817.57,-48.3054 4839.8,-48.0367"/>
<polygon fill="black" stroke="black" points="4840.01,-51.5361 4850,-48 4839.99,-44.5362 4840.01,-51.5361"/>
</g>
<!-- node21&#45;&gt;node6 -->
<g id="1" class="edge"><title>node21:f1&#45;&gt;node6:f0</title>
<path fill="none" stroke="black" d="M4752,-221C4764.22,-221 4769.19,-224.938 4777.79,-226.906"/>
<polygon fill="black" stroke="black" points="4777.68,-230.415 4788,-228 4778.43,-223.455 4777.68,-230.415"/>
</g>
<!-- node23&#45;&gt;node21 -->
<g id="1" class="edge"><title>node23:f2&#45;&gt;node21:f0</title>
<path fill="none" stroke="black" d="M4297,-284C4316.81,-284 4312.09,-256.568 4323.47,-247.139"/>
<polygon fill="black" stroke="black" points="4324.6,-250.453 4333,-244 4322.41,-243.805 4324.6,-250.453"/>
</g>
<!-- node24 -->
<g id="node24" class="node"><title>node24</title>
<polygon fill="none" stroke="black" points="0,-648.5 0,-855.5 568,-855.5 568,-648.5 0,-648.5"/>
<text text-anchor="middle" x="284" y="-840.3" font-family="Times,serif" font-size="14.00">ChiFeature2GraphNode</text>
<polyline fill="none" stroke="black" points="0,-832.5 568,-832.5 "/>
<text text-anchor="start" x="8" y="-817.3" font-family="Times,serif" font-size="14.00">UINT32 featureId</text>
<polyline fill="none" stroke="black" points="0,-809.5 568,-809.5 "/>
<text text-anchor="start" x="8" y="-794.3" font-family="Times,serif" font-size="14.00">ChiFeature2InstanceProps instanceProps</text>
<polyline fill="none" stroke="black" points="0,-786.5 568,-786.5 "/>
<text text-anchor="start" x="8" y="-771.3" font-family="Times,serif" font-size="14.00">ChiFeature2Base* pFeatureBaseObj</text>
<polyline fill="none" stroke="black" points="0,-763.5 568,-763.5 "/>
<text text-anchor="start" x="8" y="-748.3" font-family="Times,serif" font-size="14.00">ChiFeature2RequestObject* pFeatureRequestObj</text>
<polyline fill="none" stroke="black" points="0,-740.5 568,-740.5 "/>
<text text-anchor="start" x="8" y="-725.3" font-family="Times,serif" font-size="14.00">std::vector&lt;std::vector&lt;ChiFeature2RequestOutputInfo&gt; requestTable</text>
<polyline fill="none" stroke="black" points="0,-717.5 568,-717.5 "/>
<text text-anchor="start" x="8" y="-702.3" font-family="Times,serif" font-size="14.00">std::vector&lt;ChiFeature2PortToLinkIndexMap&gt; portToInputLinkIndexMap</text>
<polyline fill="none" stroke="black" points="0,-694.5 568,-694.5 "/>
<text text-anchor="start" x="8" y="-679.3" font-family="Times,serif" font-size="14.00">std::vector&lt;ChiFeature2PortToLinkIndexMap&gt; portToOutputLinkIndexMap</text>
<polyline fill="none" stroke="black" points="0,-671.5 568,-671.5 "/>
<text text-anchor="start" x="8" y="-656.3" font-family="Times,serif" font-size="14.00">ChiFeature2Hint featureHint</text>
</g>
<!-- node25 -->
<g id="node25" class="node"><title>node25</title>
<polygon fill="none" stroke="black" points="660.5,-556.5 660.5,-671.5 993.5,-671.5 993.5,-556.5 660.5,-556.5"/>
<text text-anchor="middle" x="827" y="-656.3" font-family="Times,serif" font-size="14.00">struct ChiFeature2Hint</text>
<polyline fill="none" stroke="black" points="660.5,-648.5 993.5,-648.5 "/>
<text text-anchor="start" x="668.5" y="-633.3" font-family="Times,serif" font-size="14.00">UINT numFrames</text>
<polyline fill="none" stroke="black" points="660.5,-625.5 993.5,-625.5 "/>
<text text-anchor="start" x="668.5" y="-610.3" font-family="Times,serif" font-size="14.00">ChiFeature2CaptureModes captureMode</text>
<polyline fill="none" stroke="black" points="660.5,-602.5 993.5,-602.5 "/>
<text text-anchor="start" x="668.5" y="-587.3" font-family="Times,serif" font-size="14.00">ChiFeature2CaptureModeData captureData</text>
<polyline fill="none" stroke="black" points="660.5,-579.5 993.5,-579.5 "/>
<text text-anchor="start" x="668.5" y="-564.3" font-family="Times,serif" font-size="14.00">VOID* pOEMChiFeatureHint</text>
</g>
<!-- node24&#45;&gt;node25 -->
<g id="1" class="edge"><title>node24:f8&#45;&gt;node25:f0</title>
<path fill="none" stroke="black" d="M568,-660C604.811,-660 616.494,-660 648.79,-660"/>
<polygon fill="black" stroke="black" points="649,-663.5 659,-660 649,-656.5 649,-663.5"/>
</g>
<!-- node26 -->
<g id="node26" class="node"><title>node26</title>
<polygon fill="none" stroke="black" points="604,-692.5 604,-763.5 1050,-763.5 1050,-692.5 604,-692.5"/>
<text text-anchor="middle" x="827" y="-748.3" font-family="Times,serif" font-size="14.00">ChiFeature2RequestObject* pFeatureRequestObj is a Class</text>
<polyline fill="none" stroke="black" points="604,-740.5 1050,-740.5 "/>
<polyline fill="none" stroke="black" points="604,-716.5 1050,-716.5 "/>
</g>
<!-- node24&#45;&gt;node26 -->
<g id="1" class="edge"><title>node24:f4&#45;&gt;node26:f0</title>
<path fill="none" stroke="black" d="M568,-752C580,-752 585.25,-752 593.875,-752"/>
<polygon fill="black" stroke="black" points="594,-755.5 604,-752 594,-748.5 594,-755.5"/>
</g>
</g>
</svg>
