<?xml version="1.0" encoding="UTF-8" standalone="no"?>
<!DOCTYPE svg PUBLIC "-//W3C//DTD SVG 1.1//EN" "http://www.w3.org/Graphics/SVG/1.1/DTD/svg11.dtd">
<!-- Generated by Microsoft Visio, SVG Export feature2_all.svg Page-1 -->
<svg xmlns="http://www.w3.org/2000/svg" xmlns:xlink="http://www.w3.org/1999/xlink" xmlns:ev="http://www.w3.org/2001/xml-events"
		xmlns:v="http://schemas.microsoft.com/visio/2003/SVGExtensions/" width="9.5in" height="0.90625in" viewBox="0 0 684 65.25"
		xml:space="preserve" color-interpolation-filters="sRGB" class="st6">
	<v:documentProperties v:langID="1033" v:viewMarkup="false"/>

	<style type="text/css">
	<![CDATA[
		.st1 {visibility:visible}
		.st2 {fill:#70ad47;fill-opacity:0.25;filter:url(#filter_2);stroke:#70ad47;stroke-opacity:0.25}
		.st3 {fill:#61973d;stroke:#507e31;stroke-width:0.75}
		.st4 {fill:#feffff;font-family:Calibri;font-size:0.833336em}
		.st5 {fill:url(#grad0-28);stroke:#d06d29;stroke-width:0.75}
		.st6 {fill:none;fill-rule:evenodd;font-size:12px;overflow:visible;stroke-linecap:square;stroke-miterlimit:3}
	]]>
	</style>

	<defs id="Patterns_And_Gradients">
		<linearGradient id="grad0-28" x1="0" y1="0" x2="1" y2="0" gradientTransform="rotate(60 0.5 0.5)">
			<stop offset="0" stop-color="#fbece7" stop-opacity="1"/>
			<stop offset="0.24" stop-color="#fdf5f3" stop-opacity="1"/>
			<stop offset="0.54" stop-color="#feffff" stop-opacity="1"/>
		</linearGradient>
	</defs>
	<defs id="Filters">
		<filter id="filter_2">
			<feGaussianBlur stdDeviation="2"/>
		</filter>
	</defs>
	<g v:mID="0" v:index="1" v:groupContext="foregroundPage">
		<title>Page-1</title>
		<v:pageProperties v:drawingScale="1" v:pageScale="1" v:drawingUnits="0" v:shadowOffsetX="9" v:shadowOffsetY="-9"/>
		<g id="shape6-1" v:mID="6" v:groupContext="shape" transform="translate(199.904,-5.3478)">
			<title>Rounded Rectangle.6</title>
			<desc>Bayer2YUV</desc>
			<v:userDefs>
				<v:ud v:nameU="CTypeTopLeftSnip" v:prompt="" v:val="VT0(0):5"/>
				<v:ud v:nameU="CTypeTopRightSnip" v:prompt="" v:val="VT0(0):5"/>
				<v:ud v:nameU="CTypeBotLeftSnip" v:prompt="" v:val="VT0(0):5"/>
				<v:ud v:nameU="CTypeBotRightSnip" v:prompt="" v:val="VT0(0):5"/>
				<v:ud v:nameU="CornerLockHoriz" v:prompt="" v:val="VT0(1):5"/>
				<v:ud v:nameU="CornerLockVert" v:prompt="" v:val="VT0(1):5"/>
				<v:ud v:nameU="CornerLockDiag" v:prompt="" v:val="VT0(0):5"/>
				<v:ud v:nameU="TopLeftOffset" v:prompt="" v:val="VT0(0.15):1"/>
				<v:ud v:nameU="TopRightOffset" v:prompt="" v:val="VT0(0.15):1"/>
				<v:ud v:nameU="BotLeftOffset" v:prompt="" v:val="VT0(0.15):1"/>
				<v:ud v:nameU="BotRightOffset" v:prompt="" v:val="VT0(0.15):1"/>
				<v:ud v:nameU="visVersion" v:prompt="" v:val="VT0(15):26"/>
				<v:ud v:nameU="TopLeftOffset" v:prompt="" v:val="VT0(0.121875):1"/>
				<v:ud v:nameU="TopRightOffset" v:prompt="" v:val="VT0(0.121875):1"/>
				<v:ud v:nameU="BotLeftOffset" v:prompt="" v:val="VT0(0.121875):1"/>
				<v:ud v:nameU="BotRightOffset" v:prompt="" v:val="VT0(0.121875):1"/>
			</v:userDefs>
			<v:textBlock v:margins="rect(4,4,4,4)"/>
			<v:textRect cx="43.875" cy="36" width="87.76" height="58.5"/>
			<g id="shadow6-2" v:groupContext="shadow" v:shadowOffsetX="0.345598" v:shadowOffsetY="-1.97279" v:shadowType="1"
					transform="matrix(1,0,0,1,0.345598,1.97279)" class="st1">
				<path d="M8.78 65.25 L78.98 65.25 A8.77486 8.77486 -180 0 0 87.75 56.48 L87.75 15.53 A8.77486 8.77486 -180 0 0 78.98
							 6.75 L8.78 6.75 A8.77486 8.77486 -180 0 0 -0 15.53 L0 56.48 A8.77486 8.77486 -180 0 0 8.78 65.25 Z"
						class="st2"/>
			</g>
			<path d="M8.78 65.25 L78.98 65.25 A8.77486 8.77486 -180 0 0 87.75 56.48 L87.75 15.53 A8.77486 8.77486 -180 0 0 78.98
						 6.75 L8.78 6.75 A8.77486 8.77486 -180 0 0 -0 15.53 L0 56.48 A8.77486 8.77486 -180 0 0 8.78 65.25 Z"
					class="st3"/>
			<text x="21.25" y="39" class="st4" v:langID="2052"><v:paragraph v:horizAlign="1"/><v:tabList/>Bayer2YUV</text>		</g>
		<g id="shape9-7" v:mID="9" v:groupContext="shape" transform="translate(3.02925,-5.3478)">
			<title>Rounded Rectangle.9</title>
			<desc>Realtime</desc>
			<v:userDefs>
				<v:ud v:nameU="CTypeTopLeftSnip" v:prompt="" v:val="VT0(0):5"/>
				<v:ud v:nameU="CTypeTopRightSnip" v:prompt="" v:val="VT0(0):5"/>
				<v:ud v:nameU="CTypeBotLeftSnip" v:prompt="" v:val="VT0(0):5"/>
				<v:ud v:nameU="CTypeBotRightSnip" v:prompt="" v:val="VT0(0):5"/>
				<v:ud v:nameU="CornerLockHoriz" v:prompt="" v:val="VT0(1):5"/>
				<v:ud v:nameU="CornerLockVert" v:prompt="" v:val="VT0(1):5"/>
				<v:ud v:nameU="CornerLockDiag" v:prompt="" v:val="VT0(0):5"/>
				<v:ud v:nameU="TopLeftOffset" v:prompt="" v:val="VT0(0.15):1"/>
				<v:ud v:nameU="TopRightOffset" v:prompt="" v:val="VT0(0.15):1"/>
				<v:ud v:nameU="BotLeftOffset" v:prompt="" v:val="VT0(0.15):1"/>
				<v:ud v:nameU="BotRightOffset" v:prompt="" v:val="VT0(0.15):1"/>
				<v:ud v:nameU="visVersion" v:prompt="" v:val="VT0(15):26"/>
				<v:ud v:nameU="TopLeftOffset" v:prompt="" v:val="VT0(0.121875):1"/>
				<v:ud v:nameU="TopRightOffset" v:prompt="" v:val="VT0(0.121875):1"/>
				<v:ud v:nameU="BotLeftOffset" v:prompt="" v:val="VT0(0.121875):1"/>
				<v:ud v:nameU="BotRightOffset" v:prompt="" v:val="VT0(0.121875):1"/>
			</v:userDefs>
			<v:textBlock v:margins="rect(4,4,4,4)"/>
			<v:textRect cx="43.875" cy="36" width="87.76" height="58.5"/>
			<g id="shadow9-8" v:groupContext="shadow" v:shadowOffsetX="0.345598" v:shadowOffsetY="-1.97279" v:shadowType="1"
					transform="matrix(1,0,0,1,0.345598,1.97279)" class="st1">
				<path d="M8.78 65.25 L78.98 65.25 A8.77486 8.77486 -180 0 0 87.75 56.48 L87.75 15.53 A8.77486 8.77486 -180 0 0 78.98
							 6.75 L8.78 6.75 A8.77486 8.77486 -180 0 0 -0 15.53 L0 56.48 A8.77486 8.77486 -180 0 0 8.78 65.25 Z"
						class="st2"/>
			</g>
			<path d="M8.78 65.25 L78.98 65.25 A8.77486 8.77486 -180 0 0 87.75 56.48 L87.75 15.53 A8.77486 8.77486 -180 0 0 78.98
						 6.75 L8.78 6.75 A8.77486 8.77486 -180 0 0 -0 15.53 L0 56.48 A8.77486 8.77486 -180 0 0 8.78 65.25 Z"
					class="st3"/>
			<text x="25.83" y="39" class="st4" v:langID="2052"><v:paragraph v:horizAlign="1"/><v:tabList/>Realtime</text>		</g>
		<g id="shape10-13" v:mID="10" v:groupContext="shape" transform="translate(397.904,-5.3478)">
			<title>Rounded Rectangle.10</title>
			<desc>HDRT1</desc>
			<v:userDefs>
				<v:ud v:nameU="CTypeTopLeftSnip" v:prompt="" v:val="VT0(0):5"/>
				<v:ud v:nameU="CTypeTopRightSnip" v:prompt="" v:val="VT0(0):5"/>
				<v:ud v:nameU="CTypeBotLeftSnip" v:prompt="" v:val="VT0(0):5"/>
				<v:ud v:nameU="CTypeBotRightSnip" v:prompt="" v:val="VT0(0):5"/>
				<v:ud v:nameU="CornerLockHoriz" v:prompt="" v:val="VT0(1):5"/>
				<v:ud v:nameU="CornerLockVert" v:prompt="" v:val="VT0(1):5"/>
				<v:ud v:nameU="CornerLockDiag" v:prompt="" v:val="VT0(0):5"/>
				<v:ud v:nameU="TopLeftOffset" v:prompt="" v:val="VT0(0.15):1"/>
				<v:ud v:nameU="TopRightOffset" v:prompt="" v:val="VT0(0.15):1"/>
				<v:ud v:nameU="BotLeftOffset" v:prompt="" v:val="VT0(0.15):1"/>
				<v:ud v:nameU="BotRightOffset" v:prompt="" v:val="VT0(0.15):1"/>
				<v:ud v:nameU="visVersion" v:prompt="" v:val="VT0(15):26"/>
				<v:ud v:nameU="TopLeftOffset" v:prompt="" v:val="VT0(0.121875):1"/>
				<v:ud v:nameU="TopRightOffset" v:prompt="" v:val="VT0(0.121875):1"/>
				<v:ud v:nameU="BotLeftOffset" v:prompt="" v:val="VT0(0.121875):1"/>
				<v:ud v:nameU="BotRightOffset" v:prompt="" v:val="VT0(0.121875):1"/>
			</v:userDefs>
			<v:textBlock v:margins="rect(4,4,4,4)"/>
			<v:textRect cx="43.875" cy="36" width="87.76" height="58.5"/>
			<g id="shadow10-14" v:groupContext="shadow" v:shadowOffsetX="0.345598" v:shadowOffsetY="-1.97279" v:shadowType="1"
					transform="matrix(1,0,0,1,0.345598,1.97279)" class="st1">
				<path d="M8.78 65.25 L78.98 65.25 A8.77486 8.77486 -180 0 0 87.75 56.48 L87.75 15.53 A8.77486 8.77486 -180 0 0 78.98
							 6.75 L8.78 6.75 A8.77486 8.77486 -180 0 0 -0 15.53 L0 56.48 A8.77486 8.77486 -180 0 0 8.78 65.25 Z"
						class="st2"/>
			</g>
			<path d="M8.78 65.25 L78.98 65.25 A8.77486 8.77486 -180 0 0 87.75 56.48 L87.75 15.53 A8.77486 8.77486 -180 0 0 78.98
						 6.75 L8.78 6.75 A8.77486 8.77486 -180 0 0 -0 15.53 L0 56.48 A8.77486 8.77486 -180 0 0 8.78 65.25 Z"
					class="st3"/>
			<text x="30" y="39" class="st4" v:langID="2052"><v:paragraph v:horizAlign="1"/><v:tabList/>HDRT1</text>		</g>
		<g id="shape11-19" v:mID="11" v:groupContext="shape" transform="translate(592.529,-5.3478)">
			<title>Rounded Rectangle.11</title>
			<desc>JPEG</desc>
			<v:userDefs>
				<v:ud v:nameU="CTypeTopLeftSnip" v:prompt="" v:val="VT0(0):5"/>
				<v:ud v:nameU="CTypeTopRightSnip" v:prompt="" v:val="VT0(0):5"/>
				<v:ud v:nameU="CTypeBotLeftSnip" v:prompt="" v:val="VT0(0):5"/>
				<v:ud v:nameU="CTypeBotRightSnip" v:prompt="" v:val="VT0(0):5"/>
				<v:ud v:nameU="CornerLockHoriz" v:prompt="" v:val="VT0(1):5"/>
				<v:ud v:nameU="CornerLockVert" v:prompt="" v:val="VT0(1):5"/>
				<v:ud v:nameU="CornerLockDiag" v:prompt="" v:val="VT0(0):5"/>
				<v:ud v:nameU="TopLeftOffset" v:prompt="" v:val="VT0(0.15):1"/>
				<v:ud v:nameU="TopRightOffset" v:prompt="" v:val="VT0(0.15):1"/>
				<v:ud v:nameU="BotLeftOffset" v:prompt="" v:val="VT0(0.15):1"/>
				<v:ud v:nameU="BotRightOffset" v:prompt="" v:val="VT0(0.15):1"/>
				<v:ud v:nameU="visVersion" v:prompt="" v:val="VT0(15):26"/>
				<v:ud v:nameU="TopLeftOffset" v:prompt="" v:val="VT0(0.121875):1"/>
				<v:ud v:nameU="TopRightOffset" v:prompt="" v:val="VT0(0.121875):1"/>
				<v:ud v:nameU="BotLeftOffset" v:prompt="" v:val="VT0(0.121875):1"/>
				<v:ud v:nameU="BotRightOffset" v:prompt="" v:val="VT0(0.121875):1"/>
			</v:userDefs>
			<v:textBlock v:margins="rect(4,4,4,4)"/>
			<v:textRect cx="43.875" cy="36" width="87.76" height="58.5"/>
			<g id="shadow11-20" v:groupContext="shadow" v:shadowOffsetX="0.345598" v:shadowOffsetY="-1.97279" v:shadowType="1"
					transform="matrix(1,0,0,1,0.345598,1.97279)" class="st1">
				<path d="M8.78 65.25 L78.98 65.25 A8.77486 8.77486 -180 0 0 87.75 56.48 L87.75 15.53 A8.77486 8.77486 -180 0 0 78.98
							 6.75 L8.78 6.75 A8.77486 8.77486 -180 0 0 -0 15.53 L0 56.48 A8.77486 8.77486 -180 0 0 8.78 65.25 Z"
						class="st2"/>
			</g>
			<path d="M8.78 65.25 L78.98 65.25 A8.77486 8.77486 -180 0 0 87.75 56.48 L87.75 15.53 A8.77486 8.77486 -180 0 0 78.98
						 6.75 L8.78 6.75 A8.77486 8.77486 -180 0 0 -0 15.53 L0 56.48 A8.77486 8.77486 -180 0 0 8.78 65.25 Z"
					class="st3"/>
			<text x="34.1" y="39" class="st4" v:langID="2052"><v:paragraph v:horizAlign="1"/><v:tabList/>JPEG</text>		</g>
		<g id="shape13-25" v:mID="13" v:groupContext="shape" transform="translate(90.7793,-41.8828)">
			<title>Rectangle</title>
			<v:userDefs>
				<v:ud v:nameU="visVersion" v:val="VT0(15):26"/>
			</v:userDefs>
			<rect x="0" y="56.785" width="20.25" height="8.46505" class="st5"/>
		</g>
	</g>
</svg>
