<?xml version="1.0" encoding="UTF-8" standalone="no"?><svg xmlns="http://www.w3.org/2000/svg" xmlns:xlink="http://www.w3.org/1999/xlink" contentScriptType="application/ecmascript" contentStyleType="text/css" height="877px" preserveAspectRatio="none" style="width:661px;height:877px;" version="1.1" viewBox="0 0 661 877" width="661px" zoomAndPan="magnify"><defs><filter height="300%" id="flw5x8yhfpo9n" width="300%" x="-1" y="-1"><feGaussianBlur result="blurOut" stdDeviation="2.0"/><feColorMatrix in="blurOut" result="blurOut2" type="matrix" values="0 0 0 0 0 0 0 0 0 0 0 0 0 0 0 0 0 0 .4 0"/><feOffset dx="4.0" dy="4.0" in="blurOut2" result="blurOut3"/><feBlend in="SourceGraphic" in2="blurOut3" mode="normal"/></filter></defs><g><text fill="#000000" font-family="sans-serif" font-size="14" font-weight="bold" lengthAdjust="spacingAndGlyphs" textLength="318" x="172.25" y="24.5332">Image Stabilization Node Request Processing</text><line style="stroke: #A80036; stroke-width: 1.0;" x1="46" x2="46" y1="84.2188" y2="94.2188"/><line style="stroke: #A80036; stroke-width: 1.0; stroke-dasharray: 1.0,4.0;" x1="46" x2="46" y1="94.2188" y2="122.2188"/><line style="stroke: #A80036; stroke-width: 1.0;" x1="46" x2="46" y1="122.2188" y2="320.6797"/><line style="stroke: #A80036; stroke-width: 1.0; stroke-dasharray: 1.0,4.0;" x1="46" x2="46" y1="320.6797" y2="348.6797"/><line style="stroke: #A80036; stroke-width: 1.0;" x1="46" x2="46" y1="348.6797" y2="348.6797"/><line style="stroke: #A80036; stroke-width: 1.0; stroke-dasharray: 1.0,4.0;" x1="46" x2="46" y1="348.6797" y2="376.6797"/><line style="stroke: #A80036; stroke-width: 1.0;" x1="46" x2="46" y1="376.6797" y2="649.8438"/><line style="stroke: #A80036; stroke-width: 1.0; stroke-dasharray: 1.0,4.0;" x1="46" x2="46" y1="649.8438" y2="677.8438"/><line style="stroke: #A80036; stroke-width: 1.0;" x1="46" x2="46" y1="677.8438" y2="822.25"/><line style="stroke: #A80036; stroke-width: 1.0;" x1="239" x2="239" y1="84.2188" y2="94.2188"/><line style="stroke: #A80036; stroke-width: 1.0; stroke-dasharray: 1.0,4.0;" x1="239" x2="239" y1="94.2188" y2="122.2188"/><line style="stroke: #A80036; stroke-width: 1.0;" x1="239" x2="239" y1="122.2188" y2="320.6797"/><line style="stroke: #A80036; stroke-width: 1.0; stroke-dasharray: 1.0,4.0;" x1="239" x2="239" y1="320.6797" y2="348.6797"/><line style="stroke: #A80036; stroke-width: 1.0;" x1="239" x2="239" y1="348.6797" y2="348.6797"/><line style="stroke: #A80036; stroke-width: 1.0; stroke-dasharray: 1.0,4.0;" x1="239" x2="239" y1="348.6797" y2="376.6797"/><line style="stroke: #A80036; stroke-width: 1.0;" x1="239" x2="239" y1="376.6797" y2="649.8438"/><line style="stroke: #A80036; stroke-width: 1.0; stroke-dasharray: 1.0,4.0;" x1="239" x2="239" y1="649.8438" y2="677.8438"/><line style="stroke: #A80036; stroke-width: 1.0;" x1="239" x2="239" y1="677.8438" y2="822.25"/><line style="stroke: #A80036; stroke-width: 1.0;" x1="397.5" x2="397.5" y1="84.2188" y2="94.2188"/><line style="stroke: #A80036; stroke-width: 1.0; stroke-dasharray: 1.0,4.0;" x1="397.5" x2="397.5" y1="94.2188" y2="122.2188"/><line style="stroke: #A80036; stroke-width: 1.0;" x1="397.5" x2="397.5" y1="122.2188" y2="320.6797"/><line style="stroke: #A80036; stroke-width: 1.0; stroke-dasharray: 1.0,4.0;" x1="397.5" x2="397.5" y1="320.6797" y2="348.6797"/><line style="stroke: #A80036; stroke-width: 1.0;" x1="397.5" x2="397.5" y1="348.6797" y2="348.6797"/><line style="stroke: #A80036; stroke-width: 1.0; stroke-dasharray: 1.0,4.0;" x1="397.5" x2="397.5" y1="348.6797" y2="376.6797"/><line style="stroke: #A80036; stroke-width: 1.0;" x1="397.5" x2="397.5" y1="376.6797" y2="649.8438"/><line style="stroke: #A80036; stroke-width: 1.0; stroke-dasharray: 1.0,4.0;" x1="397.5" x2="397.5" y1="649.8438" y2="677.8438"/><line style="stroke: #A80036; stroke-width: 1.0;" x1="397.5" x2="397.5" y1="677.8438" y2="822.25"/><line style="stroke: #A80036; stroke-width: 1.0;" x1="498.5" x2="498.5" y1="84.2188" y2="94.2188"/><line style="stroke: #A80036; stroke-width: 1.0; stroke-dasharray: 1.0,4.0;" x1="498.5" x2="498.5" y1="94.2188" y2="122.2188"/><line style="stroke: #A80036; stroke-width: 1.0;" x1="498.5" x2="498.5" y1="122.2188" y2="320.6797"/><line style="stroke: #A80036; stroke-width: 1.0; stroke-dasharray: 1.0,4.0;" x1="498.5" x2="498.5" y1="320.6797" y2="348.6797"/><line style="stroke: #A80036; stroke-width: 1.0;" x1="498.5" x2="498.5" y1="348.6797" y2="348.6797"/><line style="stroke: #A80036; stroke-width: 1.0; stroke-dasharray: 1.0,4.0;" x1="498.5" x2="498.5" y1="348.6797" y2="376.6797"/><line style="stroke: #A80036; stroke-width: 1.0;" x1="498.5" x2="498.5" y1="376.6797" y2="649.8438"/><line style="stroke: #A80036; stroke-width: 1.0; stroke-dasharray: 1.0,4.0;" x1="498.5" x2="498.5" y1="649.8438" y2="677.8438"/><line style="stroke: #A80036; stroke-width: 1.0;" x1="498.5" x2="498.5" y1="677.8438" y2="822.25"/><line style="stroke: #A80036; stroke-width: 1.0;" x1="602.5" x2="602.5" y1="84.2188" y2="94.2188"/><line style="stroke: #A80036; stroke-width: 1.0; stroke-dasharray: 1.0,4.0;" x1="602.5" x2="602.5" y1="94.2188" y2="122.2188"/><line style="stroke: #A80036; stroke-width: 1.0;" x1="602.5" x2="602.5" y1="122.2188" y2="320.6797"/><line style="stroke: #A80036; stroke-width: 1.0; stroke-dasharray: 1.0,4.0;" x1="602.5" x2="602.5" y1="320.6797" y2="348.6797"/><line style="stroke: #A80036; stroke-width: 1.0;" x1="602.5" x2="602.5" y1="348.6797" y2="348.6797"/><line style="stroke: #A80036; stroke-width: 1.0; stroke-dasharray: 1.0,4.0;" x1="602.5" x2="602.5" y1="348.6797" y2="376.6797"/><line style="stroke: #A80036; stroke-width: 1.0;" x1="602.5" x2="602.5" y1="376.6797" y2="649.8438"/><line style="stroke: #A80036; stroke-width: 1.0; stroke-dasharray: 1.0,4.0;" x1="602.5" x2="602.5" y1="649.8438" y2="677.8438"/><line style="stroke: #A80036; stroke-width: 1.0;" x1="602.5" x2="602.5" y1="677.8438" y2="822.25"/><rect fill="#00FF00" filter="url(#flw5x8yhfpo9n)" height="31.6094" style="stroke: #A80036; stroke-width: 1.5;" width="73" x="8" y="47.6094"/><text fill="#000000" font-family="sans-serif" font-size="14" lengthAdjust="spacingAndGlyphs" textLength="59" x="15" y="69.1426">Topology</text><rect fill="#00FF00" filter="url(#flw5x8yhfpo9n)" height="31.6094" style="stroke: #A80036; stroke-width: 1.5;" width="73" x="8" y="821.25"/><text fill="#000000" font-family="sans-serif" font-size="14" lengthAdjust="spacingAndGlyphs" textLength="59" x="15" y="842.7832">Topology</text><rect fill="#FEFECE" filter="url(#flw5x8yhfpo9n)" height="31.6094" style="stroke: #A80036; stroke-width: 1.5;" width="59" x="208" y="47.6094"/><text fill="#000000" font-family="sans-serif" font-size="14" lengthAdjust="spacingAndGlyphs" textLength="45" x="215" y="69.1426">ISNode</text><rect fill="#FEFECE" filter="url(#flw5x8yhfpo9n)" height="31.6094" style="stroke: #A80036; stroke-width: 1.5;" width="59" x="208" y="821.25"/><text fill="#000000" font-family="sans-serif" font-size="14" lengthAdjust="spacingAndGlyphs" textLength="45" x="215" y="842.7832">ISNode</text><rect fill="#FEFECE" filter="url(#flw5x8yhfpo9n)" height="31.6094" style="stroke: #A80036; stroke-width: 1.5;" width="94" x="348.5" y="47.6094"/><text fill="#000000" font-family="sans-serif" font-size="14" lengthAdjust="spacingAndGlyphs" textLength="80" x="355.5" y="69.1426">IS Processor</text><rect fill="#FEFECE" filter="url(#flw5x8yhfpo9n)" height="31.6094" style="stroke: #A80036; stroke-width: 1.5;" width="94" x="348.5" y="821.25"/><text fill="#000000" font-family="sans-serif" font-size="14" lengthAdjust="spacingAndGlyphs" textLength="80" x="355.5" y="842.7832">IS Processor</text><text fill="#000000" font-family="sans-serif" font-size="14" lengthAdjust="spacingAndGlyphs" textLength="78" x="456.5" y="81.1426">Thread Pool</text><ellipse cx="498.5" cy="50.6094" fill="#00FF00" filter="url(#flw5x8yhfpo9n)" rx="12" ry="12" style="stroke: #A80036; stroke-width: 2.0;"/><polygon fill="#A80036" points="494.5,38.6094,500.5,33.6094,498.5,38.6094,500.5,43.6094,494.5,38.6094" style="stroke: #A80036; stroke-width: 1.0;"/><text fill="#000000" font-family="sans-serif" font-size="14" lengthAdjust="spacingAndGlyphs" textLength="78" x="456.5" y="835.7832">Thread Pool</text><ellipse cx="498.5" cy="854.8594" fill="#00FF00" filter="url(#flw5x8yhfpo9n)" rx="12" ry="12" style="stroke: #A80036; stroke-width: 2.0;"/><polygon fill="#A80036" points="494.5,842.8594,500.5,837.8594,498.5,842.8594,500.5,847.8594,494.5,842.8594" style="stroke: #A80036; stroke-width: 1.0;"/><rect fill="#00FF00" filter="url(#flw5x8yhfpo9n)" height="31.6094" style="stroke: #A80036; stroke-width: 1.5;" width="100" x="550.5" y="47.6094"/><text fill="#000000" font-family="sans-serif" font-size="14" lengthAdjust="spacingAndGlyphs" textLength="86" x="557.5" y="69.1426">Property Pool</text><rect fill="#00FF00" filter="url(#flw5x8yhfpo9n)" height="31.6094" style="stroke: #A80036; stroke-width: 1.5;" width="100" x="550.5" y="821.25"/><text fill="#000000" font-family="sans-serif" font-size="14" lengthAdjust="spacingAndGlyphs" textLength="86" x="557.5" y="842.7832">Property Pool</text><polygon fill="#A80036" points="227.5,140.2188,237.5,144.2188,227.5,148.2188,231.5,144.2188" style="stroke: #A80036; stroke-width: 1.0;"/><line style="stroke: #A80036; stroke-width: 1.0; stroke-dasharray: 2.0,2.0;" x1="46.5" x2="233.5" y1="144.2188" y2="144.2188"/><text fill="#000000" font-family="sans-serif" font-size="13" lengthAdjust="spacingAndGlyphs" textLength="152" x="53.5" y="139.7139">ExecuteProcessRequest()</text><polygon fill="#A80036" points="385.5,170.5703,395.5,174.5703,385.5,178.5703,389.5,174.5703" style="stroke: #A80036; stroke-width: 1.0;"/><line style="stroke: #A80036; stroke-width: 1.0;" x1="239.5" x2="391.5" y1="174.5703" y2="174.5703"/><text fill="#000000" font-family="sans-serif" font-size="13" lengthAdjust="spacingAndGlyphs" textLength="101" x="246.5" y="170.0654">GetDependency()</text><polygon fill="#A80036" points="250.5,200.9219,240.5,204.9219,250.5,208.9219,246.5,204.9219" style="stroke: #A80036; stroke-width: 1.0;"/><line style="stroke: #A80036; stroke-width: 1.0;" x1="244.5" x2="396.5" y1="204.9219" y2="204.9219"/><text fill="#000000" font-family="sans-serif" font-size="13" lengthAdjust="spacingAndGlyphs" textLength="109" x="256.5" y="200.417">return Dependency</text><polygon fill="#A80036" points="590.5,231.2734,600.5,235.2734,590.5,239.2734,594.5,235.2734" style="stroke: #A80036; stroke-width: 1.0;"/><line style="stroke: #A80036; stroke-width: 1.0;" x1="239.5" x2="596.5" y1="235.2734" y2="235.2734"/><text fill="#000000" font-family="sans-serif" font-size="13" lengthAdjust="spacingAndGlyphs" textLength="75" x="246.5" y="230.7686">IsPublished()</text><polygon fill="#A80036" points="250.5,261.625,240.5,265.625,250.5,269.625,246.5,265.625" style="stroke: #A80036; stroke-width: 1.0;"/><line style="stroke: #A80036; stroke-width: 1.0;" x1="244.5" x2="601.5" y1="265.625" y2="265.625"/><text fill="#000000" font-family="sans-serif" font-size="13" lengthAdjust="spacingAndGlyphs" textLength="79" x="256.5" y="261.1201">return FALSE</text><polygon fill="#A80036" points="57.5,307.9766,47.5,311.9766,57.5,315.9766,53.5,311.9766" style="stroke: #A80036; stroke-width: 1.0;"/><line style="stroke: #A80036; stroke-width: 1.0; stroke-dasharray: 2.0,2.0;" x1="51.5" x2="238.5" y1="311.9766" y2="311.9766"/><text fill="#000000" font-family="sans-serif" font-size="13" lengthAdjust="spacingAndGlyphs" textLength="88" x="63.5" y="291.4717">return Success</text><text fill="#000000" font-family="sans-serif" font-size="13" lengthAdjust="spacingAndGlyphs" textLength="169" x="63.5" y="307.8232">with dependency requirement</text><polygon fill="#A80036" points="227.5,394.6797,237.5,398.6797,227.5,402.6797,231.5,398.6797" style="stroke: #A80036; stroke-width: 1.0;"/><line style="stroke: #A80036; stroke-width: 1.0; stroke-dasharray: 2.0,2.0;" x1="46.5" x2="233.5" y1="398.6797" y2="398.6797"/><text fill="#000000" font-family="sans-serif" font-size="13" lengthAdjust="spacingAndGlyphs" textLength="152" x="53.5" y="394.1748">ExecuteProcessRequest()</text><polygon fill="#A80036" points="385.5,425.0313,395.5,429.0313,385.5,433.0313,389.5,429.0313" style="stroke: #A80036; stroke-width: 1.0;"/><line style="stroke: #A80036; stroke-width: 1.0;" x1="239.5" x2="391.5" y1="429.0313" y2="429.0313"/><text fill="#000000" font-family="sans-serif" font-size="13" lengthAdjust="spacingAndGlyphs" textLength="101" x="246.5" y="424.5264">GetDependency()</text><polygon fill="#A80036" points="250.5,455.3828,240.5,459.3828,250.5,463.3828,246.5,459.3828" style="stroke: #A80036; stroke-width: 1.0;"/><line style="stroke: #A80036; stroke-width: 1.0;" x1="244.5" x2="396.5" y1="459.3828" y2="459.3828"/><text fill="#000000" font-family="sans-serif" font-size="13" lengthAdjust="spacingAndGlyphs" textLength="109" x="256.5" y="454.8779">return Dependency</text><polygon fill="#A80036" points="590.5,485.7344,600.5,489.7344,590.5,493.7344,594.5,489.7344" style="stroke: #A80036; stroke-width: 1.0;"/><line style="stroke: #A80036; stroke-width: 1.0;" x1="239.5" x2="596.5" y1="489.7344" y2="489.7344"/><text fill="#000000" font-family="sans-serif" font-size="13" lengthAdjust="spacingAndGlyphs" textLength="75" x="246.5" y="485.2295">IsPublished()</text><polygon fill="#A80036" points="250.5,516.0859,240.5,520.0859,250.5,524.0859,246.5,520.0859" style="stroke: #A80036; stroke-width: 1.0;"/><line style="stroke: #A80036; stroke-width: 1.0;" x1="244.5" x2="601.5" y1="520.0859" y2="520.0859"/><text fill="#000000" font-family="sans-serif" font-size="13" lengthAdjust="spacingAndGlyphs" textLength="71" x="256.5" y="515.5811">return TRUE</text><polygon fill="#A80036" points="590.5,546.4375,600.5,550.4375,590.5,554.4375,594.5,550.4375" style="stroke: #A80036; stroke-width: 1.0;"/><line style="stroke: #A80036; stroke-width: 1.0;" x1="239.5" x2="596.5" y1="550.4375" y2="550.4375"/><text fill="#000000" font-family="sans-serif" font-size="13" lengthAdjust="spacingAndGlyphs" textLength="104" x="246.5" y="545.9326">GetPropertyBlob()</text><polygon fill="#A80036" points="486.5,576.7891,496.5,580.7891,486.5,584.7891,490.5,580.7891" style="stroke: #A80036; stroke-width: 1.0;"/><line style="stroke: #A80036; stroke-width: 1.0;" x1="239.5" x2="492.5" y1="580.7891" y2="580.7891"/><text fill="#000000" font-family="sans-serif" font-size="13" lengthAdjust="spacingAndGlyphs" textLength="131" x="246.5" y="576.2842">PostJob(ISJobHandler)</text><polygon fill="#A80036" points="250.5,607.1406,240.5,611.1406,250.5,615.1406,246.5,611.1406" style="stroke: #A80036; stroke-width: 1.0;"/><line style="stroke: #A80036; stroke-width: 1.0;" x1="244.5" x2="497.5" y1="611.1406" y2="611.1406"/><text fill="#000000" font-family="sans-serif" font-size="13" lengthAdjust="spacingAndGlyphs" textLength="88" x="256.5" y="606.6357">return Success</text><polygon fill="#A80036" points="57.5,637.4922,47.5,641.4922,57.5,645.4922,53.5,641.4922" style="stroke: #A80036; stroke-width: 1.0;"/><line style="stroke: #A80036; stroke-width: 1.0;" x1="51.5" x2="238.5" y1="641.4922" y2="641.4922"/><text fill="#000000" font-family="sans-serif" font-size="13" lengthAdjust="spacingAndGlyphs" textLength="88" x="63.5" y="636.9873">return Success</text><polygon fill="#A80036" points="250.5,695.8438,240.5,699.8438,250.5,703.8438,246.5,699.8438" style="stroke: #A80036; stroke-width: 1.0;"/><line style="stroke: #A80036; stroke-width: 1.0; stroke-dasharray: 2.0,2.0;" x1="244.5" x2="497.5" y1="699.8438" y2="699.8438"/><text fill="#000000" font-family="sans-serif" font-size="13" lengthAdjust="spacingAndGlyphs" textLength="84" x="256.5" y="695.3389">ISJobHandler()</text><polygon fill="#A80036" points="385.5,726.1953,395.5,730.1953,385.5,734.1953,389.5,730.1953" style="stroke: #A80036; stroke-width: 1.0;"/><line style="stroke: #A80036; stroke-width: 1.0;" x1="239.5" x2="391.5" y1="730.1953" y2="730.1953"/><text fill="#000000" font-family="sans-serif" font-size="13" lengthAdjust="spacingAndGlyphs" textLength="56" x="246.5" y="725.6904">Process()</text><polygon fill="#A80036" points="590.5,756.5469,600.5,760.5469,590.5,764.5469,594.5,760.5469" style="stroke: #A80036; stroke-width: 1.0;"/><line style="stroke: #A80036; stroke-width: 1.0;" x1="239.5" x2="596.5" y1="760.5469" y2="760.5469"/><text fill="#000000" font-family="sans-serif" font-size="13" lengthAdjust="spacingAndGlyphs" textLength="100" x="246.5" y="756.042">PublishProperty()</text><line style="stroke: #A80036; stroke-width: 1.0;" x1="239.5" x2="281.5" y1="791.25" y2="791.25"/><line style="stroke: #A80036; stroke-width: 1.0;" x1="281.5" x2="281.5" y1="791.25" y2="804.25"/><line style="stroke: #A80036; stroke-width: 1.0;" x1="240.5" x2="281.5" y1="804.25" y2="804.25"/><polygon fill="#A80036" points="250.5,800.25,240.5,804.25,250.5,808.25,246.5,804.25" style="stroke: #A80036; stroke-width: 1.0;"/><text fill="#000000" font-family="sans-serif" font-size="13" lengthAdjust="spacingAndGlyphs" textLength="144" x="246.5" y="786.3936">ProcessRequestIdDone()</text><!--
@startuml
title Image Stabilization Node Request Processing


participant "Topology" as Topology #00FF00
participant "ISNode" as ISNode
participant "IS Processor" as ISProcessor
control "Thread Pool" as ThreadPool #00FF00
participant "Property Pool" as PropertyPool #00FF00


...
Topology - -> ISNode : ExecuteProcessRequest()
ISNode -> ISProcessor : GetDependency()
ISNode <- ISProcessor : return Dependency
ISNode -> PropertyPool : IsPublished()
ISNode <- PropertyPool : return FALSE
Topology <- - ISNode : return Success\nwith dependency requirement


...
...
Topology - -> ISNode : ExecuteProcessRequest()
ISNode -> ISProcessor : GetDependency()
ISNode <- ISProcessor : return Dependency
ISNode -> PropertyPool : IsPublished()
ISNode <- PropertyPool : return TRUE
ISNode -> PropertyPool : GetPropertyBlob()
ISNode -> ThreadPool : PostJob(ISJobHandler)
ISNode <- ThreadPool : return Success
Topology <- ISNode : return Success


...
ThreadPool - -> ISNode: ISJobHandler()
ISNode -> ISProcessor: Process()
ISNode -> PropertyPool: PublishProperty()
ISNode -> ISNode: ProcessRequestIdDone()


@enduml

PlantUML version 1.2017.20(Mon Dec 11 08:57:05 PST 2017)
(GPL source distribution)
Java Runtime: Java(TM) SE Runtime Environment
JVM: Java HotSpot(TM) Client VM
Java Version: 1.8.0_161-b12
Operating System: Windows 10
OS Version: 10.0
Default Encoding: Cp1252
Language: en
Country: US
--></g></svg>