<?xml version="1.0" encoding="UTF-8" standalone="no"?>
<!DOCTYPE svg PUBLIC "-//W3C//DTD SVG 1.1//EN" "http://www.w3.org/Graphics/SVG/1.1/DTD/svg11.dtd">
<!-- Generated by Microsoft Visio, SVG Export ThreadManager_jobqueue.svg Page-1 -->
<svg xmlns="http://www.w3.org/2000/svg" xmlns:xlink="http://www.w3.org/1999/xlink" xmlns:ev="http://www.w3.org/2001/xml-events"
		xmlns:v="http://schemas.microsoft.com/visio/2003/SVGExtensions/" width="11in" height="8.5in" viewBox="0 0 792 612"
		xml:space="preserve" color-interpolation-filters="sRGB" class="st12">
	<v:documentProperties v:langID="1033" v:viewMarkup="false">
		<v:userDefs>
			<v:ud v:nameU="msvSubprocessMaster" v:prompt="" v:val="VT4(Rectangle)"/>
			<v:ud v:nameU="msvNoAutoConnect" v:val="VT0(1):26"/>
		</v:userDefs>
	</v:documentProperties>

	<style type="text/css">
	<![CDATA[
		.st1 {visibility:visible}
		.st2 {fill:none;filter:url(#filter_2);stroke:#5b9bd5;stroke-opacity:0.22}
		.st3 {fill:none;stroke:#000000;stroke-width:1}
		.st4 {fill:none;stroke:none;stroke-width:0.25}
		.st5 {fill:#000000;font-family:Calibri;font-size:1.99999em}
		.st6 {marker-end:url(#mrkr4-49);stroke:#000000;stroke-linecap:round;stroke-linejoin:round;stroke-width:1}
		.st7 {fill:#000000;fill-opacity:1;stroke:#000000;stroke-opacity:1;stroke-width:0.28409090909091}
		.st8 {fill:#ffffff;stroke:none;stroke-linecap:butt;stroke-width:7.2}
		.st9 {fill:#000000;font-family:Calibri;font-size:0.666664em}
		.st10 {fill:#000000;font-family:Calibri;font-size:1.16666em}
		.st11 {fill:#000000;font-family:Calibri;font-size:1.00001em}
		.st12 {fill:none;fill-rule:evenodd;font-size:12px;overflow:visible;stroke-linecap:square;stroke-miterlimit:3}
	]]>
	</style>

	<defs id="Markers">
		<g id="lend4">
			<path d="M 2 1 L 0 0 L 2 -1 L 2 1 " style="stroke:none"/>
		</g>
		<marker id="mrkr4-49" class="st7" v:arrowType="4" v:arrowSize="2" v:setback="7.04" refX="-7.04" orient="auto"
				markerUnits="strokeWidth" overflow="visible">
			<use xlink:href="#lend4" transform="scale(-3.52,-3.52) "/>
		</marker>
	</defs>
	<defs id="Filters">
		<filter id="filter_2">
			<feGaussianBlur stdDeviation="2"/>
		</filter>
	</defs>
	<g v:mID="0" v:index="1" v:groupContext="foregroundPage">
		<v:userDefs>
			<v:ud v:nameU="msvThemeOrder" v:val="VT0(0):26"/>
		</v:userDefs>
		<title>Page-1</title>
		<v:pageProperties v:drawingScale="1" v:pageScale="1" v:drawingUnits="0" v:shadowOffsetX="9" v:shadowOffsetY="-9"/>
		<v:layer v:name="Connector" v:index="0"/>
		<g id="shape1-1" v:mID="1" v:groupContext="shape" transform="translate(180,-504)">
			<title>Rectangle</title>
			<v:userDefs>
				<v:ud v:nameU="visVersion" v:val="VT0(15):26"/>
			</v:userDefs>
			<g id="shadow1-2" v:groupContext="shadow" v:shadowOffsetX="0.345598" v:shadowOffsetY="-1.97279" v:shadowType="1"
					transform="matrix(1,0,0,1,0.345598,1.97279)" class="st1">
				<rect x="0" y="576" width="237.6" height="36" class="st2"/>
			</g>
			<rect x="0" y="576" width="237.6" height="36" class="st3"/>
		</g>
		<g id="shape2-6" v:mID="2" v:groupContext="shape" transform="translate(198,-504)">
			<title>Rectangle.2</title>
			<v:userDefs>
				<v:ud v:nameU="visVersion" v:val="VT0(15):26"/>
			</v:userDefs>
			<g id="shadow2-7" v:groupContext="shadow" v:shadowOffsetX="0.345598" v:shadowOffsetY="-1.97279" v:shadowType="1"
					transform="matrix(1,0,0,1,0.345598,1.97279)" class="st1">
				<rect x="0" y="576" width="237.6" height="36" class="st2"/>
			</g>
			<rect x="0" y="576" width="237.6" height="36" class="st3"/>
		</g>
		<g id="shape3-11" v:mID="3" v:groupContext="shape" transform="translate(216,-504)">
			<title>Rectangle.3</title>
			<v:userDefs>
				<v:ud v:nameU="visVersion" v:val="VT0(15):26"/>
			</v:userDefs>
			<g id="shadow3-12" v:groupContext="shadow" v:shadowOffsetX="0.345598" v:shadowOffsetY="-1.97279" v:shadowType="1"
					transform="matrix(1,0,0,1,0.345598,1.97279)" class="st1">
				<rect x="0" y="576" width="237.6" height="36" class="st2"/>
			</g>
			<rect x="0" y="576" width="237.6" height="36" class="st3"/>
		</g>
		<g id="shape4-16" v:mID="4" v:groupContext="shape" transform="translate(234,-504)">
			<title>Rectangle.4</title>
			<v:userDefs>
				<v:ud v:nameU="visVersion" v:val="VT0(15):26"/>
			</v:userDefs>
			<g id="shadow4-17" v:groupContext="shadow" v:shadowOffsetX="0.345598" v:shadowOffsetY="-1.97279" v:shadowType="1"
					transform="matrix(1,0,0,1,0.345598,1.97279)" class="st1">
				<rect x="0" y="576" width="237.6" height="36" class="st2"/>
			</g>
			<rect x="0" y="576" width="237.6" height="36" class="st3"/>
		</g>
		<g id="shape5-21" v:mID="5" v:groupContext="shape" transform="translate(252,-504)">
			<title>Rectangle.5</title>
			<v:userDefs>
				<v:ud v:nameU="visVersion" v:val="VT0(15):26"/>
			</v:userDefs>
			<g id="shadow5-22" v:groupContext="shadow" v:shadowOffsetX="0.345598" v:shadowOffsetY="-1.97279" v:shadowType="1"
					transform="matrix(1,0,0,1,0.345598,1.97279)" class="st1">
				<rect x="0" y="576" width="237.6" height="36" class="st2"/>
			</g>
			<rect x="0" y="576" width="237.6" height="36" class="st3"/>
		</g>
		<g id="shape7-26" v:mID="7" v:groupContext="shape" transform="translate(270,-504)">
			<title>Rectangle.7</title>
			<v:userDefs>
				<v:ud v:nameU="visVersion" v:val="VT0(15):26"/>
			</v:userDefs>
			<g id="shadow7-27" v:groupContext="shadow" v:shadowOffsetX="0.345598" v:shadowOffsetY="-1.97279" v:shadowType="1"
					transform="matrix(1,0,0,1,0.345598,1.97279)" class="st1">
				<rect x="0" y="576" width="237.6" height="36" class="st2"/>
			</g>
			<rect x="0" y="576" width="237.6" height="36" class="st3"/>
		</g>
		<g id="shape8-31" v:mID="8" v:groupContext="shape" transform="translate(288,-504)">
			<title>Rectangle.8</title>
			<v:userDefs>
				<v:ud v:nameU="visVersion" v:val="VT0(15):26"/>
			</v:userDefs>
			<g id="shadow8-32" v:groupContext="shadow" v:shadowOffsetX="0.345598" v:shadowOffsetY="-1.97279" v:shadowType="1"
					transform="matrix(1,0,0,1,0.345598,1.97279)" class="st1">
				<rect x="0" y="576" width="237.6" height="36" class="st2"/>
			</g>
			<rect x="0" y="576" width="237.6" height="36" class="st3"/>
		</g>
		<g id="shape9-36" v:mID="9" v:groupContext="shape" transform="translate(306,-504)">
			<title>Rectangle.9</title>
			<v:userDefs>
				<v:ud v:nameU="visVersion" v:val="VT0(15):26"/>
			</v:userDefs>
			<g id="shadow9-37" v:groupContext="shadow" v:shadowOffsetX="0.345598" v:shadowOffsetY="-1.97279" v:shadowType="1"
					transform="matrix(1,0,0,1,0.345598,1.97279)" class="st1">
				<rect x="0" y="576" width="237.6" height="36" class="st2"/>
			</g>
			<rect x="0" y="576" width="237.6" height="36" class="st3"/>
		</g>
		<g id="shape11-41" v:mID="11" v:groupContext="shape" transform="translate(265.6,-512)">
			<title>Sheet.11</title>
			<desc>......</desc>
			<v:textBlock v:margins="rect(4,4,4,4)"/>
			<v:textRect cx="76" cy="602" width="152" height="20"/>
			<rect x="0" y="592" width="152" height="20" class="st4"/>
			<text x="57.82" y="609.2" class="st5" v:langID="2052"><v:paragraph v:horizAlign="1"/><v:tabList/>......</text>		</g>
		<g id="shape18-44" v:mID="18" v:groupContext="shape" v:layerMember="0" transform="translate(180,-576)">
			<title>Dynamic connector.18</title>
			<desc>m_head</desc>
			<v:textBlock v:margins="rect(4,4,4,4)"/>
			<v:textRect cx="9" cy="627.75" width="40" height="17.6036"/>
			<path d="M9 612 L9 636.46" class="st6"/>
			<rect v:rectContext="textBkgnd" x="-4.29669" y="622.95" width="26.5935" height="9.59985" class="st8"/>
			<text x="-4.3" y="630.15" class="st9" v:langID="2052"><v:paragraph v:horizAlign="1"/><v:tabList/>m_head</text>		</g>
		<g id="shape24-52" v:mID="24" v:groupContext="shape" v:layerMember="0" transform="translate(180,-459)">
			<title>Dynamic connector.24</title>
			<desc>m_tail</desc>
			<v:textBlock v:margins="rect(4,4,4,4)"/>
			<v:textRect cx="9" cy="591.75" width="40" height="17.6036"/>
			<path d="M9 612 L9 578.54" class="st6"/>
			<rect v:rectContext="textBkgnd" x="-1.27902" y="586.95" width="20.5582" height="9.59985" class="st8"/>
			<text x="-1.28" y="594.15" class="st9" v:langID="2052"><v:paragraph v:horizAlign="1"/><v:tabList/>m_tail</text>		</g>
		<g id="shape25-59" v:mID="25" v:groupContext="shape" transform="translate(180,-364.5)">
			<title>Rectangle.25</title>
			<v:userDefs>
				<v:ud v:nameU="visVersion" v:val="VT0(15):26"/>
			</v:userDefs>
			<g id="shadow25-60" v:groupContext="shadow" v:shadowOffsetX="0.345598" v:shadowOffsetY="-1.97279" v:shadowType="1"
					transform="matrix(1,0,0,1,0.345598,1.97279)" class="st1">
				<rect x="0" y="576" width="237.6" height="36" class="st2"/>
			</g>
			<rect x="0" y="576" width="237.6" height="36" class="st3"/>
		</g>
		<g id="shape26-64" v:mID="26" v:groupContext="shape" transform="translate(198,-364.5)">
			<title>Rectangle.26</title>
			<v:userDefs>
				<v:ud v:nameU="visVersion" v:val="VT0(15):26"/>
			</v:userDefs>
			<g id="shadow26-65" v:groupContext="shadow" v:shadowOffsetX="0.345598" v:shadowOffsetY="-1.97279" v:shadowType="1"
					transform="matrix(1,0,0,1,0.345598,1.97279)" class="st1">
				<rect x="0" y="576" width="237.6" height="36" class="st2"/>
			</g>
			<rect x="0" y="576" width="237.6" height="36" class="st3"/>
		</g>
		<g id="shape27-69" v:mID="27" v:groupContext="shape" transform="translate(216,-364.5)">
			<title>Rectangle.27</title>
			<v:userDefs>
				<v:ud v:nameU="visVersion" v:val="VT0(15):26"/>
			</v:userDefs>
			<g id="shadow27-70" v:groupContext="shadow" v:shadowOffsetX="0.345598" v:shadowOffsetY="-1.97279" v:shadowType="1"
					transform="matrix(1,0,0,1,0.345598,1.97279)" class="st1">
				<rect x="0" y="576" width="237.6" height="36" class="st2"/>
			</g>
			<rect x="0" y="576" width="237.6" height="36" class="st3"/>
		</g>
		<g id="shape28-74" v:mID="28" v:groupContext="shape" transform="translate(234,-364.5)">
			<title>Rectangle.28</title>
			<v:userDefs>
				<v:ud v:nameU="visVersion" v:val="VT0(15):26"/>
			</v:userDefs>
			<g id="shadow28-75" v:groupContext="shadow" v:shadowOffsetX="0.345598" v:shadowOffsetY="-1.97279" v:shadowType="1"
					transform="matrix(1,0,0,1,0.345598,1.97279)" class="st1">
				<rect x="0" y="576" width="237.6" height="36" class="st2"/>
			</g>
			<rect x="0" y="576" width="237.6" height="36" class="st3"/>
		</g>
		<g id="shape29-79" v:mID="29" v:groupContext="shape" transform="translate(252,-364.5)">
			<title>Rectangle.29</title>
			<v:userDefs>
				<v:ud v:nameU="visVersion" v:val="VT0(15):26"/>
			</v:userDefs>
			<g id="shadow29-80" v:groupContext="shadow" v:shadowOffsetX="0.345598" v:shadowOffsetY="-1.97279" v:shadowType="1"
					transform="matrix(1,0,0,1,0.345598,1.97279)" class="st1">
				<rect x="0" y="576" width="237.6" height="36" class="st2"/>
			</g>
			<rect x="0" y="576" width="237.6" height="36" class="st3"/>
		</g>
		<g id="shape30-84" v:mID="30" v:groupContext="shape" transform="translate(270,-364.5)">
			<title>Rectangle.30</title>
			<v:userDefs>
				<v:ud v:nameU="visVersion" v:val="VT0(15):26"/>
			</v:userDefs>
			<g id="shadow30-85" v:groupContext="shadow" v:shadowOffsetX="0.345598" v:shadowOffsetY="-1.97279" v:shadowType="1"
					transform="matrix(1,0,0,1,0.345598,1.97279)" class="st1">
				<rect x="0" y="576" width="237.6" height="36" class="st2"/>
			</g>
			<rect x="0" y="576" width="237.6" height="36" class="st3"/>
		</g>
		<g id="shape31-89" v:mID="31" v:groupContext="shape" transform="translate(288,-364.5)">
			<title>Rectangle.31</title>
			<v:userDefs>
				<v:ud v:nameU="visVersion" v:val="VT0(15):26"/>
			</v:userDefs>
			<g id="shadow31-90" v:groupContext="shadow" v:shadowOffsetX="0.345598" v:shadowOffsetY="-1.97279" v:shadowType="1"
					transform="matrix(1,0,0,1,0.345598,1.97279)" class="st1">
				<rect x="0" y="576" width="237.6" height="36" class="st2"/>
			</g>
			<rect x="0" y="576" width="237.6" height="36" class="st3"/>
		</g>
		<g id="shape32-94" v:mID="32" v:groupContext="shape" transform="translate(306,-364.5)">
			<title>Rectangle.32</title>
			<v:userDefs>
				<v:ud v:nameU="visVersion" v:val="VT0(15):26"/>
			</v:userDefs>
			<g id="shadow32-95" v:groupContext="shadow" v:shadowOffsetX="0.345598" v:shadowOffsetY="-1.97279" v:shadowType="1"
					transform="matrix(1,0,0,1,0.345598,1.97279)" class="st1">
				<rect x="0" y="576" width="237.6" height="36" class="st2"/>
			</g>
			<rect x="0" y="576" width="237.6" height="36" class="st3"/>
		</g>
		<g id="shape33-99" v:mID="33" v:groupContext="shape" transform="translate(265.6,-372.5)">
			<title>Sheet.33</title>
			<desc>p_mJobs</desc>
			<v:textBlock v:margins="rect(4,4,4,4)"/>
			<v:textRect cx="76" cy="602" width="152" height="20"/>
			<rect x="0" y="592" width="152" height="20" class="st4"/>
			<text x="50.91" y="606.2" class="st10" v:langID="2052"><v:paragraph v:horizAlign="1"/><v:tabList/>p_mJobs</text>		</g>
		<g id="shape34-102" v:mID="34" v:groupContext="shape" v:layerMember="0" transform="translate(180,-436.5)">
			<title>Dynamic connector.34</title>
			<desc>m_head</desc>
			<v:textBlock v:margins="rect(4,4,4,4)"/>
			<v:textRect cx="9" cy="627.75" width="40" height="17.6036"/>
			<path d="M9 612 L9 636.46" class="st6"/>
			<rect v:rectContext="textBkgnd" x="-4.29669" y="622.95" width="26.5935" height="9.59985" class="st8"/>
			<text x="-4.3" y="630.15" class="st9" v:langID="2052"><v:paragraph v:horizAlign="1"/><v:tabList/>m_head</text>		</g>
		<g id="shape35-109" v:mID="35" v:groupContext="shape" v:layerMember="0" transform="translate(198,-319.5)">
			<title>Dynamic connector.35</title>
			<desc>m_tail</desc>
			<v:textBlock v:margins="rect(4,4,4,4)"/>
			<v:textRect cx="9" cy="591.75" width="40" height="17.6036"/>
			<path d="M9 612 L9 578.54" class="st6"/>
			<rect v:rectContext="textBkgnd" x="-1.27902" y="586.95" width="20.5582" height="9.59985" class="st8"/>
			<text x="-1.28" y="594.15" class="st9" v:langID="2052"><v:paragraph v:horizAlign="1"/><v:tabList/>m_tail</text>		</g>
		<g id="shape36-116" v:mID="36" v:groupContext="shape" transform="translate(45,-372.5)">
			<title>Sheet.36</title>
			<desc>JobQueue::Enqueue</desc>
			<v:textBlock v:margins="rect(4,4,4,4)"/>
			<v:textRect cx="76" cy="602" width="152" height="20"/>
			<rect x="0" y="592" width="152" height="20" class="st4"/>
			<text x="26.74" y="605.6" class="st11" v:langID="2052"><v:paragraph v:horizAlign="1"/><v:tabList/>JobQueue::Enqueue</text>		</g>
		<g id="shape42-119" v:mID="42" v:groupContext="shape" transform="translate(45,-511)">
			<title>Sheet.42</title>
			<desc>Init</desc>
			<v:textBlock v:margins="rect(4,4,4,4)"/>
			<v:textRect cx="76" cy="602" width="152" height="20"/>
			<rect x="0" y="592" width="152" height="20" class="st4"/>
			<text x="67.95" y="605.6" class="st11" v:langID="2052"><v:paragraph v:horizAlign="1"/><v:tabList/>Init</text>		</g>
	</g>
</svg>
