<?xml version="1.0" encoding="UTF-8" standalone="no"?><svg xmlns="http://www.w3.org/2000/svg" xmlns:xlink="http://www.w3.org/1999/xlink" contentScriptType="application/ecmascript" contentStyleType="text/css" height="994px" preserveAspectRatio="none" style="width:796px;height:994px;" version="1.1" viewBox="0 0 796 994" width="796px" zoomAndPan="magnify"><defs><filter height="300%" id="fqt0a12kcrj33" width="300%" x="-1" y="-1"><feGaussianBlur result="blurOut" stdDeviation="2.0"/><feColorMatrix in="blurOut" result="blurOut2" type="matrix" values="0 0 0 0 0 0 0 0 0 0 0 0 0 0 0 0 0 0 .4 0"/><feOffset dx="4.0" dy="4.0" in="blurOut2" result="blurOut3"/><feBlend in="SourceGraphic" in2="blurOut3" mode="normal"/></filter></defs><g><!--MD5=[7b212da9ccc78bd5cabb05a2f2ed4e2e]
class INCSIntfBase--><rect fill="#FEFECE" filter="url(#fqt0a12kcrj33)" height="338.5078" id="INCSIntfBase" style="stroke: #A80036; stroke-width: 1.5;" width="190" x="136.5" y="48"/><ellipse cx="187.75" cy="64" fill="#ADD1B2" rx="11" ry="11" style="stroke: #A80036; stroke-width: 1.0;"/><path d="M190.7188,69.6406 Q190.1406,69.9375 189.5,70.0781 Q188.8594,70.2344 188.1563,70.2344 Q185.6563,70.2344 184.3281,68.5938 Q183.0156,66.9375 183.0156,63.8125 Q183.0156,60.6875 184.3281,59.0313 Q185.6563,57.375 188.1563,57.375 Q188.8594,57.375 189.5,57.5313 Q190.1563,57.6875 190.7188,57.9844 L190.7188,60.7031 Q190.0938,60.125 189.5,59.8594 Q188.9063,59.5781 188.2813,59.5781 Q186.9375,59.5781 186.25,60.6563 Q185.5625,61.7188 185.5625,63.8125 Q185.5625,65.9063 186.25,66.9844 Q186.9375,68.0469 188.2813,68.0469 Q188.9063,68.0469 189.5,67.7813 Q190.0938,67.5 190.7188,66.9219 L190.7188,69.6406 Z "/><text fill="#000000" font-family="sans-serif" font-size="12" lengthAdjust="spacingAndGlyphs" textLength="79" x="208.25" y="68.1543">INCSIntfBase</text><line style="stroke: #A80036; stroke-width: 1.5;" x1="137.5" x2="325.5" y1="80" y2="80"/><ellipse cx="147.5" cy="107.8047" fill="#84BE84" rx="3" ry="3" style="stroke: #038048; stroke-width: 1.0;"/><text fill="#000000" font-family="sans-serif" font-size="11" lengthAdjust="spacingAndGlyphs" textLength="82" x="156.5" y="111.0151">INCSIntfBase()</text><ellipse cx="147.5" cy="120.6094" fill="#84BE84" rx="3" ry="3" style="stroke: #038048; stroke-width: 1.0;"/><text fill="#000000" font-family="sans-serif" font-size="11" lengthAdjust="spacingAndGlyphs" textLength="130" x="156.5" y="123.8198">virtual ~INCSIntfBase()</text><ellipse cx="147.5" cy="133.4141" fill="#84BE84" rx="3" ry="3" style="stroke: #038048; stroke-width: 1.0;"/><text fill="#000000" font-family="sans-serif" font-size="11" lengthAdjust="spacingAndGlyphs" textLength="115" x="156.5" y="136.6245">virtual ListSensors()</text><ellipse cx="147.5" cy="146.2188" fill="#84BE84" rx="3" ry="3" style="stroke: #038048; stroke-width: 1.0;"/><text fill="#000000" font-family="sans-serif" font-size="11" lengthAdjust="spacingAndGlyphs" textLength="144" x="156.5" y="149.4292">virtual QueryCapabilites()</text><ellipse cx="147.5" cy="159.0234" fill="#84BE84" rx="3" ry="3" style="stroke: #038048; stroke-width: 1.0;"/><text fill="#000000" font-family="sans-serif" font-size="11" lengthAdjust="spacingAndGlyphs" textLength="120" x="156.5" y="162.2339">virtual GetDataSync()</text><ellipse cx="147.5" cy="171.8281" fill="#84BE84" rx="3" ry="3" style="stroke: #038048; stroke-width: 1.0;"/><text fill="#000000" font-family="sans-serif" font-size="11" lengthAdjust="spacingAndGlyphs" textLength="126" x="156.5" y="175.0386">virtual GetDataAsync()</text><ellipse cx="147.5" cy="184.6328" fill="#84BE84" rx="3" ry="3" style="stroke: #038048; stroke-width: 1.0;"/><text fill="#000000" font-family="sans-serif" font-size="11" lengthAdjust="spacingAndGlyphs" textLength="149" x="156.5" y="187.8433">virtual GetLastNSamples()</text><ellipse cx="147.5" cy="197.4375" fill="#84BE84" rx="3" ry="3" style="stroke: #038048; stroke-width: 1.0;"/><text fill="#000000" font-family="sans-serif" font-size="11" lengthAdjust="spacingAndGlyphs" textLength="84" x="156.5" y="200.6479">virtual FillCap()</text><ellipse cx="147.5" cy="210.2422" fill="#84BE84" rx="3" ry="3" style="stroke: #038048; stroke-width: 1.0;"/><text fill="#000000" font-family="sans-serif" font-size="11" lengthAdjust="spacingAndGlyphs" textLength="100" x="156.5" y="213.4526"> virtual GetCaps()</text><ellipse cx="147.5" cy="223.0469" fill="#84BE84" rx="3" ry="3" style="stroke: #038048; stroke-width: 1.0;"/><text fill="#000000" font-family="sans-serif" font-size="11" lengthAdjust="spacingAndGlyphs" textLength="103" x="156.5" y="226.2573">virtual GetConfig()</text><ellipse cx="147.5" cy="235.8516" fill="#84BE84" rx="3" ry="3" style="stroke: #038048; stroke-width: 1.0;"/><text fill="#000000" font-family="sans-serif" font-size="11" lengthAdjust="spacingAndGlyphs" textLength="116" x="156.5" y="239.062">virtual ReConfigure()</text><ellipse cx="147.5" cy="248.6563" fill="#84BE84" rx="3" ry="3" style="stroke: #038048; stroke-width: 1.0;"/><text fill="#000000" font-family="sans-serif" font-size="11" lengthAdjust="spacingAndGlyphs" textLength="141" x="156.5" y="251.8667">virtual RegisterProvider()</text><ellipse cx="147.5" cy="261.4609" fill="#84BE84" rx="3" ry="3" style="stroke: #038048; stroke-width: 1.0;"/><text fill="#000000" font-family="sans-serif" font-size="11" lengthAdjust="spacingAndGlyphs" textLength="154" x="156.5" y="264.6714">virtual UnregisterProvider()</text><ellipse cx="147.5" cy="274.2656" fill="#84BE84" rx="3" ry="3" style="stroke: #038048; stroke-width: 1.0;"/><text fill="#000000" font-family="sans-serif" font-size="11" lengthAdjust="spacingAndGlyphs" textLength="77" x="156.5" y="277.4761">virtual Flush()</text><ellipse cx="147.5" cy="287.0703" fill="#84BE84" rx="3" ry="3" style="stroke: #038048; stroke-width: 1.0;"/><text fill="#000000" font-family="sans-serif" font-size="11" lengthAdjust="spacingAndGlyphs" textLength="136" x="156.5" y="290.2808">virtual RegisterService()</text><ellipse cx="147.5" cy="299.875" fill="#84BE84" rx="3" ry="3" style="stroke: #038048; stroke-width: 1.0;"/><text fill="#000000" font-family="sans-serif" font-size="11" lengthAdjust="spacingAndGlyphs" textLength="149" x="156.5" y="303.0854">virtual UnregisterService()</text><ellipse cx="147.5" cy="312.6797" fill="#84BE84" rx="3" ry="3" style="stroke: #038048; stroke-width: 1.0;"/><text fill="#000000" font-family="sans-serif" font-size="11" lengthAdjust="spacingAndGlyphs" textLength="145" x="156.5" y="315.8901">virtual CreateDeferConn()</text><ellipse cx="147.5" cy="325.4844" fill="#84BE84" rx="3" ry="3" style="stroke: #038048; stroke-width: 1.0;"/><text fill="#000000" font-family="sans-serif" font-size="11" lengthAdjust="spacingAndGlyphs" textLength="136" x="156.5" y="328.6948">virtual StopConnection()</text><ellipse cx="147.5" cy="338.2891" fill="#84BE84" rx="3" ry="3" style="stroke: #038048; stroke-width: 1.0;"/><text fill="#000000" font-family="sans-serif" font-size="11" lengthAdjust="spacingAndGlyphs" textLength="148" x="156.5" y="341.4995">virtual EnqueueAccessor()</text><ellipse cx="147.5" cy="351.0938" fill="#84BE84" rx="3" ry="3" style="stroke: #038048; stroke-width: 1.0;"/><text fill="#000000" font-family="sans-serif" font-size="11" lengthAdjust="spacingAndGlyphs" textLength="154" x="156.5" y="354.3042">virtual ResetTimeoutConn()</text><ellipse cx="147.5" cy="363.8984" fill="#84BE84" rx="3" ry="3" style="stroke: #038048; stroke-width: 1.0;"/><text fill="#000000" font-family="sans-serif" font-size="11" lengthAdjust="spacingAndGlyphs" textLength="142" x="156.5" y="367.1089">virtual ResetConnection()</text><ellipse cx="147.5" cy="376.7031" fill="#84BE84" rx="3" ry="3" style="stroke: #038048; stroke-width: 1.0;"/><text fill="#000000" font-family="sans-serif" font-size="11" lengthAdjust="spacingAndGlyphs" textLength="164" x="156.5" y="379.9136">virtual TriggerDataAvailable()</text><line style="stroke: #A80036; stroke-width: 1.5;" x1="137.5" x2="215" y1="94.4023" y2="94.4023"/><text fill="#000000" font-family="sans-serif" font-size="11" lengthAdjust="spacingAndGlyphs" textLength="33" x="215" y="97.7104">public</text><line style="stroke: #A80036; stroke-width: 1.5;" x1="248" x2="325.5" y1="94.4023" y2="94.4023"/><!--MD5=[c25100cccf5666f0a6f1433f1583ccd6]
class NCSIntfSS--><rect fill="#FEFECE" filter="url(#fqt0a12kcrj33)" height="496.1641" id="NCSIntfSS" style="stroke: #A80036; stroke-width: 1.5;" width="227" x="6" y="487"/><ellipse cx="84.75" cy="503" fill="#ADD1B2" rx="11" ry="11" style="stroke: #A80036; stroke-width: 1.0;"/><path d="M87.7188,508.6406 Q87.1406,508.9375 86.5,509.0781 Q85.8594,509.2344 85.1563,509.2344 Q82.6563,509.2344 81.3281,507.5938 Q80.0156,505.9375 80.0156,502.8125 Q80.0156,499.6875 81.3281,498.0313 Q82.6563,496.375 85.1563,496.375 Q85.8594,496.375 86.5,496.5313 Q87.1563,496.6875 87.7188,496.9844 L87.7188,499.7031 Q87.0938,499.125 86.5,498.8594 Q85.9063,498.5781 85.2813,498.5781 Q83.9375,498.5781 83.25,499.6563 Q82.5625,500.7188 82.5625,502.8125 Q82.5625,504.9063 83.25,505.9844 Q83.9375,507.0469 85.2813,507.0469 Q85.9063,507.0469 86.5,506.7813 Q87.0938,506.5 87.7188,505.9219 L87.7188,508.6406 Z "/><text fill="#000000" font-family="sans-serif" font-size="12" lengthAdjust="spacingAndGlyphs" textLength="61" x="105.25" y="507.1543">NCSIntfSS</text><line style="stroke: #A80036; stroke-width: 1.5;" x1="7" x2="232" y1="519" y2="519"/><ellipse cx="17" cy="546.8047" fill="#84BE84" rx="3" ry="3" style="stroke: #038048; stroke-width: 1.0;"/><text fill="#000000" font-family="sans-serif" font-size="11" lengthAdjust="spacingAndGlyphs" textLength="76" x="26" y="550.0151">ListSensors()</text><ellipse cx="17" cy="559.6094" fill="#84BE84" rx="3" ry="3" style="stroke: #038048; stroke-width: 1.0;"/><text fill="#000000" font-family="sans-serif" font-size="11" lengthAdjust="spacingAndGlyphs" textLength="76" x="26" y="562.8198">GetInstance()</text><ellipse cx="17" cy="572.4141" fill="#84BE84" rx="3" ry="3" style="stroke: #038048; stroke-width: 1.0;"/><text fill="#000000" font-family="sans-serif" font-size="11" lengthAdjust="spacingAndGlyphs" textLength="114" x="26" y="575.6245">virtual ~NCSIntfSS()</text><ellipse cx="17" cy="585.2188" fill="#84BE84" rx="3" ry="3" style="stroke: #038048; stroke-width: 1.0;"/><text fill="#000000" font-family="sans-serif" font-size="11" lengthAdjust="spacingAndGlyphs" textLength="105" x="26" y="588.4292">QueryCapabilites()</text><ellipse cx="17" cy="598.0234" fill="#84BE84" rx="3" ry="3" style="stroke: #038048; stroke-width: 1.0;"/><text fill="#000000" font-family="sans-serif" font-size="11" lengthAdjust="spacingAndGlyphs" textLength="81" x="26" y="601.2339">GetDataSync()</text><ellipse cx="17" cy="610.8281" fill="#84BE84" rx="3" ry="3" style="stroke: #038048; stroke-width: 1.0;"/><text fill="#000000" font-family="sans-serif" font-size="11" lengthAdjust="spacingAndGlyphs" textLength="110" x="26" y="614.0386">GetLastNSamples()</text><ellipse cx="17" cy="623.6328" fill="#84BE84" rx="3" ry="3" style="stroke: #038048; stroke-width: 1.0;"/><text fill="#000000" font-family="sans-serif" font-size="11" lengthAdjust="spacingAndGlyphs" textLength="102" x="26" y="626.8433">RegisterProvider()</text><ellipse cx="17" cy="636.4375" fill="#84BE84" rx="3" ry="3" style="stroke: #038048; stroke-width: 1.0;"/><text fill="#000000" font-family="sans-serif" font-size="11" lengthAdjust="spacingAndGlyphs" textLength="115" x="26" y="639.6479">UnregisterProvider()</text><ellipse cx="17" cy="649.2422" fill="#84BE84" rx="3" ry="3" style="stroke: #038048; stroke-width: 1.0;"/><text fill="#000000" font-family="sans-serif" font-size="11" lengthAdjust="spacingAndGlyphs" textLength="38" x="26" y="652.4526">Flush()</text><ellipse cx="17" cy="662.0469" fill="#84BE84" rx="3" ry="3" style="stroke: #038048; stroke-width: 1.0;"/><text fill="#000000" font-family="sans-serif" font-size="11" lengthAdjust="spacingAndGlyphs" textLength="97" x="26" y="665.2573">RegisterService()</text><ellipse cx="17" cy="674.8516" fill="#84BE84" rx="3" ry="3" style="stroke: #038048; stroke-width: 1.0;"/><text fill="#000000" font-family="sans-serif" font-size="11" lengthAdjust="spacingAndGlyphs" textLength="110" x="26" y="678.062">UnregisterService()</text><ellipse cx="17" cy="687.6563" fill="#84BE84" rx="3" ry="3" style="stroke: #038048; stroke-width: 1.0;"/><text fill="#000000" font-family="sans-serif" font-size="11" lengthAdjust="spacingAndGlyphs" textLength="106" x="26" y="690.8667">CreateDeferConn()</text><ellipse cx="17" cy="700.4609" fill="#84BE84" rx="3" ry="3" style="stroke: #038048; stroke-width: 1.0;"/><text fill="#000000" font-family="sans-serif" font-size="11" lengthAdjust="spacingAndGlyphs" textLength="97" x="26" y="703.6714">StopConnection()</text><ellipse cx="17" cy="713.2656" fill="#84BE84" rx="3" ry="3" style="stroke: #038048; stroke-width: 1.0;"/><text fill="#000000" font-family="sans-serif" font-size="11" lengthAdjust="spacingAndGlyphs" textLength="45" x="26" y="716.4761">FillCap()</text><ellipse cx="17" cy="726.0703" fill="#84BE84" rx="3" ry="3" style="stroke: #038048; stroke-width: 1.0;"/><text fill="#000000" font-family="sans-serif" font-size="11" lengthAdjust="spacingAndGlyphs" textLength="57" x="26" y="729.2808">GetCaps()</text><ellipse cx="17" cy="738.875" fill="#84BE84" rx="3" ry="3" style="stroke: #038048; stroke-width: 1.0;"/><text fill="#000000" font-family="sans-serif" font-size="11" lengthAdjust="spacingAndGlyphs" textLength="64" x="26" y="742.0854">GetConfig()</text><ellipse cx="17" cy="751.6797" fill="#84BE84" rx="3" ry="3" style="stroke: #038048; stroke-width: 1.0;"/><text fill="#000000" font-family="sans-serif" font-size="11" lengthAdjust="spacingAndGlyphs" textLength="77" x="26" y="754.8901">ReConfigure()</text><ellipse cx="17" cy="764.4844" fill="#84BE84" rx="3" ry="3" style="stroke: #038048; stroke-width: 1.0;"/><text fill="#000000" font-family="sans-serif" font-size="11" lengthAdjust="spacingAndGlyphs" textLength="109" x="26" y="767.6948">EnqueueAccessor()</text><ellipse cx="17" cy="777.2891" fill="#84BE84" rx="3" ry="3" style="stroke: #038048; stroke-width: 1.0;"/><text fill="#000000" font-family="sans-serif" font-size="11" lengthAdjust="spacingAndGlyphs" textLength="87" x="26" y="780.4995">GetDataAsync()</text><ellipse cx="17" cy="790.0938" fill="#84BE84" rx="3" ry="3" style="stroke: #038048; stroke-width: 1.0;"/><text fill="#000000" font-family="sans-serif" font-size="11" lengthAdjust="spacingAndGlyphs" textLength="115" x="26" y="793.3042">ResetTimeoutConn()</text><ellipse cx="17" cy="802.8984" fill="#84BE84" rx="3" ry="3" style="stroke: #038048; stroke-width: 1.0;"/><text fill="#000000" font-family="sans-serif" font-size="11" lengthAdjust="spacingAndGlyphs" textLength="103" x="26" y="806.1089">ResetConnection()</text><ellipse cx="17" cy="815.7031" fill="#84BE84" rx="3" ry="3" style="stroke: #038048; stroke-width: 1.0;"/><text fill="#000000" font-family="sans-serif" font-size="11" lengthAdjust="spacingAndGlyphs" textLength="125" x="26" y="818.9136">TriggerDataAvailable()</text><line style="stroke: #A80036; stroke-width: 1.5;" x1="7" x2="103" y1="533.4023" y2="533.4023"/><text fill="#000000" font-family="sans-serif" font-size="11" lengthAdjust="spacingAndGlyphs" textLength="33" x="103" y="536.7104">public</text><line style="stroke: #A80036; stroke-width: 1.5;" x1="136" x2="232" y1="533.4023" y2="533.4023"/><rect fill="#F24D5C" height="6" style="stroke: #C82930; stroke-width: 1.0;" width="6" x="14" y="842.3125"/><text fill="#000000" font-family="sans-serif" font-size="11" lengthAdjust="spacingAndGlyphs" textLength="53" x="26" y="848.5229">Initialize()</text><rect fill="#F24D5C" height="6" style="stroke: #C82930; stroke-width: 1.0;" width="6" x="14" y="855.1172"/><text fill="#000000" font-family="sans-serif" font-size="11" lengthAdjust="spacingAndGlyphs" textLength="116" x="26" y="861.3276">GetAccessorObject()</text><rect fill="#F24D5C" height="6" style="stroke: #C82930; stroke-width: 1.0;" width="6" x="14" y="867.9219"/><text fill="#000000" font-family="sans-serif" font-size="11" lengthAdjust="spacingAndGlyphs" textLength="114" x="26" y="874.1323">PutAccessorObject()</text><rect fill="#F24D5C" height="6" style="stroke: #C82930; stroke-width: 1.0;" width="6" x="14" y="880.7266"/><text fill="#000000" font-family="sans-serif" font-size="11" lengthAdjust="spacingAndGlyphs" textLength="66" x="26" y="886.937">NCSIntfSS()</text><rect fill="#F24D5C" height="6" style="stroke: #C82930; stroke-width: 1.0;" width="6" x="14" y="893.5313"/><text fill="#000000" font-family="sans-serif" font-size="11" lengthAdjust="spacingAndGlyphs" textLength="82" x="26" y="899.7417">ProbeSensor()</text><rect fill="#F24D5C" height="6" style="stroke: #C82930; stroke-width: 1.0;" width="6" x="14" y="906.3359"/><text fill="#000000" font-family="sans-serif" font-size="11" lengthAdjust="spacingAndGlyphs" textLength="169" x="26" y="912.5464">FreeNCSSensorDataMemory()</text><rect fill="#F24D5C" height="6" style="stroke: #C82930; stroke-width: 1.0;" width="6" x="14" y="919.1406"/><text fill="#000000" font-family="sans-serif" font-size="11" lengthAdjust="spacingAndGlyphs" textLength="201" x="26" y="925.3511">StartSpectralSensorPollingThread()</text><rect fill="#F24D5C" height="6" style="stroke: #C82930; stroke-width: 1.0;" width="6" x="14" y="931.9453"/><text fill="#000000" font-family="sans-serif" font-size="11" lengthAdjust="spacingAndGlyphs" textLength="199" x="26" y="938.1558">StopSpectralSensorPollingThread()</text><rect fill="#F24D5C" height="6" style="stroke: #C82930; stroke-width: 1.0;" width="6" x="14" y="944.75"/><text fill="#000000" font-family="sans-serif" font-size="11" lengthAdjust="spacingAndGlyphs" textLength="151" x="26" y="950.9604">ConfigureSpectralSensor()</text><rect fill="#F24D5C" height="6" style="stroke: #C82930; stroke-width: 1.0;" width="6" x="14" y="957.5547"/><text fill="#000000" font-family="sans-serif" font-size="11" lengthAdjust="spacingAndGlyphs" textLength="69" x="26" y="963.7651">PollSensor()</text><rect fill="#F24D5C" height="6" style="stroke: #C82930; stroke-width: 1.0;" width="6" x="14" y="970.3594"/><text fill="#000000" font-family="sans-serif" font-size="11" lengthAdjust="spacingAndGlyphs" textLength="137" x="26" y="976.5698">FillSpectralSensorData()</text><line style="stroke: #A80036; stroke-width: 1.5;" x1="7" x2="100" y1="831.9102" y2="831.9102"/><text fill="#000000" font-family="sans-serif" font-size="11" lengthAdjust="spacingAndGlyphs" textLength="39" x="100" y="835.2183">private</text><line style="stroke: #A80036; stroke-width: 1.5;" x1="139" x2="232" y1="831.9102" y2="831.9102"/><!--MD5=[c807523cfb8dc773e556db3a15036826]
class OLD_TOFSensorIntf--><rect fill="#FEFECE" filter="url(#fqt0a12kcrj33)" height="419.3359" id="OLD_TOFSensorIntf" style="stroke: #A80036; stroke-width: 1.5;" width="424" x="361.5" y="8"/><ellipse cx="510.75" cy="24" fill="#ADD1B2" rx="11" ry="11" style="stroke: #A80036; stroke-width: 1.0;"/><path d="M513.7188,29.6406 Q513.1406,29.9375 512.5,30.0781 Q511.8594,30.2344 511.1563,30.2344 Q508.6563,30.2344 507.3281,28.5938 Q506.0156,26.9375 506.0156,23.8125 Q506.0156,20.6875 507.3281,19.0313 Q508.6563,17.375 511.1563,17.375 Q511.8594,17.375 512.5,17.5313 Q513.1563,17.6875 513.7188,17.9844 L513.7188,20.7031 Q513.0938,20.125 512.5,19.8594 Q511.9063,19.5781 511.2813,19.5781 Q509.9375,19.5781 509.25,20.6563 Q508.5625,21.7188 508.5625,23.8125 Q508.5625,25.9063 509.25,26.9844 Q509.9375,28.0469 511.2813,28.0469 Q511.9063,28.0469 512.5,27.7813 Q513.0938,27.5 513.7188,26.9219 L513.7188,29.6406 Z "/><text fill="#000000" font-family="sans-serif" font-size="12" lengthAdjust="spacingAndGlyphs" textLength="117" x="531.25" y="28.1543">OLD_TOFSensorIntf</text><line style="stroke: #A80036; stroke-width: 1.5;" x1="362.5" x2="784.5" y1="40" y2="40"/><ellipse cx="372.5" cy="67.8047" fill="#84BE84" rx="3" ry="3" style="stroke: #038048; stroke-width: 1.0;"/><text fill="#000000" font-family="sans-serif" font-size="11" lengthAdjust="spacingAndGlyphs" textLength="76" x="381.5" y="71.0151">GetInstance()</text><ellipse cx="372.5" cy="80.6094" fill="#84BE84" rx="3" ry="3" style="stroke: #038048; stroke-width: 1.0;"/><text fill="#000000" font-family="sans-serif" font-size="11" lengthAdjust="spacingAndGlyphs" textLength="130" x="381.5" y="83.8198">GetTOFSensorHandle()</text><ellipse cx="372.5" cy="93.4141" fill="#84BE84" rx="3" ry="3" style="stroke: #038048; stroke-width: 1.0;"/><text fill="#000000" font-family="sans-serif" font-size="11" lengthAdjust="spacingAndGlyphs" textLength="52" x="381.5" y="96.6245">Destroy()</text><ellipse cx="372.5" cy="106.2188" fill="#84BE84" rx="3" ry="3" style="stroke: #038048; stroke-width: 1.0;"/><text fill="#000000" font-family="sans-serif" font-size="11" lengthAdjust="spacingAndGlyphs" textLength="126" x="381.5" y="109.4292">ConfigureTOFSensor()</text><ellipse cx="372.5" cy="119.0234" fill="#84BE84" rx="3" ry="3" style="stroke: #038048; stroke-width: 1.0;"/><text fill="#000000" font-family="sans-serif" font-size="11" lengthAdjust="spacingAndGlyphs" textLength="140" x="381.5" y="122.2339">ReConfigureTOFSensor()</text><ellipse cx="372.5" cy="131.8281" fill="#84BE84" rx="3" ry="3" style="stroke: #038048; stroke-width: 1.0;"/><text fill="#000000" font-family="sans-serif" font-size="11" lengthAdjust="spacingAndGlyphs" textLength="172" x="381.5" y="135.0386">ConvertToConfigurationFlags()</text><ellipse cx="372.5" cy="144.6328" fill="#84BE84" rx="3" ry="3" style="stroke: #038048; stroke-width: 1.0;"/><text fill="#000000" font-family="sans-serif" font-size="11" lengthAdjust="spacingAndGlyphs" textLength="327" x="381.5" y="147.8433">GetLastNSamples(TOFData* pData, INT numOfSamples)()</text><ellipse cx="372.5" cy="157.4375" fill="#84BE84" rx="3" ry="3" style="stroke: #038048; stroke-width: 1.0;"/><text fill="#000000" font-family="sans-serif" font-size="11" lengthAdjust="spacingAndGlyphs" textLength="377" x="381.5" y="160.6479">GetLastNSamples(StatsDepth16Info* pData, INT numOfSamples)()</text><ellipse cx="372.5" cy="170.2422" fill="#84BE84" rx="3" ry="3" style="stroke: #038048; stroke-width: 1.0;"/><text fill="#000000" font-family="sans-serif" font-size="11" lengthAdjust="spacingAndGlyphs" textLength="398" x="381.5" y="173.4526">GetLastNSamples(AmbientRateTOFData* pData, INT numOfSamples)()</text><ellipse cx="372.5" cy="183.0469" fill="#84BE84" rx="3" ry="3" style="stroke: #038048; stroke-width: 1.0;"/><text fill="#000000" font-family="sans-serif" font-size="11" lengthAdjust="spacingAndGlyphs" textLength="129" x="381.5" y="186.2573">GetDepthSensorType()</text><ellipse cx="372.5" cy="195.8516" fill="#84BE84" rx="3" ry="3" style="stroke: #038048; stroke-width: 1.0;"/><text fill="#000000" font-family="sans-serif" font-size="11" lengthAdjust="spacingAndGlyphs" textLength="127" x="381.5" y="199.062">TearDownTOFIntfLink()</text><ellipse cx="372.5" cy="208.6563" fill="#84BE84" rx="3" ry="3" style="stroke: #038048; stroke-width: 1.0;"/><text fill="#000000" font-family="sans-serif" font-size="11" lengthAdjust="spacingAndGlyphs" textLength="137" x="381.5" y="211.8667">virtual ~TOFSensorIntf()</text><line style="stroke: #A80036; stroke-width: 1.5;" x1="362.5" x2="557" y1="54.4023" y2="54.4023"/><text fill="#000000" font-family="sans-serif" font-size="11" lengthAdjust="spacingAndGlyphs" textLength="33" x="557" y="57.7104">public</text><line style="stroke: #A80036; stroke-width: 1.5;" x1="590" x2="784.5" y1="54.4023" y2="54.4023"/><rect fill="#F24D5C" height="6" style="stroke: #C82930; stroke-width: 1.0;" width="6" x="369.5" y="235.2656"/><text fill="#000000" font-family="sans-serif" font-size="11" lengthAdjust="spacingAndGlyphs" textLength="89" x="381.5" y="241.4761">TOFSensorIntf()</text><rect fill="#F24D5C" height="6" style="stroke: #C82930; stroke-width: 1.0;" width="6" x="369.5" y="248.0703"/><text fill="#000000" font-family="sans-serif" font-size="11" lengthAdjust="spacingAndGlyphs" textLength="53" x="381.5" y="254.2808">Initialize()</text><rect fill="#F24D5C" height="6" style="stroke: #C82930; stroke-width: 1.0;" width="6" x="369.5" y="260.875"/><text fill="#000000" font-family="sans-serif" font-size="11" lengthAdjust="spacingAndGlyphs" textLength="85" x="381.5" y="267.0854">SetupTOFLink()</text><rect fill="#F24D5C" height="6" style="stroke: #C82930; stroke-width: 1.0;" width="6" x="369.5" y="273.6797"/><text fill="#000000" font-family="sans-serif" font-size="11" lengthAdjust="spacingAndGlyphs" textLength="109" x="381.5" y="279.8901">TearDownTOFLink()</text><rect fill="#F24D5C" height="6" style="stroke: #C82930; stroke-width: 1.0;" width="6" x="369.5" y="286.4844"/><text fill="#000000" font-family="sans-serif" font-size="11" lengthAdjust="spacingAndGlyphs" textLength="115" x="381.5" y="292.6948">ActivateTOFSensor()</text><rect fill="#F24D5C" height="6" style="stroke: #C82930; stroke-width: 1.0;" width="6" x="369.5" y="299.2891"/><text fill="#000000" font-family="sans-serif" font-size="11" lengthAdjust="spacingAndGlyphs" textLength="96" x="381.5" y="305.4995">StartPollThread()</text><rect fill="#F24D5C" height="6" style="stroke: #C82930; stroke-width: 1.0;" width="6" x="369.5" y="312.0938"/><text fill="#000000" font-family="sans-serif" font-size="11" lengthAdjust="spacingAndGlyphs" textLength="94" x="381.5" y="318.3042">StopPollThread()</text><rect fill="#F24D5C" height="6" style="stroke: #C82930; stroke-width: 1.0;" width="6" x="369.5" y="324.8984"/><text fill="#000000" font-family="sans-serif" font-size="11" lengthAdjust="spacingAndGlyphs" textLength="90" x="381.5" y="331.1089">TOFPollThread()</text><rect fill="#F24D5C" height="6" style="stroke: #C82930; stroke-width: 1.0;" width="6" x="369.5" y="337.7031"/><text fill="#000000" font-family="sans-serif" font-size="11" lengthAdjust="spacingAndGlyphs" textLength="124" x="381.5" y="343.9136">GetSensorCapability()</text><rect fill="#F24D5C" height="6" style="stroke: #C82930; stroke-width: 1.0;" width="6" x="369.5" y="350.5078"/><text fill="#000000" font-family="sans-serif" font-size="11" lengthAdjust="spacingAndGlyphs" textLength="112" x="381.5" y="356.7183">FillTOFSensorData()</text><rect fill="#F24D5C" height="6" style="stroke: #C82930; stroke-width: 1.0;" width="6" x="369.5" y="363.3125"/><text fill="#000000" font-family="sans-serif" font-size="11" lengthAdjust="spacingAndGlyphs" textLength="152" x="381.5" y="369.5229">ParseSinglePointTOFData()</text><rect fill="#F24D5C" height="6" style="stroke: #C82930; stroke-width: 1.0;" width="6" x="369.5" y="376.1172"/><text fill="#000000" font-family="sans-serif" font-size="11" lengthAdjust="spacingAndGlyphs" textLength="143" x="381.5" y="382.3276">ParseMultiPointTOFData()</text><rect fill="#F24D5C" height="6" style="stroke: #C82930; stroke-width: 1.0;" width="6" x="369.5" y="388.9219"/><text fill="#000000" font-family="sans-serif" font-size="11" lengthAdjust="spacingAndGlyphs" textLength="232" x="381.5" y="395.1323">AllocateMemoryForMultiPointTOFSensor()</text><rect fill="#F24D5C" height="6" style="stroke: #C82930; stroke-width: 1.0;" width="6" x="369.5" y="401.7266"/><text fill="#000000" font-family="sans-serif" font-size="11" lengthAdjust="spacingAndGlyphs" textLength="247" x="381.5" y="407.937">DeAllocateMemoryForMultiPointTOFSensor()</text><rect fill="#F24D5C" height="6" style="stroke: #C82930; stroke-width: 1.0;" width="6" x="369.5" y="414.5313"/><text fill="#000000" font-family="sans-serif" font-size="11" lengthAdjust="spacingAndGlyphs" textLength="184" x="381.5" y="420.7417">DumpMultiPointTOFSensorData()</text><line style="stroke: #A80036; stroke-width: 1.5;" x1="362.5" x2="554" y1="224.8633" y2="224.8633"/><text fill="#000000" font-family="sans-serif" font-size="11" lengthAdjust="spacingAndGlyphs" textLength="39" x="554" y="228.1714">private</text><line style="stroke: #A80036; stroke-width: 1.5;" x1="593" x2="784.5" y1="224.8633" y2="224.8633"/><!--MD5=[4eaa0de53add572599ae9b83cb3f09f3]
class NEW_TOFSensorIntf--><rect fill="#FEFECE" filter="url(#fqt0a12kcrj33)" height="118.4258" id="NEW_TOFSensorIntf" style="stroke: #A80036; stroke-width: 1.5;" width="153" x="268" y="676"/><ellipse cx="283" cy="692" fill="#ADD1B2" rx="11" ry="11" style="stroke: #A80036; stroke-width: 1.0;"/><path d="M285.9688,697.6406 Q285.3906,697.9375 284.75,698.0781 Q284.1094,698.2344 283.4063,698.2344 Q280.9063,698.2344 279.5781,696.5938 Q278.2656,694.9375 278.2656,691.8125 Q278.2656,688.6875 279.5781,687.0313 Q280.9063,685.375 283.4063,685.375 Q284.1094,685.375 284.75,685.5313 Q285.4063,685.6875 285.9688,685.9844 L285.9688,688.7031 Q285.3438,688.125 284.75,687.8594 Q284.1563,687.5781 283.5313,687.5781 Q282.1875,687.5781 281.5,688.6563 Q280.8125,689.7188 280.8125,691.8125 Q280.8125,693.9063 281.5,694.9844 Q282.1875,696.0469 283.5313,696.0469 Q284.1563,696.0469 284.75,695.7813 Q285.3438,695.5 285.9688,694.9219 L285.9688,697.6406 Z "/><text fill="#000000" font-family="sans-serif" font-size="12" lengthAdjust="spacingAndGlyphs" textLength="121" x="297" y="696.1543">NEW_TOFSensorIntf</text><line style="stroke: #A80036; stroke-width: 1.5;" x1="269" x2="420" y1="708" y2="708"/><ellipse cx="279" cy="735.8047" fill="#84BE84" rx="3" ry="3" style="stroke: #038048; stroke-width: 1.0;"/><text fill="#000000" font-family="sans-serif" font-size="11" lengthAdjust="spacingAndGlyphs" textLength="76" x="288" y="739.0151">GetInstance()</text><line style="stroke: #A80036; stroke-width: 1.5;" x1="269" x2="328" y1="722.4023" y2="722.4023"/><text fill="#000000" font-family="sans-serif" font-size="11" lengthAdjust="spacingAndGlyphs" textLength="33" x="328" y="725.7104">public</text><line style="stroke: #A80036; stroke-width: 1.5;" x1="361" x2="420" y1="722.4023" y2="722.4023"/><line style="stroke: #A80036; stroke-width: 1.0; stroke-dasharray: 1.0,2.0;" x1="269" x2="340.5" y1="752.0117" y2="752.0117"/><text fill="#000000" font-family="sans-serif" font-size="11" lengthAdjust="spacingAndGlyphs" textLength="8" x="340.5" y="755.3198">..</text><line style="stroke: #A80036; stroke-width: 1.0; stroke-dasharray: 1.0,2.0;" x1="348.5" x2="420" y1="752.0117" y2="752.0117"/><rect fill="#F24D5C" height="6" style="stroke: #C82930; stroke-width: 1.0;" width="6" x="276" y="781.6211"/><text fill="#000000" font-family="sans-serif" font-size="11" lengthAdjust="spacingAndGlyphs" textLength="53" x="288" y="787.8315">Initialize()</text><line style="stroke: #A80036; stroke-width: 1.5;" x1="269" x2="325" y1="771.2188" y2="771.2188"/><text fill="#000000" font-family="sans-serif" font-size="11" lengthAdjust="spacingAndGlyphs" textLength="39" x="325" y="774.5269">private</text><line style="stroke: #A80036; stroke-width: 1.5;" x1="364" x2="420" y1="771.2188" y2="771.2188"/><!--MD5=[e15f3f539d7f6e2058da6f7d0abf869f]
reverse link INCSIntfBase to NCSIntfSS--><path d="M190.5015,406.935 C184.8857,432.883 179.0526,459.835 173.2517,486.6382 " fill="none" id="INCSIntfBase&lt;-NCSIntfSS" style="stroke: #A80036; stroke-width: 1.0;"/><polygon fill="none" points="183.6772,405.3739,194.7495,387.3071,197.3604,408.3353,183.6772,405.3739" style="stroke: #A80036; stroke-width: 1.0;"/><!--MD5=[1eb919c92091a9d37ebe20dc21d6c626]
reverse link INCSIntfBase to NEW_TOFSensorIntf--><path d="M272.8867,407.0365 C293.6236,502.0043 317.2923,610.3981 331.5546,675.7145 " fill="none" id="INCSIntfBase&lt;-NEW_TOFSensorIntf" style="stroke: #A80036; stroke-width: 1.0;"/><polygon fill="none" points="266.0065,408.3401,268.5787,387.3071,279.6842,405.3534,266.0065,408.3401" style="stroke: #A80036; stroke-width: 1.0;"/><!--MD5=[ba091b4c6d44065f5ae5cdc42e8eccb8]
@startuml

class INCSIntfBase{
__ public __
    + INCSIntfBase()
    + virtual ~INCSIntfBase()
    + virtual ListSensors()
    + virtual QueryCapabilites()
    + virtual GetDataSync()
    + virtual GetDataAsync()
    + virtual GetLastNSamples()
    + virtual FillCap()
    + virtual GetCaps()
    + virtual GetConfig()
    + virtual ReConfigure()
    + virtual RegisterProvider()
    + virtual UnregisterProvider()
    + virtual Flush()
    + virtual RegisterService()
    + virtual UnregisterService()
    + virtual CreateDeferConn()
    + virtual StopConnection()
    + virtual EnqueueAccessor()
    + virtual ResetTimeoutConn()
    + virtual ResetConnection()
    + virtual TriggerDataAvailable()
}

class NCSIntfSS{
__ public __
+ListSensors()
+GetInstance()
+virtual ~NCSIntfSS()
+QueryCapabilites()
+GetDataSync()
+GetLastNSamples()
+RegisterProvider()
+UnregisterProvider()
+Flush()
+RegisterService()
+UnregisterService()
+CreateDeferConn()
+StopConnection()
+FillCap()
+GetCaps()
+GetConfig()
+ReConfigure()
+EnqueueAccessor()
+GetDataAsync()
+ResetTimeoutConn()
+ResetConnection()
+TriggerDataAvailable()
__ private __
-Initialize()
-GetAccessorObject()
-PutAccessorObject()
-NCSIntfSS()
-ProbeSensor()
-FreeNCSSensorDataMemory()
-StartSpectralSensorPollingThread()
-StopSpectralSensorPollingThread()
-ConfigureSpectralSensor()
-PollSensor()
-FillSpectralSensorData()
}

class OLD_TOFSensorIntf{
__ public __
+GetInstance()
+GetTOFSensorHandle()
+Destroy()
+ConfigureTOFSensor()
+ReConfigureTOFSensor()
+ConvertToConfigurationFlags()
+GetLastNSamples(TOFData* pData, INT numOfSamples)()
+GetLastNSamples(StatsDepth16Info* pData, INT numOfSamples)()
+GetLastNSamples(AmbientRateTOFData* pData, INT numOfSamples)()
+GetDepthSensorType()
+TearDownTOFIntfLink()
+virtual ~TOFSensorIntf()
__ private __
-TOFSensorIntf()
-Initialize()
-SetupTOFLink()
-TearDownTOFLink()
-ActivateTOFSensor()
-StartPollThread()
-StopPollThread()
-TOFPollThread()
-GetSensorCapability()
-FillTOFSensorData()
-ParseSinglePointTOFData()
-ParseMultiPointTOFData()
-AllocateMemoryForMultiPointTOFSensor()
-DeAllocateMemoryForMultiPointTOFSensor()
-DumpMultiPointTOFSensorData()
}

class NEW_TOFSensorIntf{
__ public __
+GetInstance()
......
__ private __
-Initialize()
}

INCSIntfBase <|- - NCSIntfSS
INCSIntfBase <|- - NEW_TOFSensorIntf

@enduml

PlantUML version 1.2020.00(Sat Jan 11 12:30:53 GMT 2020)
(GPL source distribution)
Java Runtime: OpenJDK Runtime Environment
JVM: OpenJDK 64-Bit Server VM
Java Version: 11.0.6+10-post-Ubuntu-1ubuntu118.04.1
Operating System: Linux
Default Encoding: ANSI_X3.4-1968
Language: en
Country: US
--></g></svg>