<?xml version="1.0" encoding="UTF-8" standalone="no"?>
<!DOCTYPE svg PUBLIC "-//W3C//DTD SVG 1.1//EN"
 "http://www.w3.org/Graphics/SVG/1.1/DTD/svg11.dtd">
<!-- Generated by graphviz version 2.38.0 (20140413.2041)
 -->
<!-- Title: g Pages: 1 -->
<svg width="2216pt" height="1090pt"
 viewBox="0.00 0.00 2216.00 1090.00" xmlns="http://www.w3.org/2000/svg" xmlns:xlink="http://www.w3.org/1999/xlink">
<g id="graph0" class="graph" transform="scale(1 1) rotate(0) translate(4 1086)">
<title>g</title>
<polygon fill="white" stroke="none" points="-4,4 -4,-1086 2212,-1086 2212,4 -4,4"/>
<!-- node0 -->
<g id="node1" class="node"><title>node0</title>
<polygon fill="none" stroke="black" points="0,-828.5 0,-1081.5 165,-1081.5 165,-828.5 0,-828.5"/>
<text text-anchor="middle" x="82.5" y="-1066.3" font-family="Times,serif" font-size="14.00">kona_usecase.xml</text>
<polyline fill="none" stroke="black" points="0,-1058.5 165,-1058.5 "/>
<text text-anchor="start" x="8" y="-1043.3" font-family="Times,serif" font-size="14.00">UsecaseDualCamera</text>
<polyline fill="none" stroke="black" points="0,-1035.5 165,-1035.5 "/>
<text text-anchor="start" x="8" y="-1020.3" font-family="Times,serif" font-size="14.00">UsecaseTorch</text>
<polyline fill="none" stroke="black" points="0,-1012.5 165,-1012.5 "/>
<text text-anchor="start" x="8" y="-997.3" font-family="Times,serif" font-size="14.00">UsecaseRaw8</text>
<polyline fill="none" stroke="black" points="0,-989.5 165,-989.5 "/>
<text text-anchor="start" x="8" y="-974.3" font-family="Times,serif" font-size="14.00">UsecaseRaw</text>
<polyline fill="none" stroke="black" points="0,-966.5 165,-966.5 "/>
<text text-anchor="start" x="8" y="-951.3" font-family="Times,serif" font-size="14.00">UsecasePreview</text>
<polyline fill="none" stroke="black" points="0,-943.5 165,-943.5 "/>
<text text-anchor="start" x="8" y="-928.3" font-family="Times,serif" font-size="14.00">UsecaseVideo</text>
<polyline fill="none" stroke="black" points="0,-920.5 165,-920.5 "/>
<text text-anchor="start" x="8" y="-905.3" font-family="Times,serif" font-size="14.00">UsecaseQuadCFA</text>
<polyline fill="none" stroke="black" points="0,-897.5 165,-897.5 "/>
<text text-anchor="start" x="8" y="-882.3" font-family="Times,serif" font-size="14.00">UsecaseRTB</text>
<polyline fill="none" stroke="black" points="0,-874.5 165,-874.5 "/>
<text text-anchor="start" x="8" y="-859.3" font-family="Times,serif" font-size="14.00">UsecaseSAT</text>
<polyline fill="none" stroke="black" points="0,-851.5 165,-851.5 "/>
<text text-anchor="start" x="8" y="-836.3" font-family="Times,serif" font-size="14.00">UsecaseZSL</text>
</g>
<!-- node1 -->
<g id="node2" class="node"><title>node1</title>
<polygon fill="none" stroke="black" points="201,-0.5 201,-851.5 749,-851.5 749,-0.5 201,-0.5"/>
<text text-anchor="middle" x="475" y="-836.3" font-family="Times,serif" font-size="14.00">../usecase&#45;components/usecases/UsecaseZSL/camxUsecaseZSL.xml</text>
<polyline fill="none" stroke="black" points="201,-828.5 749,-828.5 "/>
<text text-anchor="start" x="209" y="-813.3" font-family="Times,serif" font-size="14.00">TARGET 0_0_5488_4112_ChiFormatYUV420NV12_ChiFormatUBWCTP10</text>
<polyline fill="none" stroke="black" points="201,-805.5 749,-805.5 "/>
<text text-anchor="start" x="209" y="-790.3" font-family="Times,serif" font-size="14.00">../../pipelines/g_camxZSLPreviewRaw.xml</text>
<polyline fill="none" stroke="black" points="201,-782.5 749,-782.5 "/>
<text text-anchor="start" x="209" y="-767.3" font-family="Times,serif" font-size="14.00">../../pipelines/g_camxRealTimeFeatureZSLPreviewRaw.xml</text>
<polyline fill="none" stroke="black" points="201,-759.5 749,-759.5 "/>
<text text-anchor="start" x="209" y="-744.3" font-family="Times,serif" font-size="14.00">../../pipelines/g_camxZSLPreviewRawFS.xml</text>
<polyline fill="none" stroke="black" points="201,-736.5 749,-736.5 "/>
<text text-anchor="start" x="209" y="-721.3" font-family="Times,serif" font-size="14.00">../../pipelines/g_camxZSLPreviewRawYUV.xml</text>
<polyline fill="none" stroke="black" points="201,-713.5 749,-713.5 "/>
<text text-anchor="start" x="209" y="-698.3" font-family="Times,serif" font-size="14.00">../../pipelines/g_camxRealTimeFeatureZSLPreviewRawYUV.xml</text>
<polyline fill="none" stroke="black" points="201,-690.5 749,-690.5 "/>
<text text-anchor="start" x="209" y="-675.3" font-family="Times,serif" font-size="14.00">../../pipelines/g_camxZSLSnapshotJpeg.xml </text>
<polyline fill="none" stroke="black" points="201,-667.5 749,-667.5 "/>
<text text-anchor="start" x="209" y="-652.3" font-family="Times,serif" font-size="14.00">../../pipelines/g_camxZSLSnapshotYUVHAL.xml </text>
<polyline fill="none" stroke="black" points="201,-644.5 749,-644.5 "/>
<text text-anchor="start" x="209" y="-629.3" font-family="Times,serif" font-size="14.00">../../pipelines/g_camxZSLSnapshotYUV.xml </text>
<polyline fill="none" stroke="black" points="201,-621.5 749,-621.5 "/>
<text text-anchor="start" x="209" y="-606.3" font-family="Times,serif" font-size="14.00">../../pipelines/g_camxZSLSnapshotYUVAux.xml </text>
<polyline fill="none" stroke="black" points="201,-598.5 749,-598.5 "/>
<text text-anchor="start" x="209" y="-583.3" font-family="Times,serif" font-size="14.00">../../pipelines/g_camxInternalZSLYuv2Jpeg.xml </text>
<polyline fill="none" stroke="black" points="201,-575.5 749,-575.5 "/>
<text text-anchor="start" x="209" y="-560.3" font-family="Times,serif" font-size="14.00">../../pipelines/g_camxInternalZSLYuv2JpegMFNR.xml </text>
<polyline fill="none" stroke="black" points="201,-552.5 749,-552.5 "/>
<text text-anchor="start" x="209" y="-537.3" font-family="Times,serif" font-size="14.00">../../pipelines/g_camxInternalZSLYuv2JpegMFNRAux.xml</text>
<polyline fill="none" stroke="black" points="201,-529.5 749,-529.5 "/>
<text text-anchor="start" x="209" y="-514.3" font-family="Times,serif" font-size="14.00">../../pipelines/g_camxInternalZSLYuv2JpegMFSR.xml </text>
<polyline fill="none" stroke="black" points="201,-506.5 749,-506.5 "/>
<text text-anchor="start" x="209" y="-491.3" font-family="Times,serif" font-size="14.00">../../pipelines/g_camxInternalZSLYuv2JpegMFSRAux.xml</text>
<polyline fill="none" stroke="black" points="201,-483.5 749,-483.5 "/>
<text text-anchor="start" x="209" y="-468.3" font-family="Times,serif" font-size="14.00">../../pipelines/g_camxMerge3YuvCustomTo1Yuv.xml </text>
<polyline fill="none" stroke="black" points="201,-460.5 749,-460.5 "/>
<text text-anchor="start" x="209" y="-445.3" font-family="Times,serif" font-size="14.00">../../pipelines/g_camxSWMFMergeYuv.xml </text>
<polyline fill="none" stroke="black" points="201,-437.5 749,-437.5 "/>
<text text-anchor="start" x="209" y="-422.3" font-family="Times,serif" font-size="14.00">../../pipelines/g_camxMfnrPrefilter.xml </text>
<polyline fill="none" stroke="black" points="201,-414.5 749,-414.5 "/>
<text text-anchor="start" x="209" y="-399.3" font-family="Times,serif" font-size="14.00">../../pipelines/g_camxMfnrPrefilterAux.xml </text>
<polyline fill="none" stroke="black" points="201,-391.5 749,-391.5 "/>
<text text-anchor="start" x="209" y="-376.3" font-family="Times,serif" font-size="14.00">../../pipelines/g_camxMfnrBlend.xml </text>
<polyline fill="none" stroke="black" points="201,-368.5 749,-368.5 "/>
<text text-anchor="start" x="209" y="-353.3" font-family="Times,serif" font-size="14.00">../../pipelines/g_camxMfnrBlendAux.xml </text>
<polyline fill="none" stroke="black" points="201,-345.5 749,-345.5 "/>
<text text-anchor="start" x="209" y="-330.3" font-family="Times,serif" font-size="14.00">../../pipelines/g_camxMfnrPostFilter.xml </text>
<polyline fill="none" stroke="black" points="201,-322.5 749,-322.5 "/>
<text text-anchor="start" x="209" y="-307.3" font-family="Times,serif" font-size="14.00">../../pipelines/g_camxMfnrPostFilterAux.xml </text>
<polyline fill="none" stroke="black" points="201,-299.5 749,-299.5 "/>
<text text-anchor="start" x="209" y="-284.3" font-family="Times,serif" font-size="14.00">../../pipelines/g_camxMfsrPrefilter.xml </text>
<polyline fill="none" stroke="black" points="201,-276.5 749,-276.5 "/>
<text text-anchor="start" x="209" y="-261.3" font-family="Times,serif" font-size="14.00">../../pipelines/g_camxMfsrPrefilterAux.xml </text>
<polyline fill="none" stroke="black" points="201,-253.5 749,-253.5 "/>
<text text-anchor="start" x="209" y="-238.3" font-family="Times,serif" font-size="14.00">../../pipelines/g_camxMfsrBlend.xml </text>
<polyline fill="none" stroke="black" points="201,-230.5 749,-230.5 "/>
<text text-anchor="start" x="209" y="-215.3" font-family="Times,serif" font-size="14.00">../../pipelines/g_camxMfsrBlendAux.xml </text>
<polyline fill="none" stroke="black" points="201,-207.5 749,-207.5 "/>
<text text-anchor="start" x="209" y="-192.3" font-family="Times,serif" font-size="14.00">../../pipelines/g_camxMfsrPostFilter.xml </text>
<polyline fill="none" stroke="black" points="201,-184.5 749,-184.5 "/>
<text text-anchor="start" x="209" y="-169.3" font-family="Times,serif" font-size="14.00">../../pipelines/g_camxMfsrPostFilterAux.xml </text>
<polyline fill="none" stroke="black" points="201,-161.5 749,-161.5 "/>
<text text-anchor="start" x="209" y="-146.3" font-family="Times,serif" font-size="14.00">../../pipelines/g_camxOfflineNoiseReprocess.xml </text>
<polyline fill="none" stroke="black" points="201,-138.5 749,-138.5 "/>
<text text-anchor="start" x="209" y="-123.3" font-family="Times,serif" font-size="14.00">../../pipelines/g_camxOfflineNoiseReprocessAux.xml </text>
<polyline fill="none" stroke="black" points="201,-115.5 749,-115.5 "/>
<text text-anchor="start" x="209" y="-100.3" font-family="Times,serif" font-size="14.00">../../pipelines/g_camxZSLYuv2Yuv.xml </text>
<polyline fill="none" stroke="black" points="201,-92.5 749,-92.5 "/>
<text text-anchor="start" x="209" y="-77.3" font-family="Times,serif" font-size="14.00">../../pipelines/g_camxZSLSnapshotJpegGPU.xml </text>
<polyline fill="none" stroke="black" points="201,-69.5 749,-69.5 "/>
<text text-anchor="start" x="209" y="-54.3" font-family="Times,serif" font-size="14.00">../../pipelines/g_camxQuadCFAFullSizeRaw.xml </text>
<polyline fill="none" stroke="black" points="201,-46.5 749,-46.5 "/>
<text text-anchor="start" x="209" y="-31.3" font-family="Times,serif" font-size="14.00">../../pipelines/g_camxQuadCFARemosaic.xml </text>
<polyline fill="none" stroke="black" points="201,-23.5 749,-23.5 "/>
<text text-anchor="start" x="209" y="-8.3" font-family="Times,serif" font-size="14.00">../../pipelines/g_camxQuadCFASnapshotYuv.xml </text>
</g>
<!-- node0&#45;&gt;node1 -->
<g id="0" class="edge"><title>node0:f10&#45;&gt;node1:f0</title>
<path fill="none" stroke="black" d="M165,-840C177,-840 182.25,-840 190.875,-840"/>
<polygon fill="black" stroke="black" points="191,-843.5 201,-840 191,-836.5 191,-843.5"/>
</g>
<!-- node2 -->
<g id="node3" class="node"><title>node2</title>
<polygon fill="none" stroke="black" points="849.5,-769.5 849.5,-884.5 1151.5,-884.5 1151.5,-769.5 849.5,-769.5"/>
<text text-anchor="middle" x="1000.5" y="-869.3" font-family="Times,serif" font-size="14.00">common_target_buffers.xml </text>
<polyline fill="none" stroke="black" points="849.5,-861.5 1151.5,-861.5 "/>
<text text-anchor="start" x="857.5" y="-846.3" font-family="Times,serif" font-size="14.00">TargetFormat ChiFormatYUV420NV12 </text>
<polyline fill="none" stroke="black" points="849.5,-838.5 1151.5,-838.5 "/>
<text text-anchor="start" x="857.5" y="-823.3" font-family="Times,serif" font-size="14.00">TargetFormat ChiFormatUBWCTP10 </text>
<polyline fill="none" stroke="black" points="849.5,-815.5 1151.5,-815.5 "/>
<text text-anchor="start" x="857.5" y="-800.3" font-family="Times,serif" font-size="14.00">Width: 5488</text>
<polyline fill="none" stroke="black" points="849.5,-792.5 1151.5,-792.5 "/>
<text text-anchor="start" x="857.5" y="-777.3" font-family="Times,serif" font-size="14.00">Height 4112 </text>
</g>
<!-- node1&#45;&gt;node2 -->
<g id="1" class="edge"><title>node1:f1&#45;&gt;node2:f0</title>
<path fill="none" stroke="black" d="M749,-817C796.078,-817 797.767,-865.199 838.285,-872.165"/>
<polygon fill="black" stroke="black" points="838.248,-875.673 848.5,-873 838.818,-868.697 838.248,-875.673"/>
</g>
<!-- node3 -->
<g id="node4" class="node"><title>node3</title>
<polygon fill="none" stroke="black" points="785,-612 785,-750 1216,-750 1216,-612 785,-612"/>
<text text-anchor="middle" x="1000.5" y="-734.8" font-family="Times,serif" font-size="14.00">usecases/UsecaseZSL/pipelines/camxZSLPreviewRaw.xml</text>
<polyline fill="none" stroke="black" points="785,-727 1216,-727 "/>
<text text-anchor="start" x="793" y="-711.8" font-family="Times,serif" font-size="14.00">CamxInclude segment=RealTimeSegmentZSL </text>
<polyline fill="none" stroke="black" points="785,-704 1216,-704 "/>
<text text-anchor="start" x="793" y="-688.8" font-family="Times,serif" font-size="14.00">CamxInclude segment=FDSegment </text>
<polyline fill="none" stroke="black" points="785,-681 1216,-681 "/>
<text text-anchor="start" x="793" y="-665.8" font-family="Times,serif" font-size="14.00">CamxInclude segment=MCTFSegment </text>
<polyline fill="none" stroke="black" points="785,-658 1216,-658 "/>
<text text-anchor="start" x="793" y="-642.8" font-family="Times,serif" font-size="14.00">CamxInclude segment=PreviewRaw_linkages </text>
<polyline fill="none" stroke="black" points="785,-635 1216,-635 "/>
<text text-anchor="start" x="793" y="-619.8" font-family="Times,serif" font-size="14.00">NodesList </text>
</g>
<!-- node1&#45;&gt;node3 -->
<g id="2" class="edge"><title>node1:f2&#45;&gt;node3:f0</title>
<path fill="none" stroke="black" d="M749,-794C773.879,-794 761.306,-754.116 775.066,-742.276"/>
<polygon fill="black" stroke="black" points="776.599,-745.456 785,-739 774.407,-738.808 776.599,-745.456"/>
</g>
<!-- node4 -->
<g id="node5" class="node"><title>node4</title>
<polygon fill="none" stroke="black" points="1252,-658.5 1252,-727.5 2208,-727.5 2208,-658.5 1252,-658.5"/>
<text text-anchor="middle" x="1730" y="-712.3" font-family="Times,serif" font-size="14.00">RealTimeSegmentZSL.xml </text>
<polyline fill="none" stroke="black" points="1252,-704.5 2208,-704.5 "/>
<text text-anchor="start" x="1260" y="-689.3" font-family="Times,serif" font-size="14.00">Node: sensor StatsProcessing AWB AF StatsParse IFE TRACKERNode: sensor StatsProcessing AWB AF StatsParse IFE TRACKER</text>
<polyline fill="none" stroke="black" points="1252,-681.5 2208,-681.5 "/>
<text text-anchor="start" x="1260" y="-666.3" font-family="Times,serif" font-size="14.00">Link: SensorOutputPort0 &#45;&#45;&gt;IFEInputPortSensor </text>
</g>
<!-- node3&#45;&gt;node4 -->
<g id="3" class="edge"><title>node3:f1&#45;&gt;node4:f0</title>
<path fill="none" stroke="black" d="M1216,-716C1228,-716 1233.25,-716 1241.88,-716"/>
<polygon fill="black" stroke="black" points="1242,-719.5 1252,-716 1242,-712.5 1242,-719.5"/>
</g>
</g>
</svg>
